<svg height="1590" viewBox="0 0 3411 1590" width="3411" xmlns="http://www.w3.org/2000/svg"><g fill="none" fill-rule="evenodd"><path d="m1175 391.946118c346.63505-126.558289 685.30172-126.594813 1016-.109574-108.00719 82.647545-184.19337 159.482509-228.55853 230.504893-247.44147-60.344696-363.44147-64.345887-575.04273 2.658563-60.82787-119.460215-131.62745-197.144843-212.39874-233.053882z" fill="#cc0251"/><path d="m1171.21932 399.287705-19.21932-8.549218 19.75713-7.217445c348.56101-127.332287 689.36267-127.369062 1022.01861-.064257l14.22426 5.443511-12.09539 9.260594c-107.27164 82.130373-182.78108 158.325216-226.52971 228.399597l-3.25488 5.213501-5.96756-1.456144c-132.56042-32.346113-218.44982-46.056944-298.98463-46.213503-83.15273-.161647-163.3853 14.459489-271.51767 48.719124l-6.86972 2.176535-3.27038-6.426295c-60.02046-117.940137-129.52939-194.251046-208.29074-229.286zm220.15013 215.157684c106.26331-33.213482 186.52398-47.518629 269.8314-47.356681 80.92718.157321 166.63823 13.650193 297.05105 45.256188 43.65793-67.876332 115.40045-140.611478 215.22642-218.35831-318.24038-118.194501-643.7762-118.63327-976.95722-1.274659 73.68131 39.164095 138.57196 113.16325 194.84835 221.733462z" fill="#1e0238" fill-rule="nonzero"/><path d="m1376.69768 628.882785c-174.4202 60.509829-514.69768-263.839956-676.69768-83.846412-108 119.995695-333.666667 457.983567-677 1013.963627 202.563505-99.99641 345.053934-149.99462 427.471289-149.99462 184.547162 0 327.056732 149.99462 427.528711 149.99462 155.16887 0 297.66543-149.99462 427.48969-149.99462 162.31153 0 304.81496 149.99462 427.51031 149.99462 120.04054 0 259.46057-149.99462 418.26009-149.99462 127.01519 0 266.4285 149.99462 418.23991 149.99462 98.29802 0 237.72405-149.99462 418.27809-149.99462 80.63405 0 209.04136 49.99821 385.22191 149.99462-85-98.99645-646.75795-909.480241-718-1014.963592-89.25728-132.467463-403 114.995875-642.85596 84.846377-173.14404-21.848636-322.14404-108.845516-635.44636 0z" fill="#591794"/><path d="m1245.72437 614.426382c-22.74087-6.36714-47.49233-14.926773-76.67237-26.280782-21.49542-8.363912-32.76397-13.014658-81.06828-33.223589-16.00598-6.696375-26.65565-11.118426-37.5222-15.558042-39.0824-15.967434-69.664017-27.397902-98.757363-36.489915-35.137813-10.980979-66.458182-17.907909-95.33681-20.60774-67.682318-6.327546-121.717869 10.831486-162.896508 56.585433-108.482654 120.536032-334.2697 458.715632-677.9117223 1015.214373l-15.5591167 25.19665 26.553999-13.10895c201.430536-99.44048 343.010698-149.12096 423.707032-149.12096 42.021966 0 83.952964 7.90552 127.763039 22.97514 35.323954 12.15061 69.519506 27.86349 113.569978 51.04635 11.46443 6.03349 48.930935 26.18633 51.432899 27.51905 19.661076 10.47284 34.204682 17.8686 47.954225 24.2346 34.895029 16.1563 62.182367 24.22399 86.806983 24.22399 37.210078 0 75.28936-8.22018 117.0052-23.98627 32.034125-12.10699 60.854175-26.01843 110.201945-51.99152-1.55638.81916 20.55606-10.83855 26.55535-13.98174 9.99369-5.23598 18.26997-9.51013 26.15727-13.49047 19.23346-9.7062 35.60931-17.36875 51.06989-23.75574 36.61802-15.12745 67.68892-22.79339 96.49845-22.79339 36.66898 0 74.20443 7.82685 115.0761 22.91159 32.22771 11.89446 62.40995 26.2865 109.57552 51.10983 5.29062 2.78446 23.44061 12.38291 26.48165 13.98627 10.34531 5.45445 18.38032 9.64381 26.11839 13.59929 19.51288 9.97443 35.79871 17.74542 51.20244 24.27983 37.61472 15.95651 69.34258 24.11232 99.05462 24.11232 29.12539 0 60.208-8.16665 97.04506-24.13887 15.07733-6.5374 31.01613-14.311 50.11191-24.2881 7.57174-3.95605 15.43375-8.14587 25.55606-13.60078 2.97546-1.60347 20.73262-11.20186 25.9085-13.98618 46.13533-24.81812 75.65608-39.20605 107.17159-51.0949 39.95319-15.07187 76.63697-22.8903 112.46542-22.8903 28.13184 0 58.48932 7.65558 94.27923 22.76791 15.1187 6.38389 31.13439 14.04364 49.9462 23.74701 7.71534 3.97967 15.81146 8.25326 25.58788 13.48867 5.86916 3.14302 27.50279 14.80055 25.98035 13.98153 48.28931 25.97808 76.49311 39.89315 107.84826 52.00561 40.84768 15.77941 78.14297 24.0084 114.59644 24.0084 24.15507 0 50.89266-8.07999 85.07063-24.25426 13.45738-6.36853 27.69002-13.76622 46.9295-24.24113 2.4487-1.3332 39.10374-21.48561 50.31893-27.51847 43.08621-23.17687 76.53052-38.88443 111.07321-51.02907 42.82905-15.058 83.8148-22.9562 124.88426-22.9562 78.73024 0 206.05221 49.57729 381.02467 148.89137l42.41692 24.07577-31.77205-37.00501c-37.4773-43.64994-171.75405-230.68131-363.64689-504.40661-140.28027-200.102607-309.5559-444.3621-353.7555-509.807705-26.23462-38.936348-70.46708-49.831452-134.80846-39.162984-26.30391 4.361461-56.0118 12.217467-93.06871 24.148557-14.95803 4.815988-30.86317 10.202686-50.92522 17.194089-9.89314 3.447649-45.80915 16.089347-53.04542 18.61883-56.2047 19.646709-94.27145 31.853323-132.93604 41.891628-71.02174 18.439038-130.8629 25.168681-184.0536 18.482473-20.21232-2.550633-41.05238-6.103859-65.13895-10.956478-16.38079-3.300169-18.26498-3.710109-62.16828-13.391451-44.80186-9.879487-71.2631-15.180437-101.4667-19.82644-39.09276-6.013361-76.24663-9.243914-114.46603-9.486042-90.66668-.574393-186.23296 15.910296-296.05371 54.06482-33.08972 11.479865-74.69168 8.985942-127.97007-5.931295zm1741.83404 785.606578c-43.12609 0-85.98126 8.25844-130.52283 23.91854-35.52764 12.49093-69.69257 28.53694-113.48801 52.09532-11.29747 6.07712-48.00694 26.25946-50.39446 27.55934-18.98182 10.33463-32.96239 17.60131-46.07244 23.80546-32.10421 15.1929-56.68288 22.62047-77.79879 22.62047-34.14084 0-69.43816-7.78815-108.47056-22.86632-30.50658-11.78465-58.22334-25.45943-105.9202-51.11879 1.54064.82881-20.11677-10.84153-26.00886-13.99683-9.84736-5.27341-18.01666-9.58563-25.82018-13.61078-19.16786-9.88702-35.5568-17.72529-51.12643-24.29959-37.70746-15.92202-70.16355-24.10682-100.89213-24.10682-38.07266 0-76.72343 8.23766-118.4657 23.98443-32.39984 12.22245-62.47186 26.87906-109.22496 52.02951-5.19443 2.7943-22.9592 12.3968-25.91961 13.99217-10.06385 5.4234-17.86701 9.58185-25.36364 13.49866-18.76197 9.80269-34.35355 17.40695-49.00227 23.75851-34.88685 15.12662-63.84788 22.73585-90.28236 22.73585-27.07659 0-56.72028-7.62007-92.41572-22.7624-14.97974-6.35455-30.92161-13.96142-50.10374-23.76677-7.66355-3.91739-15.64016-8.0763-25.92744-13.50016-3.02612-1.59549-21.18366-11.19793-26.49269-13.99208-47.77719-25.14523-78.50568-39.79774-111.60686-52.01458-42.63057-15.7339-82.09576-23.96314-120.96227-23.96314-31.35265 0-64.48451 8.17443-102.98932 24.08134-15.90646 6.57119-32.65191 14.40668-52.23806 24.29086-7.97476 4.02448-16.32365 8.33613-26.38773 13.60898-6.02206 3.15513-28.1581 14.82529-26.58366 13.99661-48.76121 25.66437-77.09847 39.34277-108.294195 51.13289-39.930863 15.09148-76.049651 22.88845-110.99514 22.88845-21.64758 0-46.811415-7.43986-79.664463-22.65073-13.405449-6.20669-27.699014-13.47529-47.104527-23.812-2.44122-1.30036-39.961756-21.48227-51.507873-27.55875-44.752647-23.5524-79.661582-39.59309-115.957622-52.07806-45.492842-15.64846-89.256978-23.89959-133.292639-23.89959-80.445883 0-215.067041 45.99993-404.7667694 137.9303 334.3412634-540.620387 554.7207734-870.081914 660.6125314-987.739178 37.277701-41.419582 85.999998-56.891386 148.678145-51.031675 51.086852 4.776054 106.412328 22.065916 189.247022 55.908702 10.81255 4.417553 21.42497 8.824139 37.3906 15.50363 48.4607 20.274361 59.77996 24.946038 81.46494 33.383704 29.65689 11.539555 54.90672 20.271537 78.25337 26.808287 56.30874 15.765694 101.14003 18.453206 138.12913 5.62052 108.03146-37.532877 201.67966-53.686708 290.37046-53.124832 37.34515.236589 73.67984 3.395914 111.98914 9.28876 29.75001 4.576232 55.92128 9.819092 100.39048 19.625223 44.0476 9.713162 45.94016 10.124925 62.47163 13.455449 24.46473 4.928804 45.7001 8.549432 66.37209 11.158069 55.65852 6.996422 117.52089.039476 190.4499-18.894738 39.22146-10.182879 77.66269-22.509579 134.27366-42.2983 7.26245-2.538638 43.16812-15.176695 53.03014-18.6135 19.94527-6.950705 35.73201-12.297303 50.54093-17.065283 36.33095-11.697354 65.29956-19.357865 90.63947-23.559485 58.48131-9.696808 96.16154-.415614 117.93449 31.898895 44.27342 65.554922 213.5958 309.881878 353.92858 510.059392 160.32092 228.68956 280.15336 396.50142 337.71179 471.80991-158.20397-86.70675-275.22472-130.12385-351.81435-130.12385z" fill="#1e0238" fill-rule="nonzero"/><path d="m2151.45878 1409.04151c126.99454 0 266.38517 149.95849 418.17189 149.95849 98.28204 0 237.68539-149.95849 418.21007-149.95849 80.62094 0 209.00736 49.98616 385.15926 149.95849-84.98618-98.9726-646.65277-909.261185-717.88323-1014.719128-89.24277-132.435557-402.93446 114.968177-642.75142 84.82594-59.67644-7.52984-116.48427-22.799486-178.14168-35.120401-117.20508-23.420926 158.46141 815.055099 317.23511 815.055099z" fill="#3a086b"/><g fill="#1e0238"><path d="m2151.73875 1409.2708c52.17723 0 106.4483 25.33541 162.81322 55.17464 54.75708 28.98806-259.99742-1090.478466-163.07311-543.84604 34.47246 194.41728-85.89602 488.6714.25989 488.6714z" opacity=".5"/><path d="m2788.62185 1463c65.75103-33.06659 126.31949-54.07855 199.64526-54.07855 39.24998 0 89.80963 11.83329 151.67894 35.49987 65.3436 24.99559-236.53063-383.69815-470.73377-620.833179-234.20314-237.135032 66.0573 390.222209 119.40957 639.411859z" opacity=".5"/><path d="m2151.02007 1417.07206c28.13237 0 58.49042 7.65384 94.28099 22.76274 15.11898 6.38245 31.13497 14.04047 49.94713 23.74163 7.71548 3.97877 15.81176 8.25139 25.58836 13.48562 5.86926 3.14231 27.5033 14.7972 25.98083 13.97836 48.29021 25.9722 76.49453 39.88411 107.85026 51.99382 40.84844 15.77584 78.14443 24.00297 114.59858 24.00297 24.15552 0 50.89361-8.07816 85.07221-24.24877 13.45763-6.36708 27.69054-13.7631 46.93037-24.23564 2.44875-1.33289 39.10448-21.48074 50.31987-27.51223 43.08701-23.17162 76.53195-38.87562 111.07527-51.01751 42.82986-15.05458 83.81637-22.95099 124.8866-22.95099 78.7317 0 206.05604 49.56605 381.03176 148.85762l42.4177 24.07032-31.77264-36.99663c-37.478-43.64005-171.75725-230.62903-363.65366-504.2923-140.28288-200.057259-309.56166-444.2614-353.76208-509.692174-26.23511-38.927524-70.46839-49.82016-134.81097-39.154109-26.3044 4.360472-56.01284 12.214698-93.07044 24.143085-14.95831 4.814897-30.86374 10.200373-50.92617 17.190192-9.89332 3.446868-45.81 16.085701-53.0464 18.61461-56.20575 19.642257-94.2732 31.846106-132.93852 41.882136-71.02306 18.434859-130.86533 25.162977-184.05702 18.478284-20.2127-2.550055-41.05314-6.102476-65.14016-10.953995-16.3811-3.299421-18.26532-3.709268-62.16944-13.388416-21.36859-4.710942-35.48691-7.729811-50.25804-10.681113-10.0929-2.016581-18.97208.727125-25.47648 7.934647-5.59458 6.19934-9.16581 15.363068-11.11534 27.331468-3.46659 21.281783-1.88357 52.419657 4.31962 91.863881 11.83 75.223346 40.16238 178.047377 77.74027 282.833623 39.20217 109.315571 85.1658 211.809351 129.78748 287.139331 51.30041 86.60495 98.72617 134.81954 140.37006 134.81954zm836.53047-16.99605c-43.1269 0-85.98286 8.25657-130.52527 23.91311-35.5283 12.48811-69.69387 28.53049-113.49012 52.08353-11.29768 6.07574-48.00783 26.2535-50.3954 27.55309-18.98217 10.33229-32.963 17.59732-46.07329 23.80007-32.10481 15.18945-56.68394 22.61534-77.80024 22.61534-34.14148 0-69.43946-7.78639-108.47258-22.86114-30.50714-11.78199-58.22443-25.45366-105.92217-51.10721 1.54067.82863-20.11715-10.83907-26.00935-13.99366-9.84754-5.27221-18.017-9.58345-25.82065-13.60769-19.16822-9.88478-35.55747-17.72127-51.12739-24.29408-37.70816-15.91841-70.16485-24.10136-100.89401-24.10136-33.21496 0-77.47044-44.99158-125.74238-126.4839-44.011-74.29902-89.54807-175.84161-128.41234-284.214932-37.24456-103.856765-65.30427-205.691246-76.94914-279.737405-5.94701-37.815256-7.44946-67.368281-4.33436-86.492274 1.47149-9.033654 3.91641-15.307256 6.95835-18.678032 2.39999-2.659427 5.18516-3.520056 9.52262-2.653424 14.63617 2.924336 28.66109 5.923237 49.92881 10.61194 44.04842 9.71096 45.94102 10.12263 62.47279 13.452399 24.46518 4.927688 45.70095 8.547495 66.37332 11.155541 55.65956 6.994836 117.52308.039467 190.45346-18.890456 39.22218-10.180572 77.66413-22.504478 134.27615-42.288715 7.26259-2.538062 43.16892-15.173255 53.03113-18.609281 19.94564-6.949131 35.73267-12.294517 50.54187-17.061416 36.33162-11.694703 65.30077-19.353479 90.64115-23.554146 58.48241-9.694611 96.16333-.415521 117.93669 31.891666 44.27424 65.540066 213.59977 309.811654 353.93517 509.943805 160.32389 228.63774 280.15857 396.41157 337.71807 471.70299-158.20691-86.6871-275.22985-130.09436-351.82089-130.09436z" fill-rule="nonzero"/></g><path d="m1503.83364 595.357069c31.66763-17.989409-10.64688-6.81417-126.94354 33.525716-174.44499 60.509829-514.770843-263.839956-676.79387-83.846412-108.015351 119.995695-333.714095 457.983567-677.09623 1013.963627 202.592297-99.99641 345.102981-149.99462 427.532051-149.99462 184.573394 0 327.10322 149.99462 427.58948 149.99462 155.190919 0 297.707739-149.99462 427.550449-149.99462 108.22307 0 174.27695-271.2161 198.16166-813.648311z" fill="#3a086b"/><path d="m1233.11141 873.066005c0-441.786588-169.68182 629.251815-83.89055 585.633455 54.06405-27.48747 106.23122-49.89225 156.5015-49.89225 162.58304 0-72.61095-93.95462-72.61095-535.741205z" fill="#1e0238" opacity=".5"/><path d="m722.76921 914.466614c95.066998-331.752087-505.579037 553.952736-432.601814 529.015626 67.084499-22.9235 120.378135-34.38526 159.880906-34.38526 43.232402 0-27.158556-9.36904 122.781176 20.79644 47.867798 13.17818 54.872735-183.67472 149.939732-515.426806z" fill="#1e0238" opacity=".5"/><path d="m1517.0886 597.050959c1.5942-1.294787 2.7782-2.524099 3.67085-4.128322 2.25236-4.047847 1.53927-9.378914-2.97624-12.268892-4.53538-2.902693-9.94414-2.020711-24.61361 1.853462-21.42558 5.658444-61.21483 18.581461-119.54949 38.815899-33.09137 11.478346-74.69098 8.98502-127.96635-5.928647-22.73958-6.365617-47.48963-14.923202-76.66802-26.274495-21.49421-8.361911-32.76211-13.011543-81.06369-33.215639-16.00507-6.694774-26.65414-11.115767-37.52007-15.55432-39.08019-15.963613-69.660069-27.391347-98.751766-36.481184-35.135822-10.978353-66.454415-17.903625-95.331407-20.60281-67.678481-6.326032-121.71097 10.828894-162.887274 56.571895-108.476506 120.507192-334.250754 458.605879-677.8732982 1014.971474l-15.5582348 25.19062 26.5524939-13.10581c201.4191191-99.41669 342.9912561-149.08528 423.6830161-149.08528 42.019584 0 83.948205 7.90362 127.755797 22.96964 35.321952 12.1477 69.515566 27.85682 113.563541 51.03413 11.46378 6.03205 48.928161 26.18007 51.429984 27.51247 19.659961 10.47034 34.202743 17.86432 47.951506 24.2288 34.893052 16.15243 62.178843 24.2182 86.802064 24.2182 37.207968 0 75.285092-8.21821 116.998568-23.98054 32.03231-12.10409 60.85072-26.0122 110.1957-51.97908-1.55629.81897 20.55489-10.83595 26.55384-13.9784 9.99313-5.23471 18.26893-9.50785 26.15579-13.48724 19.23237-9.70387 35.6073-17.36458 51.067-23.75005 36.61594-15.12382 67.68508-22.78793 96.49297-22.78793 59.60812 0 105.05368-70.72355 138.93943-209.85692 32.98935-135.45281 55.45565-337.774605 67.46913-607.136865 2.29866-1.412616 4.11032-2.653547 5.47777-3.764166zm-89.46327 606.879981c-32.15475 132.02599-73.83003 196.88213-122.42306 196.88213-31.35087 0-64.48085 8.17248-102.98347 24.07558-15.90556 6.56962-32.65006 14.40323-52.23511 24.28505-7.97431 4.02351-16.32272 8.33414-26.38623 13.60573-6.02172 3.15437-28.1565 14.82173-26.58215 13.99326-48.75845 25.65822-77.0941 39.33335-108.28806 51.12065-39.9286 15.08787-76.045341 22.88297-110.988848 22.88297-21.646353 0-46.808763-7.43808-79.659948-22.64531-13.404689-6.2052-27.697445-13.47207-47.101858-23.8063-2.441081-1.30005-39.95949-21.47713-51.504953-27.55216-44.750111-23.54676-79.657067-39.58361-115.95105-52.0656-45.490263-15.64471-89.251918-23.89387-133.285083-23.89387-80.441323 0-215.054851 45.98893-404.743827 137.8973 334.322313-540.491037 554.689331-869.873737 660.575087-987.502851 37.275589-41.409672 85.995124-56.877774 148.669718-51.019464 51.083957 4.774911 106.406296 22.060635 189.236292 55.895324 10.81194 4.416497 21.42376 8.822029 37.38848 15.499921 48.45796 20.269511 59.77658 24.940069 81.46032 33.375716 29.65522 11.536795 54.90362 20.266687 78.24894 26.801874 56.30555 15.761922 101.1343 18.44879 138.1213 5.619175 55.38715-19.212041 93.9242-31.782214 115.4524-37.669592-11.96483 268.528672-34.3279 469.992727-67.01889 604.220467z" fill="#1e0238" fill-rule="nonzero"/><path d="m1572.68795 787.812922c96.31471-12.560509 186.13024-11.694734 269.44658 2.597322 72.70781 52.812225 12.15571 116.013739-59.48287 58.00687-10.85472 23.769658-89.77471 54.078711-119.11676-3.262741-68.43088 68.39616-164.92255 17.202436-90.84695-57.341451z" fill="#af89d2" fill-rule="nonzero"/><path d="m1611.79014 883.852921c-19.05485 3.976037-37.45531 1.655202-51.37969-6.411926-14.742-8.540823-23.25905-22.834897-22.89949-39.782355.37417-17.636057 10.21553-36.785333 29.14767-55.837158l2.04844-2.061384 2.88169-.375805c97.13042-12.666885 187.79694-11.792908 271.98287 2.648317l1.95412.33521 1.60415 1.165191c18.63087 13.532771 30.42308 28.765854 34.65297 44.120732 4.12405 14.970726.70741 29.273437-9.22031 39.298198-9.66717 9.761678-24.39997 14.357307-40.98412 12.760854-15.10847-1.454398-31.19219-7.906515-47.0399-19.187367-10.94127 12.043731-31.96076 22.175944-53.36233 25.098803-28.43039 3.8828-53.67532-4.783569-69.51581-27.162442-15.4241 13.189147-32.5533 21.777729-49.87026 25.391132zm-57.283-45.833689c-.22458 10.585066 4.90723 19.197725 14.4254 24.712103 10.10649 5.855229 24.24705 7.638765 39.38513 4.480014 17.03343-3.554241 34.15179-13.019993 49.20835-28.068908l8.25747-8.253283 5.31827 10.393194c11.42277 22.322847 32.29061 30.978569 57.77408 27.498237 21.12781-2.885472 41.75946-14.512346 46.04389-23.894365l4.55636-9.977512 8.52452 6.90244c15.68007 12.696394 31.3061 19.641734 45.20679 20.979867 11.75097 1.131193 21.41552-1.883488 27.27602-7.801282 5.54378-5.597972 7.4529-13.589916 4.90995-22.821099-3.00509-10.908757-11.89965-22.63671-26.678-33.717991-81.04733-13.676336-168.37728-14.546773-262.00563-2.586341-14.74368 15.432434-21.94343 29.939322-22.2026 42.154926z" fill="#1e0238"/><path d="m1551.40571 723.10493c55.68277-76.783554 118.45243 19.604312 255.12831 2.450539 68.84415 49.827626 13.16138 98.021559-56.32197 54.728704-.37321 25.322235-76.94346 58.812935-107.31588 0-64.79449 64.530859-147.17322 19.604311-91.49046-57.179243z" fill="#af89d2" fill-rule="nonzero"/><path d="m1547.66763 812.017031c-13.62279-8.00007-21.98895-21.520292-23.05172-37.961841-1.10049-17.025097 5.59251-36.199034 19.90874-55.940347 17.40644-24.002554 36.91792-34.202348 61.32177-33.588487 9.99595.251441 20.67674 2.234782 34.10095 6.001489 5.20496 1.460462 10.62515 3.121892 18.13246 5.523143 2.09599.670412 11.48538 3.695381 9.85202 3.169969 3.73219 1.200733 6.56484 2.103929 9.39285 2.991399 22.03967 6.916355 39.04838 11.225867 57.46129 13.99866 23.18739 3.491782 46.33831 3.966865 70.68953.910618l3.3264-.417486 2.71579 1.965624c17.69128 12.80449 28.93955 26.497549 33.14698 40.021005 4.23873 13.624046 1.02308 26.503179-8.66755 35.408026-17.14903 15.758469-48.99174 15.421779-81.00959-1.296613-7.54123 12.879869-25.60981 23.743292-45.66071 27.39511-27.01275 4.919762-52.18432-3.67957-68.31349-26.621605-31.13917 26.54377-67.95516 33.352103-93.34572 18.441336zm120.0105-112.877714c-.04064-.013077-.08424-.027112-.1309-.042128.03647.011738.07285.023448.10915.03513zm-5.31432 16.14839c.14527.046757.25914.083397.34432.1108-.11394-.036658-.2287-.073589-.34432-.1108zm-9.46304-3.044828c-7.32929-2.344309-12.57752-3.953029-17.54607-5.347158-12.18433-3.418808-21.58651-5.164721-29.93577-5.374741-18.65801-.469329-32.93169 6.99236-47.13215 26.574037-23.00945 31.728792-21.31611 57.925504-2.01047 69.262865 20.23345 11.882221 53.06384 4.349395 80.62172-23.096357l8.22442-8.190965 5.32609 10.313388c11.80967 22.86817 32.3611 31.363213 55.83224 27.088475 9.83414-1.791066 19.24811-5.835973 26.17536-11.033759 6.02373-4.519834 9.21168-9.216069 9.25683-12.279752l.22176-15.046979 12.77228 7.957997c15.32954 9.551348 30.47209 14.690878 43.78242 15.447776 11.45173.651207 20.66913-2.033191 26.00512-6.936507 4.75755-4.37177 6.2581-10.381706 3.93762-17.840144-2.80302-9.009419-10.87343-19.170856-24.24669-29.344936-24.70578 2.798836-48.3302 2.17939-71.93097-1.374642-19.42586-2.925332-37.21561-7.432736-60.0199-14.58904-2.87792-.903134-5.75021-1.81899-9.52648-3.03393 1.67383.538452-7.72541-2.489704-9.80736-3.155628z" fill="#1e0238"/><g transform="translate(-38 -91)"><path d="m1995.08 166.88253c7.68-29.213855-7.68-15.418424-46.08 41.386295l46.08 65.731175c-7.68-42.197791-7.68-77.903614 0-107.11747z" fill="#78bc4d"/><path d="m2003.88277 169.516878c2.49111-9.429617 3.0993-15.249031.83108-19.780488-2.47263-4.939807-7.74563-6.761546-12.74851-5.183426-2.61983.826402-5.06912 2.470674-7.82294 4.931903-8.41939 7.524856-22.1668 25.490404-41.85182 54.467982l-3.29058 4.843939 72 102.203212-6.97471-38.135335c-7.50358-41.027039-7.50358-75.483958-.14252-103.347787zm-18.43169 3.801913c-4.20321 19.966305-5.19847 42.476162-3.02163 67.53535l-22.69914-32.221181c10.49686-15.302995 19.10942-27.110915 25.72077-35.314169z" fill="#000" fill-rule="nonzero"/><path d="m2025.19889 485.144467c-1.23261-8.233067-13.75067-27.584474-32.08491-36.779299 45.83559-41.376711 64.16982-50.571536 64.16982-64.363773 21.38994-15.324708 24.44565-27.584474 9.16712-36.779299-3.05571-33.714358-29.0292-61.298832-77.92049-82.753423-50.41915-101.143072-96.67683-90.447483-110.42751-95.044895-113.63662-65.610888-204.60056-71.8985979-272.8918-18.863131-13.11192 0-85.214 6.552634-118.82676 123.020414-2.8618 6.561027-12.48557-15.915483-27.04333-41.006804-14.55777-25.091321-32.46453-71.299998-31.9603-50.848438.49189 19.951184-18.19205 89.020794-12.19148 133.722097 5.48777 40.881196 35.91981 61.455549 33.49834 68.851518-63.10111 192.731982-3.52046 228.213437 3.56649 238.767405 7.08695 10.553967 84.11947 120.452204 167.70795 127.013293 83.58848 6.561088 178.86309 11.559325 220.44413 0 59.00363-16.402722 111.29863-106.120961 120.46575-110.718373 36.73096-18.420992 46.71121-31.985308 41.79424-54.949118 6.39629-16.878446 28.68232-47.567894 31.9603-69.711568.47546-3.211847-8.15099-.692451-8.19495-4.100681-.10596-8.216975 0-17.222858-1.23261-25.455925z" fill="#78bc4d"/><g fill="#000"><path d="m2007.66588 446.700845c5.77243-5.0994 11.49543-10.039359 17.65797-15.268812 1.99279-1.691058 15.72111-13.245206 18.95332-16.028336 12.64319-10.886534 18.03023-16.781182 20.61409-24.006599.38524-1.077276.6892-2.164262.91218-3.263215 10.34056-7.89648 16.59522-15.445908 18.54273-23.259622 2.24079-8.990429-1.36985-16.904564-9.42231-22.997411-4.91268-34.733651-31.88134-62.846665-79.68014-84.431795-20.15616-39.709754-41.19083-65.313548-63.23516-79.923514-8.99469-5.961259-17.86982-9.912245-26.97117-12.399792-3.57219-.976339-7.0683-1.701089-10.79925-2.289857-1.42573-.22499-2.83168-.422644-4.48277-.63636-.66778-.086437-3.16745-.400156-3.74213-.475051-1.96024-.255468-3.2277-.463315-4.06655-.664287-114.71097-65.9892693-208.2165-72.9070229-279.21366-19.411209-5.29896.259514-11.64762 1.20573-18.58457 3.05548-11.62723 3.100424-23.42192 8.356503-34.93594 16.170598-27.75194 18.834113-50.56399 50.043349-66.07688 95.765634-3.94715-7.192047-12.36436-22.65839-15.93937-28.820287-1.99822-3.444134-4.18224-7.510179-6.66234-12.366142-1.19317-2.336187-2.44633-4.837736-3.85443-7.687266-1.21077-2.45019-6.7224-13.730721-8.14601-16.598091-3.01016-6.062909-5.21964-10.282664-7.13115-13.520783-3.39527-5.751611-5.48089-8.390507-9.53911-9.597623-5.66047-1.683709-10.18752 1.737213-11.72474 6.459748-.63747 1.958371-.81934 4.138977-.75034 6.937652.0824 3.342188-.52529 9.046226-1.87318 17.86371-.79233 5.183198-4.3287 26.428174-4.70597 28.763676-2.25507 13.96021-3.84333 25.221711-4.9937 36.167258-2.14088 20.370256-2.47125 37.498176-.5452 51.846572 2.26608 16.881515 8.38261 31.516724 17.72226 45.69955 2.169 3.293762 4.41304 6.424585 7.08478 9.953889 1.00625 1.329231 4.89783 6.372421 5.74219 7.499461 1.27346 1.699818 2.13463 2.942887 2.66769 3.84272-20.12092 61.915903-29.00773 111.718238-28.47413 151.138674.42922 31.709622 6.83742 55.23331 17.69194 73.01392 3.26342 5.345748 6.65144 9.759282 10.6021 14.151355.66843.743114 1.32393 1.454644 2.11383 2.299257.13842.148008 1.39262 1.483833 1.70785 1.823043.9391 1.010556 1.42372 1.577654 1.57269 1.799498 3.74752 5.580975 10.10588 14.269074 17.86164 23.95096 11.69765 14.602756 24.60271 29.019066 38.44692 42.420684 38.81779 37.57681 78.56387 61.296282 117.78452 64.37488 50.05992 3.929419 91.1369 6.260173 126.50081 6.820041 43.9359.695576 76.49702-1.43891 96.8769-7.104529 26.00187-7.228538 51.53396-27.033589 78.0497-56.692421 10.17203-11.377791 18.22885-21.440166 30.87224-37.993278 6.30938-8.260429 7.77014-10.152357 9.90649-12.76817 1.27365-1.559497 2.28583-2.725237 3.05016-3.516449.23441-.242656.43018-.434046.57859-.569799 37.94492-19.108602 50.90983-35.392893 46.34547-61.457492 1.17395-2.72038 2.83168-6.041521 5.08978-10.245163 1.70988-3.183087 8.41105-15.236119 8.86019-16.053934 2.62401-4.778012 4.72799-8.744381 6.64429-12.575434 5.9768-11.948812 9.65357-21.704662 10.94778-30.4476.76265-5.152053-2.23495-9.121763-6.46025-10.706136-.56924-.21345-1.12778-.376531-1.70197-.506562-.03438-3.221956-.06932-5.04104-.14374-7.270964-.17119-5.130256-.51144-9.488678-1.12331-13.575666-1.61255-10.770984-12.60253-26.281967-26.42163-36.688611zm9.69969 91.590469c-1.80466 3.607876-3.81314 7.394207-6.34105 11.997229-.39684.722594-7.15636 12.880579-8.93542 16.192444-3.21513 5.985241-5.39753 10.489309-6.88762 14.421419l-.88764 2.342345.52445 2.449382c3.9563 18.477568-3.83906 28.793412-37.29177 45.570658-2.68756 1.347867-4.94973 3.689624-8.7122 8.296518-2.3088 2.826966-3.78557 4.739626-10.24963 13.202564-12.39469 16.227503-20.23224 26.016032-30.03591 36.981793-24.53278 27.44082-47.80627 45.493898-69.92978 51.644246-34.25119 9.521854-107.29632 8.365432-217.49438-.284488-34.42505-2.70217-71.05018-24.559139-107.29133-59.64168-13.29185-12.866919-25.72762-26.75898-37.00302-40.834619-7.45213-9.302861-13.52942-17.606902-17.01617-22.799516-.80172-1.193956-1.70248-2.248015-3.23307-3.895056-.35057-.377244-1.6324-1.742491-1.74456-1.862418-.72084-.77078-1.30594-1.405884-1.89095-2.056264-3.29584-3.664085-6.06137-7.266704-8.73137-11.640385-9.21898-15.101473-14.81435-35.641354-15.20344-64.386162-.51138-37.779202 8.23982-86.395278 28.2584-147.539948 1.18834-3.629655.48454-6.978679-1.29621-10.474585-1.0246-2.011451-2.41334-4.07916-4.54881-6.929573-.9341-1.246842-4.86114-6.335976-5.79333-7.567379-2.46432-3.255303-4.5011-6.096962-6.44098-9.042797-8.03192-12.196954-13.17877-24.51198-15.07142-38.611627-1.71513-12.777114-1.40868-28.665145.6032-47.807973 1.11199-10.580427 2.66001-21.556602 4.86927-35.233173.36141-2.237328 3.91574-23.590231 4.7283-28.905773.04328-.28307.08587-.563306.12778-.840746 2.14056 4.355688 5.9846 12.218927 6.99247 14.258507 1.43903 2.912118 2.72471 5.478579 3.95546 7.888347 2.60701 5.104465 4.92688 9.423408 7.09766 13.164974 4.30156 7.414186 16.32204 29.628378 17.89869 32.35814 2.83275 4.904561 4.93693 8.05737 7.01451 10.195255 2.12213 2.183743 4.37566 3.620039 7.55913 3.820959 4.69577.296366 8.07121-2.472117 9.71271-6.235535l.22177-.508446.15381-.532957c14.37138-49.797634 36.60764-82.117493 63.70529-100.507563 9.89042-6.712229 19.93657-11.189101 29.76985-13.811164 6.81762-1.81793 12.79785-2.556653 17.18087-2.556653h2.91284l2.30057-1.78667c65.12849-50.58026 152.48297-44.541926 263.41841 19.510642l.74212.428489.81271.271729c2.14227.716263 4.30568 1.112726 7.92064 1.583846 10.57182 1.37777 11.61976 1.543143 16.73923 2.942377 7.39487 2.02114 14.61068 5.233437 22.0619 10.171758 19.8318 13.143598 39.4562 37.29113 58.7899 76.076172l1.3731 2.75456 2.81836 1.236783c46.33315 20.332426 70.13811 45.614366 72.86812 75.735858l.38907 4.292859 3.69316 2.222634c4.73246 2.848115 5.8057 4.732011 5.30217 6.75227-.9213 3.6964-5.83635 9.242661-15.03641 15.834124l-3.54947 2.543051v4.366505c0 .750226-.11914 1.434155-.38092 2.166175-1.22294 3.419798-5.35607 7.942376-15.69943 16.848628-3.14599 2.708884-16.80295 14.202977-18.86021 15.948736-9.23476 7.836501-17.51248 15.046224-26.42269 23.089805l-9.23037 8.332609 11.11548 5.57465c7.25759 3.639837 14.11514 9.524219 19.61055 16.440078 4.47053 5.626049 7.48479 11.375815 7.87754 13.999227.50213 3.353969.79424 7.095803.9454 11.625592.08486 2.542888.11547 4.565165.1583 9.23964.01537 1.676942.02355 2.484889.03589 3.441347.06016 4.665071 2.9299 7.958129 6.74407 9.424618-1.59028 5.286349-4.19205 11.453435-7.79359 18.653608z" fill-rule="nonzero"/><path d="m1678.02821 228.016959c-4.6836-.29438-8.7181 3.27887-9.01132 7.981076-.29321 4.702206 3.2659 8.752739 7.9495 9.047119 60.14324 3.780195 112.07437 15.894151 155.82582 36.283793l3.5857 1.671053 3.5828-1.677283c30.87428-14.453732 63.74875-23.992889 98.6535-28.619615 4.6524-.616689 7.92597-4.903108 7.31172-9.573986-.61425-4.670877-4.88371-7.957447-9.53611-7.340758-35.26399 4.674345-68.61589 14.148036-100.02878 28.419156-45.01011-20.340096-97.7977-32.385729-158.33283-36.190555z" fill-rule="nonzero"/><path d="m1713.75614 269.805763c-4.68835-.145615-8.60674 3.546728-8.75199 8.247079-.14524 4.700351 3.53767 8.628782 8.22602 8.774397 51.83213 1.609847 94.0773 10.342348 126.73557 26.067933l4.37123 2.104828 4.02987-2.704198c20.55823-13.795329 52.66953-23.668276 96.23215-29.33602 4.65159-.605199 7.93309-4.876323 7.32944-9.539823s-4.86387-7.953404-9.51546-7.348206c-43.29917 5.633469-76.40739 15.372702-99.40989 29.454615-34.3274-15.575199-77.40973-24.1106-129.24694-25.720605z" fill-rule="nonzero"/><path d="m1672.71901 312.1734c-21.87783 4.424617-42.63493 22.975668-53.77637 44.497301-2.15521 4.163163-.48957 9.265828 3.7203 11.397121 4.20988 2.131294 9.3698.48414 11.52501-3.679023 8.96278-17.313162 25.78875-32.350887 41.96269-35.621937 4.63358-.937104 7.62163-5.41135 6.67401-9.993508-.94761-4.582158-5.47207-7.537058-10.10564-6.599954z" fill-rule="nonzero"/><path d="m1434.86146 283.821182c2.11536 2.647702 3.75411 5.317653 5.10707 8.228512 1.5275 3.286384 2.53931 6.358545 4.20699 12.373926 4.1359 14.918308 6.57562 21.346044 13.21343 31.365558 10.25258 15.47586 21.99506 26.630921 35.27302 33.30252 4.20083 2.110732 9.31795.417559 11.42941-3.781808 2.11147-4.199367.41771-9.314713-3.78312-11.425444-10.42626-5.238746-20.01611-14.34886-28.72396-27.493005-5.38347-8.126128-7.3126-13.208662-11.00116-26.513446-1.90271-6.86314-3.14493-10.634878-5.17388-15.000115-1.91557-4.121317-4.26615-7.951-7.24402-11.678271-2.93408-3.672464-8.29078-4.271864-11.96452-1.338798s-4.27335 8.287907-1.33926 11.960371z" fill-rule="nonzero"/></g><path d="m1592 151.188927c95.21186-92.1211551 255.38136-44.719007 315 23.253884-31.44068-1.78876-63.77119 16.396969-96.99153 54.557189-43.8983-51.874049-116.56779-77.811073-218.00847-77.811073z" fill="#444"/><path d="m1647.42501 124.425468c5.99005-2.197851 31.69691.882752 55.99289 8.015388 30.21052 8.868983 54.0154 21.992889 64.05613 36.831215 2.61587 3.865769 7.88839 4.891195 11.7765 2.290352s4.91946-7.843069 2.30359-11.708838c-12.78313-18.891067-39.66514-33.711428-73.33058-43.594682-27.6803-8.126179-56.12139-11.534441-66.67382-7.662572-4.39636 1.613096-6.64508 6.464243-5.02266 10.835339 1.62242 4.371095 6.5016 6.606895 10.89795 4.993798z" fill="#242424" fill-rule="nonzero"/><path d="m1759.30604 110.94171c20.2154 2.808529 47.41746 27.631635 59.49254 54.997356 1.89571 4.296236 6.896 6.233702 11.16848 4.327452 4.27247-1.906251 6.19922-6.934359 4.30351-11.230595-14.26016-32.317774-45.96225-61.2473628-72.64793-64.9548072-4.63017-.6432704-8.90226 2.6096285-9.54197 7.2655532-.63972 4.655924 2.59519 8.951771 7.22537 9.595041z" fill="#242424" fill-rule="nonzero"/><path d="m1591.90828 159.177313-5.90828-14.620902c46.23668-44.5922199 110.14786-60.767082 178.38497-50.6530235 59.87627 8.8748215 117.46902 37.8544915 149.61503 74.3874565l-6.87131 14.103766c-28.46585-1.614316-58.5848 15.273057-90.31569 51.60539l-12.89785-.090209c-42.16399-49.664746-112.62402-74.732478-212.00687-74.732478zm218.51863 56.504106c26.05251-27.961986 52.01043-44.446328 77.89096-49.05851-30.76741-27.315412-77.7884-48.688659-126.42938-55.898191-55.33205-8.20128-107.04943 2.079248-147.32278 31.889077 87.73526 3.49578 153.16477 27.744672 195.8612 73.067624z" fill="#242424" fill-rule="nonzero"/><path d="m1908.99468 557.867696c100.02629-6.064175 102.17525-39.910324 133.2517-33.222951 27.56932 4.746136-18.37954 42.715223-22.97443 47.461358-4.59488 4.746136 13.78466 23.73068-13.78466 33.222951-39.29511 11.27461-60.50113 22.670946-147.51249 22.670946-87.01137 0-235.03069-23.024484-256.03344-86.091548-15.00196-56.059613 152.01985 25.026612 307.05332 15.959244z" fill="#dd503c"/><path d="m1644.56988 559.037256c12.98536 6.774844 51.78004 18.019475 94.50705 27.270741 50.68533 10.974402 99.2571 17.692003 135.42236 17.692003 52.90788 0 102.16376-7.735099 147.73367-23.222526 4.44468-1.510573 6.82323-6.338197 5.31263-10.7828-1.5106-4.444602-6.33831-6.823103-10.783-5.312529-43.76248 14.873151-91.17226 22.318341-142.2633 22.318341-34.74086 0-82.21932-6.566393-131.82485-17.306997-41.26703-8.935151-79.03912-19.883383-90.24102-25.727744-4.16195-2.171418-9.2962-.557826-11.46766 3.604057-2.17145 4.161883-.55783 9.296037 3.60412 11.467454z" fill="#000" fill-rule="nonzero"/><path d="m2028.49474 579.047352c1.42399 5.392011 1.95536 9.111283 1.34552 13.519714-1.33812 9.673098-8.35328 16.917606-21.09492 21.303678l-.20962.072156-.21309.061126c-.40452.11604-.8107.23313-1.21895.351377-3.49524 1.012366-6.96198 2.055125-11.38671 3.415406-.25401.078089-8.59135 2.65339-10.9965 3.386544-18.21084 5.551151-31.04227 8.680998-47.93708 11.187606-20.86281 3.095322-45.82486 4.655041-78.31955 4.655041-49.39467 0-107.7881-6.941783-154.98826-19.685615-59.12547-15.963609-98.28919-39.700916-109.11665-72.206604l-.08073-.242348-.06604-.246758c-3.14096-11.734663-.1945-21.24972 9.03498-26.41139 6.98177-3.904613 16.84392-4.871786 30.63177-3.799491 11.00894.856176 24.46396 2.994691 43.6574 6.74819 9.12213 1.783939 46.6691 9.527483 55.57843 11.301366 59.14189 11.775397 103.49951 17.7694 147.60441 18.110854 9.65884.074778 19.07888-.150011 28.26996-.687448l-.01808.001076c34.72899-2.105018 59.19991-7.538074 79.23066-15.938847 5.93254-2.488071 9.94151-4.468254 18.14783-8.779677 7.77954-4.087199 11.06082-5.659388 15.41964-7.128354 7.37932-2.486903 14.46136-2.953225 22.59197-1.230634 10.50764 1.8727 16.61756 8.61409 15.51012 18.090018-.69979 5.987868-4.20052 12.217801-9.94277 19.333774-2.42761 3.008375-5.2338 6.127233-8.38656 9.372014-3.57792 3.682342-10.29341 9.992713-13.66304 13.109504.13818.529761.33412 1.270925.61586 2.337722zm12.80431-45.505943-.17363-.029884-.17224-.037057c-5.1662-1.111479-9.18839-.854356-13.75752.685488-3.19841 1.077895-5.99025 2.415575-12.94271 6.068247-8.61647 4.526901-12.96956 6.677063-19.47937 9.407237-21.85112 9.164224-48.19378 15.012847-84.77459 17.230108l-.01808.001077c-9.5738.559817-19.36776.793528-29.39329.715912-45.40444-.351515-90.68649-6.470436-150.79072-18.437437-8.99726-1.791392-46.50562-9.526973-55.52159-11.29015-18.59759-3.636975-31.51811-5.690536-41.71379-6.483464-10.69499-.83176-17.75037-.139845-21.01973 1.688577-1.72351.963887-2.17028 2.326042-.97164 6.908101 8.60714 25.313427 43.43708 46.366743 97.33441 60.91878 45.67452 12.331916 102.59179 19.098214 150.55928 19.098214 31.71249 0 55.86026-1.508839 75.826-4.471068 15.94368-2.365492 28.00472-5.307425 45.47623-10.633209 2.36931-.72223 10.67725-3.288448 10.95787-3.37472 4.50573-1.385181 8.05484-2.452717 11.65262-3.494781.34772-.100716.69411-.200653 1.03939-.299872 6.95102-2.422457 9.20852-4.775758 9.58228-7.47762.21759-1.572937-.05512-3.481786-.94176-6.839072-.08327-.315314-.39935-1.495409-.3723-1.39404-.15863-.594445-.2742-1.037673-.3836-1.477025-.31405-1.261252-.53063-2.313077-.66774-3.367161-.51039-3.923765.1243-7.469839 3.0271-10.46754-.23743.245185 11.07499-10.198685 15.69189-14.950331 2.81329-2.895403 5.28012-5.637088 7.34856-8.200363 3.31266-4.105157 5.39176-7.546974 6.0641-9.665363-.40272-.119687-.89093-.232703-1.46543-.331584z" fill="#000" fill-rule="nonzero"/><path d="m1605.23359 487.321341c-29.98757 8.49168-44.23463 31.933914-42.00756 67.708844.29166 4.685127 4.31109 8.245794 8.97766 7.952974 4.66656-.29282 8.21312-4.328244 7.92146-9.01337-1.75695-28.222997 7.90012-44.112822 29.70483-50.287333 4.5001-1.274307 7.11921-5.969897 5.84995-10.487894s-5.94624-7.147528-10.44634-5.873221z" fill="#000" fill-rule="nonzero"/><path d="m1676 564.001641c4 9.249155 9.91906 26.915275 17.75717 52.998359 21.40251-24.41425 32.81679-37.456436 34.24283-39.126557-7-.990981-51.48624-14.041512-52-13.871802z" fill="#ede9f1"/><path d="m1667.64499 567.962136c3.83838 8.894975 9.69162 26.403152 17.4524 52.285779l4.42334 14.752085 10.1641-11.619908c21.52459-24.607591 32.9043-37.638911 34.37184-39.361418l9.94333-11.670872-15.23882-2.162091c-2.24479-.318493-11.05065-2.621185-24.48939-6.362625-.40254-.112068-.81025-.225697-1.22366-.341025-4.15096-1.157994-16.87643-.760206-17.28641-.875077-2.61992-.734066-4.46043-1.243924-5.78366-1.600457-.76907-.207222-1.36662-.363488-1.81904-.474697-.29972-.073672-.5537-.132272-.79743-.181662-2.51011-.508649-2.37946-.491299-4.58329.238288l-8.7783 2.906097zm30.79828 11.801641c.41624.116119.82683.230547 1.23228.343427 4.73825 1.319162 8.8371 2.445366 12.33046 3.382306-3.83246 4.389078-8.85784 10.139416-15.06654 17.239971-2.84779-9.172387-5.39428-17.011471-7.64616-23.532145 3.50586.985261 7.2321 2.031414 9.14996 2.566441z" fill="#000" fill-rule="nonzero"/><g fill="#000" fill-rule="nonzero" transform="translate(1678 371)"><path d="m315.185468 70.2367896c-50.817111 8.9986007-93.868265 7.508967-129.191672-4.3060406-4.451983-1.4891037-9.268185.9127847-10.757289 5.3647677-1.489104 4.4519831.912785 9.2681854 5.364768 10.757289 38.260062 12.7972631 84.122268 14.3841633 137.548406 4.9235609 4.622507-.818545 7.706227-5.2293887 6.887682-9.8518953-.818545-4.6225065-5.229389-7.7062267-9.851895-6.8876817z"/><path d="m191.768375 10.088048c.388521-4.67831527-3.089043-8.78579837-7.767358-9.17432032-4.678316-.38852195-8.785799 3.08904261-9.174321 7.76735783-2.776558 33.43341139-12.871618 49.89436389-29.527032 52.28190079l-.195935.0304234c-53.5298935 8.9523654-97.7237946 4.5177597-132.7551593-13.0582279-4.19592396-2.1051851-9.30398216-.4103063-11.40916729 3.7856177s-.41030639 9.3039822 3.78561761 11.4091673c38.53091258 19.3317858 86.28500758 24.1321382 143.08911498 14.6462418 26.203516-3.8118765 40.603196-27.3371875 43.95424-67.6881606z"/></g><g transform="translate(1657 309)"><path d="m8 54.6666667c0-23.3333334 54.3981443-46.6666667 99.729931-46.6666667 86.130395 0 94.107855 25.3683822 95.196753 46.6666667 1.088897 21.2982844-9.066358 37.3333333-90.663574 37.3333333-58.9313231 0-104.26311-14-104.26311-37.3333333z" fill="#fff"/><path d="m414 50c0 23.3333333-45.15832 42-103.769343 42-81.153724 0-100.270865-11.3683822-99.187885-32.6666667 1.082979-21.2982844 18.034161-51.3333333 103.696425-51.3333333 45.085402 0 99.260803 18.6666667 99.260803 42z" fill="#fff"/><ellipse cx="95.5" cy="50" fill="#000" fill-rule="nonzero" rx="42.5" ry="42"/><ellipse cx="306.5" cy="50" fill="#000" fill-rule="nonzero" rx="42.5" ry="42"/><ellipse cx="83" cy="40.5" fill="#fff" rx="6" ry="5.5"/><ellipse cx="286" cy="34.5" fill="#fff" rx="6" ry="5.5"/><g fill="#000" fill-rule="nonzero"><path d="m5 57.5714286c0-27.5056964 55.639811-52.5714286 105.205245-52.5714286 74.252968 0 98.90815 17.0749468 100.719145 52.2110251 1.610891 31.2537606-22.262324 43.7889749-96.242326 43.7889749-64.1284405 0-109.682064-15.5054395-109.682064-43.4285714zm13.4304568 0c0 16.2673442 39.5059365 29.7142857 96.2516072 29.7142857 67.299093 0 83.894275-8.7137054 82.830432-29.3538823-.617009-11.9709256-3.661215-19.192529-12.575839-25.3663522-12.798947-8.8639114-36.680294-13.8511941-74.731412-13.8511941-42.9554904 0-91.7747882 21.9930913-91.7747882 38.8571429z"/><path d="m422 53c0 28.5240753-49.363315 48-111.793044 48-80.089958 0-108.667896-10.3025609-107.149869-39.2175463 1.815939-34.5895248 35.790875-56.7824537 111.70984-56.7824537 52.6485 0 107.233073 20.9031247 107.233073 48zm-13.679914 0c0-15.9200282-47.958529-34.2857143-93.553159-34.2857143-38.616808 0-64.992915 5.8916349-80.784663 16.2070373-11.570035 7.5577174-16.705581 16.9420533-17.264171 27.5819376-.887285 16.900768 20.975467 24.7824537 93.488863 24.7824537 55.456354 0 98.11313-16.8299102 98.11313-34.2857143z"/></g></g></g><path d="m1533.40571 660.10493c55.68277-76.783554 118.45243 19.604312 255.12831 2.450539 68.84415 49.827626 13.16138 98.021559-56.32197 54.728704-.37321 25.322235-76.94346 58.812935-107.31588 0-64.79449 64.530859-147.17322 19.604311-91.49046-57.179243z" fill="#af89d2" fill-rule="nonzero"/><path d="m1529.1686 749.484302c-13.62295-7.998035-21.98921-21.514817-23.05199-37.952183-1.1005-17.020766 5.59258-36.189825 19.90897-55.926116 17.40665-23.996448 36.91836-34.193647 61.32249-33.579942 9.99607.251377 20.67698 2.234214 34.10135 5.999962 5.20502 1.46009 10.62527 3.121097 18.13267 5.521738 2.09601.670242 11.48551 3.694441 9.85213 3.169163 3.73224 1.200428 6.56492 2.103393 9.39297 2.990638 22.03992 6.914595 39.04883 11.22301 57.46196 13.995099 23.18766 3.490893 46.33885 3.965855 70.69035.910386l3.32644-.41738 2.71583 1.965124c17.69148 12.801233 28.93989 26.490808 33.14737 40.010823 4.23878 13.620581 1.02309 26.496438-8.66765 35.399018-17.14923 15.754461-48.99232 15.417857-81.01054-1.296282-7.54132 12.876592-25.61011 23.737252-45.66125 27.388141-27.01306 4.918509-52.18492-3.678634-68.31429-26.614834-31.13953 26.537018-67.95595 33.343618-93.34681 18.436645zm120.0119-112.848997c-.04063-.013074-.08424-.027105-.1309-.042118.03647.011735.07286.023442.10916.035121zm-5.31437 16.144282c.14527.046744.25913.083375.34432.110771-.11395-.036649-.22871-.07357-.34432-.110771zm-9.46316-3.044054c-7.32937-2.343713-12.57766-3.952024-17.54627-5.345798-12.18448-3.417938-21.58677-5.163407-29.93612-5.373373-18.65823-.46921-32.93208 6.990581-47.13271 26.567276-23.00971 31.72072-21.31636 57.910768-2.01049 69.245244 20.23368 11.879198 53.06446 4.348289 80.62266-23.090481l8.22452-8.188881 5.32615 10.310764c11.80981 22.862353 32.36148 31.355234 55.8329 27.081584 9.83425-1.79061 19.24833-5.834488 26.17567-11.030952 6.0238-4.518685 9.21177-9.213725 9.25693-12.276628l.22177-15.043151 12.77242 7.955972c15.32972 9.548919 30.47245 14.687141 43.78293 15.443846 11.45187.651042 20.66937-2.032673 26.00543-6.934742 4.7576-4.370658 6.25817-10.379065 3.93767-17.835605-2.80305-9.007128-10.87356-19.16598-24.24698-29.33747-24.70607 2.798123-48.33077 2.178834-71.93181-1.374293-19.42608-2.924588-37.21605-7.430846-60.0206-14.585329-2.87796-.902904-5.75028-1.818527-9.52659-3.033158 1.67385.538315-7.7255-2.48907-9.80748-3.154825z" fill="#1e0238"/></g></svg>