<svg height="1590" width="3411" xmlns="http://www.w3.org/2000/svg"><g fill="none" fill-rule="evenodd"><path d="M1175 391.946c346.635-126.558 685.302-126.595 1016-.11-108.007 82.648-184.193 159.483-228.559 230.505C1715 561.997 1599 557.996 1387.4 625 1326.57 505.54 1255.77 427.855 1175 391.946z" fill="#cc0251"/><path d="m1171.22 399.288-19.22-8.55 19.757-7.217c348.561-127.332 689.363-127.369 1022.019-.064L2208 388.9l-12.095 9.26c-107.272 82.131-182.781 158.326-226.53 228.4l-3.255 5.214-5.968-1.456c-132.56-32.346-218.45-46.057-298.984-46.214-83.153-.161-163.385 14.46-271.518 48.72l-6.87 2.176-3.27-6.426c-60.02-117.94-129.53-194.251-208.29-229.286zm220.15 215.157c106.263-33.213 186.523-47.518 269.83-47.356 80.928.157 166.64 13.65 297.052 45.256 43.658-67.876 115.4-140.612 215.226-218.358-318.24-118.195-643.776-118.634-976.957-1.275 73.681 39.164 138.572 113.163 194.848 221.733z" fill="#1e0238" fill-rule="nonzero"/><path d="M1376.698 628.883C1202.278 689.393 862 365.043 700 545.036 592 665.032 366.333 1003.02 23 1559c202.564-99.996 345.054-149.995 427.471-149.995C635.018 1409.005 777.528 1559 878 1559c155.169 0 297.665-149.995 427.49-149.995C1467.8 1409.005 1610.305 1559 1733 1559c120.04 0 259.46-149.995 418.26-149.995 127.015 0 266.429 149.995 418.24 149.995 98.298 0 237.724-149.995 418.278-149.995 80.634 0 209.041 49.999 385.222 149.995-85-98.996-646.758-909.48-718-1014.964-89.257-132.467-403 114.996-642.856 84.847-173.144-21.849-322.144-108.846-635.446 0z" fill="#591794"/><path d="M1245.724 614.426c-22.74-6.367-47.492-14.926-76.672-26.28-21.495-8.364-32.764-13.015-81.068-33.224-16.006-6.696-26.656-11.118-37.522-15.558-39.083-15.967-69.664-27.398-98.758-36.49-35.138-10.98-66.458-17.908-95.337-20.608-67.682-6.327-121.718 10.832-162.896 56.586C584.988 659.388 359.2 997.567 15.559 1554.066L0 1579.263l26.554-13.11c201.43-99.44 343.01-149.12 423.707-149.12 42.022 0 83.953 7.905 127.763 22.975 35.324 12.15 69.52 27.863 113.57 51.046 11.464 6.034 48.931 26.187 51.433 27.52 19.661 10.472 34.205 17.868 47.954 24.234 34.895 16.156 62.183 24.224 86.807 24.224 37.21 0 75.29-8.22 117.005-23.986 32.034-12.107 60.855-26.019 110.202-51.992-1.556.82 20.556-10.838 26.556-13.982 9.993-5.236 18.27-9.51 26.157-13.49 19.233-9.706 35.61-17.369 51.07-23.756 36.618-15.127 67.689-22.793 96.498-22.793 36.67 0 74.205 7.827 115.076 22.911 32.228 11.895 62.41 26.287 109.576 51.11 5.29 2.785 23.44 12.383 26.482 13.987 10.345 5.454 18.38 9.643 26.118 13.599 19.513 9.974 35.799 17.745 51.202 24.28 37.615 15.956 69.343 24.112 99.055 24.112 29.125 0 60.208-8.167 97.045-24.139 15.077-6.537 31.016-14.31 50.112-24.288 7.572-3.956 15.434-8.146 25.556-13.6 2.975-1.604 20.733-11.203 25.909-13.987 46.135-24.818 75.656-39.206 107.171-51.095 39.953-15.072 76.637-22.89 112.466-22.89 28.131 0 58.489 7.655 94.279 22.768 15.118 6.384 31.134 14.043 49.946 23.747 7.715 3.98 15.811 8.253 25.588 13.488 5.869 3.143 27.503 14.801 25.98 13.982 48.29 25.978 76.493 39.893 107.848 52.006 40.848 15.779 78.143 24.008 114.597 24.008 24.155 0 50.893-8.08 85.07-24.254 13.458-6.369 27.69-13.766 46.93-24.241 2.449-1.334 39.104-21.486 50.319-27.519 43.086-23.177 76.53-38.884 111.073-51.029 42.83-15.058 83.815-22.956 124.884-22.956 78.73 0 206.053 49.577 381.025 148.891L3411 1590l-31.772-37.005c-37.477-43.65-171.754-230.681-363.647-504.407-140.28-200.102-309.556-444.362-353.755-509.807-26.235-38.937-70.468-49.832-134.809-39.163-26.304 4.361-56.012 12.217-93.069 24.148-14.958 4.816-30.863 10.203-50.925 17.194-9.893 3.448-45.809 16.09-53.045 18.62-56.205 19.646-94.272 31.852-132.936 41.89-71.022 18.44-130.863 25.17-184.054 18.483-20.212-2.55-41.052-6.104-65.139-10.956-16.38-3.3-18.265-3.71-62.168-13.392-44.802-9.88-71.263-15.18-101.467-19.826-39.093-6.013-76.246-9.244-114.466-9.486-90.667-.575-186.233 15.91-296.054 54.065-33.09 11.48-74.691 8.986-127.97-5.932zm1741.834 785.607c-43.126 0-85.98 8.258-130.522 23.919-35.528 12.49-69.693 28.536-113.488 52.095-11.298 6.077-48.007 26.26-50.395 27.56-18.982 10.334-32.962 17.6-46.072 23.805-32.105 15.193-56.683 22.62-77.8 22.62-34.14 0-69.437-7.788-108.47-22.866-30.506-11.785-58.223-25.46-105.92-51.119 1.54.829-20.117-10.842-26.009-13.997-9.847-5.273-18.016-9.585-25.82-13.61-19.168-9.888-35.557-17.726-51.126-24.3-37.708-15.922-70.164-24.107-100.892-24.107-38.073 0-76.724 8.238-118.466 23.984-32.4 12.223-62.472 26.88-109.225 52.03-5.195 2.794-22.96 12.397-25.92 13.992-10.064 5.423-17.867 9.582-25.363 13.499-18.762 9.802-34.354 17.407-49.003 23.758-34.887 15.127-63.848 22.736-90.282 22.736-27.077 0-56.72-7.62-92.416-22.762-14.98-6.355-30.921-13.962-50.103-23.767-7.664-3.917-15.64-8.076-25.928-13.5-3.026-1.596-21.184-11.198-26.493-13.992-47.777-25.146-78.505-39.798-111.606-52.015-42.631-15.734-82.096-23.963-120.963-23.963-31.352 0-64.484 8.174-102.99 24.081-15.906 6.571-32.651 14.407-52.237 24.291-7.975 4.025-16.324 8.336-26.388 13.61a20485.881 20485.881 0 0 0-26.584 13.996c-48.76 25.664-77.098 39.343-108.294 51.133-39.93 15.091-76.05 22.888-110.995 22.888-21.647 0-46.811-7.44-79.664-22.65-13.406-6.207-27.7-13.476-47.105-23.813-2.441-1.3-39.962-21.482-51.508-27.558-44.752-23.553-79.661-39.593-115.957-52.078-45.493-15.649-89.257-23.9-133.293-23.9-80.446 0-215.067 46-404.767 137.93 334.342-540.62 554.721-870.082 660.613-987.739 37.277-41.42 86-56.891 148.678-51.032 51.087 4.776 106.412 22.066 189.247 55.91 10.813 4.417 21.425 8.823 37.39 15.503 48.461 20.274 59.78 24.946 81.465 33.383 29.657 11.54 54.907 20.272 78.254 26.809 56.309 15.765 101.14 18.453 138.129 5.62 108.031-37.533 201.68-53.686 290.37-53.125 37.346.237 73.68 3.396 111.99 9.29 29.75 4.575 55.92 9.818 100.39 19.624 44.048 9.714 45.94 10.125 62.472 13.456 24.464 4.929 45.7 8.55 66.372 11.158 55.658 6.996 117.52.04 190.45-18.895 39.221-10.183 77.662-22.51 134.273-42.298 7.263-2.539 43.168-15.177 53.03-18.614 19.946-6.95 35.733-12.297 50.541-17.065 36.331-11.697 65.3-19.358 90.64-23.56 58.481-9.696 96.161-.415 117.934 31.9 44.274 65.554 213.596 309.881 353.929 510.059 160.32 228.69 280.153 396.501 337.712 471.81-158.204-86.707-275.225-130.124-351.815-130.124z" fill="#1e0238" fill-rule="nonzero"/><path d="M2151.459 1409.042c126.994 0 266.385 149.958 418.172 149.958 98.282 0 237.685-149.958 418.21-149.958 80.62 0 209.007 49.986 385.159 149.958-84.986-98.973-646.653-909.261-717.883-1014.72-89.243-132.435-402.935 114.969-642.752 84.827-59.676-7.53-116.484-22.8-178.141-35.12-117.205-23.422 158.461 815.055 317.235 815.055z" fill="#3a086b"/><g fill="#1e0238"><path d="M2151.739 1409.27c52.177 0 106.448 25.336 162.813 55.175 54.757 28.989-259.997-1090.478-163.073-543.846 34.472 194.418-85.896 488.672.26 488.672zM2788.622 1463c65.75-33.067 126.32-54.079 199.645-54.079 39.25 0 89.81 11.834 151.679 35.5 65.344 24.996-236.53-383.698-470.734-620.833-234.203-237.135 66.058 390.222 119.41 639.412z" opacity=".5"/><path d="M2151.02 1417.072c28.132 0 58.49 7.654 94.281 22.763 15.119 6.382 31.135 14.04 49.947 23.741 7.716 3.98 15.812 8.252 25.589 13.486 5.869 3.142 27.503 14.797 25.98 13.978 48.29 25.973 76.495 39.885 107.85 51.994 40.85 15.776 78.145 24.003 114.6 24.003 24.155 0 50.893-8.078 85.071-24.249 13.458-6.367 27.691-13.763 46.93-24.235 2.45-1.333 39.105-21.481 50.32-27.512 43.088-23.172 76.533-38.876 111.076-51.018 42.83-15.055 83.816-22.95 124.887-22.95 78.731 0 206.056 49.565 381.031 148.857L3411 1590l-31.773-36.997c-37.478-43.64-171.757-230.629-363.653-504.292-140.283-200.057-309.562-444.261-353.762-509.692-26.235-38.928-70.469-49.82-134.811-39.154-26.305 4.36-56.013 12.214-93.07 24.143-14.96 4.815-30.865 10.2-50.927 17.19-9.893 3.447-45.81 16.086-53.046 18.615-56.206 19.642-94.274 31.846-132.939 41.882-71.023 18.435-130.865 25.163-184.057 18.478-20.213-2.55-41.053-6.102-65.14-10.954-16.381-3.3-18.265-3.71-62.17-13.388-21.368-4.711-35.486-7.73-50.258-10.681-10.092-2.017-18.972.727-25.476 7.934-5.595 6.2-9.166 15.363-11.115 27.332-3.467 21.281-1.884 52.42 4.32 91.864 11.83 75.223 40.162 178.047 77.74 282.833 39.202 109.316 85.165 211.81 129.787 287.14 51.3 86.604 98.726 134.82 140.37 134.82zm836.53-16.996c-43.126 0-85.982 8.257-130.525 23.913-35.528 12.488-69.694 28.53-113.49 52.084-11.298 6.075-48.008 26.253-50.395 27.553-18.982 10.332-32.963 17.597-46.074 23.8-32.104 15.19-56.683 22.615-77.8 22.615-34.141 0-69.44-7.786-108.472-22.861-30.507-11.782-58.225-25.454-105.923-51.107 1.541.828-20.117-10.84-26.009-13.994-9.847-5.272-18.017-9.583-25.82-13.608-19.169-9.884-35.558-17.72-51.128-24.294-37.708-15.918-70.165-24.101-100.894-24.101-33.215 0-77.47-44.992-125.742-126.484-44.011-74.299-89.548-175.841-128.413-284.215-37.244-103.857-65.304-205.691-76.949-279.737-5.947-37.815-7.45-67.369-4.334-86.493 1.471-9.033 3.916-15.307 6.958-18.678 2.4-2.659 5.185-3.52 9.523-2.653 14.636 2.924 28.66 5.923 49.929 10.612 44.048 9.71 45.94 10.123 62.472 13.452 24.466 4.928 45.701 8.548 66.374 11.156 55.66 6.995 117.523.04 190.453-18.89 39.222-10.181 77.664-22.505 134.276-42.29 7.263-2.537 43.17-15.173 53.031-18.609 19.946-6.949 35.733-12.294 50.542-17.06 36.332-11.696 65.301-19.354 90.642-23.555 58.482-9.695 96.163-.416 117.936 31.892 44.274 65.54 213.6 309.811 353.935 509.943 160.324 228.638 280.159 396.412 337.718 471.703-158.206-86.687-275.23-130.094-351.82-130.094z" fill-rule="nonzero"/></g><path d="M1503.834 595.357c31.667-17.99-10.647-6.814-126.944 33.526-174.445 60.51-514.77-263.84-676.794-83.847C592.081 665.032 366.382 1003.02 23 1559c202.592-99.996 345.103-149.995 427.532-149.995 184.573 0 327.103 149.995 427.59 149.995 155.19 0 297.707-149.995 427.55-149.995 108.223 0 174.277-271.216 198.162-813.648z" fill="#3a086b"/><path d="M1233.111 873.066c0-441.787-169.681 629.252-83.89 585.633 54.064-27.487 106.231-49.892 156.501-49.892 162.583 0-72.61-93.954-72.61-535.741zM722.77 914.467c95.066-331.752-505.58 553.952-432.603 529.015 67.085-22.923 120.379-34.385 159.881-34.385 43.233 0-27.158-9.37 122.781 20.796 47.868 13.179 54.873-183.674 149.94-515.426z" fill="#1e0238" opacity=".5"/><path d="M1517.089 597.051c1.594-1.295 2.778-2.524 3.67-4.128 2.253-4.048 1.54-9.38-2.976-12.27-4.535-2.902-9.944-2.02-24.613 1.854-21.426 5.659-61.215 18.582-119.55 38.816-33.091 11.478-74.69 8.985-127.966-5.929-22.74-6.365-47.49-14.923-76.668-26.274-21.494-8.362-32.762-13.012-81.064-33.216-16.005-6.694-26.654-11.115-37.52-15.554-39.08-15.964-69.66-27.391-98.752-36.481-35.136-10.979-66.454-17.904-95.331-20.603-67.679-6.326-121.711 10.829-162.887 56.572C584.955 660.345 359.18 998.444 15.558 1554.809L0 1580l26.552-13.106c201.42-99.416 342.992-149.085 423.684-149.085 42.02 0 83.948 7.904 127.755 22.97 35.322 12.147 69.516 27.856 113.564 51.034 11.464 6.032 48.928 26.18 51.43 27.512 19.66 10.47 34.203 17.864 47.951 24.229 34.893 16.152 62.18 24.218 86.802 24.218 37.208 0 75.285-8.218 116.999-23.98 32.032-12.104 60.85-26.013 110.196-51.98-1.557.82 20.555-10.835 26.554-13.978 9.993-5.235 18.268-9.508 26.155-13.487 19.233-9.704 35.608-17.365 51.067-23.75 36.616-15.124 67.685-22.788 96.493-22.788 59.608 0 105.054-70.724 138.94-209.857 32.989-135.453 55.455-337.775 67.469-607.137 2.298-1.412 4.11-2.653 5.478-3.764zm-89.464 606.88c-32.154 132.026-73.83 196.882-122.423 196.882-31.35 0-64.48 8.173-102.983 24.076-15.906 6.57-32.65 14.403-52.235 24.285-7.975 4.023-16.323 8.334-26.387 13.605a20463.68 20463.68 0 0 0-26.582 13.994c-48.758 25.658-77.094 39.333-108.288 51.12-39.928 15.088-76.045 22.883-110.989 22.883-21.646 0-46.808-7.438-79.66-22.645-13.404-6.205-27.697-13.472-47.101-23.806-2.441-1.3-39.96-21.477-51.505-27.552-44.75-23.547-79.657-39.584-115.951-52.066-45.49-15.645-89.252-23.894-133.285-23.894-80.442 0-215.055 45.989-404.744 137.897C379.814 998.22 600.18 668.837 706.067 551.208c37.275-41.41 85.995-56.878 148.67-51.02 51.083 4.775 106.406 22.06 189.236 55.895 10.812 4.417 21.424 8.822 37.388 15.5 48.458 20.27 59.777 24.94 81.46 33.376 29.656 11.537 54.904 20.267 78.25 26.802 56.305 15.762 101.134 18.449 138.12 5.62 55.388-19.213 93.925-31.783 115.453-37.67-11.965 268.528-34.328 469.992-67.019 604.22z" fill="#1e0238" fill-rule="nonzero"/><path d="M1572.688 787.813c96.315-12.56 186.13-11.695 269.447 2.597 72.707 52.812 12.155 116.014-59.483 58.007-10.855 23.77-89.775 54.079-119.117-3.263-68.431 68.397-164.923 17.203-90.847-57.341z" fill="#af89d2" fill-rule="nonzero"/><path d="M1611.79 883.853c-19.055 3.976-37.455 1.655-51.38-6.412-14.742-8.54-23.259-22.835-22.899-39.782.374-17.636 10.215-36.786 29.148-55.838l2.048-2.06 2.882-.377c97.13-12.667 187.797-11.793 271.983 2.649l1.954.335 1.604 1.165c18.63 13.533 30.423 28.766 34.653 44.12 4.124 14.971.707 29.274-9.22 39.299-9.668 9.762-24.4 14.357-40.985 12.76-15.108-1.454-31.192-7.906-47.04-19.187-10.94 12.044-31.96 22.176-53.362 25.1-28.43 3.882-53.675-4.784-69.516-27.163-15.424 13.189-32.553 21.778-49.87 25.39zm-57.283-45.834c-.224 10.585 4.907 19.198 14.426 24.712 10.106 5.856 24.247 7.64 39.385 4.48 17.033-3.554 34.151-13.02 49.208-28.069l8.257-8.253 5.319 10.393c11.423 22.323 32.29 30.979 57.774 27.499 21.128-2.886 41.76-14.513 46.044-23.895l4.556-9.977 8.525 6.902c15.68 12.697 31.306 19.642 45.206 20.98 11.751 1.131 21.416-1.883 27.276-7.801 5.544-5.598 7.453-13.59 4.91-22.821-3.005-10.91-11.9-22.637-26.678-33.718-81.047-13.677-168.377-14.547-262.005-2.587-14.744 15.433-21.944 29.94-22.203 42.155z" fill="#1e0238"/><path d="M1551.406 723.105c55.682-76.784 118.452 19.604 255.128 2.45 68.844 49.828 13.161 98.022-56.322 54.73-.373 25.321-76.943 58.812-107.316 0-64.794 64.53-147.173 19.603-91.49-57.18z" fill="#af89d2" fill-rule="nonzero"/><path d="M1547.668 812.017c-13.623-8-21.99-21.52-23.052-37.962-1.1-17.025 5.592-36.199 19.909-55.94 17.406-24.003 36.918-34.203 61.321-33.589 9.996.252 20.677 2.235 34.101 6.002 5.205 1.46 10.626 3.122 18.133 5.523 2.096.67 11.485 3.695 9.852 3.17 3.732 1.2 6.565 2.104 9.393 2.991 22.04 6.917 39.048 11.226 57.461 13.999 23.187 3.492 46.338 3.967 70.69.91l3.326-.417 2.716 1.966c17.691 12.804 28.94 26.497 33.147 40.02 4.238 13.625 1.023 26.504-8.668 35.409-17.149 15.758-48.992 15.422-81.01-1.297-7.54 12.88-25.61 23.743-45.66 27.395-27.013 4.92-52.184-3.68-68.314-26.621-31.139 26.543-67.955 33.352-93.345 18.441zm120.01-112.878-.13-.042.108.035zm-5.314 16.149zm-9.463-3.045c-7.33-2.344-12.578-3.953-17.546-5.347-12.185-3.42-21.587-5.165-29.936-5.375-18.658-.47-32.932 6.992-47.132 26.574-23.01 31.729-21.316 57.926-2.01 69.263 20.233 11.882 53.063 4.35 80.621-23.096l8.224-8.191 5.327 10.313c11.81 22.868 32.36 31.363 55.832 27.088 9.834-1.79 19.248-5.836 26.175-11.033 6.024-4.52 9.212-9.216 9.257-12.28l.222-15.047 12.772 7.958c15.33 9.551 30.472 14.69 43.782 15.448 11.452.65 20.67-2.033 26.006-6.937 4.757-4.372 6.258-10.382 3.937-17.84-2.803-9.01-10.873-19.17-24.247-29.345-24.705 2.799-48.33 2.18-71.93-1.375-19.426-2.925-37.216-7.432-60.02-14.589-2.878-.903-5.75-1.819-9.527-3.033 1.674.538-7.725-2.49-9.807-3.156z" fill="#1e0238"/><path d="M1533.406 660.105c55.682-76.784 118.452 19.604 255.128 2.45 68.844 49.828 13.161 98.022-56.322 54.73-.373 25.321-76.943 58.812-107.316 0-64.794 64.53-147.173 19.603-91.49-57.18z" fill="#af89d2" fill-rule="nonzero"/><path d="M1529.169 749.484c-13.623-7.998-21.99-21.515-23.052-37.952-1.1-17.02 5.592-36.19 19.909-55.926 17.406-23.996 36.918-34.194 61.322-33.58 9.996.251 20.677 2.234 34.101 6 5.205 1.46 10.626 3.121 18.133 5.522 2.096.67 11.486 3.694 9.852 3.169 3.732 1.2 6.565 2.103 9.393 2.99 22.04 6.915 39.049 11.224 57.462 13.996 23.188 3.49 46.339 3.966 70.69.91l3.327-.417 2.716 1.965c17.691 12.801 28.94 26.49 33.147 40.01 4.239 13.621 1.023 26.497-8.668 35.4-17.149 15.754-48.992 15.417-81.01-1.297-7.541 12.877-25.61 23.738-45.661 27.388-27.013 4.919-52.185-3.678-68.315-26.614-31.14 26.537-67.956 33.343-93.346 18.436zm120.011-112.849-.13-.042.109.035zm-5.314 16.145zm-9.463-3.044c-7.33-2.344-12.578-3.952-17.546-5.346-12.185-3.418-21.587-5.164-29.936-5.374-18.659-.469-32.933 6.99-47.133 26.568-23.01 31.72-21.316 57.91-2.01 69.245 20.233 11.88 53.064 4.348 80.622-23.09l8.225-8.19 5.326 10.311c11.81 22.863 32.361 31.356 55.833 27.082 9.834-1.79 19.248-5.835 26.175-11.031 6.024-4.519 9.212-9.214 9.257-12.277l.222-15.043 12.772 7.956c15.33 9.549 30.473 14.687 43.783 15.444 11.452.651 20.67-2.033 26.006-6.935 4.757-4.37 6.258-10.379 3.937-17.835-2.803-9.008-10.873-19.166-24.247-29.338-24.706 2.798-48.33 2.179-71.931-1.374-19.426-2.925-37.216-7.431-60.021-14.585-2.878-.903-5.75-1.819-9.527-3.034 1.674.539-7.725-2.489-9.807-3.154z" fill="#1e0238"/><path d="M1957.08 75.883c7.68-29.214-7.68-15.419-46.08 41.386L1957.08 183c-7.68-42.198-7.68-77.904 0-107.117z" fill="#78bc4d"/><path d="M1965.883 78.517c2.49-9.43 3.1-15.25.83-19.78-2.472-4.94-7.745-6.762-12.748-5.184-2.62.826-5.069 2.47-7.823 4.932-8.419 7.525-22.166 25.49-41.851 54.468l-3.291 4.844L1973 220l-6.975-38.135c-7.503-41.027-7.503-75.484-.142-103.348zm-18.432 3.802c-4.203 19.966-5.198 42.476-3.022 67.535l-22.699-32.221c10.497-15.303 19.11-27.111 25.721-35.314z" fill="#000" fill-rule="nonzero"/><path d="M1987.199 394.144c-1.233-8.233-13.75-27.584-32.085-36.779 45.836-41.377 64.17-50.571 64.17-64.364 21.39-15.324 24.445-27.584 9.167-36.779-3.056-33.714-29.03-61.299-77.92-82.753-50.42-101.143-96.677-90.448-110.428-95.045-113.637-65.611-204.6-71.899-272.892-18.863-13.112 0-85.214 6.552-118.827 123.02-2.861 6.561-12.485-15.915-27.043-41.007-14.558-25.091-32.464-71.3-31.96-50.848.492 19.951-18.192 89.02-12.192 133.722 5.488 40.881 35.92 61.455 33.499 68.851-63.102 192.732-3.52 228.214 3.566 238.768 7.087 10.554 84.12 120.452 167.708 127.013 83.589 6.561 178.863 11.56 220.444 0 59.004-16.403 111.299-106.12 120.466-110.718 36.73-18.421 46.711-31.986 41.794-54.95 6.396-16.878 28.682-47.567 31.96-69.71.476-3.213-8.15-.693-8.194-4.102-.106-8.217 0-17.222-1.233-25.456z" fill="#78bc4d"/><g fill="#000" fill-rule="nonzero"><path d="M1969.666 355.7a1158.41 1158.41 0 0 1 17.658-15.268c1.993-1.691 15.721-13.245 18.953-16.028 12.643-10.887 18.03-16.781 20.614-24.007.386-1.077.69-2.164.912-3.263 10.341-7.897 16.596-15.446 18.543-23.26 2.241-8.99-1.37-16.904-9.422-22.997-4.913-34.734-31.881-62.847-79.68-84.432-20.156-39.71-41.191-65.313-63.235-79.923-8.995-5.962-17.87-9.913-26.972-12.4-3.572-.977-7.068-1.701-10.799-2.29a159.318 159.318 0 0 0-4.483-.636c-.667-.087-3.167-.4-3.742-.476-1.96-.255-3.227-.463-4.066-.664-114.711-65.99-208.217-72.907-279.214-19.411-5.299.26-11.648 1.206-18.585 3.055-11.627 3.1-23.421 8.357-34.935 16.171-27.752 18.834-50.564 50.043-66.077 95.766-3.948-7.192-12.365-22.659-15.94-28.82-1.998-3.445-4.182-7.51-6.662-12.367a647.888 647.888 0 0 1-3.855-7.687c-1.21-2.45-6.722-13.73-8.146-16.598-3.01-6.063-5.22-10.283-7.13-13.52-3.396-5.752-5.482-8.391-9.54-9.598-5.66-1.684-10.187 1.737-11.725 6.46-.637 1.958-.819 4.138-.75 6.937.083 3.342-.525 9.046-1.873 17.864-.792 5.183-4.329 26.428-4.706 28.763-2.255 13.96-3.843 25.222-4.994 36.168-2.14 20.37-2.471 37.498-.545 51.846 2.266 16.882 8.383 31.517 17.722 45.7 2.17 3.293 4.413 6.424 7.085 9.954 1.006 1.329 4.898 6.372 5.742 7.499 1.274 1.7 2.135 2.943 2.668 3.843-20.12 61.916-29.008 111.718-28.474 151.138.43 31.71 6.837 55.234 17.692 73.014 3.263 5.346 6.651 9.76 10.602 14.152.668.743 1.324 1.454 2.114 2.299.138.148 1.392 1.484 1.708 1.823.939 1.01 1.423 1.578 1.572 1.8 3.748 5.58 10.106 14.269 17.862 23.95 11.698 14.603 24.603 29.02 38.447 42.421 38.818 37.577 78.564 61.296 117.784 64.375 50.06 3.93 91.137 6.26 126.501 6.82 43.936.696 76.497-1.439 96.877-7.104 26.002-7.229 51.534-27.034 78.05-56.693 10.172-11.378 18.229-21.44 30.872-37.993 6.31-8.26 7.77-10.153 9.907-12.768 1.273-1.56 2.285-2.726 3.05-3.517.234-.242.43-.434.578-.57 37.945-19.108 50.91-35.392 46.346-61.457 1.174-2.72 2.831-6.042 5.09-10.245 1.71-3.183 8.41-15.236 8.86-16.054 2.624-4.778 4.728-8.745 6.644-12.576 5.977-11.948 9.654-21.704 10.948-30.447.762-5.152-2.235-9.122-6.46-10.706a12.933 12.933 0 0 0-1.702-.507c-.035-3.222-.07-5.041-.144-7.27-.171-5.131-.512-9.49-1.123-13.577-1.613-10.77-12.603-26.282-26.422-36.688zm9.7 91.591c-1.805 3.608-3.814 7.395-6.341 11.998-.397.722-7.157 12.88-8.936 16.192-3.215 5.985-5.397 10.49-6.888 14.421l-.887 2.343.524 2.45c3.957 18.477-3.839 28.793-37.291 45.57-2.688 1.348-4.95 3.69-8.713 8.296-2.308 2.827-3.785 4.74-10.25 13.203-12.394 16.227-20.232 26.016-30.035 36.982-24.533 27.44-47.806 45.494-69.93 51.644-34.251 9.522-107.296 8.365-217.494-.285-34.425-2.702-71.05-24.559-107.292-59.641-13.292-12.867-25.727-26.76-37.003-40.835-7.452-9.303-13.53-17.607-17.016-22.8-.802-1.193-1.702-2.247-3.233-3.894-.35-.378-1.632-1.743-1.745-1.863-.72-.77-1.305-1.406-1.89-2.056-3.296-3.664-6.062-7.267-8.732-11.64-9.219-15.102-14.814-35.642-15.203-64.387-.512-37.779 8.24-86.395 28.258-147.54 1.188-3.63.485-6.978-1.296-10.474-1.025-2.012-2.413-4.08-4.549-6.93-.934-1.247-4.861-6.336-5.793-7.567-2.465-3.255-4.501-6.097-6.441-9.043-8.032-12.197-13.179-24.512-15.072-38.612-1.715-12.777-1.408-28.665.604-47.808 1.112-10.58 2.66-21.556 4.869-35.233.361-2.237 3.916-23.59 4.728-28.906l.128-.84c2.14 4.355 5.985 12.219 6.992 14.258a664.384 664.384 0 0 0 3.956 7.889c2.607 5.104 4.927 9.423 7.097 13.165 4.302 7.414 16.323 29.628 17.9 32.358 2.832 4.904 4.936 8.057 7.014 10.195 2.122 2.184 4.375 3.62 7.559 3.82 4.696.297 8.071-2.471 9.713-6.235l.221-.508.154-.533c14.371-49.798 36.608-82.117 63.705-100.508 9.89-6.712 19.937-11.189 29.77-13.81 6.818-1.819 12.798-2.557 17.181-2.557h2.913l2.3-1.787c65.129-50.58 152.484-44.542 263.419 19.51l.742.43.813.27c2.142.717 4.305 1.114 7.92 1.585 10.572 1.377 11.62 1.543 16.74 2.942 7.395 2.021 14.61 5.233 22.062 10.172 19.831 13.143 39.456 37.29 58.79 76.076l1.373 2.755 2.818 1.236c46.333 20.333 70.138 45.615 72.868 75.736l.39 4.293 3.692 2.223c4.733 2.848 5.806 4.732 5.302 6.752-.92 3.696-5.836 9.243-15.036 15.834l-3.55 2.543v4.367c0 .75-.119 1.434-.38 2.166-1.223 3.42-5.356 7.942-15.7 16.848-3.146 2.71-16.803 14.203-18.86 15.95-9.235 7.836-17.512 15.045-26.423 23.089l-9.23 8.333 11.115 5.574c7.258 3.64 14.116 9.524 19.611 16.44 4.47 5.626 7.485 11.376 7.877 14 .503 3.353.795 7.095.946 11.625.085 2.543.115 4.565.158 9.24.016 1.677.024 2.485.036 3.441.06 4.665 2.93 7.958 6.744 9.425-1.59 5.286-4.192 11.453-7.793 18.653z"/><path d="M1640.028 137.017c-4.683-.294-8.718 3.279-9.011 7.981-.293 4.702 3.266 8.753 7.95 9.047 60.143 3.78 112.074 15.894 155.825 36.284l3.586 1.671 3.583-1.677c30.874-14.454 63.748-23.993 98.653-28.62 4.653-.617 7.926-4.903 7.312-9.574-.614-4.67-4.884-7.957-9.536-7.34-35.264 4.674-68.616 14.147-100.029 28.419-45.01-20.34-97.798-32.386-158.333-36.191z"/><path d="M1675.756 178.806c-4.688-.146-8.607 3.546-8.752 8.247-.145 4.7 3.538 8.629 8.226 8.774 51.832 1.61 94.077 10.343 126.736 26.068l4.371 2.105 4.03-2.704c20.558-13.796 52.67-23.668 96.232-29.336 4.652-.605 7.933-4.877 7.33-9.54s-4.864-7.953-9.516-7.348c-43.3 5.633-76.407 15.372-99.41 29.454-34.327-15.575-77.41-24.11-129.247-25.72zM1634.719 221.173c-21.878 4.425-42.635 22.976-53.776 44.498-2.156 4.163-.49 9.266 3.72 11.397 4.21 2.131 9.37.484 11.525-3.68 8.963-17.312 25.789-32.35 41.963-35.621 4.633-.937 7.621-5.411 6.674-9.994-.948-4.582-5.472-7.537-10.106-6.6zM1396.861 192.821a39.888 39.888 0 0 1 5.108 8.229c1.527 3.286 2.539 6.358 4.207 12.374 4.135 14.918 6.575 21.346 13.213 31.365 10.253 15.476 21.995 26.631 35.273 33.303a8.514 8.514 0 0 0 11.43-3.782 8.509 8.509 0 0 0-3.784-11.426c-10.426-5.238-20.016-14.348-28.724-27.493-5.383-8.126-7.312-13.208-11-26.513-1.904-6.863-3.146-10.635-5.175-15a56.891 56.891 0 0 0-7.244-11.678c-2.934-3.673-8.29-4.272-11.964-1.34s-4.274 8.289-1.34 11.961z"/></g><path d="M1554 60.189c95.212-92.121 255.381-44.72 315 23.254-31.44-1.789-63.771 16.397-96.992 54.557C1728.11 86.126 1655.441 60.189 1554 60.189z" fill="#444"/><path d="M1609.425 33.425c5.99-2.197 31.697.883 55.993 8.016 30.21 8.869 54.015 21.993 64.056 36.831 2.616 3.866 7.888 4.891 11.777 2.29s4.919-7.843 2.303-11.708c-12.783-18.891-39.665-33.712-73.33-43.595-27.68-8.126-56.122-11.535-66.674-7.663-4.397 1.613-6.645 6.465-5.023 10.836 1.622 4.37 6.502 6.607 10.898 4.993zM1721.306 19.942c20.215 2.808 47.417 27.631 59.493 54.997 1.895 4.296 6.896 6.234 11.168 4.328 4.273-1.907 6.2-6.935 4.304-11.231-14.26-32.318-45.963-61.247-72.648-64.955-4.63-.643-8.903 2.61-9.542 7.266-.64 4.656 2.595 8.951 7.225 9.595z" fill="#242424" fill-rule="nonzero"/><path d="M1553.908 68.177 1548 53.557c46.237-44.593 110.148-60.768 178.385-50.654 59.876 8.875 117.469 37.855 149.615 74.388l-6.871 14.104c-28.466-1.615-58.585 15.273-90.316 51.605l-12.898-.09c-42.164-49.665-112.624-74.733-212.007-74.733zm218.519 56.504c26.052-27.962 52.01-44.446 77.89-49.058-30.767-27.316-77.788-48.689-126.429-55.898-55.332-8.202-107.049 2.079-147.322 31.889 87.735 3.496 153.164 27.744 195.86 73.067z" fill="#242424" fill-rule="nonzero"/><path d="M1870.995 466.868c100.026-6.064 102.175-39.91 133.251-33.223 27.57 4.746-18.38 42.715-22.974 47.461-4.595 4.746 13.785 23.73-13.785 33.223-39.295 11.275-60.5 22.671-147.512 22.671s-235.03-23.024-256.034-86.092c-15.002-56.06 152.02 25.027 307.054 15.96z" fill="#dd503c"/><path d="M1606.57 468.037c12.985 6.775 51.78 18.02 94.507 27.271 50.685 10.974 99.257 17.692 135.422 17.692 52.908 0 102.164-7.735 147.734-23.223a8.5 8.5 0 1 0-5.47-16.095C1935 488.555 1887.59 496 1836.499 496c-34.74 0-82.219-6.566-131.825-17.307-41.267-8.935-79.039-19.883-90.24-25.727a8.5 8.5 0 0 0-7.864 15.071z" fill="#000" fill-rule="nonzero"/><path d="M1990.495 488.047c1.424 5.392 1.955 9.112 1.345 13.52-1.338 9.673-8.353 16.918-21.095 21.304l-.21.072-.212.061-1.22.351a708.789 708.789 0 0 0-11.386 3.416c-.254.078-8.591 2.653-10.997 3.386-18.21 5.552-31.042 8.681-47.937 11.188-20.862 3.095-45.824 4.655-78.32 4.655-49.394 0-107.787-6.942-154.987-19.686-59.126-15.963-98.29-39.7-109.117-72.206l-.08-.243-.067-.246c-3.14-11.735-.194-21.25 9.035-26.412 6.982-3.904 16.844-4.872 30.632-3.8 11.009.857 24.464 2.995 43.657 6.749 9.122 1.784 46.67 9.527 55.579 11.301 59.142 11.776 103.5 17.77 147.604 18.111 9.659.075 19.079-.15 28.27-.687h-.018c34.729-2.104 59.2-7.537 79.23-15.938 5.933-2.488 9.942-4.468 18.149-8.78 7.78-4.087 11.06-5.66 15.42-7.128 7.378-2.487 14.46-2.953 22.591-1.23 10.508 1.872 16.618 8.613 15.51 18.09-.7 5.987-4.2 12.217-9.943 19.333-2.427 3.008-5.233 6.127-8.386 9.372-3.578 3.682-10.293 9.993-13.663 13.11.138.53.334 1.27.616 2.337zm12.804-45.506-.174-.03-.172-.037c-5.166-1.111-9.188-.854-13.757.686-3.199 1.078-5.99 2.416-12.943 6.068-8.617 4.527-12.97 6.677-19.48 9.407-21.85 9.165-48.193 15.013-84.774 17.23l-.018.002c-9.574.56-19.368.793-29.393.716-45.405-.352-90.687-6.47-150.791-18.438-8.997-1.791-46.506-9.527-55.522-11.29-18.597-3.637-31.518-5.69-41.713-6.484-10.695-.831-17.75-.14-21.02 1.69-1.724.963-2.17 2.325-.972 6.907 8.607 25.314 43.437 46.367 97.335 60.919 45.674 12.332 102.591 19.098 150.559 19.098 31.712 0 55.86-1.509 75.826-4.47 15.944-2.366 28.005-5.308 45.476-10.634 2.37-.722 10.677-3.289 10.958-3.375a724.762 724.762 0 0 1 12.692-3.794c6.951-2.423 9.208-4.776 9.582-7.478.218-1.573-.055-3.482-.942-6.84l-.372-1.393a89.033 89.033 0 0 1-.383-1.477c-.314-1.262-.531-2.313-.668-3.367-.51-3.924.124-7.47 3.027-10.468-.238.245 11.075-10.199 15.692-14.95 2.813-2.896 5.28-5.637 7.348-8.2 3.313-4.106 5.392-7.548 6.064-9.666-.402-.12-.89-.233-1.465-.332z" fill="#000" fill-rule="nonzero"/><path d="M1567.234 396.321c-29.988 8.492-44.235 31.934-42.008 67.71.292 4.684 4.311 8.245 8.978 7.952 4.666-.293 8.213-4.328 7.921-9.013-1.757-28.223 7.9-44.113 29.705-50.288 4.5-1.274 7.12-5.97 5.85-10.487s-5.946-7.148-10.446-5.874z" fill="#000" fill-rule="nonzero"/><path d="M1638 473.002c4 9.249 9.92 26.915 17.757 52.998 21.403-24.414 32.817-37.456 34.243-39.127-7-.99-51.486-14.041-52-13.871z" fill="#ede9f1"/><path d="M1629.645 476.962c3.838 8.895 9.692 26.403 17.452 52.286l4.424 14.752 10.164-11.62c21.524-24.607 32.904-37.639 34.372-39.361l9.943-11.671-15.239-2.162c-2.245-.319-11.05-2.621-24.49-6.363l-1.223-.34c-4.15-1.159-16.876-.761-17.286-.876-2.62-.734-4.46-1.244-5.784-1.6a89.416 89.416 0 0 0-1.819-.475 19.78 19.78 0 0 0-.797-.182c-2.51-.508-2.38-.491-4.584.238l-8.778 2.907zm30.798 11.802 1.233.343c4.738 1.32 8.837 2.446 12.33 3.383-3.832 4.389-8.858 10.139-15.067 17.24-2.847-9.173-5.394-17.012-7.646-23.533 3.506.986 7.232 2.032 9.15 2.567z" fill="#000" fill-rule="nonzero"/><g fill="#000" fill-rule="nonzero"><path d="M1955.185 350.237c-50.817 8.998-93.868 7.509-129.191-4.306a8.5 8.5 0 1 0-5.393 16.122c38.26 12.797 84.123 14.384 137.549 4.923a8.5 8.5 0 1 0-2.965-16.74zM1831.768 290.088a8.5 8.5 0 0 0-16.941-1.407c-2.777 33.433-12.872 49.894-29.527 52.282l-.196.03c-53.53 8.953-97.724 4.518-132.755-13.058a8.5 8.5 0 0 0-7.624 15.195c38.53 19.332 86.285 24.132 143.09 14.646 26.203-3.812 40.602-27.337 43.953-67.688z"/></g><g transform="translate(1619 218)"><path d="M8 54.667C8 31.333 62.398 8 107.73 8c86.13 0 94.108 25.368 95.197 46.667C204.016 75.965 193.86 92 112.263 92 53.332 92 8 78 8 54.667zM414 50c0 23.333-45.158 42-103.77 42-81.153 0-100.27-11.368-99.187-32.667C212.126 38.035 229.077 8 314.739 8 359.825 8 414 26.667 414 50z" fill="#fff"/><ellipse cx="95.5" cy="50" fill="#000" fill-rule="nonzero" rx="42.5" ry="42"/><ellipse cx="306.5" cy="50" fill="#000" fill-rule="nonzero" rx="42.5" ry="42"/><ellipse cx="83" cy="40.5" fill="#fff" rx="6" ry="5.5"/><ellipse cx="286" cy="34.5" fill="#fff" rx="6" ry="5.5"/><g fill="#000" fill-rule="nonzero"><path d="M5 57.571C5 30.066 60.64 5 110.205 5c74.253 0 98.908 17.075 100.72 52.211C212.534 88.465 188.661 101 114.681 101 50.554 101 5 85.495 5 57.571zm13.43 0c0 16.268 39.506 29.715 96.252 29.715 67.3 0 83.894-8.714 82.83-29.354-.617-11.971-3.66-19.193-12.575-25.367-12.8-8.863-36.68-13.85-74.732-13.85-42.955 0-91.775 21.992-91.775 38.856z"/><path d="M422 53c0 28.524-49.363 48-111.793 48-80.09 0-108.668-10.303-107.15-39.218C204.873 27.192 238.848 5 314.767 5 367.415 5 422 25.903 422 53zm-13.68 0c0-15.92-47.958-34.286-93.553-34.286-38.617 0-64.993 5.892-80.785 16.207-11.57 7.558-16.705 16.942-17.264 27.582-.887 16.901 20.976 24.783 93.489 24.783 55.456 0 98.113-16.83 98.113-34.286z"/></g></g></g></svg>