<svg height="687" width="2265" xmlns="http://www.w3.org/2000/svg"><g fill="none" fill-rule="evenodd"><path d="M611.528 30.4c2.6-8.667 4.55-11.917 5.85-9.75.433.433 3.9 2.058 10.4 4.875s14.625 6.283 24.375 10.4 20.366 8.667 31.85 13.65a7952.312 7952.312 0 0 0 33.15 14.3c10.617 4.55 19.933 8.45 27.95 11.7 8.016 3.25 13.325 5.525 15.925 6.825.433.433.216 2.925-.65 7.475-.867 4.55-1.734 7.258-2.6 8.125-.867.867-1.95 3.033-3.25 6.5-.867 2.6-1.409 5.417-1.625 8.45-.217 3.033-.325 7.583-.325 13.65 0 7.367-.109 12.025-.325 13.975-.217 1.95-.975 3.358-2.275 4.225-1.734 1.3-2.925 1.95-3.575 1.95-.65 0-1.842-.65-3.575-1.95-1.3-1.3-1.734-3.467-1.3-6.5.433-3.033.216-4.983-.65-5.85-2.167-1.733-6.067 3.25-11.7 14.95-1.3 3.033-2.6 5.742-3.9 8.125-1.3 2.383-2.167 4.008-2.6 4.875-.867 2.167-2.925 6.392-6.175 12.675s-8.342 16.358-15.275 30.225a937.58 937.58 0 0 0-7.8 15.925c-2.167 4.55-3.467 7.042-3.9 7.475l-1.95 3.9a77.487 77.487 0 0 0-2.6 5.85l-4.55 9.1c-.434.867-2.167 4.55-5.2 11.05-3.034 6.5-6.717 14.083-11.05 22.75-4.767 8.667-8.667 16.25-11.7 22.75-3.034 6.5-4.767 9.967-5.2 10.4-3.034 5.633-5.525 10.4-7.475 14.3-1.95 3.9-3.359 7.475-4.225 10.725-.867 3.25-1.517 6.392-1.95 9.425-.434 3.033-.65 6.283-.65 9.75.433 6.933.325 11.375-.325 13.325-.65 1.95-2.709 4.008-6.175 6.175-2.6 1.733-4.117 3.9-4.55 6.5 0 2.6-1.734 5.633-5.2 9.1-3.034 4.333-4.767 8.233-5.2 11.7l-1.3 5.2c-.434 1.733-.867 3.033-1.3 3.9-2.167 3.9-1.95 7.8.65 11.7.866 1.3 1.191 2.383.975 3.25-.217.867-.759 2.383-1.625 4.55-1.3 2.167-2.275 3.575-2.925 4.225-.65.65-2.059.975-4.225.975-1.3 0-2.6-.217-3.9-.65-1.3-.433-2.384-.867-3.25-1.3-1.3-.867-2.167-1.842-2.6-2.925-.434-1.083-.217-4.008.65-8.775.433-4.767.541-7.8.325-9.1-.217-1.3-.975-2.383-2.275-3.25l-2.6-2.6-18.2 5.2c-7.8 2.167-16.142 5.417-25.025 9.75-8.884 4.333-15.275 10.4-19.175 18.2-1.3 3.467-1.95 5.958-1.95 7.475 0 1.517.866 3.575 2.6 6.175 1.3 2.167 2.058 3.683 2.275 4.55.216.867-.109 2.383-.975 4.55-1.734 5.2-4.767 7.367-9.1 6.5-4.334-.433-7.584-3.9-9.75-10.4-.867-3.467-2.384-5.85-4.55-7.15-1.734-1.733-2.6-3.683-2.6-5.85 0-6.933-3.684-8.017-11.05-3.25-3.034 2.167-5.85 3.25-8.45 3.25-4.334 0-5.417 3.033-3.25 9.1 1.733 6.067.975 10.942-2.275 14.625s-7.259 4.658-12.025 2.925c-.434-.433-1.517-2.383-3.25-5.85-2.167-5.633-1.734-13.217 1.3-22.75 3.466-10.4-.217-22.317-11.05-35.75-2.6-3.467-4.334-7.583-5.2-12.35 0-1.3-.217-2.167-.65-2.6l-.65-7.15c0-.433-.109-.867-.325-1.3a2.885 2.885 0 0 1-.325-1.3c-.867-2.167-2.059-4.983-3.575-8.45-1.517-3.467-4.225-8.233-8.125-14.3-2.6-4.767-5.959-10.508-10.075-17.225-4.117-6.717-7.909-12.675-11.375-17.875a1824.86 1824.86 0 0 1-28.925-46.8c-9.317-15.6-18.742-31.417-28.275-47.45-2.6-3.467-5.634-8.017-9.1-13.65-3.467-5.633-6.284-10.4-8.45-14.3-12.567-19.933-21.884-34.992-27.95-45.175-6.067-10.183-9.75-16.358-11.05-18.525-.867-1.733-.759-2.925.325-3.575 1.083-.65 4.658-2.708 10.725-6.175 13-7.367 23.725-13.325 32.175-17.875 8.45-4.55 15.166-8.125 20.15-10.725 4.983-2.6 8.45-4.333 10.4-5.2 1.95-.867 3.141-1.3 3.575-1.3.433.433 1.408 1.625 2.925 3.575 1.516 1.95 3.358 4.008 5.525 6.175 2.166 3.033 4.658 6.5 7.475 10.4a762.85 762.85 0 0 0 8.125 11.05c5.2 7.367 10.508 14.842 15.925 22.425 5.416 7.583 11.808 16.358 19.175 26.325 3.033 3.9 6.608 8.667 10.725 14.3a917.046 917.046 0 0 1 10.725 14.95c3.466 3.9 6.716 8.45 9.75 13.65l18.2 24.7a186.87 186.87 0 0 1 5.2 6.825c1.733 2.383 3.25 4.658 4.55 6.825 3.033 3.9 6.391 8.342 10.075 13.325 3.683 4.983 6.608 8.992 8.775 12.025 2.166 3.033 4.116 5.742 5.85 8.125 1.733 2.383 3.033 4.008 3.9 4.875.433.867 1.191 1.95 2.275 3.25 1.083 1.3 2.058 2.817 2.925 4.55 4.766 6.067 7.15 6.933 7.15 2.6 0-.867.541-3.575 1.625-8.125 1.083-4.55 2.708-9.858 4.875-15.925.433-3.033 5.416-20.583 14.95-52.65 3.466-13 5.633-21.45 6.5-25.35.866-3.9 1.733-6.717 2.6-8.45.433-.867 1.191-3.142 2.275-6.825a174.338 174.338 0 0 0 2.925-11.375c3.9-13.867 8.016-28.383 12.35-43.55 4.333-15.167 8.45-29.467 12.35-42.9 1.3-4.333 2.708-9.533 4.225-15.6a430.143 430.143 0 0 1 4.875-17.875c1.733-5.85 3.358-11.267 4.875-16.25 1.516-4.983 2.491-8.775 2.925-11.375zm133.65 403.65c-3.034-1.3-4.117-2.383-3.25-3.25.866-.433 2.816-4.875 5.85-13.325 3.033-8.45 6.283-18.742 9.75-30.875a208.719 208.719 0 0 0 4.55-13.975c1.3-4.55 2.383-7.908 3.25-10.075.866-1.733 2.166-5.417 3.9-11.05a416.08 416.08 0 0 1 5.85-17.55 384.828 384.828 0 0 0 6.175-18.85c1.95-6.5 3.575-11.267 4.875-14.3 3.9-12.567 7.8-25.025 11.7-37.375 3.9-12.35 8.016-24.808 12.35-37.375a5109.334 5109.334 0 0 1 7.8-24.7 5109.11 5109.11 0 0 0 7.8-24.7c2.166-6.5 4.225-12.567 6.175-18.2 1.95-5.633 3.141-9.317 3.575-11.05.866-1.3 2.166-4.767 3.9-10.4a4537.106 4537.106 0 0 1 5.85-18.85c8.666-26.867 14.95-46.367 18.85-58.5 3.9-12.133 6.066-18.85 6.5-20.15.866-.867 1.625-2.383 2.275-4.55a77.336 77.336 0 0 1 2.275-6.5l2.6-7.8 11.7.65c1.733 0 4.766.108 9.1.325 4.333.217 9.533.542 15.6.975s12.675.758 19.825.975c7.15.217 14.625.542 22.425.975s15.816.867 24.05 1.3c8.233.433 16.25.867 24.05 1.3 7.8.433 14.95.758 21.45.975 6.5.217 11.916.542 16.25.975 8.233.433 15.708.758 22.425.975 6.716.217 10.725.325 12.025.325 3.033 0 4.983.433 5.85 1.3.433 0 1.083 3.9 1.95 11.7s1.841 20.475 2.925 38.025c1.083 17.55 2.491 40.517 4.225 68.9 1.733 28.383 3.9 63.158 6.5 104.325a796.675 796.675 0 0 1 1.95 33.475c.433 11.483.975 22.317 1.625 32.5s1.191 19.392 1.625 27.625c.433 8.233.866 14.517 1.3 18.85.866 11.7 1.3 21.233 1.3 28.6 0 7.367-.217 13.325-.65 17.875-.434 4.55-1.192 8.233-2.275 11.05a21.264 21.264 0 0 1-4.875 7.475c-1.3 1.733-2.167 3.358-2.6 4.875-.434 1.517-.65 4.008-.65 7.475 0 11.7-1.734 19.283-5.2 22.75-1.734 1.733-3.25 2.6-4.55 2.6-3.034 0-4.55-6.283-4.55-18.85v-14.3l-3.9-2.6c-2.6-2.167-3.9-4.983-3.9-8.45 0-6.067-2.167-6.933-6.5-2.6-2.6 2.167-5.2 3.033-7.8 2.6-3.034-.867-4.55-1.517-4.55-1.95-1.3-2.167-3.25-1.517-5.85 1.95-1.3 1.3-2.384 4.117-3.25 8.45-.867 3.467-1.734 6.283-2.6 8.45-1.3 1.733-1.95 4.55-1.95 8.45 0 3.467-.434 5.633-1.3 6.5s-2.817 1.3-5.85 1.3c-6.934 0-8.45-5.2-4.55-15.6 2.166-4.767 2.925-8.233 2.275-10.4-.65-2.167-2.709-4.55-6.175-7.15-1.734-.867-3.142-1.95-4.225-3.25-1.084-1.3-1.842-2.383-2.275-3.25 0-1.733-.65-6.067-1.95-13s-2.709-14.408-4.225-22.425a1296.947 1296.947 0 0 0-4.225-21.45c-1.3-6.283-1.95-9.642-1.95-10.075 0-1.3-.867-3.25-2.6-5.85-.434-1.733-1.734-3.683-3.9-5.85a24.407 24.407 0 0 1-2.275-2.6 17.076 17.076 0 0 1-1.625-2.6c-1.734-5.633-4.55-7.8-8.45-6.5-1.3.867-2.275 1.192-2.925.975-.65-.217-1.625-.975-2.925-2.275-2.6-3.467-8.017-3.683-16.25-.65-8.667 3.033-13.867 6.067-15.6 9.1-.867 2.167-3.034 3.25-6.5 3.25-2.167 0-3.359-.217-3.575-.65-.217-.433-.542-1.95-.975-4.55-.434-3.033-1.734-4.767-3.9-5.2-2.167-.433-5.525-.217-10.075.65-4.55.867-6.825 1.733-6.825 2.6s-2.167 2.275-6.5 4.225c-4.334 1.95-7.8 3.142-10.4 3.575-5.634.867-9.425 1.517-11.375 1.95-1.95.433-4.009 1.733-6.175 3.9-1.734 1.3-3.034 2.492-3.9 3.575-.867 1.083-1.842 2.492-2.925 4.225-1.084 1.733-2.492 4.225-4.225 7.475-1.734 3.25-3.9 7.692-6.5 13.325-6.067 13-10.725 22.858-13.975 29.575-3.25 6.717-5.634 11.7-7.15 14.95-1.517 3.25-2.384 5.525-2.6 6.825-.217 1.3-.325 2.817-.325 4.55 0 3.467-.65 7.583-1.95 12.35-1.3 4.767-3.034 8.233-5.2 10.4-.434.867-1.084 2.383-1.95 4.55l-2.6 6.5c-1.734 5.633-3.034 8.883-3.9 9.75s-2.059 1.3-3.575 1.3c-1.517 0-2.709-.65-3.575-1.95-1.3-1.3-1.95-3.9-1.95-7.8-.867-2.6-1.625-4.55-2.275-5.85-.65-1.3-.975-.867-.975 1.3 0 4.333-2.167 5.633-6.5 3.9-1.734-1.3-2.6-3.467-2.6-6.5 0-1.733-.217-3.25-.65-4.55-.434-1.3-.867-2.383-1.3-3.25-5.2-5.633-13.217-7.15-24.05-4.55-2.167.867-3.575 1.408-4.225 1.625-.65.217-.975 1.408-.975 3.575 0 6.067-1.517 9.1-4.55 9.1-3.9 0-5.634-3.033-5.2-9.1.433-3.467 0-5.2-1.3-5.2-.867 0-1.3.65-1.3 1.95.866 1.3.325 2.6-1.625 3.9-1.95 1.3-3.792 1.733-5.525 1.3-1.734-.433-2.384-2.817-1.95-7.15 0-6.067-2.167-9.967-6.5-11.7zm167.05-148.2 39.65-6.5c11.267-2.167 20.8-3.9 28.6-5.2 7.8-1.3 11.916-1.95 12.35-1.95 0-.433-.217-2.6-.65-6.5-.434-3.9-1.084-8.883-1.95-14.95l-3.9-25.35c-1.734-11.267-3.467-22.1-5.2-32.5s-3.25-19.392-4.55-26.975c-1.3-7.583-1.95-11.808-1.95-12.675-.434-.433-1.409.65-2.925 3.25-1.517 2.6-3.359 6.283-5.525 11.05-3.034 5.633-5.417 10.292-7.15 13.975-1.734 3.683-3.142 7.042-4.225 10.075a67.118 67.118 0 0 0-2.6 9.425c-.65 3.25-1.625 7.475-2.925 12.675l-2.6 10.4c-.867 3.9-.867 7.15 0 9.75 2.166 4.333 1.516 8.017-1.95 11.05-2.167 1.733-4.334 2.383-6.5 1.95-2.167-.433-3.467-.325-3.9.325-.434.65-1.517 2.492-3.25 5.525-2.167 3.467-3.25 6.067-3.25 7.8 0 .867-1.3 3.358-3.9 7.475-2.6 4.117-4.984 7.258-7.15 9.425a15.11 15.11 0 0 0-2.275 2.925 44.158 44.158 0 0 0-1.625 2.925zm271.45-151.45c-3.467-3.467-5.417-7.908-5.85-13.325-.434-5.417.433-13.975 2.6-25.675 1.3-7.367 1.95-12.133 1.95-14.3s-.434-4.983-1.3-8.45c-1.734-4.767-2.817-10.942-3.25-18.525a193.57 193.57 0 0 1 0-22.425l1.3-11.7 13.65.65c4.766 0 11.808.433 21.125 1.3s19.5 1.842 30.55 2.925a4901.572 4901.572 0 0 0 34.45 3.25c11.917 1.083 22.75 2.167 32.5 3.25a3311.06 3311.06 0 0 0 24.05 2.6c6.283.65 9.641 1.192 10.075 1.625.433.433 2.166 3.142 5.2 8.125 3.033 4.983 6.5 11.267 10.4 18.85 3.9 7.583 8.125 15.492 12.675 23.725s8.558 15.817 12.025 22.75c6.933 13 11.7 21.992 14.3 26.975 2.6 4.983 4.333 7.475 5.2 7.475l4.55-9.75c3.033-6.5 6.608-14.733 10.725-24.7 4.116-9.967 8.775-20.908 13.975-32.825 5.2-11.917 9.966-23.292 14.3-34.125 2.166-5.2 4.116-9.75 5.85-13.65s2.816-6.067 3.25-6.5c.866-.867 11.483-.65 31.85.65s54.6 3.9 102.7 7.8c8.666.867 15.925 1.517 21.775 1.95s8.991.867 9.425 1.3v5.525c0 3.683-.325 9.75-.975 18.2l-2.6 33.8a11720.072 11720.072 0 0 1-4.225 52.975c-1.3 18.2-2.709 38.35-4.225 60.45a9631.072 9631.072 0 0 1-4.55 63.375c-1.517 20.15-2.817 37.7-3.9 52.65-1.084 14.95-1.842 24.375-2.275 28.275-.434 5.2-.867 8.883-1.3 11.05-.434 2.167-1.084 4.117-1.95 5.85-.867 1.3-1.625 2.925-2.275 4.875-.65 1.95-.975 4.658-.975 8.125-.434 4.333-.867 7.042-1.3 8.125-.434 1.083-1.3 2.058-2.6 2.925-1.3 1.3-2.817 1.3-4.55 0-1.3-.867-1.95-2.383-1.95-4.55 0-2.6-.65-4.117-1.95-4.55-1.3-.867-1.95-2.167-1.95-3.9 0-4.767-2.384-7.15-7.15-7.15-2.167.433-5.2 1.408-9.1 2.925-3.9 1.517-6.284 2.708-7.15 3.575 0 .867-.325 1.842-.975 2.925a15.11 15.11 0 0 1-2.275 2.925c-1.3 3.033-1.734 5.633-1.3 7.8 1.733 7.367-.65 10.833-7.15 10.4-2.167-.433-3.359-.867-3.575-1.3-.217-.433-.542-1.733-.975-3.9-.434-1.3-.867-2.708-1.3-4.225-.434-1.517-.867-2.492-1.3-2.925-.867-1.733-1.3-3.9-1.3-6.5s-.434-3.9-1.3-3.9-2.384 1.408-4.55 4.225c-2.167 2.817-3.25 4.875-3.25 6.175 0 4.333-2.384 6.067-7.15 5.2-1.734-1.3-3.25-3.9-4.55-7.8-1.3-4.767-3.25-8.233-5.85-10.4-3.034-2.167-4.55-4.55-4.55-7.15-.434-.867-1.409-6.5-2.925-16.9-1.517-10.4-3.25-22.208-5.2-35.425a1386.123 1386.123 0 0 1-5.2-39c-1.517-12.783-2.709-21.775-3.575-26.975-.434-6.067-1.734-12.892-3.9-20.475-2.167-7.583-3.684-12.025-4.55-13.325-1.3-1.3-2.925-4.875-4.875-10.725-1.95-5.85-2.925-10.075-2.925-12.675v-5.2l-3.25 1.95c-.867.867-2.059 1.517-3.575 1.95-1.517.433-2.925.867-4.225 1.3-3.9.433-7.584 2.492-11.05 6.175-3.467 3.683-6.5 8.125-9.1 13.325s-4.55 10.4-5.85 15.6-1.95 9.533-1.95 13c0 4.333-.109 7.15-.325 8.45-.217 1.3-1.192 2.6-2.925 3.9-1.734 1.733-3.034 2.6-3.9 2.6s-2.059-.975-3.575-2.925c-1.517-1.95-2.709-3.792-3.575-5.525-.867-.867-1.95-.65-3.25.65-2.6 1.733-4.334 2.6-5.2 2.6-4.334 0-5.85 2.817-4.55 8.45.866 5.2 1.191 9.208.975 12.025-.217 2.817-.975 5.092-2.275 6.825-3.467 3.9-7.15 4.117-11.05.65l-3.9-3.25.65-10.4c.433-2.6.758-5.742.975-9.425.216-3.683.325-6.825.325-9.425 0-4.333-.217-7.367-.65-9.1-.434-1.733-1.734-4.55-3.9-8.45-3.034-4.767-6.825-9.317-11.375-13.65s-8.342-6.717-11.375-7.15c-2.167-.867-4.117-.867-5.85 0-4.334 2.6-7.8 1.95-10.4-1.95-2.6-3.467-4.767-3.683-6.5-.65-.434 1.733-1.734 3.033-3.9 3.9-1.3 0-2.167.542-2.6 1.625-.434 1.083-.867 3.575-1.3 7.475 0 2.6-.325 8.775-.975 18.525-.65 9.75-1.409 21.992-2.275 36.725s-1.842 31.417-2.925 50.05a6749.838 6749.838 0 0 1-3.575 57.2c-.434 11.7-.867 20.8-1.3 27.3-.434 6.5-.867 11.483-1.3 14.95-.434 3.467-.867 5.85-1.3 7.15-.434 1.3-1.084 2.6-1.95 3.9-1.3 2.167-2.167 4.225-2.6 6.175-.434 1.95-.65 5.308-.65 10.075 0 4.767-.109 7.908-.325 9.425-.217 1.517-.975 2.708-2.275 3.575-3.9 2.6-6.284 1.083-7.15-4.55-.867-3.467-1.734-5.417-2.6-5.85-.867-.867-1.3-2.6-1.3-5.2 0-6.067-2.384-9.1-7.15-9.1-1.734 0-4.767 1.083-9.1 3.25-4.334 2.167-6.934 4.117-7.8 5.85-.867 3.033-1.95 5.417-3.25 7.15-.867 2.6-1.084 4.983-.65 7.15 1.3 6.933.866 11.05-1.3 12.35-1.3.867-3.142 1.408-5.525 1.625-2.384.217-4.009-.108-4.875-.975 0-1.733-.217-4.117-.65-7.15-.434-3.033-1.084-4.983-1.95-5.85-.434-.867-.867-2.167-1.3-3.9-.434-1.733-.65-3.033-.65-3.9 0-2.6-.325-4.333-.975-5.2s-1.409-.217-2.275 1.95a8.675 8.675 0 0 1-1.625 2.275l-1.625 1.625c-1.734.867-2.6 2.383-2.6 4.55 0 5.2-1.3 7.8-3.9 7.8-2.167 0-3.792-.65-4.875-1.95-1.084-1.3-2.059-3.9-2.925-7.8-.434-3.9-2.384-7.8-5.85-11.7l-4.55-5.85-5.2-48.1a37157.703 37157.703 0 0 0-7.8-65.325c-2.167-17.983-4.009-33.8-5.525-47.45-1.517-13.65-2.817-25.675-3.9-36.075s-2.275-21.017-3.575-31.85c-2.167-17.767-3.684-29.9-4.55-36.4-.867-6.5-1.734-10.617-2.6-12.35-1.734-3.467-2.6-6.5-2.6-9.1 0-7.8-2.167-13.867-6.5-18.2zm653 286.65c0 5.633-1.084 10.183-3.25 13.65-1.3 2.167-2.059 4.117-2.275 5.85s-.325 4.983-.325 9.75-.109 7.8-.325 9.1c-.217 1.3-.759 2.383-1.625 3.25-4.334 3.033-6.5 1.95-6.5-3.25 0-2.167-.867-4.55-2.6-7.15-1.734-2.167-2.6-4.983-2.6-8.45 0-2.6-1.084-4.117-3.25-4.55-1.734-.867-3.142-1.192-4.225-.975-1.084.217-3.359 1.192-6.825 2.925-3.034 1.3-4.984 2.275-5.85 2.925-.867.65-1.734 2.058-2.6 4.225-.867 3.467-1.95 5.85-3.25 7.15-.867.867-.867 3.467 0 7.8.866 2.6 1.191 4.442.975 5.525-.217 1.083-.759 2.275-1.625 3.575-.867 1.3-2.492 2.167-4.875 2.6-2.384.433-4.009.217-4.875-.65-.867-.867-1.3-2.6-1.3-5.2 0-1.3-.109-2.817-.325-4.55s-.759-3.033-1.625-3.9c-.434-1.3-.867-2.708-1.3-4.225-.434-1.517-.65-2.925-.65-4.225 0-3.033-.217-4.55-.65-4.55-.867 0-2.167 1.517-3.9 4.55-1.734 3.033-2.6 5.417-2.6 7.15 0 4.767-1.95 7.15-5.85 7.15s-6.067-3.683-6.5-11.05c-.434-3.033-2.167-6.717-5.2-11.05-3.034-3.467-4.767-7.583-5.2-12.35-3.034-27.3-5.85-52.325-8.45-75.075-2.6-22.75-5.2-47.125-7.8-73.125-3.034-28.167-5.309-50.267-6.825-66.3-1.517-16.033-2.817-27.95-3.9-35.75s-1.842-12.892-2.275-15.275c-.434-2.383-.867-4.008-1.3-4.875-1.734-1.733-2.6-4.117-2.6-7.15 0-3.9-.65-7.8-1.95-11.7-1.3-3.9-3.034-6.933-5.2-9.1-3.034-3.467-4.767-7.692-5.2-12.675-.434-4.983.433-12.458 2.6-22.425 1.3-7.367 2.058-12.242 2.275-14.625.216-2.383-.109-5.308-.975-8.775-1.734-7.367-2.817-13.433-3.25-18.2-.434-4.767-.434-11.267 0-19.5l.65-16.25h6.5c2.166 0 8.233.433 18.2 1.3s21.233 1.95 33.8 3.25c12.567.867 25.458 1.95 38.675 3.25 13.217 1.3 23.291 2.383 30.225 3.25 7.8.433 14.625.975 20.475 1.625 5.85.65 11.05 1.3 15.6 1.95 4.55.65 8.775 1.408 12.675 2.275s8.016 1.95 12.35 3.25c14.733 3.9 29.033 9.425 42.9 16.575 13.867 7.15 26.216 15.708 37.05 25.675s19.608 21.558 26.325 34.775c6.716 13.217 10.075 28.058 10.075 44.525.433 11.267-.65 21.45-3.25 30.55-2.6 9.1-6.934 18.633-13 28.6-1.734 2.6-3.684 5.85-5.85 9.75a288.801 288.801 0 0 0-5.85 11.05c-2.6 4.767-4.225 8.233-4.875 10.4-.65 2.167-.975 4.983-.975 8.45 0 4.333-.434 7.258-1.3 8.775-.867 1.517-2.817 2.925-5.85 4.225-3.9 1.733-6.284 3.25-7.15 4.55-.867 1.3-1.3 3.9-1.3 7.8 0 2.167-.109 4.333-.325 6.5-.217 2.167-.759 3.9-1.625 5.2-1.3 3.033-1.734 6.067-1.3 9.1.866 6.933-1.3 9.75-6.5 8.45-3.9-.433-5.85-3.9-5.85-10.4.433-6.067-1.3-8.883-5.2-8.45-4.767.867-7.15-1.517-7.15-7.15 0-2.167-.434-3.25-1.3-3.25-1.3 0-4.334 1.733-9.1 5.2-9.1 5.633-18.958 10.833-29.575 15.6a397.737 397.737 0 0 1-32.825 13c-7.367 2.167-11.7 3.9-13 5.2-.434.433-.867 4.008-1.3 10.725-.434 6.717-.975 14.842-1.625 24.375s-1.3 19.717-1.95 30.55a2966.299 2966.299 0 0 0-1.625 29.25zm14.3-244.4c0 3.033-.325 8.558-.975 16.575a834.786 834.786 0 0 0-1.625 24.7 1744.49 1744.49 0 0 1-1.3 22.75c-.434 6.717-.65 10.508-.65 11.375 0 1.3.541 1.625 1.625.975 1.083-.65 4.008-2.925 8.775-6.825 3.033-2.167 6.066-4.983 9.1-8.45s5.633-6.283 7.8-8.45c17.333-22.967 18.85-40.517 4.55-52.65-1.734-1.3-3.142-2.708-4.225-4.225-1.084-1.517-1.842-2.708-2.275-3.575-.434-1.733-1.734-2.6-3.9-2.6-1.3 0-2.059.108-2.275.325-.217.217-.325 1.408-.325 3.575 0 6.067-2.6 9.1-7.8 9.1-4.334 0-5.634-2.167-3.9-6.5.866-1.733.866-3.033 0-3.9-1.3-1.3-2.167 1.3-2.6 7.8z" fill="#630027"/><g fill-rule="nonzero"><path d="M22.125 459.65c-.567-5.667-.992-10.837-1.275-15.512-.283-4.676-.567-7.438-.85-8.288 0-1.983.142-3.117.425-3.4.283 0 1.983-.212 5.1-.637 3.117-.425 6.658-.921 10.625-1.488 2.833-.283 9.42-.992 19.762-2.125s22.384-2.48 36.125-4.037a41302.907 41302.907 0 0 1 85.213-9.563c12.75-1.417 23.375-2.62 31.875-3.612s12.892-1.488 13.175-1.488c.567 0 .85 1.7.85 5.1s-.425 10.2-1.275 20.4c-.567 4.817-1.204 11.12-1.913 18.913l-1.912 21.037c-.283 5.383-.567 9.562-.85 12.538s-.567 5.241-.85 6.8-.637 2.762-1.062 3.612l-1.488 2.975c-1.417 2.833-2.692 4.533-3.825 5.1-.283.283-.992 1.558-2.125 3.825-.85 2.55-2.054 3.754-3.612 3.613-1.559-.142-2.621-1.63-3.188-4.463-.567-1.983-.992-2.975-1.275-2.975-.567-.567-.85-1.417-.85-2.55 0-1.417-.708-1.842-2.125-1.275-1.417.85-2.48 2.125-3.188 3.825-.708 1.7-.779 3.4-.212 5.1.85 4.533.567 7.367-.85 8.5-.85.85-1.77 1.275-2.763 1.275s-1.77-.283-2.337-.85c-.85-1.133-1.487-3.117-1.912-5.95-.426-2.833-.355-5.808.212-8.925 0-1.133-.142-1.77-.425-1.912-.283-.142-1.275-.213-2.975-.213-2.267-.283-4.25-1.275-5.95-2.975-.567-.567-1.346-1.062-2.337-1.487s-1.771-.78-2.338-1.063H147.5c-5.383 0-9.562.07-12.537.213-2.976.141-5.171.283-6.588.425-1.417.141-2.337.283-2.762.425-.426.141-.78.495-1.063 1.062-.85.85-.992 2.408-.425 4.675 1.417 3.967.425 6.658-2.975 8.075-3.683 1.983-5.1.708-4.25-3.825.567-1.983.496-2.975-.212-2.975s-1.346.85-1.913 2.55c-.567 1.983-1.275 3.258-2.125 3.825-1.983 1.983-2.975 4.108-2.975 6.375v1.7c-.283.283-.425.567-.425.85-.283 0-.567.708-.85 2.125-.283 1.417-.425 3.117-.425 5.1-.283 2.267-.496 4.533-.637 6.8s-.355 4.108-.638 5.525l-.425 5.1 17-3.4c4.817-.85 8.996-1.63 12.538-2.337s5.454-.921 5.737-.638c.283 0 .496.213.638.638s.141 1.275 0 2.55c-.142 1.275-.355 3.258-.638 5.95s-.85 6.304-1.7 10.837c-.85 6.517-1.417 12.68-1.7 18.488-.283 5.808-.142 10.695.425 14.662.567 2.267.78 3.896.638 4.888-.142.991-.496 2.054-1.063 3.187-1.417 2.55-3.046 3.542-4.887 2.975-1.842-.567-2.48-2.408-1.913-5.525.283-1.7-.142-3.825-1.275-6.375-.85-1.983-1.558-2.55-2.125-1.7-.567 1.417-1.558 2.55-2.975 3.4-1.133 1.133-1.7 2.338-1.7 3.613s.425 4.037 1.275 8.287c.283 1.7-.142 2.975-1.275 3.825-3.117 1.417-5.383 1.417-6.8 0-.85-.85-1.275-2.692-1.275-5.525-.283-1.7-.496-2.904-.637-3.612s-.78-1.346-1.913-1.913c-1.417-1.417-2.125-2.408-2.125-2.975-.567-2.267-1.487-2.692-2.762-1.275-1.276 1.417-2.196 3.683-2.763 6.8a49.223 49.223 0 0 1-1.062 3.613c-.426 1.275-.921 2.337-1.488 3.187-1.133 1.983-1.983 4.604-2.55 7.863-.567 3.258-1.133 8.429-1.7 15.512-1.133 6.233-2.125 13.6-2.975 22.1-.85 8.5-1.275 15.867-1.275 22.1 0 .85-1.7 1.7-5.1 2.55-2.267.567-3.825.992-4.675 1.275-.85.283-1.7.992-2.55 2.125-.567 1.133-.92 2.196-1.062 3.188-.142.991-.071 2.62.212 4.887.283 3.117.142 5.383-.425 6.8-.567 1.417-1.983 2.125-4.25 2.125-2.833 0-4.25-2.125-4.25-6.375.283-5.667-.708-6.517-2.975-2.55-.567 1.417-.78 2.975-.637 4.675.141 1.7.92 4.675 2.337 8.925.567 1.7.07 2.975-1.487 3.825-1.559.85-3.33.992-5.313.425-1.417-.567-2.267-1.417-2.55-2.55-.567-1.417-1.983-2.125-4.25-2.125-3.4 0-5.1-1.417-5.1-4.25 0-1.417-.567-2.975-1.7-4.675-1.133-2.267-2.833-3.542-5.1-3.825-4.533-1.417-6.942-3.4-7.225-5.95 0-.567-.142-2.975-.425-7.225-.283-4.25-.708-8.925-1.275-14.025-.567-5.383-1.133-12.467-1.7-21.25a1978.462 1978.462 0 0 0-1.7-24.225 6768.177 6768.177 0 0 1-3.187-47.812 1956.106 1956.106 0 0 0-3.613-47.813 818.084 818.084 0 0 0-1.062-17.425c-.426-5.95-.85-11.687-1.275-17.212a949.403 949.403 0 0 1-1.063-15.3c-.283-4.676-.425-8.43-.425-11.263zm415.7 209.95c-.283 3.117-.567 5.313-.85 6.588-.283 1.275-.85 2.62-1.7 4.037-.85 1.417-1.417 2.763-1.7 4.038-.283 1.275-.283 3.329 0 6.162 0 3.117-.07 5.1-.212 5.95-.142.85-.638 1.558-1.488 2.125-1.133 1.133-2.125 1.488-2.975 1.063s-1.275-1.346-1.275-2.763c0-1.7-.425-3.4-1.275-5.1-.567-.567-.992-1.417-1.275-2.55s-.425-1.983-.425-2.55c0-1.7-.708-2.833-2.125-3.4-1.133-.283-2.054-.354-2.762-.212-.709.141-2.196.637-4.463 1.487-3.117 1.417-4.958 3.117-5.525 5.1l-2.125 4.25c-.85 1.133-.85 2.975 0 5.525.567 2.833.425 4.675-.425 5.525-.567.85-1.63 1.417-3.187 1.7-1.559.283-2.763.142-3.613-.425v-1.275c-.283-.283-.425-.992-.425-2.125 0-1.983-.425-3.825-1.275-5.525-.283-.567-.567-1.417-.85-2.55s-.425-1.983-.425-2.55c0-1.983-.142-2.975-.425-2.975-.567 0-1.487.992-2.762 2.975-1.276 1.983-1.913 3.4-1.913 4.25 0 3.117-1.133 4.675-3.4 4.675-2.55 0-3.967-2.267-4.25-6.8-.283-1.983-1.417-4.392-3.4-7.225-1.133-1.417-1.912-2.692-2.337-3.825s-.78-2.55-1.063-4.25a48818.37 48818.37 0 0 0-5.525-49.512 4660.01 4660.01 0 0 1-5.1-47.813c-1.983-18.7-3.47-33.22-4.462-43.562-.992-10.342-1.842-18.134-2.55-23.375s-1.205-8.571-1.488-9.988c-.283-1.417-.708-2.408-1.275-2.975-.283-.567-.567-1.346-.85-2.337-.283-.992-.425-1.771-.425-2.338 0-2.55-.425-5.1-1.275-7.65-.85-2.55-1.983-4.533-3.4-5.95-1.983-2.267-3.117-5.03-3.4-8.287-.283-3.259.142-8.146 1.275-14.663.85-4.817 1.417-8.004 1.7-9.562s.142-3.471-.425-5.738c-1.133-4.817-1.842-8.854-2.125-12.112-.283-3.259-.283-7.438 0-12.538L349 409.5h4.25c1.133 0 5.88.354 14.238 1.063s17.708 1.558 28.05 2.55c10.341.991 20.612 1.983 30.812 2.975 10.2.991 17.708 1.77 22.525 2.337l3.4.425-.425 8.925c-.283 2.55-.708 8.712-1.275 18.488a4005.77 4005.77 0 0 0-1.7 31.662l-4.037 68.638c-1.276 21.675-2.409 41.012-3.4 58.012s-1.842 31.237-2.55 42.713c-.709 11.475-1.063 18.912-1.063 22.312zm159.85-209.95c1.133-5.383 1.7-8.783 1.7-10.2 0-1.417-.283-3.258-.85-5.525-1.133-3.4-1.842-7.508-2.125-12.325a122.93 122.93 0 0 1 0-14.45l.85-7.65h4.675c.85 0 3.967.213 9.35.638s11.83.991 19.337 1.7 15.513 1.416 24.013 2.125c8.5.708 16.362 1.416 23.587 2.125s13.246 1.345 18.063 1.912l7.225.85 1.913 3.825c1.275 2.55 2.762 5.667 4.462 9.35 1.7 3.683 3.542 7.792 5.525 12.325s3.967 8.925 5.95 13.175c1.417 3.4 3.33 7.933 5.737 13.6s4.746 10.908 7.013 15.725a243.699 243.699 0 0 1 6.375 13.813c1.983 4.675 3.4 8.145 4.25 10.412 1.133 2.267 2.692 5.667 4.675 10.2s3.825 8.783 5.525 12.75c1.983 4.25 4.037 8.712 6.162 13.388 2.126 4.675 3.755 8.145 4.888 10.412a306.25 306.25 0 0 1 2.763 6.375c.708 1.7 1.062 2.408 1.062 2.125.283 0 .425-1.133.425-3.4s.142-5.1.425-8.5c.283-3.117.496-6.375.637-9.775s.213-5.808.213-7.225c.283-2.55.496-5.95.637-10.2l.426-12.75c.141-4.25.283-8.075.425-11.475s.212-5.667.212-6.8c-.283-11.05-1.558-18.275-3.825-21.675-1.7-2.267-2.55-4.887-2.55-7.862s1.133-7.296 3.4-12.963l3.4-8.925-.425-8.075v-5.312c0-1.275.07-2.692.212-4.25s.496-3.471 1.063-5.738c.567-2.267 1.275-5.383 2.125-9.35.283-1.133 1.133-1.7 2.55-1.7.567 0 3.33.496 8.287 1.488 4.959.991 10.696 2.195 17.213 3.612a817.9 817.9 0 0 0 17.425 3.613c5.1.991 8.075 1.629 8.925 1.912.567 0 2.692.425 6.375 1.275 3.683.85 7.508 1.7 11.475 2.55 4.25.85 8.57 1.7 12.962 2.55 4.392.85 7.58 1.558 9.563 2.125 2.267.567 4.18 1.063 5.737 1.488s2.48.779 2.763 1.062c.567.567.567 2.054 0 4.463-.567 2.408-1.983 8.145-4.25 17.212-.283 1.417-.78 3.612-1.488 6.588s-1.345 6.02-1.912 9.137l-7.438 29.75a1576.368 1576.368 0 0 0-7.437 31.025 290.447 290.447 0 0 0-3.613 15.3c-.991 4.817-1.77 7.933-2.337 9.35a166.085 166.085 0 0 1-1.7 7.65 859.728 859.728 0 0 1-2.125 8.288c-.85 3.258-1.842 7.437-2.975 12.537-1.133 5.1-2.692 11.758-4.675 19.975-2.267 9.35-4.32 18.133-6.163 26.35-1.841 8.217-3.045 13.458-3.612 15.725-.85 3.117-1.558 5.383-2.125 6.8-.567 1.417-1.417 2.692-2.55 3.825-.85 1.133-1.487 2.267-1.913 3.4s-.779 2.833-1.062 5.1c-.283 3.683-1.133 5.95-2.55 6.8-2.55 1.7-3.967.708-4.25-2.975 0-2.267-.708-3.4-2.125-3.4s-2.267.567-2.55 1.7-1.275 2.267-2.975 3.4c-3.117 1.983-4.25 6.233-3.4 12.75 1.133 6.8 0 10.625-3.4 11.475-2.267.567-3.683.283-4.25-.85-.567-1.133-1.133-4.108-1.7-8.925 0-3.683-.142-6.02-.425-7.012-.283-.992-.992-2.196-2.125-3.613-1.417-1.983-2.408-4.25-2.975-6.8-.85-2.833-1.983-4.675-3.4-5.525-1.133-1.133-2.55-1.275-4.25-.425-1.417.567-2.408 1.7-2.975 3.4l-1.7 3.4c-.567.567-1.7.425-3.4-.425-1.417-.567-2.267-2.408-2.55-5.525-.283-2.267-1.558-5.454-3.825-9.562s-6.8-11.121-13.6-21.038c-1.7-2.55-4.18-6.233-7.438-11.05-3.258-4.817-6.304-9.35-9.137-13.6-6.8-10.2-13.387-20.046-19.763-29.537S706.192 559.95 702.225 554c-4.25-5.95-6.375-8.642-6.375-8.075 0 .283-.212 3.33-.638 9.138-.425 5.808-.92 12.962-1.487 21.462-.567 8.5-1.133 17.85-1.7 28.05s-1.133 19.833-1.7 28.9-1.062 16.93-1.488 23.588c-.425 6.658-.637 10.837-.637 12.537 0 3.117-.142 5.383-.425 6.8a9.346 9.346 0 0 1-1.7 3.825 15.621 15.621 0 0 0-1.275 3.613c-.283 1.275-.425 3.329-.425 6.162 0 3.117-.07 5.17-.213 6.163-.141.991-.637 1.77-1.487 2.337-2.55 2.267-4.108 1.275-4.675-2.975-.567-1.983-1.133-3.258-1.7-3.825-.85-.85-1.275-1.842-1.275-2.975 0-3.117-.637-4.958-1.913-5.525-1.275-.567-3.612-.142-7.012 1.275-2.267.85-3.683 1.558-4.25 2.125-.567.567-1.558 2.125-2.975 4.675-1.133 2.267-1.77 3.825-1.913 4.675-.141.85.071 2.125.638 3.825.567 2.55.425 4.25-.425 5.1-.567.85-1.63 1.417-3.188 1.7-1.558.283-2.762.142-3.612-.425v-.85c-.283-.283-.425-.992-.425-2.125 0-.567-.07-1.417-.213-2.55s-.495-1.983-1.062-2.55c-.283-.567-.567-1.417-.85-2.55s-.425-2.125-.425-2.975c0-1.417-.283-2.408-.85-2.975-.567-.567-1.133-.142-1.7 1.275-.567 1.417-1.275 2.267-2.125 2.55-.85.85-1.275 1.842-1.275 2.975 0 3.117-.992 4.675-2.975 4.675-1.417 0-2.408-.425-2.975-1.275-.567-.85-1.133-2.55-1.7-5.1-.85-3.4-2.125-6.092-3.825-8.075-.567-.85-1.204-1.842-1.913-2.975S627 681.5 627 680.65c-.567-2.267-1.842-12.962-3.825-32.087-1.983-19.126-4.958-45.688-8.925-79.688-1.133-12.75-2.196-23.304-3.188-31.662s-1.77-15.088-2.337-20.188c-.567-5.1-1.062-8.854-1.488-11.262-.425-2.409-.779-3.755-1.062-4.038-1.133-1.7-1.7-3.4-1.7-5.1 0-2.267-.425-4.675-1.275-7.225-.85-2.55-1.983-4.533-3.4-5.95-2.267-2.267-3.47-5.03-3.613-8.287-.141-3.259.355-8.43 1.488-15.513zm370.65 220.575c-1.983-.85-2.692-1.558-2.125-2.125.567-.283 1.842-3.187 3.825-8.712 1.983-5.526 4.108-12.255 6.375-20.188 1.133-3.117 2.125-6.162 2.975-9.137s1.558-5.171 2.125-6.588c.567-1.133 1.417-3.542 2.55-7.225a272.052 272.052 0 0 1 3.825-11.475 251.618 251.618 0 0 0 4.037-12.325c1.276-4.25 2.338-7.367 3.188-9.35 2.55-8.217 5.1-16.362 7.65-24.437a983.144 983.144 0 0 1 8.075-24.438c1.417-4.533 3.117-9.917 5.1-16.15a3340.572 3340.572 0 0 0 5.1-16.15c1.417-4.25 2.762-8.217 4.038-11.9 1.275-3.683 2.054-6.092 2.337-7.225.567-.85 1.417-3.117 2.55-6.8a2967.26 2967.26 0 0 1 3.825-12.325c5.667-17.567 9.775-30.317 12.325-38.25s3.967-12.325 4.25-13.175c.567-.567 1.063-1.558 1.488-2.975.425-1.417.92-2.833 1.487-4.25l1.7-5.1 7.65.425c1.133 0 3.117.07 5.95.213 2.833.141 6.233.354 10.2.637 3.967.283 8.287.496 12.963.638 4.675.141 9.562.354 14.662.637 5.1.283 10.342.567 15.725.85 5.383.283 10.625.567 15.725.85 5.1.283 9.775.496 14.025.638 4.25.141 7.792.354 10.625.637 5.383.283 10.27.496 14.663.638 4.391.141 7.012.212 7.862.212 1.983 0 3.258.283 3.825.85.283 0 .708 2.55 1.275 7.65.567 5.1 1.204 13.387 1.913 24.863.708 11.475 1.629 26.491 2.762 45.05s2.55 41.295 4.25 68.212c.567 7.083.992 14.38 1.275 21.888s.638 14.591 1.063 21.25c.425 6.658.779 12.679 1.062 18.062.283 5.383.567 9.492.85 12.325.567 7.65.85 13.883.85 18.7s-.142 8.712-.425 11.688-.78 5.383-1.488 7.225-1.77 3.47-3.187 4.887c-.85 1.133-1.417 2.196-1.7 3.188-.283.991-.425 2.62-.425 4.887 0 7.65-1.133 12.608-3.4 14.875-1.133 1.133-2.125 1.7-2.975 1.7-1.983 0-2.975-4.108-2.975-12.325v-9.35l-2.55-1.7c-1.7-1.417-2.55-3.258-2.55-5.525 0-3.967-1.417-4.533-4.25-1.7-1.7 1.417-3.4 1.983-5.1 1.7-1.983-.567-2.975-.992-2.975-1.275-.85-1.417-2.125-.992-3.825 1.275-.85.85-1.558 2.692-2.125 5.525-.567 2.267-1.133 4.108-1.7 5.525-.85 1.133-1.275 2.975-1.275 5.525 0 2.267-.283 3.683-.85 4.25-.567.567-1.842.85-3.825.85-4.533 0-5.525-3.4-2.975-10.2 1.417-3.117 1.913-5.383 1.488-6.8-.425-1.417-1.771-2.975-4.038-4.675-1.133-.567-2.054-1.275-2.762-2.125-.709-.85-1.205-1.558-1.488-2.125 0-1.133-.425-3.967-1.275-8.5s-1.77-9.42-2.762-14.662-1.913-9.917-2.763-14.025-1.275-6.305-1.275-6.588c0-.85-.567-2.125-1.7-3.825-.283-1.133-1.133-2.408-2.55-3.825a15.958 15.958 0 0 1-1.487-1.7 11.165 11.165 0 0 1-1.063-1.7c-1.133-3.683-2.975-5.1-5.525-4.25-.85.567-1.487.78-1.912.638-.425-.142-1.063-.638-1.913-1.488-1.7-2.267-5.242-2.408-10.625-.425-5.667 1.983-9.067 3.967-10.2 5.95-.567 1.417-1.983 2.125-4.25 2.125-1.417 0-2.196-.142-2.337-.425-.142-.283-.355-1.275-.638-2.975-.283-1.983-1.133-3.117-2.55-3.4-1.417-.283-3.612-.142-6.587.425-2.976.567-4.463 1.133-4.463 1.7s-1.417 1.488-4.25 2.763-5.1 2.054-6.8 2.337c-3.683.567-6.162.992-7.438 1.275-1.275.283-2.62 1.133-4.037 2.55-1.133.85-1.983 1.63-2.55 2.338s-1.204 1.629-1.912 2.762-1.63 2.762-2.763 4.888c-1.133 2.125-2.55 5.029-4.25 8.712-3.967 8.5-7.012 14.946-9.137 19.338a853.293 853.293 0 0 0-4.675 9.775c-.992 2.125-1.559 3.612-1.7 4.462-.142.85-.213 1.842-.213 2.975 0 2.267-.425 4.958-1.275 8.075-.85 3.117-1.983 5.383-3.4 6.8-.283.567-.708 1.558-1.275 2.975l-1.7 4.25c-1.133 3.683-1.983 5.808-2.55 6.375-.567.567-1.346.85-2.338.85s-1.77-.425-2.337-1.275c-.85-.85-1.275-2.55-1.275-5.1-.567-1.7-1.063-2.975-1.488-3.825-.425-.85-.637-.567-.637.85 0 2.833-1.417 3.683-4.25 2.55-1.133-.85-1.7-2.267-1.7-4.25 0-1.133-.142-2.125-.425-2.975-.283-.85-.567-1.558-.85-2.125-3.4-3.683-8.642-4.675-15.725-2.975-1.417.567-2.337.92-2.763 1.063-.425.141-.637.92-.637 2.337 0 3.967-.992 5.95-2.975 5.95-2.55 0-3.683-1.983-3.4-5.95.283-2.267 0-3.4-.85-3.4-.567 0-.85.425-.85 1.275.567.85.213 1.7-1.063 2.55-1.275.85-2.479 1.133-3.612.85-1.133-.283-1.558-1.842-1.275-4.675 0-3.967-1.417-6.517-4.25-7.65zm109.225-96.9 25.925-4.25c7.367-1.417 13.6-2.55 18.7-3.4 5.1-.85 7.792-1.275 8.075-1.275 0-.283-.142-1.7-.425-4.25-.283-2.55-.708-5.808-1.275-9.775L1126 543.8c-1.133-7.367-2.267-14.45-3.4-21.25s-2.125-12.68-2.975-17.637-1.275-7.721-1.275-8.288c-.283-.283-.92.425-1.913 2.125-.991 1.7-2.195 4.108-3.612 7.225-1.983 3.683-3.542 6.73-4.675 9.138-1.133 2.408-2.054 4.604-2.763 6.587a43.884 43.884 0 0 0-1.7 6.163c-.424 2.125-1.062 4.887-1.912 8.287l-1.7 6.8c-.567 2.55-.567 4.675 0 6.375 1.417 2.833.992 5.242-1.275 7.225-1.417 1.133-2.833 1.558-4.25 1.275-1.417-.283-2.267-.212-2.55.213s-.992 1.629-2.125 3.612c-1.417 2.267-2.125 3.967-2.125 5.1 0 .567-.85 2.196-2.55 4.888s-3.258 4.745-4.675 6.162c-.567.567-1.063 1.204-1.488 1.913s-.779 1.345-1.062 1.912zm263.975-123.675c1.133-5.383 1.7-8.783 1.7-10.2 0-1.417-.283-3.258-.85-5.525-1.133-3.4-1.842-7.508-2.125-12.325a122.933 122.933 0 0 1 0-14.45l.85-7.65h4.675c.85 0 3.967.213 9.35.638s11.83.991 19.337 1.7 15.513 1.416 24.013 2.125 16.362 1.416 23.588 2.125 13.245 1.345 18.062 1.912l7.225.85 1.913 3.825c1.275 2.55 2.762 5.667 4.462 9.35 1.7 3.683 3.542 7.792 5.525 12.325s3.967 8.925 5.95 13.175c1.417 3.4 3.33 7.933 5.738 13.6s4.745 10.908 7.012 15.725a243.695 243.695 0 0 1 6.375 13.813c1.983 4.675 3.4 8.145 4.25 10.412 1.133 2.267 2.692 5.667 4.675 10.2s3.825 8.783 5.525 12.75c1.983 4.25 4.037 8.712 6.163 13.388 2.125 4.675 3.754 8.145 4.887 10.412a306.26 306.26 0 0 1 2.763 6.375c.708 1.7 1.062 2.408 1.062 2.125.283 0 .425-1.133.425-3.4s.142-5.1.425-8.5c.283-3.117.496-6.375.638-9.775s.212-5.808.212-7.225c.283-2.55.496-5.95.638-10.2l.425-12.75c.141-4.25.283-8.075.425-11.475s.212-5.667.212-6.8c-.283-11.05-1.558-18.275-3.825-21.675-1.7-2.267-2.55-4.887-2.55-7.862s1.133-7.296 3.4-12.963l3.4-8.925-.425-8.075v-5.312c0-1.275.07-2.692.213-4.25s.495-3.471 1.062-5.738 1.275-5.383 2.125-9.35c.283-1.133 1.133-1.7 2.55-1.7.567 0 3.33.496 8.288 1.488 4.958.991 10.695 2.195 17.212 3.612a817.897 817.897 0 0 0 17.425 3.613c5.1.991 8.075 1.629 8.925 1.912.567 0 2.692.425 6.375 1.275 3.683.85 7.508 1.7 11.475 2.55 4.25.85 8.57 1.7 12.963 2.55 4.391.85 7.579 1.558 9.562 2.125 2.267.567 4.18 1.063 5.738 1.488s2.479.779 2.762 1.062c.567.567.567 2.054 0 4.463-.567 2.408-1.983 8.145-4.25 17.212-.283 1.417-.78 3.612-1.487 6.588s-1.346 6.02-1.913 9.137l-7.437 29.75a1576.383 1576.383 0 0 0-7.438 31.025 290.449 290.449 0 0 0-3.612 15.3c-.992 4.817-1.771 7.933-2.338 9.35-.567 2.833-1.133 5.383-1.7 7.65s-1.275 5.03-2.125 8.288c-.85 3.258-1.842 7.437-2.975 12.537-1.133 5.1-2.692 11.758-4.675 19.975-2.267 9.35-4.32 18.133-6.162 26.35-1.842 8.217-3.046 13.458-3.613 15.725-.85 3.117-1.558 5.383-2.125 6.8-.567 1.417-1.417 2.692-2.55 3.825-.85 1.133-1.487 2.267-1.912 3.4s-.78 2.833-1.063 5.1c-.283 3.683-1.133 5.95-2.55 6.8-2.55 1.7-3.967.708-4.25-2.975 0-2.267-.708-3.4-2.125-3.4s-2.267.567-2.55 1.7-1.275 2.267-2.975 3.4c-3.117 1.983-4.25 6.233-3.4 12.75 1.133 6.8 0 10.625-3.4 11.475-2.267.567-3.683.283-4.25-.85s-1.133-4.108-1.7-8.925c0-3.683-.142-6.02-.425-7.012-.283-.992-.992-2.196-2.125-3.613-1.417-1.983-2.408-4.25-2.975-6.8-.85-2.833-1.983-4.675-3.4-5.525-1.133-1.133-2.55-1.275-4.25-.425-1.417.567-2.408 1.7-2.975 3.4l-1.7 3.4c-.567.567-1.7.425-3.4-.425-1.417-.567-2.267-2.408-2.55-5.525-.283-2.267-1.558-5.454-3.825-9.562s-6.8-11.121-13.6-21.038c-1.7-2.55-4.18-6.233-7.437-11.05-3.259-4.817-6.305-9.35-9.138-13.6-6.8-10.2-13.387-20.046-19.762-29.537s-11.546-17.213-15.513-23.163c-4.25-5.95-6.375-8.642-6.375-8.075 0 .283-.212 3.33-.637 9.138-.425 5.808-.921 12.962-1.488 21.462s-1.133 17.85-1.7 28.05-1.133 19.833-1.7 28.9-1.062 16.93-1.487 23.588c-.425 6.658-.638 10.837-.638 12.537 0 3.117-.142 5.383-.425 6.8a9.346 9.346 0 0 1-1.7 3.825 15.62 15.62 0 0 0-1.275 3.613c-.283 1.275-.425 3.329-.425 6.162 0 3.117-.07 5.17-.212 6.163-.142.991-.638 1.77-1.488 2.337-2.55 2.267-4.108 1.275-4.675-2.975-.567-1.983-1.133-3.258-1.7-3.825-.85-.85-1.275-1.842-1.275-2.975 0-3.117-.637-4.958-1.912-5.525-1.276-.567-3.613-.142-7.013 1.275-2.267.85-3.683 1.558-4.25 2.125-.567.567-1.558 2.125-2.975 4.675-1.133 2.267-1.77 3.825-1.912 4.675-.142.85.07 2.125.637 3.825.567 2.55.425 4.25-.425 5.1-.567.85-1.63 1.417-3.187 1.7-1.559.283-2.763.142-3.613-.425v-.85c-.283-.283-.425-.992-.425-2.125 0-.567-.07-1.417-.212-2.55s-.496-1.983-1.063-2.55c-.283-.567-.567-1.417-.85-2.55s-.425-2.125-.425-2.975c0-1.417-.283-2.408-.85-2.975-.567-.567-1.133-.142-1.7 1.275-.567 1.417-1.275 2.267-2.125 2.55-.85.85-1.275 1.842-1.275 2.975 0 3.117-.992 4.675-2.975 4.675-1.417 0-2.408-.425-2.975-1.275-.567-.85-1.133-2.55-1.7-5.1-.85-3.4-2.125-6.092-3.825-8.075-.567-.85-1.204-1.842-1.912-2.975s-1.063-2.125-1.063-2.975c-.567-2.267-1.842-12.962-3.825-32.087-1.983-19.126-4.958-45.688-8.925-79.688-1.133-12.75-2.196-23.304-3.187-31.662s-1.771-15.088-2.338-20.188c-.567-5.1-1.062-8.854-1.487-11.262-.425-2.409-.78-3.755-1.063-4.038-1.133-1.7-1.7-3.4-1.7-5.1 0-2.267-.425-4.675-1.275-7.225-.85-2.55-1.983-4.533-3.4-5.95-2.267-2.267-3.47-5.03-3.612-8.287-.142-3.259.354-8.43 1.487-15.513zm406.35 138.125c-2.267-7.933-3.825-14.52-4.675-19.762s-1.417-11.405-1.7-18.488c-.283-7.083-.142-12.75.425-17s1.7-9.208 3.4-14.875c3.683-13.033 9.35-24.933 17-35.7 7.65-10.767 16.504-20.542 26.563-29.325 10.058-8.783 21.037-16.433 32.937-22.95 11.9-6.517 23.8-12.042 35.7-16.575 4.25-1.7 8.925-3.33 14.025-4.887s10.13-2.975 15.088-4.25c4.958-1.275 9.35-2.338 13.175-3.188 3.825-.85 6.587-1.275 8.287-1.275.567 0 1.063.213 1.488.638s.92 1.7 1.487 3.825c.567 2.125 1.487 5.383 2.763 9.775 1.275 4.391 2.904 10.554 4.887 18.487.85 2.55 1.7 5.454 2.55 8.713a368.47 368.47 0 0 0 2.125 7.862 346.255 346.255 0 0 1 4.675 16.15l4.25 16.15c.567 1.983.425 3.683-.425 5.1-.85 1.417-1.7 4.037-2.55 7.863s-1.275 7.012-1.275 9.562c0 1.133-.142 2.338-.425 3.613-.283 1.275-.567 2.337-.85 3.187-.85 1.133-1.275 2.833-1.275 5.1.567 3.117-.283 4.675-2.55 4.675-.567 0-1.275-.708-2.125-2.125-.567-.85-.92-1.63-1.062-2.337s.07-2.196.637-4.463c.85-3.117.85-5.1 0-5.95-.283-.567-.567-1.204-.85-1.912s-.425-1.488-.425-2.338c-1.133-1.7-1.983-2.55-2.55-2.55-.85 0-1.7-.425-2.55-1.275-.567-.567-.992-.567-1.275 0-.283.85-.283 1.7 0 2.55.567.85.92 2.125 1.063 3.825.141 1.7.212 3.117.212 4.25.567 1.7.283 2.975-.85 3.825-1.983 1.133-3.825.992-5.525-.425-.85-.85-1.275-2.692-1.275-5.525 0-3.117-.283-4.675-.85-4.675-1.133-.567-2.55-.85-4.25-.85-2.267 0-6.092 1.062-11.475 3.188-5.383 2.125-10.767 4.674-16.15 7.65s-10.13 5.95-14.237 8.925-6.163 5.312-6.163 7.012c0 .283-.425.85-1.275 1.7-3.117 2.267-4.675 6.375-4.675 12.325 0 5.1-.992 7.65-2.975 7.65-.567 0-1.417-.85-2.55-2.55l-1.275-2.125-1.275 2.55c-.567 1.7-1.133 3.117-1.7 4.25 0 1.133-1.275 2.692-3.825 4.675-2.267 2.267-3.4 4.392-3.4 6.375-.283 4.817.07 8.996 1.063 12.538.991 3.541 2.62 7.295 4.887 11.262 10.767 18.417 34.283 35.133 70.55 50.15a254.51 254.51 0 0 0 8.288 3.613c2.408.991 3.895 1.629 4.462 1.912.567.283.92 1.417 1.063 3.4.141 1.983.212 4.32.212 7.013s-.07 5.312-.212 7.862-.496 4.533-1.063 5.95c-.85 2.55-1.275 7.792-1.275 15.725 0 5.1-.07 8.5-.212 10.2-.142 1.7-.496 2.975-1.063 3.825-1.133 1.133-1.983 1.7-2.55 1.7s-1.558-.567-2.975-1.7c-1.417-.85-2.196-1.7-2.337-2.55-.142-.85.07-3.683.637-8.5v-2.125l-3.825-.425c-1.983 0-3.117.07-3.4.213-.283.141-.425.637-.425 1.487 0 .85-.425 1.7-1.275 2.55-1.133.567-2.054.567-2.763 0-.708-.567-1.062-1.558-1.062-2.975 0-.85-.85-2.408-2.55-4.675-1.133-.85-2.196-1.487-3.188-1.912s-3.045-.921-6.162-1.488c-7.933-1.417-16.292-3.4-25.075-5.95-8.783-2.55-17.354-5.525-25.712-8.925s-16.434-7.296-24.226-11.687c-7.791-4.392-14.945-9.28-21.462-14.663-2.267-1.417-4.18-2.762-5.737-4.037-1.559-1.275-2.621-1.913-3.188-1.913-.85 0-1.275 1.133-1.275 3.4s-.567 3.825-1.7 4.675c-.85.567-1.558 1.842-2.125 3.825-.567 3.117-1.7 4.25-3.4 3.4-.567-.283-.992-.85-1.275-1.7-.283-.85-.283-2.833 0-5.95.567-4.817.567-8.287 0-10.412-.567-2.126-1.842-3.755-3.825-4.888l-2.975-1.275v5.1c0 6.517-1.133 9.775-3.4 9.775s-3.542-3.258-3.825-9.775c-.283-3.967-.992-6.942-2.125-8.925-.85-1.983-1.558-5.1-2.125-9.35-.283-1.983-.708-4.604-1.275-7.862-.567-3.259-1.417-6.588-2.55-9.988zm338.775 50.15c0-.85-.354-4.958-1.063-12.325-.708-7.367-1.345-15.583-1.912-24.65-2.267-32.3-4.25-59.783-5.95-82.45s-3.046-41.083-4.037-55.25c-.992-14.167-1.63-24.437-1.913-30.812l-.425-9.563 9.988-1.275c6.658-.85 15.441-1.842 26.35-2.975s23.445-2.48 37.612-4.037 28.97-3.188 44.413-4.888c15.441-1.7 30.954-3.4 46.537-5.1 15.583-1.7 30.175-3.258 43.775-4.675l4.25-.425-.425 7.65c-.283 2.267-.78 7.154-1.487 14.663s-1.488 15.512-2.338 24.012c-.567 8.217-1.204 15.725-1.913 22.525s-1.062 10.908-1.062 12.325c0 5.1-1.133 8.642-3.4 10.625-1.417 1.417-2.267 3.258-2.55 5.525s-.142 4.25.425 5.95c2.55 6.517 1.275 9.775-3.825 9.775-2.267 0-3.542-.283-3.825-.85-.567-.567-1.062-2.408-1.487-5.525a69.124 69.124 0 0 1-.638-9.35c0-2.833-.283-4.533-.85-5.1h-.85c-.85 0-1.558.142-2.125.425-1.133.567-2.408.708-3.825.425-1.417-.283-2.408-.85-2.975-1.7-.283 0-.708-.212-1.275-.637s-1.133-.921-1.7-1.488-1.417-.92-2.55-1.062c-1.133-.142-2.833-.213-5.1-.213h-9.775c-4.25 0-9.917.142-17 .425l-15.725.425-2.975 2.55c-1.983 1.7-2.975 3.683-2.975 5.95 0 3.683-1.275 5.525-3.825 5.525-2.267 0-3.4-2.125-3.4-6.375 0-2.55-.283-3.825-.85-3.825-1.983 0-2.692 1.275-2.125 3.825.283 1.133-.142 2.267-1.275 3.4-2.267 1.7-4.533 1.417-6.8-.85-.567-.567-1.417-.85-2.55-.85s-1.7.283-1.7.85c0 1.417-.354 2.904-1.062 4.463s-1.488 2.904-2.338 4.037c-1.133 1.7-1.842 3.33-2.125 4.888s-.708 4.745-1.275 9.562c-.283 3.117-.496 5.88-.637 8.288-.142 2.408-.355 3.895-.638 4.462-.283 1.417.142 1.983 1.275 1.7.567-.283 2.762-.78 6.588-1.487s7.933-1.488 12.325-2.338c4.391-.85 8.429-1.558 12.112-2.125l5.525-.85c0 1.133.142 2.408.425 3.825v8.925c.283 4.817.354 8.358.213 10.625s-.496 4.25-1.063 5.95c-2.267 6.517-2.408 16.433-.425 29.75.567 2.267.354 4.746-.637 7.438s-2.196 4.32-3.613 4.887c-2.267.567-3.754-.07-4.462-1.912s-.638-4.463.212-7.863c.567-1.983.283-3.967-.85-5.95-1.133-2.833-1.912-4.037-2.337-3.612s-.071 2.195 1.062 5.312c.567 2.55-1.133 3.825-5.1 3.825-3.683 0-5.525-2.408-5.525-7.225 0-3.117-.496-4.887-1.487-5.312s-4.18-.355-9.563.212c-2.833.567-4.958.85-6.375.85-.85.283-1.7.425-2.55.425-.283 1.133-.425 2.55-.425 4.25-.283 1.7-.708 4.817-1.275 9.35a1051.14 1051.14 0 0 1-.85 10.413c-.283 3.258-.425 5.17-.425 5.737L2153.8 622l11.05.425c3.967.283 10.2.638 18.7 1.063s17 .92 25.5 1.487c8.5.567 16.08 1.133 22.738 1.7l9.987.85c.283.283.213 2.48-.212 6.588s-.921 8.641-1.488 13.6-1.204 9.491-1.912 13.6-1.205 6.304-1.488 6.587c-.567.283-4.32.78-11.262 1.488s-14.663 1.487-23.163 2.337c-8.5.85-16.504 1.63-24.012 2.338s-12.113 1.062-13.813 1.062c-5.95.567-10.554 1.063-13.812 1.488s-5.738.92-7.438 1.487c-1.7.567-2.975 1.204-3.825 1.913s-1.7 1.77-2.55 3.187c-.85 1.417-1.63 2.267-2.337 2.55-.709.283-1.488.567-2.338.85-1.417 0-2.692-.283-3.825-.85-1.7-2.267-4.533-1.842-8.5 1.275-1.983 1.7-2.833 3.258-2.55 4.675.567 2.833-.708 4.25-3.825 4.25-3.683 0-5.667-2.267-5.95-6.8-.567-1.983-1.133-3.47-1.7-4.462-.567-.992-1.133-1.063-1.7-.213 0 .567-.567 1.7-1.7 3.4-1.7 3.117-1.417 6.375.85 9.775.567 1.417.708 3.046.425 4.888s-.992 3.045-2.125 3.612c-1.983 1.133-4.108.85-6.375-.85-1.133-.567-1.842-1.346-2.125-2.337-.283-.992-.567-3.046-.85-6.163l-.85-5.95c-.283-1.983-.708-3.4-1.275-4.25-1.133-1.983-1.842-8.358-2.125-19.125-.283-4.533-.496-8.712-.637-12.537s-.355-6.163-.638-7.013z" fill="#af89d2"/><path d="M2.125 439.65c-.567-5.667-.992-10.837-1.275-15.512-.283-4.676-.567-7.438-.85-8.288 0-1.983.142-3.117.425-3.4.283 0 1.983-.212 5.1-.637s6.658-.921 10.625-1.488c2.833-.283 9.42-.992 19.762-2.125s22.384-2.48 36.125-4.037 28.192-3.188 43.35-4.888c15.159-1.7 29.113-3.258 41.863-4.675 12.75-1.417 23.375-2.62 31.875-3.612s12.892-1.488 13.175-1.488c.567 0 .85 1.7.85 5.1s-.425 10.2-1.275 20.4c-.567 4.817-1.204 11.12-1.913 18.913l-1.912 21.037c-.283 5.383-.567 9.562-.85 12.538s-.567 5.241-.85 6.8-.637 2.762-1.062 3.612l-1.488 2.975c-1.417 2.833-2.692 4.533-3.825 5.1-.283.283-.992 1.558-2.125 3.825-.85 2.55-2.054 3.754-3.612 3.613-1.559-.142-2.621-1.63-3.188-4.463-.567-1.983-.992-2.975-1.275-2.975-.567-.567-.85-1.417-.85-2.55 0-1.417-.708-1.842-2.125-1.275-1.417.85-2.48 2.125-3.188 3.825-.708 1.7-.779 3.4-.212 5.1.85 4.533.567 7.367-.85 8.5-.85.85-1.77 1.275-2.763 1.275s-1.77-.283-2.337-.85c-.85-1.133-1.487-3.117-1.912-5.95-.426-2.833-.355-5.808.212-8.925 0-1.133-.142-1.77-.425-1.912-.283-.142-1.275-.213-2.975-.213-2.267-.283-4.25-1.275-5.95-2.975-.567-.567-1.346-1.062-2.337-1.487s-1.771-.78-2.338-1.063H127.5c-5.383 0-9.562.07-12.537.213-2.976.141-5.171.283-6.588.425-1.417.141-2.337.283-2.762.425-.426.141-.78.495-1.063 1.062-.85.85-.992 2.408-.425 4.675 1.417 3.967.425 6.658-2.975 8.075-3.683 1.983-5.1.708-4.25-3.825.567-1.983.496-2.975-.212-2.975s-1.346.85-1.913 2.55c-.567 1.983-1.275 3.258-2.125 3.825-1.983 1.983-2.975 4.108-2.975 6.375v1.7c-.283.283-.425.567-.425.85-.283 0-.567.708-.85 2.125-.283 1.417-.425 3.117-.425 5.1-.283 2.267-.496 4.533-.637 6.8s-.355 4.108-.638 5.525l-.425 5.1 17-3.4c4.817-.85 8.996-1.63 12.538-2.337s5.454-.921 5.737-.638c.283 0 .496.213.638.638s.141 1.275 0 2.55c-.142 1.275-.355 3.258-.638 5.95s-.85 6.304-1.7 10.837c-.85 6.517-1.417 12.68-1.7 18.488-.283 5.808-.142 10.695.425 14.662.567 2.267.78 3.896.638 4.888-.142.991-.496 2.054-1.063 3.187-1.417 2.55-3.046 3.542-4.887 2.975-1.842-.567-2.48-2.408-1.913-5.525.283-1.7-.142-3.825-1.275-6.375-.85-1.983-1.558-2.55-2.125-1.7-.567 1.417-1.558 2.55-2.975 3.4-1.133 1.133-1.7 2.338-1.7 3.613s.425 4.037 1.275 8.287c.283 1.7-.142 2.975-1.275 3.825-3.117 1.417-5.383 1.417-6.8 0-.85-.85-1.275-2.692-1.275-5.525-.283-1.7-.496-2.904-.637-3.612s-.78-1.346-1.913-1.913c-1.417-1.417-2.125-2.408-2.125-2.975-.567-2.267-1.487-2.692-2.762-1.275-1.276 1.417-2.196 3.683-2.763 6.8a49.223 49.223 0 0 1-1.062 3.613c-.426 1.275-.921 2.337-1.488 3.187-1.133 1.983-1.983 4.604-2.55 7.863-.567 3.258-1.133 8.429-1.7 15.512-1.133 6.233-2.125 13.6-2.975 22.1-.85 8.5-1.275 15.867-1.275 22.1 0 .85-1.7 1.7-5.1 2.55-2.267.567-3.825.992-4.675 1.275-.85.283-1.7.992-2.55 2.125-.567 1.133-.92 2.196-1.062 3.188-.142.991-.071 2.62.212 4.887.283 3.117.142 5.383-.425 6.8-.567 1.417-1.983 2.125-4.25 2.125-2.833 0-4.25-2.125-4.25-6.375.283-5.667-.708-6.517-2.975-2.55-.567 1.417-.78 2.975-.637 4.675.141 1.7.92 4.675 2.337 8.925.567 1.7.07 2.975-1.487 3.825-1.559.85-3.33.992-5.313.425-1.417-.567-2.267-1.417-2.55-2.55-.567-1.417-1.983-2.125-4.25-2.125-3.4 0-5.1-1.417-5.1-4.25 0-1.417-.567-2.975-1.7-4.675-1.133-2.267-2.833-3.542-5.1-3.825-4.533-1.417-6.942-3.4-7.225-5.95 0-.567-.142-2.975-.425-7.225-.283-4.25-.708-8.925-1.275-14.025-.567-5.383-1.133-12.467-1.7-21.25a1978.462 1978.462 0 0 0-1.7-24.225 6768.177 6768.177 0 0 1-3.187-47.812A1956.106 1956.106 0 0 0 5.95 500.85a818.084 818.084 0 0 0-1.062-17.425c-.426-5.95-.85-11.687-1.275-17.212a949.404 949.404 0 0 1-1.063-15.3c-.283-4.676-.425-8.43-.425-11.263zm415.7 209.95c-.283 3.117-.567 5.313-.85 6.588-.283 1.275-.85 2.62-1.7 4.037-.85 1.417-1.417 2.763-1.7 4.038-.283 1.275-.283 3.329 0 6.162 0 3.117-.07 5.1-.212 5.95-.142.85-.638 1.558-1.488 2.125-1.133 1.133-2.125 1.488-2.975 1.063s-1.275-1.346-1.275-2.763c0-1.7-.425-3.4-1.275-5.1-.567-.567-.992-1.417-1.275-2.55s-.425-1.983-.425-2.55c0-1.7-.708-2.833-2.125-3.4-1.133-.283-2.054-.354-2.762-.212-.709.141-2.196.637-4.463 1.487-3.117 1.417-4.958 3.117-5.525 5.1l-2.125 4.25c-.85 1.133-.85 2.975 0 5.525.567 2.833.425 4.675-.425 5.525-.567.85-1.63 1.417-3.187 1.7-1.559.283-2.763.142-3.613-.425v-1.275c-.283-.283-.425-.992-.425-2.125 0-1.983-.425-3.825-1.275-5.525-.283-.567-.567-1.417-.85-2.55s-.425-1.983-.425-2.55c0-1.983-.142-2.975-.425-2.975-.567 0-1.487.992-2.762 2.975-1.276 1.983-1.913 3.4-1.913 4.25 0 3.117-1.133 4.675-3.4 4.675-2.55 0-3.967-2.267-4.25-6.8-.283-1.983-1.417-4.392-3.4-7.225-1.133-1.417-1.912-2.692-2.337-3.825s-.78-2.55-1.063-4.25a48818.37 48818.37 0 0 0-5.525-49.512 4660.01 4660.01 0 0 1-5.1-47.813c-1.983-18.7-3.47-33.22-4.462-43.562-.992-10.342-1.842-18.134-2.55-23.375s-1.205-8.571-1.488-9.988c-.283-1.417-.708-2.408-1.275-2.975-.283-.567-.567-1.346-.85-2.337-.283-.992-.425-1.771-.425-2.338 0-2.55-.425-5.1-1.275-7.65-.85-2.55-1.983-4.533-3.4-5.95-1.983-2.267-3.117-5.03-3.4-8.287-.283-3.259.142-8.146 1.275-14.663.85-4.817 1.417-8.004 1.7-9.562s.142-3.471-.425-5.738c-1.133-4.817-1.842-8.854-2.125-12.112-.283-3.259-.283-7.438 0-12.538L329 389.5h4.25c1.133 0 5.88.354 14.238 1.063s17.708 1.558 28.05 2.55c10.341.991 20.612 1.983 30.812 2.975 10.2.991 17.708 1.77 22.525 2.337l3.4.425-.425 8.925c-.283 2.55-.708 8.712-1.275 18.488a4005.77 4005.77 0 0 0-1.7 31.662l-4.037 68.638c-1.276 21.675-2.409 41.012-3.4 58.012s-1.842 31.237-2.55 42.713c-.709 11.475-1.063 18.912-1.063 22.312zm159.85-209.95c1.133-5.383 1.7-8.783 1.7-10.2 0-1.417-.283-3.258-.85-5.525-1.133-3.4-1.842-7.508-2.125-12.325a122.93 122.93 0 0 1 0-14.45l.85-7.65h4.675c.85 0 3.967.213 9.35.638s11.83.991 19.337 1.7 15.513 1.416 24.013 2.125c8.5.708 16.362 1.416 23.587 2.125s13.246 1.345 18.063 1.912l7.225.85 1.913 3.825c1.275 2.55 2.762 5.667 4.462 9.35 1.7 3.683 3.542 7.792 5.525 12.325s3.967 8.925 5.95 13.175c1.417 3.4 3.33 7.933 5.737 13.6s4.746 10.908 7.013 15.725a243.699 243.699 0 0 1 6.375 13.813c1.983 4.675 3.4 8.145 4.25 10.412 1.133 2.267 2.692 5.667 4.675 10.2s3.825 8.783 5.525 12.75c1.983 4.25 4.037 8.712 6.162 13.388 2.126 4.675 3.755 8.145 4.888 10.412a306.25 306.25 0 0 1 2.763 6.375c.708 1.7 1.062 2.408 1.062 2.125.283 0 .425-1.133.425-3.4s.142-5.1.425-8.5c.283-3.117.496-6.375.637-9.775s.213-5.808.213-7.225c.283-2.55.496-5.95.637-10.2l.426-12.75c.141-4.25.283-8.075.425-11.475s.212-5.667.212-6.8c-.283-11.05-1.558-18.275-3.825-21.675-1.7-2.267-2.55-4.887-2.55-7.862s1.133-7.296 3.4-12.963l3.4-8.925-.425-8.075v-5.312c0-1.275.07-2.692.212-4.25s.496-3.471 1.063-5.738c.567-2.267 1.275-5.383 2.125-9.35.283-1.133 1.133-1.7 2.55-1.7.567 0 3.33.496 8.287 1.488 4.959.991 10.696 2.195 17.213 3.612a817.902 817.902 0 0 0 17.425 3.613c5.1.991 8.075 1.629 8.925 1.912.567 0 2.692.425 6.375 1.275 3.683.85 7.508 1.7 11.475 2.55 4.25.85 8.57 1.7 12.962 2.55 4.392.85 7.58 1.558 9.563 2.125 2.267.567 4.18 1.063 5.737 1.488s2.48.779 2.763 1.062c.567.567.567 2.054 0 4.463-.567 2.408-1.983 8.145-4.25 17.212-.283 1.417-.78 3.612-1.488 6.588s-1.345 6.02-1.912 9.137l-7.438 29.75a1576.368 1576.368 0 0 0-7.437 31.025 290.447 290.447 0 0 0-3.613 15.3c-.991 4.817-1.77 7.933-2.337 9.35a166.082 166.082 0 0 1-1.7 7.65 859.698 859.698 0 0 1-2.125 8.288c-.85 3.258-1.842 7.437-2.975 12.537-1.133 5.1-2.692 11.758-4.675 19.975-2.267 9.35-4.32 18.133-6.163 26.35-1.841 8.217-3.045 13.458-3.612 15.725-.85 3.117-1.558 5.383-2.125 6.8-.567 1.417-1.417 2.692-2.55 3.825-.85 1.133-1.487 2.267-1.913 3.4s-.779 2.833-1.062 5.1c-.283 3.683-1.133 5.95-2.55 6.8-2.55 1.7-3.967.708-4.25-2.975 0-2.267-.708-3.4-2.125-3.4s-2.267.567-2.55 1.7-1.275 2.267-2.975 3.4c-3.117 1.983-4.25 6.233-3.4 12.75 1.133 6.8 0 10.625-3.4 11.475-2.267.567-3.683.283-4.25-.85-.567-1.133-1.133-4.108-1.7-8.925 0-3.683-.142-6.02-.425-7.012-.283-.992-.992-2.196-2.125-3.613-1.417-1.983-2.408-4.25-2.975-6.8-.85-2.833-1.983-4.675-3.4-5.525-1.133-1.133-2.55-1.275-4.25-.425-1.417.567-2.408 1.7-2.975 3.4l-1.7 3.4c-.567.567-1.7.425-3.4-.425-1.417-.567-2.267-2.408-2.55-5.525-.283-2.267-1.558-5.454-3.825-9.562s-6.8-11.121-13.6-21.038c-1.7-2.55-4.18-6.233-7.438-11.05-3.258-4.817-6.304-9.35-9.137-13.6-6.8-10.2-13.387-20.046-19.763-29.537S686.192 539.95 682.225 534c-4.25-5.95-6.375-8.642-6.375-8.075 0 .283-.212 3.33-.638 9.138a3415.23 3415.23 0 0 0-1.487 21.462c-.567 8.5-1.133 17.85-1.7 28.05s-1.133 19.833-1.7 28.9-1.062 16.93-1.488 23.588c-.425 6.658-.637 10.837-.637 12.537 0 3.117-.142 5.383-.425 6.8a9.346 9.346 0 0 1-1.7 3.825 15.621 15.621 0 0 0-1.275 3.613c-.283 1.275-.425 3.329-.425 6.162 0 3.117-.07 5.17-.213 6.163-.141.991-.637 1.77-1.487 2.337-2.55 2.267-4.108 1.275-4.675-2.975-.567-1.983-1.133-3.258-1.7-3.825-.85-.85-1.275-1.842-1.275-2.975 0-3.117-.637-4.958-1.913-5.525-1.275-.567-3.612-.142-7.012 1.275-2.267.85-3.683 1.558-4.25 2.125-.567.567-1.558 2.125-2.975 4.675-1.133 2.267-1.77 3.825-1.913 4.675-.141.85.071 2.125.638 3.825.567 2.55.425 4.25-.425 5.1-.567.85-1.63 1.417-3.188 1.7-1.558.283-2.762.142-3.612-.425v-.85c-.283-.283-.425-.992-.425-2.125 0-.567-.07-1.417-.213-2.55s-.495-1.983-1.062-2.55c-.283-.567-.567-1.417-.85-2.55s-.425-2.125-.425-2.975c0-1.417-.283-2.408-.85-2.975-.567-.567-1.133-.142-1.7 1.275-.567 1.417-1.275 2.267-2.125 2.55-.85.85-1.275 1.842-1.275 2.975 0 3.117-.992 4.675-2.975 4.675-1.417 0-2.408-.425-2.975-1.275-.567-.85-1.133-2.55-1.7-5.1-.85-3.4-2.125-6.092-3.825-8.075-.567-.85-1.204-1.842-1.913-2.975S607 661.5 607 660.65c-.567-2.267-1.842-12.962-3.825-32.087-1.983-19.126-4.958-45.688-8.925-79.688-1.133-12.75-2.196-23.304-3.188-31.662s-1.77-15.088-2.337-20.188c-.567-5.1-1.062-8.854-1.488-11.262-.425-2.409-.779-3.755-1.062-4.038-1.133-1.7-1.7-3.4-1.7-5.1 0-2.267-.425-4.675-1.275-7.225-.85-2.55-1.983-4.533-3.4-5.95-2.267-2.267-3.47-5.03-3.613-8.287-.141-3.259.355-8.43 1.488-15.513zm370.65 220.575c-1.983-.85-2.692-1.558-2.125-2.125.567-.283 1.842-3.187 3.825-8.712 1.983-5.526 4.108-12.255 6.375-20.188 1.133-3.117 2.125-6.162 2.975-9.137s1.558-5.171 2.125-6.588c.567-1.133 1.417-3.542 2.55-7.225a272.052 272.052 0 0 1 3.825-11.475 251.618 251.618 0 0 0 4.037-12.325c1.276-4.25 2.338-7.367 3.188-9.35 2.55-8.217 5.1-16.362 7.65-24.437a983.17 983.17 0 0 1 8.075-24.438 3340.72 3340.72 0 0 1 5.1-16.15 3340.684 3340.684 0 0 0 5.1-16.15c1.417-4.25 2.762-8.217 4.038-11.9 1.275-3.683 2.054-6.092 2.337-7.225.567-.85 1.417-3.117 2.55-6.8a2967.26 2967.26 0 0 1 3.825-12.325c5.667-17.567 9.775-30.317 12.325-38.25s3.967-12.325 4.25-13.175c.567-.567 1.063-1.558 1.488-2.975.425-1.417.92-2.833 1.487-4.25l1.7-5.1 7.65.425c1.133 0 3.117.07 5.95.213 2.833.141 6.233.354 10.2.637 3.967.283 8.287.496 12.963.638 4.675.141 9.562.354 14.662.637 5.1.283 10.342.567 15.725.85 5.383.283 10.625.567 15.725.85 5.1.283 9.775.496 14.025.638 4.25.141 7.792.354 10.625.637 5.383.283 10.27.496 14.663.638 4.391.141 7.012.212 7.862.212 1.983 0 3.258.283 3.825.85.283 0 .708 2.55 1.275 7.65.567 5.1 1.204 13.387 1.913 24.863.708 11.475 1.629 26.491 2.762 45.05s2.55 41.295 4.25 68.212c.567 7.083.992 14.38 1.275 21.888s.638 14.591 1.063 21.25c.425 6.658.779 12.679 1.062 18.062.283 5.383.567 9.492.85 12.325.567 7.65.85 13.883.85 18.7s-.142 8.712-.425 11.688-.78 5.383-1.488 7.225-1.77 3.47-3.187 4.887c-.85 1.133-1.417 2.196-1.7 3.188-.283.991-.425 2.62-.425 4.887 0 7.65-1.133 12.608-3.4 14.875-1.133 1.133-2.125 1.7-2.975 1.7-1.983 0-2.975-4.108-2.975-12.325v-9.35l-2.55-1.7c-1.7-1.417-2.55-3.258-2.55-5.525 0-3.967-1.417-4.533-4.25-1.7-1.7 1.417-3.4 1.983-5.1 1.7-1.983-.567-2.975-.992-2.975-1.275-.85-1.417-2.125-.992-3.825 1.275-.85.85-1.558 2.692-2.125 5.525-.567 2.267-1.133 4.108-1.7 5.525-.85 1.133-1.275 2.975-1.275 5.525 0 2.267-.283 3.683-.85 4.25-.567.567-1.842.85-3.825.85-4.533 0-5.525-3.4-2.975-10.2 1.417-3.117 1.913-5.383 1.488-6.8-.425-1.417-1.771-2.975-4.038-4.675-1.133-.567-2.054-1.275-2.762-2.125-.709-.85-1.205-1.558-1.488-2.125 0-1.133-.425-3.967-1.275-8.5s-1.77-9.42-2.762-14.662-1.913-9.917-2.763-14.025-1.275-6.305-1.275-6.588c0-.85-.567-2.125-1.7-3.825-.283-1.133-1.133-2.408-2.55-3.825a15.958 15.958 0 0 1-1.487-1.7 11.165 11.165 0 0 1-1.063-1.7c-1.133-3.683-2.975-5.1-5.525-4.25-.85.567-1.487.78-1.912.638-.425-.142-1.063-.638-1.913-1.488-1.7-2.267-5.242-2.408-10.625-.425-5.667 1.983-9.067 3.967-10.2 5.95-.567 1.417-1.983 2.125-4.25 2.125-1.417 0-2.196-.142-2.337-.425-.142-.283-.355-1.275-.638-2.975-.283-1.983-1.133-3.117-2.55-3.4-1.417-.283-3.612-.142-6.587.425-2.976.567-4.463 1.133-4.463 1.7s-1.417 1.488-4.25 2.763-5.1 2.054-6.8 2.337c-3.683.567-6.162.992-7.438 1.275-1.275.283-2.62 1.133-4.037 2.55-1.133.85-1.983 1.63-2.55 2.338s-1.204 1.629-1.912 2.762-1.63 2.762-2.763 4.888c-1.133 2.125-2.55 5.029-4.25 8.712-3.967 8.5-7.012 14.946-9.137 19.338a853.293 853.293 0 0 0-4.675 9.775c-.992 2.125-1.559 3.612-1.7 4.462-.142.85-.213 1.842-.213 2.975 0 2.267-.425 4.958-1.275 8.075-.85 3.117-1.983 5.383-3.4 6.8-.283.567-.708 1.558-1.275 2.975l-1.7 4.25c-1.133 3.683-1.983 5.808-2.55 6.375-.567.567-1.346.85-2.337.85s-1.771-.425-2.338-1.275c-.85-.85-1.275-2.55-1.275-5.1-.567-1.7-1.062-2.975-1.487-3.825-.426-.85-.638-.567-.638.85 0 2.833-1.417 3.683-4.25 2.55-1.133-.85-1.7-2.267-1.7-4.25 0-1.133-.142-2.125-.425-2.975-.283-.85-.567-1.558-.85-2.125-3.4-3.683-8.642-4.675-15.725-2.975-1.417.567-2.337.92-2.762 1.063-.426.141-.638.92-.638 2.337 0 3.967-.992 5.95-2.975 5.95-2.55 0-3.683-1.983-3.4-5.95.283-2.267 0-3.4-.85-3.4-.567 0-.85.425-.85 1.275.567.85.213 1.7-1.062 2.55-1.276.85-2.48 1.133-3.613.85-1.133-.283-1.558-1.842-1.275-4.675 0-3.967-1.417-6.517-4.25-7.65zm109.225-96.9 25.925-4.25c7.367-1.417 13.6-2.55 18.7-3.4 5.1-.85 7.792-1.275 8.075-1.275 0-.283-.142-1.7-.425-4.25-.283-2.55-.708-5.808-1.275-9.775L1106 523.8c-1.133-7.367-2.267-14.45-3.4-21.25s-2.125-12.68-2.975-17.637-1.275-7.721-1.275-8.288c-.283-.283-.92.425-1.913 2.125-.991 1.7-2.195 4.108-3.612 7.225-1.983 3.683-3.542 6.73-4.675 9.138-1.133 2.408-2.054 4.604-2.763 6.587a43.884 43.884 0 0 0-1.7 6.163c-.424 2.125-1.062 4.887-1.912 8.287l-1.7 6.8c-.567 2.55-.567 4.675 0 6.375 1.417 2.833.992 5.242-1.275 7.225-1.417 1.133-2.833 1.558-4.25 1.275-1.417-.283-2.267-.212-2.55.213s-.992 1.629-2.125 3.612c-1.417 2.267-2.125 3.967-2.125 5.1 0 .567-.85 2.196-2.55 4.888s-3.258 4.745-4.675 6.162c-.567.567-1.063 1.204-1.488 1.913s-.779 1.345-1.062 1.912zm263.975-123.675c1.133-5.383 1.7-8.783 1.7-10.2 0-1.417-.283-3.258-.85-5.525-1.133-3.4-1.842-7.508-2.125-12.325a122.933 122.933 0 0 1 0-14.45l.85-7.65h4.675c.85 0 3.967.213 9.35.638s11.83.991 19.337 1.7 15.513 1.416 24.013 2.125 16.362 1.416 23.588 2.125 13.245 1.345 18.062 1.912l7.225.85 1.913 3.825c1.275 2.55 2.762 5.667 4.462 9.35 1.7 3.683 3.542 7.792 5.525 12.325s3.967 8.925 5.95 13.175c1.417 3.4 3.33 7.933 5.738 13.6s4.745 10.908 7.012 15.725a243.695 243.695 0 0 1 6.375 13.813c1.983 4.675 3.4 8.145 4.25 10.412 1.133 2.267 2.692 5.667 4.675 10.2s3.825 8.783 5.525 12.75c1.983 4.25 4.037 8.712 6.163 13.388 2.125 4.675 3.754 8.145 4.887 10.412a306.26 306.26 0 0 1 2.763 6.375c.708 1.7 1.062 2.408 1.062 2.125.283 0 .425-1.133.425-3.4s.142-5.1.425-8.5c.283-3.117.496-6.375.638-9.775s.212-5.808.212-7.225c.283-2.55.496-5.95.638-10.2l.425-12.75c.141-4.25.283-8.075.425-11.475s.212-5.667.212-6.8c-.283-11.05-1.558-18.275-3.825-21.675-1.7-2.267-2.55-4.887-2.55-7.862s1.133-7.296 3.4-12.963l3.4-8.925-.425-8.075v-5.312c0-1.275.07-2.692.213-4.25s.495-3.471 1.062-5.738 1.275-5.383 2.125-9.35c.283-1.133 1.133-1.7 2.55-1.7.567 0 3.33.496 8.288 1.488 4.958.991 10.695 2.195 17.212 3.612a817.897 817.897 0 0 0 17.425 3.613c5.1.991 8.075 1.629 8.925 1.912.567 0 2.692.425 6.375 1.275 3.683.85 7.508 1.7 11.475 2.55 4.25.85 8.57 1.7 12.963 2.55 4.391.85 7.579 1.558 9.562 2.125 2.267.567 4.18 1.063 5.738 1.488s2.479.779 2.762 1.062c.567.567.567 2.054 0 4.463-.567 2.408-1.983 8.145-4.25 17.212-.283 1.417-.78 3.612-1.487 6.588s-1.346 6.02-1.913 9.137l-7.437 29.75a1576.383 1576.383 0 0 0-7.438 31.025 290.449 290.449 0 0 0-3.612 15.3c-.992 4.817-1.771 7.933-2.338 9.35-.567 2.833-1.133 5.383-1.7 7.65s-1.275 5.03-2.125 8.288c-.85 3.258-1.842 7.437-2.975 12.537-1.133 5.1-2.692 11.758-4.675 19.975-2.267 9.35-4.32 18.133-6.162 26.35-1.842 8.217-3.046 13.458-3.613 15.725-.85 3.117-1.558 5.383-2.125 6.8-.567 1.417-1.417 2.692-2.55 3.825-.85 1.133-1.487 2.267-1.912 3.4s-.78 2.833-1.063 5.1c-.283 3.683-1.133 5.95-2.55 6.8-2.55 1.7-3.967.708-4.25-2.975 0-2.267-.708-3.4-2.125-3.4s-2.267.567-2.55 1.7-1.275 2.267-2.975 3.4c-3.117 1.983-4.25 6.233-3.4 12.75 1.133 6.8 0 10.625-3.4 11.475-2.267.567-3.683.283-4.25-.85s-1.133-4.108-1.7-8.925c0-3.683-.142-6.02-.425-7.012-.283-.992-.992-2.196-2.125-3.613-1.417-1.983-2.408-4.25-2.975-6.8-.85-2.833-1.983-4.675-3.4-5.525-1.133-1.133-2.55-1.275-4.25-.425-1.417.567-2.408 1.7-2.975 3.4l-1.7 3.4c-.567.567-1.7.425-3.4-.425-1.417-.567-2.267-2.408-2.55-5.525-.283-2.267-1.558-5.454-3.825-9.562s-6.8-11.121-13.6-21.038c-1.7-2.55-4.18-6.233-7.437-11.05-3.259-4.817-6.305-9.35-9.138-13.6-6.8-10.2-13.387-20.046-19.762-29.537s-11.546-17.213-15.513-23.163c-4.25-5.95-6.375-8.642-6.375-8.075 0 .283-.212 3.33-.637 9.138-.425 5.808-.921 12.962-1.488 21.462s-1.133 17.85-1.7 28.05-1.133 19.833-1.7 28.9-1.062 16.93-1.487 23.588c-.425 6.658-.638 10.837-.638 12.537 0 3.117-.142 5.383-.425 6.8a9.346 9.346 0 0 1-1.7 3.825 15.62 15.62 0 0 0-1.275 3.613c-.283 1.275-.425 3.329-.425 6.162 0 3.117-.07 5.17-.212 6.163-.142.991-.638 1.77-1.488 2.337-2.55 2.267-4.108 1.275-4.675-2.975-.567-1.983-1.133-3.258-1.7-3.825-.85-.85-1.275-1.842-1.275-2.975 0-3.117-.637-4.958-1.912-5.525-1.276-.567-3.613-.142-7.013 1.275-2.267.85-3.683 1.558-4.25 2.125-.567.567-1.558 2.125-2.975 4.675-1.133 2.267-1.77 3.825-1.912 4.675-.142.85.07 2.125.637 3.825.567 2.55.425 4.25-.425 5.1-.567.85-1.63 1.417-3.187 1.7-1.559.283-2.763.142-3.613-.425v-.85c-.283-.283-.425-.992-.425-2.125 0-.567-.07-1.417-.212-2.55s-.496-1.983-1.063-2.55c-.283-.567-.567-1.417-.85-2.55s-.425-2.125-.425-2.975c0-1.417-.283-2.408-.85-2.975-.567-.567-1.133-.142-1.7 1.275-.567 1.417-1.275 2.267-2.125 2.55-.85.85-1.275 1.842-1.275 2.975 0 3.117-.992 4.675-2.975 4.675-1.417 0-2.408-.425-2.975-1.275-.567-.85-1.133-2.55-1.7-5.1-.85-3.4-2.125-6.092-3.825-8.075-.567-.85-1.204-1.842-1.912-2.975s-1.063-2.125-1.063-2.975c-.567-2.267-1.842-12.962-3.825-32.087-1.983-19.126-4.958-45.688-8.925-79.688-1.133-12.75-2.196-23.304-3.187-31.662s-1.771-15.088-2.338-20.188c-.567-5.1-1.062-8.854-1.487-11.262-.425-2.409-.78-3.755-1.063-4.038-1.133-1.7-1.7-3.4-1.7-5.1 0-2.267-.425-4.675-1.275-7.225-.85-2.55-1.983-4.533-3.4-5.95-2.267-2.267-3.47-5.03-3.612-8.287-.142-3.259.354-8.43 1.487-15.513zm406.35 138.125c-2.267-7.933-3.825-14.52-4.675-19.762s-1.417-11.405-1.7-18.488c-.283-7.083-.142-12.75.425-17s1.7-9.208 3.4-14.875c3.683-13.033 9.35-24.933 17-35.7 7.65-10.767 16.504-20.542 26.563-29.325 10.058-8.783 21.037-16.433 32.937-22.95 11.9-6.517 23.8-12.042 35.7-16.575 4.25-1.7 8.925-3.33 14.025-4.887s10.13-2.975 15.088-4.25c4.958-1.275 9.35-2.338 13.175-3.188 3.825-.85 6.587-1.275 8.287-1.275.567 0 1.063.213 1.488.638s.92 1.7 1.487 3.825c.567 2.125 1.487 5.383 2.763 9.775 1.275 4.391 2.904 10.554 4.887 18.487.85 2.55 1.7 5.454 2.55 8.713a368.47 368.47 0 0 0 2.125 7.862 346.255 346.255 0 0 1 4.675 16.15l4.25 16.15c.567 1.983.425 3.683-.425 5.1-.85 1.417-1.7 4.037-2.55 7.863s-1.275 7.012-1.275 9.562c0 1.133-.142 2.338-.425 3.613-.283 1.275-.567 2.337-.85 3.187-.85 1.133-1.275 2.833-1.275 5.1.567 3.117-.283 4.675-2.55 4.675-.567 0-1.275-.708-2.125-2.125-.567-.85-.92-1.63-1.062-2.337s.07-2.196.637-4.463c.85-3.117.85-5.1 0-5.95-.283-.567-.567-1.204-.85-1.912s-.425-1.488-.425-2.338c-1.133-1.7-1.983-2.55-2.55-2.55-.85 0-1.7-.425-2.55-1.275-.567-.567-.992-.567-1.275 0-.283.85-.283 1.7 0 2.55.567.85.92 2.125 1.063 3.825.141 1.7.212 3.117.212 4.25.567 1.7.283 2.975-.85 3.825-1.983 1.133-3.825.992-5.525-.425-.85-.85-1.275-2.692-1.275-5.525 0-3.117-.283-4.675-.85-4.675-1.133-.567-2.55-.85-4.25-.85-2.267 0-6.092 1.062-11.475 3.188-5.383 2.125-10.767 4.674-16.15 7.65s-10.13 5.95-14.237 8.925-6.163 5.312-6.163 7.012c0 .283-.425.85-1.275 1.7-3.117 2.267-4.675 6.375-4.675 12.325 0 5.1-.992 7.65-2.975 7.65-.567 0-1.417-.85-2.55-2.55l-1.275-2.125-1.275 2.55c-.567 1.7-1.133 3.117-1.7 4.25 0 1.133-1.275 2.692-3.825 4.675-2.267 2.267-3.4 4.392-3.4 6.375-.283 4.817.07 8.996 1.063 12.538.991 3.541 2.62 7.295 4.887 11.262 10.767 18.417 34.283 35.133 70.55 50.15a254.51 254.51 0 0 0 8.288 3.613c2.408.991 3.895 1.629 4.462 1.912.567.283.92 1.417 1.063 3.4.141 1.983.212 4.32.212 7.013s-.07 5.312-.212 7.862-.496 4.533-1.063 5.95c-.85 2.55-1.275 7.792-1.275 15.725 0 5.1-.07 8.5-.212 10.2-.142 1.7-.496 2.975-1.063 3.825-1.133 1.133-1.983 1.7-2.55 1.7s-1.558-.567-2.975-1.7c-1.417-.85-2.196-1.7-2.337-2.55-.142-.85.07-3.683.637-8.5v-2.125l-3.825-.425c-1.983 0-3.117.07-3.4.213-.283.141-.425.637-.425 1.487 0 .85-.425 1.7-1.275 2.55-1.133.567-2.054.567-2.763 0-.708-.567-1.062-1.558-1.062-2.975 0-.85-.85-2.408-2.55-4.675-1.133-.85-2.196-1.487-3.188-1.912s-3.045-.921-6.162-1.488c-7.933-1.417-16.292-3.4-25.075-5.95-8.783-2.55-17.354-5.525-25.712-8.925s-16.434-7.296-24.226-11.687c-7.791-4.392-14.945-9.28-21.462-14.663-2.267-1.417-4.18-2.762-5.737-4.037-1.559-1.275-2.621-1.913-3.188-1.913-.85 0-1.275 1.133-1.275 3.4s-.567 3.825-1.7 4.675c-.85.567-1.558 1.842-2.125 3.825-.567 3.117-1.7 4.25-3.4 3.4-.567-.283-.992-.85-1.275-1.7-.283-.85-.283-2.833 0-5.95.567-4.817.567-8.287 0-10.412-.567-2.126-1.842-3.755-3.825-4.888l-2.975-1.275v5.1c0 6.517-1.133 9.775-3.4 9.775s-3.542-3.258-3.825-9.775c-.283-3.967-.992-6.942-2.125-8.925-.85-1.983-1.558-5.1-2.125-9.35-.283-1.983-.708-4.604-1.275-7.862-.567-3.259-1.417-6.588-2.55-9.988zm338.775 50.15c0-.85-.354-4.958-1.063-12.325-.708-7.367-1.345-15.583-1.912-24.65-2.267-32.3-4.25-59.783-5.95-82.45s-3.046-41.083-4.037-55.25c-.992-14.167-1.63-24.437-1.913-30.812l-.425-9.563 9.988-1.275c6.658-.85 15.441-1.842 26.35-2.975s23.445-2.48 37.612-4.037 28.97-3.188 44.413-4.888c15.441-1.7 30.954-3.4 46.537-5.1 15.583-1.7 30.175-3.258 43.775-4.675l4.25-.425-.425 7.65c-.283 2.267-.78 7.154-1.487 14.663s-1.488 15.512-2.338 24.012c-.567 8.217-1.204 15.725-1.913 22.525s-1.062 10.908-1.062 12.325c0 5.1-1.133 8.642-3.4 10.625-1.417 1.417-2.267 3.258-2.55 5.525s-.142 4.25.425 5.95c2.55 6.517 1.275 9.775-3.825 9.775-2.267 0-3.542-.283-3.825-.85-.567-.567-1.062-2.408-1.487-5.525a69.124 69.124 0 0 1-.638-9.35c0-2.833-.283-4.533-.85-5.1h-.85c-.85 0-1.558.142-2.125.425-1.133.567-2.408.708-3.825.425-1.417-.283-2.408-.85-2.975-1.7-.283 0-.708-.212-1.275-.637s-1.133-.921-1.7-1.488-1.417-.92-2.55-1.062c-1.133-.142-2.833-.213-5.1-.213h-9.775c-4.25 0-9.917.142-17 .425l-15.725.425-2.975 2.55c-1.983 1.7-2.975 3.683-2.975 5.95 0 3.683-1.275 5.525-3.825 5.525-2.267 0-3.4-2.125-3.4-6.375 0-2.55-.283-3.825-.85-3.825-1.983 0-2.692 1.275-2.125 3.825.283 1.133-.142 2.267-1.275 3.4-2.267 1.7-4.533 1.417-6.8-.85-.567-.567-1.417-.85-2.55-.85s-1.7.283-1.7.85c0 1.417-.354 2.904-1.062 4.463s-1.488 2.904-2.338 4.037c-1.133 1.7-1.842 3.33-2.125 4.888s-.708 4.745-1.275 9.562c-.283 3.117-.496 5.88-.637 8.288-.142 2.408-.355 3.895-.638 4.462-.283 1.417.142 1.983 1.275 1.7.567-.283 2.762-.78 6.588-1.487s7.933-1.488 12.325-2.338c4.391-.85 8.429-1.558 12.112-2.125l5.525-.85c0 1.133.142 2.408.425 3.825v8.925c.283 4.817.354 8.358.213 10.625s-.496 4.25-1.063 5.95c-2.267 6.517-2.408 16.433-.425 29.75.567 2.267.354 4.746-.637 7.438s-2.196 4.32-3.613 4.887c-2.267.567-3.754-.07-4.462-1.912s-.638-4.463.212-7.863c.567-1.983.283-3.967-.85-5.95-1.133-2.833-1.912-4.037-2.337-3.612s-.071 2.195 1.062 5.312c.567 2.55-1.133 3.825-5.1 3.825-3.683 0-5.525-2.408-5.525-7.225 0-3.117-.496-4.887-1.487-5.312s-4.18-.355-9.563.212c-2.833.567-4.958.85-6.375.85-.85.283-1.7.425-2.55.425-.283 1.133-.425 2.55-.425 4.25-.283 1.7-.708 4.817-1.275 9.35a1051.14 1051.14 0 0 1-.85 10.413c-.283 3.258-.425 5.17-.425 5.737L2133.8 602l11.05.425c3.967.283 10.2.638 18.7 1.063s17 .92 25.5 1.487c8.5.567 16.08 1.133 22.738 1.7l9.987.85c.283.283.213 2.48-.212 6.588s-.921 8.641-1.488 13.6-1.204 9.491-1.912 13.6-1.205 6.304-1.488 6.587c-.567.283-4.32.78-11.262 1.488s-14.663 1.487-23.163 2.337c-8.5.85-16.504 1.63-24.012 2.338s-12.113 1.062-13.813 1.062c-5.95.567-10.554 1.063-13.812 1.488s-5.738.92-7.438 1.487c-1.7.567-2.975 1.204-3.825 1.913s-1.7 1.77-2.55 3.187c-.85 1.417-1.63 2.267-2.337 2.55-.709.283-1.488.567-2.338.85-1.417 0-2.692-.283-3.825-.85-1.7-2.267-4.533-1.842-8.5 1.275-1.983 1.7-2.833 3.258-2.55 4.675.567 2.833-.708 4.25-3.825 4.25-3.683 0-5.667-2.267-5.95-6.8-.567-1.983-1.133-3.47-1.7-4.462-.567-.992-1.133-1.063-1.7-.213 0 .567-.567 1.7-1.7 3.4-1.7 3.117-1.417 6.375.85 9.775.567 1.417.708 3.046.425 4.888s-.992 3.045-2.125 3.612c-1.983 1.133-4.108.85-6.375-.85-1.133-.567-1.842-1.346-2.125-2.337-.283-.992-.567-3.046-.85-6.163l-.85-5.95c-.283-1.983-.708-3.4-1.275-4.25-1.133-1.983-1.842-8.358-2.125-19.125-.283-4.533-.496-8.712-.637-12.537s-.355-6.163-.638-7.013z" fill="#ede9f1"/><path d="M591.528 10.4c2.6-8.667 4.55-11.917 5.85-9.75.433.433 3.9 2.058 10.4 4.875a2907.96 2907.96 0 0 0 24.375 10.4c9.75 4.117 20.366 8.667 31.85 13.65a7952.312 7952.312 0 0 0 33.15 14.3c10.617 4.55 19.933 8.45 27.95 11.7 8.016 3.25 13.325 5.525 15.925 6.825.433.433.216 2.925-.65 7.475-.867 4.55-1.734 7.258-2.6 8.125-.867.867-1.95 3.033-3.25 6.5-.867 2.6-1.409 5.417-1.625 8.45-.217 3.033-.325 7.583-.325 13.65 0 7.367-.109 12.025-.325 13.975-.217 1.95-.975 3.358-2.275 4.225-1.734 1.3-2.925 1.95-3.575 1.95-.65 0-1.842-.65-3.575-1.95-1.3-1.3-1.734-3.467-1.3-6.5.433-3.033.216-4.983-.65-5.85-2.167-1.733-6.067 3.25-11.7 14.95-1.3 3.033-2.6 5.742-3.9 8.125-1.3 2.383-2.167 4.008-2.6 4.875-.867 2.167-2.925 6.392-6.175 12.675s-8.342 16.358-15.275 30.225a937.58 937.58 0 0 0-7.8 15.925c-2.167 4.55-3.467 7.042-3.9 7.475l-1.95 3.9a77.487 77.487 0 0 0-2.6 5.85l-4.55 9.1c-.434.867-2.167 4.55-5.2 11.05-3.034 6.5-6.717 14.083-11.05 22.75-4.767 8.667-8.667 16.25-11.7 22.75-3.034 6.5-4.767 9.967-5.2 10.4-3.034 5.633-5.525 10.4-7.475 14.3-1.95 3.9-3.359 7.475-4.225 10.725-.867 3.25-1.517 6.392-1.95 9.425-.434 3.033-.65 6.283-.65 9.75.433 6.933.325 11.375-.325 13.325-.65 1.95-2.709 4.008-6.175 6.175-2.6 1.733-4.117 3.9-4.55 6.5 0 2.6-1.734 5.633-5.2 9.1-3.034 4.333-4.767 8.233-5.2 11.7l-1.3 5.2c-.434 1.733-.867 3.033-1.3 3.9-2.167 3.9-1.95 7.8.65 11.7.866 1.3 1.191 2.383.975 3.25-.217.867-.759 2.383-1.625 4.55-1.3 2.167-2.275 3.575-2.925 4.225-.65.65-2.059.975-4.225.975-1.3 0-2.6-.217-3.9-.65-1.3-.433-2.384-.867-3.25-1.3-1.3-.867-2.167-1.842-2.6-2.925-.434-1.083-.217-4.008.65-8.775.433-4.767.541-7.8.325-9.1-.217-1.3-.975-2.383-2.275-3.25l-2.6-2.6-18.2 5.2c-7.8 2.167-16.142 5.417-25.025 9.75-8.884 4.333-15.275 10.4-19.175 18.2-1.3 3.467-1.95 5.958-1.95 7.475 0 1.517.866 3.575 2.6 6.175 1.3 2.167 2.058 3.683 2.275 4.55.216.867-.109 2.383-.975 4.55-1.734 5.2-4.767 7.367-9.1 6.5-4.334-.433-7.584-3.9-9.75-10.4-.867-3.467-2.384-5.85-4.55-7.15-1.734-1.733-2.6-3.683-2.6-5.85 0-6.933-3.684-8.017-11.05-3.25-3.034 2.167-5.85 3.25-8.45 3.25-4.334 0-5.417 3.033-3.25 9.1 1.733 6.067.975 10.942-2.275 14.625s-7.259 4.658-12.025 2.925c-.434-.433-1.517-2.383-3.25-5.85-2.167-5.633-1.734-13.217 1.3-22.75 3.466-10.4-.217-22.317-11.05-35.75-2.6-3.467-4.334-7.583-5.2-12.35 0-1.3-.217-2.167-.65-2.6l-.65-7.15c0-.433-.109-.867-.325-1.3a2.885 2.885 0 0 1-.325-1.3c-.867-2.167-2.059-4.983-3.575-8.45-1.517-3.467-4.225-8.233-8.125-14.3-2.6-4.767-5.959-10.508-10.075-17.225-4.117-6.717-7.909-12.675-11.375-17.875a1824.86 1824.86 0 0 1-28.925-46.8c-9.317-15.6-18.742-31.417-28.275-47.45-2.6-3.467-5.634-8.017-9.1-13.65-3.467-5.633-6.284-10.4-8.45-14.3-12.567-19.933-21.884-34.992-27.95-45.175-6.067-10.183-9.75-16.358-11.05-18.525-.867-1.733-.759-2.925.325-3.575 1.083-.65 4.658-2.708 10.725-6.175 13-7.367 23.725-13.325 32.175-17.875 8.45-4.55 15.166-8.125 20.15-10.725 4.983-2.6 8.45-4.333 10.4-5.2 1.95-.867 3.141-1.3 3.575-1.3.433.433 1.408 1.625 2.925 3.575 1.516 1.95 3.358 4.008 5.525 6.175 2.166 3.033 4.658 6.5 7.475 10.4 2.816 3.9 5.525 7.583 8.125 11.05 5.2 7.367 10.508 14.842 15.925 22.425 5.416 7.583 11.808 16.358 19.175 26.325 3.033 3.9 6.608 8.667 10.725 14.3a917.046 917.046 0 0 1 10.725 14.95c3.466 3.9 6.716 8.45 9.75 13.65l18.2 24.7a186.87 186.87 0 0 1 5.2 6.825c1.733 2.383 3.25 4.658 4.55 6.825 3.033 3.9 6.391 8.342 10.075 13.325 3.683 4.983 6.608 8.992 8.775 12.025 2.166 3.033 4.116 5.742 5.85 8.125 1.733 2.383 3.033 4.008 3.9 4.875.433.867 1.191 1.95 2.275 3.25 1.083 1.3 2.058 2.817 2.925 4.55 4.766 6.067 7.15 6.933 7.15 2.6 0-.867.541-3.575 1.625-8.125 1.083-4.55 2.708-9.858 4.875-15.925.433-3.033 5.416-20.583 14.95-52.65 3.466-13 5.633-21.45 6.5-25.35.866-3.9 1.733-6.717 2.6-8.45.433-.867 1.191-3.142 2.275-6.825a174.338 174.338 0 0 0 2.925-11.375c3.9-13.867 8.016-28.383 12.35-43.55a10519.86 10519.86 0 0 1 12.35-42.9c1.3-4.333 2.708-9.533 4.225-15.6a430.143 430.143 0 0 1 4.875-17.875c1.733-5.85 3.358-11.267 4.875-16.25 1.516-4.983 2.491-8.775 2.925-11.375zm133.65 403.65c-3.034-1.3-4.117-2.383-3.25-3.25.866-.433 2.816-4.875 5.85-13.325 3.033-8.45 6.283-18.742 9.75-30.875a208.719 208.719 0 0 0 4.55-13.975c1.3-4.55 2.383-7.908 3.25-10.075.866-1.733 2.166-5.417 3.9-11.05a416.08 416.08 0 0 1 5.85-17.55 384.828 384.828 0 0 0 6.175-18.85c1.95-6.5 3.575-11.267 4.875-14.3 3.9-12.567 7.8-25.025 11.7-37.375 3.9-12.35 8.016-24.808 12.35-37.375a5109.334 5109.334 0 0 1 7.8-24.7 5109.11 5109.11 0 0 0 7.8-24.7c2.166-6.5 4.225-12.567 6.175-18.2 1.95-5.633 3.141-9.317 3.575-11.05.866-1.3 2.166-4.767 3.9-10.4a4537.093 4537.093 0 0 1 5.85-18.85c8.666-26.867 14.95-46.367 18.85-58.5 3.9-12.133 6.066-18.85 6.5-20.15.866-.867 1.625-2.383 2.275-4.55a77.336 77.336 0 0 1 2.275-6.5l2.6-7.8 11.7.65c1.733 0 4.766.108 9.1.325s9.533.542 15.6.975 12.675.758 19.825.975c7.15.217 14.625.542 22.425.975s15.816.867 24.05 1.3c8.233.433 16.25.867 24.05 1.3s14.95.758 21.45.975c6.5.217 11.916.542 16.25.975 8.233.433 15.708.758 22.425.975 6.716.217 10.725.325 12.025.325 3.033 0 4.983.433 5.85 1.3.433 0 1.083 3.9 1.95 11.7s1.841 20.475 2.925 38.025c1.083 17.55 2.491 40.517 4.225 68.9 1.733 28.383 3.9 63.158 6.5 104.325a796.675 796.675 0 0 1 1.95 33.475c.433 11.483.975 22.317 1.625 32.5s1.191 19.392 1.625 27.625c.433 8.233.866 14.517 1.3 18.85.866 11.7 1.3 21.233 1.3 28.6 0 7.367-.217 13.325-.65 17.875-.434 4.55-1.192 8.233-2.275 11.05a21.264 21.264 0 0 1-4.875 7.475c-1.3 1.733-2.167 3.358-2.6 4.875-.434 1.517-.65 4.008-.65 7.475 0 11.7-1.734 19.283-5.2 22.75-1.734 1.733-3.25 2.6-4.55 2.6-3.034 0-4.55-6.283-4.55-18.85v-14.3l-3.9-2.6c-2.6-2.167-3.9-4.983-3.9-8.45 0-6.067-2.167-6.933-6.5-2.6-2.6 2.167-5.2 3.033-7.8 2.6-3.034-.867-4.55-1.517-4.55-1.95-1.3-2.167-3.25-1.517-5.85 1.95-1.3 1.3-2.384 4.117-3.25 8.45-.867 3.467-1.734 6.283-2.6 8.45-1.3 1.733-1.95 4.55-1.95 8.45 0 3.467-.434 5.633-1.3 6.5s-2.817 1.3-5.85 1.3c-6.934 0-8.45-5.2-4.55-15.6 2.166-4.767 2.925-8.233 2.275-10.4-.65-2.167-2.709-4.55-6.175-7.15-1.734-.867-3.142-1.95-4.225-3.25-1.084-1.3-1.842-2.383-2.275-3.25 0-1.733-.65-6.067-1.95-13-1.3-6.933-2.709-14.408-4.225-22.425a1297.02 1297.02 0 0 0-4.225-21.45c-1.3-6.283-1.95-9.642-1.95-10.075 0-1.3-.867-3.25-2.6-5.85-.434-1.733-1.734-3.683-3.9-5.85a24.407 24.407 0 0 1-2.275-2.6 17.076 17.076 0 0 1-1.625-2.6c-1.734-5.633-4.55-7.8-8.45-6.5-1.3.867-2.275 1.192-2.925.975-.65-.217-1.625-.975-2.925-2.275-2.6-3.467-8.017-3.683-16.25-.65-8.667 3.033-13.867 6.067-15.6 9.1-.867 2.167-3.034 3.25-6.5 3.25-2.167 0-3.359-.217-3.575-.65-.217-.433-.542-1.95-.975-4.55-.434-3.033-1.734-4.767-3.9-5.2-2.167-.433-5.525-.217-10.075.65-4.55.867-6.825 1.733-6.825 2.6s-2.167 2.275-6.5 4.225c-4.334 1.95-7.8 3.142-10.4 3.575-5.634.867-9.425 1.517-11.375 1.95-1.95.433-4.009 1.733-6.175 3.9-1.734 1.3-3.034 2.492-3.9 3.575-.867 1.083-1.842 2.492-2.925 4.225-1.084 1.733-2.492 4.225-4.225 7.475-1.734 3.25-3.9 7.692-6.5 13.325-6.067 13-10.725 22.858-13.975 29.575-3.25 6.717-5.634 11.7-7.15 14.95-1.517 3.25-2.384 5.525-2.6 6.825-.217 1.3-.325 2.817-.325 4.55 0 3.467-.65 7.583-1.95 12.35-1.3 4.767-3.034 8.233-5.2 10.4-.434.867-1.084 2.383-1.95 4.55l-2.6 6.5c-1.734 5.633-3.034 8.883-3.9 9.75s-2.059 1.3-3.575 1.3c-1.517 0-2.709-.65-3.575-1.95-1.3-1.3-1.95-3.9-1.95-7.8-.867-2.6-1.625-4.55-2.275-5.85-.65-1.3-.975-.867-.975 1.3 0 4.333-2.167 5.633-6.5 3.9-1.734-1.3-2.6-3.467-2.6-6.5 0-1.733-.217-3.25-.65-4.55-.434-1.3-.867-2.383-1.3-3.25-5.2-5.633-13.217-7.15-24.05-4.55-2.167.867-3.575 1.408-4.225 1.625-.65.217-.975 1.408-.975 3.575 0 6.067-1.517 9.1-4.55 9.1-3.9 0-5.634-3.033-5.2-9.1.433-3.467 0-5.2-1.3-5.2-.867 0-1.3.65-1.3 1.95.866 1.3.325 2.6-1.625 3.9-1.95 1.3-3.792 1.733-5.525 1.3-1.734-.433-2.384-2.817-1.95-7.15 0-6.067-2.167-9.967-6.5-11.7zm167.05-148.2 39.65-6.5c11.267-2.167 20.8-3.9 28.6-5.2 7.8-1.3 11.916-1.95 12.35-1.95 0-.433-.217-2.6-.65-6.5-.434-3.9-1.084-8.883-1.95-14.95l-3.9-25.35c-1.734-11.267-3.467-22.1-5.2-32.5s-3.25-19.392-4.55-26.975c-1.3-7.583-1.95-11.808-1.95-12.675-.434-.433-1.409.65-2.925 3.25-1.517 2.6-3.359 6.283-5.525 11.05-3.034 5.633-5.417 10.292-7.15 13.975-1.734 3.683-3.142 7.042-4.225 10.075a67.118 67.118 0 0 0-2.6 9.425c-.65 3.25-1.625 7.475-2.925 12.675l-2.6 10.4c-.867 3.9-.867 7.15 0 9.75 2.166 4.333 1.516 8.017-1.95 11.05-2.167 1.733-4.334 2.383-6.5 1.95-2.167-.433-3.467-.325-3.9.325-.434.65-1.517 2.492-3.25 5.525-2.167 3.467-3.25 6.067-3.25 7.8 0 .867-1.3 3.358-3.9 7.475-2.6 4.117-4.984 7.258-7.15 9.425a15.11 15.11 0 0 0-2.275 2.925 44.158 44.158 0 0 0-1.625 2.925zm271.45-151.45c-3.467-3.467-5.417-7.908-5.85-13.325-.434-5.417.433-13.975 2.6-25.675 1.3-7.367 1.95-12.133 1.95-14.3s-.434-4.983-1.3-8.45c-1.734-4.767-2.817-10.942-3.25-18.525a193.57 193.57 0 0 1 0-22.425l1.3-11.7 13.65.65c4.766 0 11.808.433 21.125 1.3s19.5 1.842 30.55 2.925a4901.578 4901.578 0 0 0 34.45 3.25c11.917 1.083 22.75 2.167 32.5 3.25a3311.06 3311.06 0 0 0 24.05 2.6c6.283.65 9.641 1.192 10.075 1.625.433.433 2.166 3.142 5.2 8.125 3.033 4.983 6.5 11.267 10.4 18.85 3.9 7.583 8.125 15.492 12.675 23.725s8.558 15.817 12.025 22.75c6.933 13 11.7 21.992 14.3 26.975 2.6 4.983 4.333 7.475 5.2 7.475l4.55-9.75c3.033-6.5 6.608-14.733 10.725-24.7s8.775-20.908 13.975-32.825c5.2-11.917 9.966-23.292 14.3-34.125 2.166-5.2 4.116-9.75 5.85-13.65 1.733-3.9 2.816-6.067 3.25-6.5.866-.867 11.483-.65 31.85.65s54.6 3.9 102.7 7.8c8.666.867 15.925 1.517 21.775 1.95s8.991.867 9.425 1.3v5.525c0 3.683-.325 9.75-.975 18.2l-2.6 33.8a11720.07 11720.07 0 0 1-4.225 52.975c-1.3 18.2-2.709 38.35-4.225 60.45a9631.072 9631.072 0 0 1-4.55 63.375c-1.517 20.15-2.817 37.7-3.9 52.65-1.084 14.95-1.842 24.375-2.275 28.275-.434 5.2-.867 8.883-1.3 11.05-.434 2.167-1.084 4.117-1.95 5.85-.867 1.3-1.625 2.925-2.275 4.875-.65 1.95-.975 4.658-.975 8.125-.434 4.333-.867 7.042-1.3 8.125-.434 1.083-1.3 2.058-2.6 2.925-1.3 1.3-2.817 1.3-4.55 0-1.3-.867-1.95-2.383-1.95-4.55 0-2.6-.65-4.117-1.95-4.55-1.3-.867-1.95-2.167-1.95-3.9 0-4.767-2.384-7.15-7.15-7.15-2.167.433-5.2 1.408-9.1 2.925-3.9 1.517-6.284 2.708-7.15 3.575 0 .867-.325 1.842-.975 2.925a15.11 15.11 0 0 1-2.275 2.925c-1.3 3.033-1.734 5.633-1.3 7.8 1.733 7.367-.65 10.833-7.15 10.4-2.167-.433-3.359-.867-3.575-1.3-.217-.433-.542-1.733-.975-3.9-.434-1.3-.867-2.708-1.3-4.225-.434-1.517-.867-2.492-1.3-2.925-.867-1.733-1.3-3.9-1.3-6.5s-.434-3.9-1.3-3.9-2.384 1.408-4.55 4.225c-2.167 2.817-3.25 4.875-3.25 6.175 0 4.333-2.384 6.067-7.15 5.2-1.734-1.3-3.25-3.9-4.55-7.8-1.3-4.767-3.25-8.233-5.85-10.4-3.034-2.167-4.55-4.55-4.55-7.15-.434-.867-1.409-6.5-2.925-16.9-1.517-10.4-3.25-22.208-5.2-35.425a1386.123 1386.123 0 0 1-5.2-39c-1.517-12.783-2.709-21.775-3.575-26.975-.434-6.067-1.734-12.892-3.9-20.475-2.167-7.583-3.684-12.025-4.55-13.325-1.3-1.3-2.925-4.875-4.875-10.725-1.95-5.85-2.925-10.075-2.925-12.675v-5.2l-3.25 1.95c-.867.867-2.059 1.517-3.575 1.95-1.517.433-2.925.867-4.225 1.3-3.9.433-7.584 2.492-11.05 6.175-3.467 3.683-6.5 8.125-9.1 13.325s-4.55 10.4-5.85 15.6-1.95 9.533-1.95 13c0 4.333-.109 7.15-.325 8.45-.217 1.3-1.192 2.6-2.925 3.9-1.734 1.733-3.034 2.6-3.9 2.6s-2.059-.975-3.575-2.925c-1.517-1.95-2.709-3.792-3.575-5.525-.867-.867-1.95-.65-3.25.65-2.6 1.733-4.334 2.6-5.2 2.6-4.334 0-5.85 2.817-4.55 8.45.866 5.2 1.191 9.208.975 12.025-.217 2.817-.975 5.092-2.275 6.825-3.467 3.9-7.15 4.117-11.05.65l-3.9-3.25.65-10.4c.433-2.6.758-5.742.975-9.425.216-3.683.325-6.825.325-9.425 0-4.333-.217-7.367-.65-9.1-.434-1.733-1.734-4.55-3.9-8.45-3.034-4.767-6.825-9.317-11.375-13.65s-8.342-6.717-11.375-7.15c-2.167-.867-4.117-.867-5.85 0-4.334 2.6-7.8 1.95-10.4-1.95-2.6-3.467-4.767-3.683-6.5-.65-.434 1.733-1.734 3.033-3.9 3.9-1.3 0-2.167.542-2.6 1.625-.434 1.083-.867 3.575-1.3 7.475 0 2.6-.325 8.775-.975 18.525-.65 9.75-1.409 21.992-2.275 36.725s-1.842 31.417-2.925 50.05a6749.838 6749.838 0 0 1-3.575 57.2c-.434 11.7-.867 20.8-1.3 27.3-.434 6.5-.867 11.483-1.3 14.95-.434 3.467-.867 5.85-1.3 7.15-.434 1.3-1.084 2.6-1.95 3.9-1.3 2.167-2.167 4.225-2.6 6.175-.434 1.95-.65 5.308-.65 10.075 0 4.767-.109 7.908-.325 9.425-.217 1.517-.975 2.708-2.275 3.575-3.9 2.6-6.284 1.083-7.15-4.55-.867-3.467-1.734-5.417-2.6-5.85-.867-.867-1.3-2.6-1.3-5.2 0-6.067-2.384-9.1-7.15-9.1-1.734 0-4.767 1.083-9.1 3.25-4.334 2.167-6.934 4.117-7.8 5.85-.867 3.033-1.95 5.417-3.25 7.15-.867 2.6-1.084 4.983-.65 7.15 1.3 6.933.866 11.05-1.3 12.35-1.3.867-3.142 1.408-5.525 1.625-2.384.217-4.009-.108-4.875-.975 0-1.733-.217-4.117-.65-7.15-.434-3.033-1.084-4.983-1.95-5.85-.434-.867-.867-2.167-1.3-3.9-.434-1.733-.65-3.033-.65-3.9 0-2.6-.325-4.333-.975-5.2s-1.409-.217-2.275 1.95a8.675 8.675 0 0 1-1.625 2.275l-1.625 1.625c-1.734.867-2.6 2.383-2.6 4.55 0 5.2-1.3 7.8-3.9 7.8-2.167 0-3.792-.65-4.875-1.95-1.084-1.3-2.059-3.9-2.925-7.8-.434-3.9-2.384-7.8-5.85-11.7l-4.55-5.85-5.2-48.1a37157.703 37157.703 0 0 0-7.8-65.325c-2.167-17.983-4.009-33.8-5.525-47.45-1.517-13.65-2.817-25.675-3.9-36.075s-2.275-21.017-3.575-31.85c-2.167-17.767-3.684-29.9-4.55-36.4-.867-6.5-1.734-10.617-2.6-12.35-1.734-3.467-2.6-6.5-2.6-9.1 0-7.8-2.167-13.867-6.5-18.2zm653 286.65c0 5.633-1.084 10.183-3.25 13.65-1.3 2.167-2.059 4.117-2.275 5.85s-.325 4.983-.325 9.75-.109 7.8-.325 9.1c-.217 1.3-.759 2.383-1.625 3.25-4.334 3.033-6.5 1.95-6.5-3.25 0-2.167-.867-4.55-2.6-7.15-1.734-2.167-2.6-4.983-2.6-8.45 0-2.6-1.084-4.117-3.25-4.55-1.734-.867-3.142-1.192-4.225-.975-1.084.217-3.359 1.192-6.825 2.925-3.034 1.3-4.984 2.275-5.85 2.925-.867.65-1.734 2.058-2.6 4.225-.867 3.467-1.95 5.85-3.25 7.15-.867.867-.867 3.467 0 7.8.866 2.6 1.191 4.442.975 5.525-.217 1.083-.759 2.275-1.625 3.575-.867 1.3-2.492 2.167-4.875 2.6-2.384.433-4.009.217-4.875-.65-.867-.867-1.3-2.6-1.3-5.2 0-1.3-.109-2.817-.325-4.55s-.759-3.033-1.625-3.9c-.434-1.3-.867-2.708-1.3-4.225-.434-1.517-.65-2.925-.65-4.225 0-3.033-.217-4.55-.65-4.55-.867 0-2.167 1.517-3.9 4.55-1.734 3.033-2.6 5.417-2.6 7.15 0 4.767-1.95 7.15-5.85 7.15s-6.067-3.683-6.5-11.05c-.434-3.033-2.167-6.717-5.2-11.05-3.034-3.467-4.767-7.583-5.2-12.35-3.034-27.3-5.85-52.325-8.45-75.075-2.6-22.75-5.2-47.125-7.8-73.125-3.034-28.167-5.309-50.267-6.825-66.3-1.517-16.033-2.817-27.95-3.9-35.75s-1.842-12.892-2.275-15.275c-.434-2.383-.867-4.008-1.3-4.875-1.734-1.733-2.6-4.117-2.6-7.15 0-3.9-.65-7.8-1.95-11.7-1.3-3.9-3.034-6.933-5.2-9.1-3.034-3.467-4.767-7.692-5.2-12.675-.434-4.983.433-12.458 2.6-22.425 1.3-7.367 2.058-12.242 2.275-14.625.216-2.383-.109-5.308-.975-8.775-1.734-7.367-2.817-13.433-3.25-18.2-.434-4.767-.434-11.267 0-19.5l.65-16.25h6.5c2.166 0 8.233.433 18.2 1.3s21.233 1.95 33.8 3.25c12.567.867 25.458 1.95 38.675 3.25 13.217 1.3 23.291 2.383 30.225 3.25 7.8.433 14.625.975 20.475 1.625 5.85.65 11.05 1.3 15.6 1.95 4.55.65 8.775 1.408 12.675 2.275s8.016 1.95 12.35 3.25c14.733 3.9 29.033 9.425 42.9 16.575 13.867 7.15 26.216 15.708 37.05 25.675s19.608 21.558 26.325 34.775 10.075 28.058 10.075 44.525c.433 11.267-.65 21.45-3.25 30.55-2.6 9.1-6.934 18.633-13 28.6-1.734 2.6-3.684 5.85-5.85 9.75a288.801 288.801 0 0 0-5.85 11.05c-2.6 4.767-4.225 8.233-4.875 10.4-.65 2.167-.975 4.983-.975 8.45 0 4.333-.434 7.258-1.3 8.775-.867 1.517-2.817 2.925-5.85 4.225-3.9 1.733-6.284 3.25-7.15 4.55-.867 1.3-1.3 3.9-1.3 7.8 0 2.167-.109 4.333-.325 6.5-.217 2.167-.759 3.9-1.625 5.2-1.3 3.033-1.734 6.067-1.3 9.1.866 6.933-1.3 9.75-6.5 8.45-3.9-.433-5.85-3.9-5.85-10.4.433-6.067-1.3-8.883-5.2-8.45-4.767.867-7.15-1.517-7.15-7.15 0-2.167-.434-3.25-1.3-3.25-1.3 0-4.334 1.733-9.1 5.2-9.1 5.633-18.958 10.833-29.575 15.6a397.737 397.737 0 0 1-32.825 13c-7.367 2.167-11.7 3.9-13 5.2-.434.433-.867 4.008-1.3 10.725-.434 6.717-.975 14.842-1.625 24.375s-1.3 19.717-1.95 30.55a2966.299 2966.299 0 0 0-1.625 29.25zm14.3-244.4c0 3.033-.325 8.558-.975 16.575a834.786 834.786 0 0 0-1.625 24.7 1744.49 1744.49 0 0 1-1.3 22.75c-.434 6.717-.65 10.508-.65 11.375 0 1.3.541 1.625 1.625.975 1.083-.65 4.008-2.925 8.775-6.825 3.033-2.167 6.066-4.983 9.1-8.45s5.633-6.283 7.8-8.45c17.333-22.967 18.85-40.517 4.55-52.65-1.734-1.3-3.142-2.708-4.225-4.225-1.084-1.517-1.842-2.708-2.275-3.575-.434-1.733-1.734-2.6-3.9-2.6-1.3 0-2.059.108-2.275.325-.217.217-.325 1.408-.325 3.575 0 6.067-2.6 9.1-7.8 9.1-4.334 0-5.634-2.167-3.9-6.5.866-1.733.866-3.033 0-3.9-1.3-1.3-2.167 1.3-2.6 7.8z" fill="#cc0251"/></g></g></svg>