<svg height="31" viewBox="0 0 31 31" width="31" xmlns="http://www.w3.org/2000/svg" xmlns:xlink="http://www.w3.org/1999/xlink"><defs><path id="a" d="m0 71 14.8241758-25.4635365c.8685571-1.2733085 12.7153786-14.9473105 35.5404648-41.02200611l1.7770034-4.44169611 5.2583085-.07276128 7.2090234 5.55625525 3.9085066 4.34082441-.868557 2.08359574-7.146428-1.554102c-23.3940003 27.5507496-35.6410865 41.7602068-36.7412587 42.6283717-1.1001723.8681648-9.0205852 6.8498498-23.7612388 17.9450549z"/><path id="b" d="m14.8241758 45.5364635c.8682402-1.2726535 12.7260427-14.9619642 35.5734073-41.06793203l.9550643.78094651c-20.746383 27.07785112-31.6694599 41.05063582-32.7692308 41.91835422z"/><filter id="c" height="170.3%" width="182.1%" x="-41.1%" y="-35.1%"><feOffset dx="0" dy="0" in="SourceAlpha" result="shadowOffsetOuter1"/><feGaussianBlur in="shadowOffsetOuter1" result="shadowBlurOuter1" stdDeviation="5"/><feColorMatrix in="shadowBlurOuter1" type="matrix" values="0 0 0 0 0.117647059   0 0 0 0 0.00784313725   0 0 0 0 0.219607843  0 0 0 0.7 0"/></filter><path id="d" d="m18.5834166 47.1678322 32.787727-41.91908095 5.6558294 3.29738737-34.2587412 38.26704818z"/><filter id="e" height="171.6%" width="178%" x="-39%" y="-35.8%"><feOffset dx="0" dy="0" in="SourceAlpha" result="shadowOffsetOuter1"/><feGaussianBlur in="shadowOffsetOuter1" result="shadowBlurOuter1" stdDeviation="5"/><feColorMatrix in="shadowBlurOuter1" type="matrix" values="0 0 0 0 0.117647059   0 0 0 0 0.00784313725   0 0 0 0 0.219607843  0 0 0 0.7 0"/></filter><path id="f" d="m22.7682318 46.8131868c.4793519-.7030009 11.8890315-13.4465906 34.2290387-38.23076922l3.505227 1.84415582c-23.3942579 27.5506209-35.6413442 41.7600782-36.7412587 42.6283717z"/><filter id="g" height="167.5%" width="179.5%" x="-39.8%" y="-33.7%"><feOffset dx="0" dy="0" in="SourceAlpha" result="shadowOffsetOuter1"/><feGaussianBlur in="shadowOffsetOuter1" result="shadowBlurOuter1" stdDeviation="5"/><feColorMatrix in="shadowBlurOuter1" type="matrix" values="0 0 0 0 0.117647059   0 0 0 0 0.00784313725   0 0 0 0 0.219607843  0 0 0 0.7 0"/></filter><path id="h" d="m24.5414585 50.004995 34.9735136-40.5004995.9875254.9220779c-23.3937475 27.5499627-35.6408338 41.7594199-36.7412587 42.6283717z"/><filter id="i" height="168.9%" width="181.7%" x="-40.8%" y="-34.4%"><feOffset dx="0" dy="0" in="SourceAlpha" result="shadowOffsetOuter1"/><feGaussianBlur in="shadowOffsetOuter1" result="shadowBlurOuter1" stdDeviation="5"/><feColorMatrix in="shadowBlurOuter1" type="matrix" values="0 0 0 0 0.117647059   0 0 0 0 0.00784313725   0 0 0 0 0.219607843  0 0 0 0.7 0"/></filter><path id="j" d="m0 71 14.8241758-25.4635365-6.5254745 16.7392608z"/><filter id="k" height="217.8%" width="302.4%" x="-101.2%" y="-58.9%"><feOffset dx="0" dy="0" in="SourceAlpha" result="shadowOffsetOuter1"/><feGaussianBlur in="shadowOffsetOuter1" result="shadowBlurOuter1" stdDeviation="5"/><feColorMatrix in="shadowBlurOuter1" type="matrix" values="0 0 0 0 0.117647059   0 0 0 0 0.00784313725   0 0 0 0 0.219607843  0 0 0 0.7 0"/></filter><path id="l" d="m8.2987013 62.2757243 6.5254745-16.7392608 3.7592408 1.6313687-5.1068931 9.8591408z"/><filter id="m" height="279.2%" width="391.7%" x="-145.8%" y="-89.6%"><feOffset dx="0" dy="0" in="SourceAlpha" result="shadowOffsetOuter1"/><feGaussianBlur in="shadowOffsetOuter1" result="shadowBlurOuter1" stdDeviation="5"/><feColorMatrix in="shadowBlurOuter1" type="matrix" values="0 0 0 0 0.117647059   0 0 0 0 0.00784313725   0 0 0 0 0.219607843  0 0 0 0.7 0"/></filter><path id="n" d="m13.464932 57.0376569 5.1184846-9.8698247 4.1848152-.3546454.993007 6.2417583z"/><filter id="o" height="393.4%" width="391.4%" x="-145.7%" y="-146.7%"><feOffset dx="0" dy="0" in="SourceAlpha" result="shadowOffsetOuter1"/><feGaussianBlur in="shadowOffsetOuter1" result="shadowBlurOuter1" stdDeviation="5"/><feColorMatrix in="shadowBlurOuter1" type="matrix" values="0 0 0 0 0.117647059   0 0 0 0 0.00784313725   0 0 0 0 0.219607843  0 0 0 0.7 0"/></filter><path id="p" d="m0 71 8.2987013-8.7242757 5.1778222-5.2487513 6.0999001-5.5324675 4.9650349-1.4895105-.7802197 3.0499501c-1.0976987.8695488-9.0181116 6.8512338-23.7612388 17.9450549z"/><filter id="q" height="242.9%" width="222.2%" x="-61.1%" y="-71.4%"><feOffset dx="0" dy="0" in="SourceAlpha" result="shadowOffsetOuter1"/><feGaussianBlur in="shadowOffsetOuter1" result="shadowBlurOuter1" stdDeviation="5"/><feColorMatrix in="shadowBlurOuter1" type="matrix" values="0 0 0 0 0.117647059   0 0 0 0 0.00784313725   0 0 0 0 0.219607843  0 0 0 0.7 0"/></filter><path id="r" d="m50.3596404 4.51684547 1.7774929-4.4440457 5.2597569-.07279977 7.2110091 5.55919443 3.9095832 4.34312065-.8687963 2.08469792-7.1461887-1.5604396-3.5400054-1.82719452-5.6471758-3.30077169z"/><filter id="s" height="350.3%" width="265.2%" x="-82.6%" y="-125.1%"><feOffset dx="0" dy="0" in="SourceAlpha" result="shadowOffsetOuter1"/><feGaussianBlur in="shadowOffsetOuter1" result="shadowBlurOuter1" stdDeviation="5"/><feColorMatrix in="shadowBlurOuter1" type="matrix" values="0 0 0 0 0.117647059   0 0 0 0 0.00784313725   0 0 0 0 0.219607843  0 0 0 0.7 0"/></filter><path id="t" d="m50.3596404 4.51684547 14.2482589 1.04234896 3.9095832 4.34312065-.8687963 2.08469792-7.1461887-1.5604396-3.5400054-1.82719452-5.6471758-3.30077169z"/><filter id="u" height="501.6%" width="265.2%" x="-82.6%" y="-200.8%"><feOffset dx="0" dy="0" in="SourceAlpha" result="shadowOffsetOuter1"/><feGaussianBlur in="shadowOffsetOuter1" result="shadowBlurOuter1" stdDeviation="5"/><feColorMatrix in="shadowBlurOuter1" type="matrix" values="0 0 0 0 0.117647059   0 0 0 0 0.00784313725   0 0 0 0 0.219607843  0 0 0 0.7 0"/></filter><path id="v" d="m50.3596404 4.51684547 1.7774929-4.4440457 8.3653642 10.35377363-3.5400054-1.82719452-5.6471758-3.30077169z"/><filter id="w" height="389.7%" width="395.8%" x="-147.9%" y="-144.9%"><feOffset dx="0" dy="0" in="SourceAlpha" result="shadowOffsetOuter1"/><feGaussianBlur in="shadowOffsetOuter1" result="shadowBlurOuter1" stdDeviation="5"/><feColorMatrix in="shadowBlurOuter1" type="matrix" values="0 0 0 0 0.117647059   0 0 0 0 0.00784313725   0 0 0 0 0.219607843  0 0 0 0.7 0"/></filter><mask id="x" fill="#fff"><path d="m.46908316 21.1715481c-2.34541578 19.995351 4.10447761 31.1692236 19.34968014 33.5216179 15.2452026 2.3523942 26.9722815-8.8214784 35.1812367-33.5216179l-22.8678038-21.1715481z" fill="#fff" fill-rule="evenodd"/></mask><mask id="y" fill="#fff"><use fill="#fff" fill-rule="evenodd" xlink:href="#a"/></mask></defs><g fill="none" fill-rule="evenodd" transform="translate(.496715 -24)"><path d="m8.73960963 53.5588178c.67090074.5174211 1.30376477.8443199 2.06618747.924624 1.3740829.1447287 2.5558149-.658099 2.9978177-1.8984694.3592977-1.0082795.2281862-2.0483033-.1822649-3.4981351-.5369095-1.8965196-1.6672884-4.5511114-2.7863487-6.6291717-1.12345451-2.0862203-2.90026632-4.8013217-4.28598849-6.4904426-1.04858826-1.2781728-1.83816709-2.0184678-2.85189513-2.3326769-1.45524953-.4510605-2.97838851.2649114-3.50172209 1.7596251-.24490949.6994957-.23915203 1.4066708-.09532501 2.2902584 1.13376705 6.9651901 4.00785134 12.3022759 8.63953915 15.8743882z" fill="#94003a" fill-rule="nonzero"/><g mask="url(#x)" transform="translate(2.503285)"><g transform="translate(-41 24)"><path d="m.35464536 73.1278721c9.01422685-15.7023825 13.95561874-24.1902279 14.82417584-25.4635364.868557-1.2733085 12.7153786-14.9473106 35.5404647-41.02200618l1.7770035-4.44169611 5.2583085-.07276128 7.2090233 5.55625525 3.9085067 4.34082442-.8685571 2.0835957-7.0353119-1.7363298c-23.4680776 27.6722348-35.7522025 41.9424346-36.8523748 42.8105995-1.1001722.8681649-9.0205851 6.8498498-23.76123874 17.9450549z" fill="#1e0238" fill-rule="evenodd"/><use fill="#591794" fill-rule="evenodd" xlink:href="#a"/><g fill="none"><g mask="url(#y)"><use fill="#000" filter="url(#c)" xlink:href="#b"/><use fill="#8d4cb3" fill-rule="evenodd" xlink:href="#b"/></g><g mask="url(#y)"><use fill="#000" filter="url(#e)" xlink:href="#d"/><use fill="#591794" fill-rule="evenodd" xlink:href="#d"/></g><g mask="url(#y)"><use fill="#000" filter="url(#g)" xlink:href="#f"/><use fill="#3a086b" fill-rule="evenodd" xlink:href="#f"/></g><g mask="url(#y)"><use fill="#000" filter="url(#i)" xlink:href="#h"/><use fill="#3a086b" fill-rule="evenodd" xlink:href="#h"/></g><g mask="url(#y)"><use fill="#000" filter="url(#k)" xlink:href="#j"/><use fill="#af89d2" fill-rule="evenodd" xlink:href="#j"/></g><g mask="url(#y)"><use fill="#000" filter="url(#m)" xlink:href="#l"/><use fill="#8d4cb3" fill-rule="evenodd" xlink:href="#l"/></g><g mask="url(#y)"><use fill="#000" filter="url(#o)" xlink:href="#n"/><use fill="#591794" fill-rule="evenodd" xlink:href="#n"/></g><g mask="url(#y)"><use fill="#000" filter="url(#q)" xlink:href="#p"/><use fill="#3a086b" fill-rule="evenodd" xlink:href="#p"/></g><g mask="url(#y)"><use fill="#000" filter="url(#s)" xlink:href="#r"/><use fill="#8d4cb3" fill-rule="evenodd" xlink:href="#r"/></g><g mask="url(#y)"><use fill="#000" filter="url(#u)" xlink:href="#t"/><use fill="#591794" fill-rule="evenodd" xlink:href="#t"/></g><g mask="url(#y)"><use fill="#000" filter="url(#w)" xlink:href="#v"/><use fill="#3a086b" fill-rule="evenodd" xlink:href="#v"/></g></g></g></g></g></svg>