<svg height="41" viewBox="0 0 28 41" width="28" xmlns="http://www.w3.org/2000/svg" xmlns:xlink="http://www.w3.org/1999/xlink"><defs><path id="a" d="m0 75 14.8241758-26.8981019c.8685571-1.3450442 12.7153786-15.7894125 35.5404648-43.33310508l1.7770034-4.69193251 5.2583085-.07686051 7.2090234 5.86928372 3.9085066 4.58537788-.868557 2.2009814-7.146428-1.641657c-23.3940003 29.1029045-35.6410865 44.1128945-36.7412587 45.02997-1.1001723.9170756-9.0205852 7.2357569-23.7612388 18.956044z"/><path id="b" d="m14.8241758 48.1018981c.8682402-1.3443524 12.7260427-15.8048918 35.5734073-43.38161838l.9550643.8249435c-20.746383 28.60336388-31.6694599 43.36334768-32.7692308 44.27995158z"/><filter id="c" height="166.5%" width="182.1%" x="-41.1%" y="-33.3%"><feOffset dx="0" dy="0" in="SourceAlpha" result="shadowOffsetOuter1"/><feGaussianBlur in="shadowOffsetOuter1" result="shadowBlurOuter1" stdDeviation="5"/><feColorMatrix in="shadowBlurOuter1" type="matrix" values="0 0 0 0 0.117647059   0 0 0 0 0.00784313725   0 0 0 0 0.219607843  0 0 0 0.7 0"/></filter><path id="d" d="m18.5834166 49.8251748 32.787727-44.28071926 5.6558294 3.48315568-34.2587412 40.42293828z"/><filter id="e" height="167.7%" width="178%" x="-39%" y="-33.9%"><feOffset dx="0" dy="0" in="SourceAlpha" result="shadowOffsetOuter1"/><feGaussianBlur in="shadowOffsetOuter1" result="shadowBlurOuter1" stdDeviation="5"/><feColorMatrix in="shadowBlurOuter1" type="matrix" values="0 0 0 0 0.117647059   0 0 0 0 0.00784313725   0 0 0 0 0.219607843  0 0 0 0.7 0"/></filter><path id="f" d="m22.7682318 49.4505495c.4793519-.7426066 11.8890315-14.2041451 34.2290387-40.38461543l3.505227 1.94805193c-23.3942579 29.1027686-35.6413442 44.1127586-36.7412587 45.02997z"/><filter id="g" height="163.9%" width="179.5%" x="-39.8%" y="-31.9%"><feOffset dx="0" dy="0" in="SourceAlpha" result="shadowOffsetOuter1"/><feGaussianBlur in="shadowOffsetOuter1" result="shadowBlurOuter1" stdDeviation="5"/><feColorMatrix in="shadowBlurOuter1" type="matrix" values="0 0 0 0 0.117647059   0 0 0 0 0.00784313725   0 0 0 0 0.219607843  0 0 0 0.7 0"/></filter><path id="h" d="m24.5414585 52.8221778 34.9735136-42.7822178.9875254.974026c-23.3937475 29.1020732-35.6408338 44.1120632-36.7412587 45.02997z"/><filter id="i" height="165.2%" width="181.7%" x="-40.8%" y="-32.6%"><feOffset dx="0" dy="0" in="SourceAlpha" result="shadowOffsetOuter1"/><feGaussianBlur in="shadowOffsetOuter1" result="shadowBlurOuter1" stdDeviation="5"/><feColorMatrix in="shadowBlurOuter1" type="matrix" values="0 0 0 0 0.117647059   0 0 0 0 0.00784313725   0 0 0 0 0.219607843  0 0 0 0.7 0"/></filter><path id="j" d="m0 75 14.8241758-26.8981019-6.5254745 17.6823177z"/><filter id="k" height="211.5%" width="302.4%" x="-101.2%" y="-55.8%"><feOffset dx="0" dy="0" in="SourceAlpha" result="shadowOffsetOuter1"/><feGaussianBlur in="shadowOffsetOuter1" result="shadowBlurOuter1" stdDeviation="5"/><feColorMatrix in="shadowBlurOuter1" type="matrix" values="0 0 0 0 0.117647059   0 0 0 0 0.00784313725   0 0 0 0 0.219607843  0 0 0 0.7 0"/></filter><path id="l" d="m8.2987013 65.7842158 6.5254745-17.6823177 3.7592408 1.7232767-5.1068931 10.4145854z"/><filter id="m" height="269.7%" width="391.7%" x="-145.8%" y="-84.8%"><feOffset dx="0" dy="0" in="SourceAlpha" result="shadowOffsetOuter1"/><feGaussianBlur in="shadowOffsetOuter1" result="shadowBlurOuter1" stdDeviation="5"/><feColorMatrix in="shadowBlurOuter1" type="matrix" values="0 0 0 0 0.117647059   0 0 0 0 0.00784313725   0 0 0 0 0.219607843  0 0 0 0.7 0"/></filter><path id="n" d="m13.464932 60.251046 5.1184846-10.4258712 4.1848152-.3746253.993007 6.5934065z"/><filter id="o" height="377.8%" width="391.4%" x="-145.7%" y="-138.9%"><feOffset dx="0" dy="0" in="SourceAlpha" result="shadowOffsetOuter1"/><feGaussianBlur in="shadowOffsetOuter1" result="shadowBlurOuter1" stdDeviation="5"/><feColorMatrix in="shadowBlurOuter1" type="matrix" values="0 0 0 0 0.117647059   0 0 0 0 0.00784313725   0 0 0 0 0.219607843  0 0 0 0.7 0"/></filter><path id="p" d="m0 75 8.2987013-9.2157842 5.1778222-5.5444556 6.0999001-5.8441558 4.9650349-1.5734266-.7802197 3.2217782c-1.0976987.9185376-9.0181116 7.2372189-23.7612388 18.956044z"/><filter id="q" height="235.3%" width="222.2%" x="-61.1%" y="-67.6%"><feOffset dx="0" dy="0" in="SourceAlpha" result="shadowOffsetOuter1"/><feGaussianBlur in="shadowOffsetOuter1" result="shadowBlurOuter1" stdDeviation="5"/><feColorMatrix in="shadowBlurOuter1" type="matrix" values="0 0 0 0 0.117647059   0 0 0 0 0.00784313725   0 0 0 0 0.219607843  0 0 0 0.7 0"/></filter><path id="r" d="m50.3596404 4.77131564 1.7774929-4.69441447 5.2597569-.07690117 7.2110091 5.87238848 3.9095832 4.58780352-.8687963 2.2021457-7.1461887-1.6483517-3.5400054-1.93013507-5.6471758-3.48673066z"/><filter id="s" height="336.9%" width="265.2%" x="-82.6%" y="-118.5%"><feOffset dx="0" dy="0" in="SourceAlpha" result="shadowOffsetOuter1"/><feGaussianBlur in="shadowOffsetOuter1" result="shadowBlurOuter1" stdDeviation="5"/><feColorMatrix in="shadowBlurOuter1" type="matrix" values="0 0 0 0 0.117647059   0 0 0 0 0.00784313725   0 0 0 0 0.219607843  0 0 0 0.7 0"/></filter><path id="t" d="m50.3596404 4.77131564 14.2482589 1.10107284 3.9095832 4.58780352-.8687963 2.2021457-7.1461887-1.6483517-3.5400054-1.93013507-5.6471758-3.48673066z"/><filter id="u" height="480.2%" width="265.2%" x="-82.6%" y="-190.1%"><feOffset dx="0" dy="0" in="SourceAlpha" result="shadowOffsetOuter1"/><feGaussianBlur in="shadowOffsetOuter1" result="shadowBlurOuter1" stdDeviation="5"/><feColorMatrix in="shadowBlurOuter1" type="matrix" values="0 0 0 0 0.117647059   0 0 0 0 0.00784313725   0 0 0 0 0.219607843  0 0 0 0.7 0"/></filter><path id="v" d="m50.3596404 4.77131564 1.7774929-4.69441447 8.3653642 10.93708483-3.5400054-1.93013507-5.6471758-3.48673066z"/><filter id="w" height="374.3%" width="395.8%" x="-147.9%" y="-137.1%"><feOffset dx="0" dy="0" in="SourceAlpha" result="shadowOffsetOuter1"/><feGaussianBlur in="shadowOffsetOuter1" result="shadowBlurOuter1" stdDeviation="5"/><feColorMatrix in="shadowBlurOuter1" type="matrix" values="0 0 0 0 0.117647059   0 0 0 0 0.00784313725   0 0 0 0 0.219607843  0 0 0 0.7 0"/></filter><mask id="x" fill="#fff"><path d="m43 2c-.6666667 10 .3333333 25.6666667 3 47l-33 15-13-21c29.1134203-34.03463783 43.4467536-47.7013045 43-41z" fill="#fff" fill-rule="evenodd"/></mask><mask id="y" fill="#fff"><use fill="#fff" fill-rule="evenodd" xlink:href="#a"/></mask></defs><g fill="none" fill-rule="evenodd" mask="url(#x)" transform="translate(-17 -12)"><g transform="translate(17 -22)"><path d="m.35464536 77.2477522c9.01422685-16.5870237 13.95561874-25.5530577 14.82417584-26.8981019.868557-1.3450441 12.7153786-15.7894125 35.5404647-43.33310503l1.7770035-4.69193251 5.2583085-.07686051 7.2090233 5.86928371 3.9085067 4.58537794-.8685571 2.2009814-7.0353119-1.8341512c-23.4680776 29.2312339-35.7522025 44.3053886-36.8523748 45.2224642-1.1001722.9170756-9.0205851 7.2357569-23.76123874 18.9560439z" fill="none"/><use fill="#591794" fill-rule="evenodd" xlink:href="#a"/><g fill="none"><g mask="url(#y)"><use fill="#000" filter="url(#c)" xlink:href="#b"/><use fill="#8d4cb3" fill-rule="evenodd" xlink:href="#b"/></g><g mask="url(#y)"><use fill="#000" filter="url(#e)" xlink:href="#d"/><use fill="#591794" fill-rule="evenodd" xlink:href="#d"/></g><g mask="url(#y)"><use fill="#000" filter="url(#g)" xlink:href="#f"/><use fill="#3a086b" fill-rule="evenodd" xlink:href="#f"/></g><g mask="url(#y)"><use fill="#000" filter="url(#i)" xlink:href="#h"/><use fill="#3a086b" fill-rule="evenodd" xlink:href="#h"/></g><g mask="url(#y)"><use fill="#000" filter="url(#k)" xlink:href="#j"/><use fill="#af89d2" fill-rule="evenodd" xlink:href="#j"/></g><g mask="url(#y)"><use fill="#000" filter="url(#m)" xlink:href="#l"/><use fill="#8d4cb3" fill-rule="evenodd" xlink:href="#l"/></g><g mask="url(#y)"><use fill="#000" filter="url(#o)" xlink:href="#n"/><use fill="#591794" fill-rule="evenodd" xlink:href="#n"/></g><g mask="url(#y)"><use fill="#000" filter="url(#q)" xlink:href="#p"/><use fill="#3a086b" fill-rule="evenodd" xlink:href="#p"/></g><g mask="url(#y)"><use fill="#000" filter="url(#s)" xlink:href="#r"/><use fill="#8d4cb3" fill-rule="evenodd" xlink:href="#r"/></g><g mask="url(#y)"><use fill="#000" filter="url(#u)" xlink:href="#t"/><use fill="#591794" fill-rule="evenodd" xlink:href="#t"/></g><g mask="url(#y)"><use fill="#000" filter="url(#w)" xlink:href="#v"/><use fill="#3a086b" fill-rule="evenodd" xlink:href="#v"/></g></g></g></g></svg>