<svg height="1024" viewBox="0 0 1024 1024" width="1024" xmlns="http://www.w3.org/2000/svg" xmlns:xlink="http://www.w3.org/1999/xlink"><defs><linearGradient id="a" x1="0%" x2="50%" y1="0%" y2="100%"><stop offset="0" stop-color="#591794"/><stop offset="1" stop-color="#1e0238"/></linearGradient><path id="b" d="m.06066946 24.2669654 14.01464434-24.2669654h28.0899582l14.0146443 24.2669654v15.265685l-13.5227298 51.2099872h-27.705609l-14.9515775-51.2099872z"/><path id="c" d="m.06066946 24.2669654 14.01464434-24.2669654h28.0899582l14.0146443 24.2669654v15.265685l-13.5227298 51.2099872h-27.705609l-14.9515775-51.2099872z"/><path id="d" d="m.06066946 24.2669654 14.01464434-24.2669654h28.0899582l14.0146443 24.2669654v15.265685l-13.5227298 51.2099872h-27.705609l-14.9515775-51.2099872z"/><path id="e" d="m.06066946 24.2669654 14.01464434-24.2669654h28.0899582l14.0146443 24.2669654v15.265685l-13.5227298 51.2099872h-27.705609l-14.9515775-51.2099872z"/><path id="f" d="m.06066946 24.2669654 14.01464434-24.2669654h28.0899582l14.0146443 24.2669654v15.265685l-13.5227298 51.2099872h-27.705609l-14.9515775-51.2099872z"/><path id="g" d="m.06066946 24.2669654 14.01464434-24.2669654h28.0899582l14.0146443 24.2669654v15.265685l-13.5227298 51.2099872h-27.705609l-14.9515775-51.2099872z"/><path id="h" d="m.06066946 24.2669654 14.01464434-24.2669654h28.0899582l14.0146443 24.2669654v15.265685l-13.5227298 51.2099872h-27.705609l-14.9515775-51.2099872z"/><path id="i" d="m.06066946 24.2669654 14.01464434-24.2669654h28.0899582l14.0146443 24.2669654v15.265685l-13.5227298 51.2099872h-27.705609l-14.9515775-51.2099872z"/><mask id="j" fill="#fff"><use fill="#fff" fill-rule="evenodd" xlink:href="#b"/></mask><mask id="k" fill="#fff"><use fill="#fff" fill-rule="evenodd" xlink:href="#c"/></mask><mask id="l" fill="#fff"><use fill="#fff" fill-rule="evenodd" xlink:href="#d"/></mask><mask id="m" fill="#fff"><use fill="#fff" fill-rule="evenodd" xlink:href="#e"/></mask><mask id="n" fill="#fff"><use fill="#fff" fill-rule="evenodd" xlink:href="#f"/></mask><mask id="o" fill="#fff"><use fill="#fff" fill-rule="evenodd" xlink:href="#g"/></mask><mask id="p" fill="#fff"><use fill="#fff" fill-rule="evenodd" xlink:href="#h"/></mask><mask id="q" fill="#fff"><use fill="#fff" fill-rule="evenodd" xlink:href="#i"/></mask></defs><g fill="none" fill-rule="nonzero"><path d="m0 0h1024v1024h-1024z" fill="url(#a)"/><g opacity=".07" transform="translate(-722.15)"><g fill="#000"><path d="m776.15 78.85 16.443064-28.2788711c.963409-1.4140898 14.103974-16.5999358 39.421696-45.55753784l1.971062-4.93278504 5.832547-.08080602 7.996292 6.17057361 4.335339 4.82076059-.963409 2.3139652-7.92686-1.7259288c-25.948765 30.5968536-39.533306 46.3773564-40.753623 47.3415085-1.220318.9641521-10.005687 7.6071924-26.356108 19.9291209z"/><path d="m291.65 1026 16.443064-28.278871c.963409-1.41409 14.103974-16.599936 39.421696-45.557538l1.971062-4.932785 5.832547-.080806 7.996292 6.170574 4.335339 4.82076-.963409 2.313965-7.92686-1.725928c-25.948765 30.596853-39.533306 46.377359-40.753623 47.341509-1.220318.96415-10.005687 7.60719-26.356108 19.92912z"/><path d="m457.9 211.85 16.443064-28.278871c.963409-1.41409 14.103974-16.599936 39.421696-45.557538l1.971062-4.932785 5.832547-.080806 7.996292 6.170574 4.335339 4.82076-.963409 2.313965-7.92686-1.725928c-25.948765 30.596853-39.533306 46.377356-40.753623 47.341508-1.220318.964152-10.005687 7.607193-26.356108 19.929121z"/><path d="m0 315.4 16.4430642-28.278871c.9634086-1.41409 14.1039737-16.599936 39.4216953-45.557538l1.9710628-4.932785 5.8325472-.080806 7.9962916 6.170574 4.3353389 4.82076-.9634086 2.313965-7.9268606-1.725928c-25.9487645 30.596853-39.5333055 46.377356-40.7536231 47.341508s-10.0056869 7.607193-26.3561077 19.929121z"/><path d="m49.4 877.8 16.6486025-28.278871c.9754512-1.41409 14.2802734-16.599936 39.9144665-45.557538l1.995701-4.932785 5.905454-.080806 8.096245 6.170574 4.389531 4.82076-.975451 2.313965-8.025947-1.725928c-26.2731236 30.596853-40.0274714 46.377356-41.263043 47.341508s-10.1307579 7.607193-26.685559 19.929121z"/><path d="m776.15 620.35 16.443064-28.61958c.963409-1.431127 14.103974-16.799935 39.421696-46.106424l1.971062-4.992216 5.832547-.08178 7.996292 6.244918 4.335339 4.878842-.963409 2.341844-7.92686-1.746723c-25.948765 30.96549-39.533306 46.93612-40.753623 47.911888-1.220318.975769-10.005687 7.698846-26.356108 20.169231z"/><path d="m126.35 157.7 16.443064-28.278871c.963409-1.41409 14.103974-16.599936 39.421696-45.5575379l1.971062-4.9327851 5.832547-.080806 7.996292 6.1705736 4.335339 4.8207606-.963409 2.3139652-7.92686-1.7259288c-25.948765 30.5968534-39.533306 46.3773564-40.753623 47.3415084-1.220318.964152-10.005687 7.607193-26.356108 19.929121z"/><path d="m49.4 631.75 16.6486025-28.278871c.9754512-1.41409 14.2802734-16.599936 39.9144665-45.557538l1.995701-4.932785 5.905454-.080806 8.096245 6.170574 4.389531 4.82076-.975451 2.313965-8.025947-1.725928c-26.2731236 30.596853-40.0274714 46.377356-41.263043 47.341508s-10.1307579 7.607193-26.685559 19.929121z"/><path d="m533.9 473.1 16.648602-28.278871c.975452-1.41409 14.280274-16.599936 39.914467-45.557538l1.995701-4.932785 5.905454-.080806 8.096245 6.170574 4.389531 4.82076-.975451 2.313965-8.025947-1.725928c-26.273124 30.596853-40.027471 46.377356-41.263043 47.341508s-10.130758 7.607193-26.685559 19.929121z"/><path d="m547.2 868.3 16.443064-28.278871c.963409-1.41409 14.103974-16.599936 39.421696-45.557538l1.971062-4.932785 5.832547-.080806 7.996292 6.170574 4.335339 4.82076-.963409 2.313965-7.92686-1.725928c-25.948765 30.596853-39.533306 46.377356-40.753623 47.341508-1.220318.964152-10.005687 7.607193-26.356108 19.929121z"/><path d="m976.6 211.85 16.443064-28.278871c.963409-1.41409 14.103976-16.599936 39.421696-45.557538l1.97106-4.932785 5.83255-.080806 7.99629 6.170574 4.33534 4.82076-.96341 2.313965-7.92686-1.725928c-25.94876 30.596853-39.5333 46.377356-40.75362 47.341508s-10.005689 7.607193-26.35611 19.929121z"/><path d="m1195.1 857.85 16.44306-28.278871c.96341-1.41409 14.10398-16.599936 39.4217-45.557538l1.97106-4.932785 5.83255-.080806 7.99629 6.170574 4.33534 4.82076-.96341 2.313965-7.92686-1.725928c-25.94876 30.596853-39.5333 46.377356-40.75362 47.341508s-10.00569 7.607193-26.35611 19.929121z"/><path d="m1608.35 236.55 16.44306-28.278871c.96341-1.41409 14.10398-16.599936 39.4217-45.557538l1.97106-4.932785 5.83255-.080806 7.99629 6.170574 4.33534 4.82076-.96341 2.313965-7.92686-1.725928c-25.94876 30.596853-39.5333 46.377356-40.75362 47.341508s-10.00569 7.607193-26.35611 19.929121z"/><path d="m1150.45 394.25 16.44306-28.278871c.96341-1.41409 14.10398-16.599936 39.4217-45.557538l1.97106-4.932785 5.83255-.080806 7.99629 6.170574 4.33534 4.82076-.96341 2.313965-7.92686-1.725928c-25.94876 30.596853-39.5333 46.377356-40.75362 47.341508s-10.00569 7.607193-26.35611 19.929121z"/><path d="m1028.85 1025.05 16.6486-28.278871c.97545-1.41409 14.28028-16.599936 39.91447-45.557538l1.9957-4.932785 5.90545-.080806 8.09625 6.170574 4.38953 4.82076-.97545 2.313965-8.02595-1.725928c-26.27312 30.596853-40.02747 46.377359-41.26304 47.341509s-10.13076 7.60719-26.68556 19.92912z"/><path d="m1442.1 78.85 16.44306-28.2788711c.96341-1.4140898 14.10398-16.5999358 39.4217-45.55753784l1.97106-4.93278504 5.83255-.08080602 7.99629 6.17057361 4.33534 4.82076059-.96341 2.3139652-7.92686-1.7259288c-25.94876 30.5968536-39.5333 46.3773564-40.75362 47.3415085s-10.00569 7.6071924-26.35611 19.9291209z"/><path d="m1602.65 552.9 16.44306-28.278871c.96341-1.41409 14.10398-16.599936 39.4217-45.557538l1.97106-4.932785 5.83255-.080806 7.99629 6.170574 4.33534 4.82076-.96341 2.313965-7.92686-1.725928c-25.94876 30.596853-39.5333 46.377356-40.75362 47.341508s-10.00569 7.607193-26.35611 19.929121z"/><path d="m1678.65 956.65 16.6486-28.278871c.97545-1.41409 14.28028-16.599936 39.91447-45.557538l1.9957-4.932785 5.90545-.080806 8.09625 6.170574 4.38953 4.82076-.97545 2.313965-8.02595-1.725928c-26.27312 30.596853-40.02747 46.377356-41.26304 47.341508s-10.13076 7.607193-26.68556 19.929121z"/></g><g transform="matrix(-1 0 0 1 1173.25 611.8)"><path d="m1.88075314 27.9161332 14.01464436-24.26696547h28.0899581l14.0146444 24.26696547v15.265685l-13.5227298 51.2099872h-27.705609l-14.95157752-51.2099872z"/><g fill="#000"><use xlink:href="#b"/><path d="m14.0753138 0 4.4288703 6.93341869-11.28451883 20.07042251-7.15899581-2.7368758z" mask="url(#j)"/><path d="m37.6150628 6.93341869 4.5502092-6.93341869 14.0146443 24.2669654-7.2803347 2.7368758z" mask="url(#j)"/><path d="m7.21966527 27.0038412 14.13598323 44.7631242-4.9142259 8.6971831-16.38075314-56.1971831z" mask="url(#j)"/><path d="m35.6129707 71.7669654 13.2866109-44.7631242 7.2803347-2.7368758-15.167364 56.1971831z" mask="url(#j)"/><path d="m14.0753138 0h28.0899582l-4.5502092 6.93341869h-19.1108787z" mask="url(#j)"/><path d="m35.6129707 71.7669654 5.3995816 8.6971831h-24.5711297l4.9142259-8.6971831z" mask="url(#j)"/><path d="m.06066946 24.2669654 16.38075314 56.1971831-1.4898451 10.2784891-14.9515775-51.2099872z" mask="url(#j)"/><path d="m41.0125523 80.4641485 1.6446342 10.2784891h-27.705609l1.4898451-10.2784891z" mask="url(#j)"/><path d="m41.0125523 80.4641485 15.167364-56.1971831v15.265685l-13.5227298 51.2099872z" mask="url(#j)"/><path d="m18.5041841 6.93341869h19.1108787l11.2845188 20.07042251-13.2866109 44.7631242h-14.2573222l-14.13598323-44.7631242z" mask="url(#j)"/></g><path d="m15.9560669 42.2695262c3.1426818-5.4879474 4.8654276-8.4544303 5.1682377-8.8994488.295762-.4346605 4.242845-5.0039331 11.8412489-13.7078177.3636983-.4166153.6542046-.8918235.859191-1.4054627.1875366-.4699148.6394872-.7807552 1.145393-.787773l.0809876-.0011234c.593517-.008233 1.1723167.1848492 1.6420224.5477635l1.5004381 1.1593012c.1912597.1477753.368732.3125815.5302389.4923961l.8563871.9534632c.1609792.1792271.2045917.4350314.1120941.6574742-.0870814.2094175-.3140308.3238704-.5341939.2693993l-.8435918-.208715c-.7510221-.1858121-1.5424525.0702515-2.0422921.6607773-7.6508283 9.0388357-11.6615428 13.7048388-12.0321437 13.9980094-.3835594.3034217-3.1448985 2.3940072-8.2840173 6.2717564z"/></g><g transform="matrix(-1 0 0 1 1594.1 782.8)"><path d="m1.88075314 27.9161332 14.01464436-24.26696547h28.0899581l14.0146444 24.26696547v15.265685l-13.5227298 51.2099872h-27.705609l-14.95157752-51.2099872z"/><g fill="#000"><use xlink:href="#c"/><path d="m14.0753138 0 4.4288703 6.93341869-11.28451883 20.07042251-7.15899581-2.7368758z" mask="url(#k)"/><path d="m37.6150628 6.93341869 4.5502092-6.93341869 14.0146443 24.2669654-7.2803347 2.7368758z" mask="url(#k)"/><path d="m7.21966527 27.0038412 14.13598323 44.7631242-4.9142259 8.6971831-16.38075314-56.1971831z" mask="url(#k)"/><path d="m35.6129707 71.7669654 13.2866109-44.7631242 7.2803347-2.7368758-15.167364 56.1971831z" mask="url(#k)"/><path d="m14.0753138 0h28.0899582l-4.5502092 6.93341869h-19.1108787z" mask="url(#k)"/><path d="m35.6129707 71.7669654 5.3995816 8.6971831h-24.5711297l4.9142259-8.6971831z" mask="url(#k)"/><path d="m.06066946 24.2669654 16.38075314 56.1971831-1.4898451 10.2784891-14.9515775-51.2099872z" mask="url(#k)"/><path d="m41.0125523 80.4641485 1.6446342 10.2784891h-27.705609l1.4898451-10.2784891z" mask="url(#k)"/><path d="m41.0125523 80.4641485 15.167364-56.1971831v15.265685l-13.5227298 51.2099872z" mask="url(#k)"/><path d="m18.5041841 6.93341869h19.1108787l11.2845188 20.07042251-13.2866109 44.7631242h-14.2573222l-14.13598323-44.7631242z" mask="url(#k)"/></g><path d="m15.9560669 42.2695262c3.1426818-5.4879474 4.8654276-8.4544303 5.1682377-8.8994488.295762-.4346605 4.242845-5.0039331 11.8412489-13.7078177.3636983-.4166153.6542046-.8918235.859191-1.4054627.1875366-.4699148.6394872-.7807552 1.145393-.787773l.0809876-.0011234c.593517-.008233 1.1723167.1848492 1.6420224.5477635l1.5004381 1.1593012c.1912597.1477753.368732.3125815.5302389.4923961l.8563871.9534632c.1609792.1792271.2045917.4350314.1120941.6574742-.0870814.2094175-.3140308.3238704-.5341939.2693993l-.8435918-.208715c-.7510221-.1858121-1.5424525.0702515-2.0422921.6607773-7.6508283 9.0388357-11.6615428 13.7048388-12.0321437 13.9980094-.3835594.3034217-3.1448985 2.3940072-8.2840173 6.2717564z"/></g><g transform="matrix(-1 0 0 1 1509.55 307.8)"><path d="m1.88075314 27.9161332 14.01464436-24.26696547h28.0899581l14.0146444 24.26696547v15.265685l-13.5227298 51.2099872h-27.705609l-14.95157752-51.2099872z"/><g fill="#000"><use xlink:href="#d"/><path d="m14.0753138 0 4.4288703 6.93341869-11.28451883 20.07042251-7.15899581-2.7368758z" mask="url(#l)"/><path d="m37.6150628 6.93341869 4.5502092-6.93341869 14.0146443 24.2669654-7.2803347 2.7368758z" mask="url(#l)"/><path d="m7.21966527 27.0038412 14.13598323 44.7631242-4.9142259 8.6971831-16.38075314-56.1971831z" mask="url(#l)"/><path d="m35.6129707 71.7669654 13.2866109-44.7631242 7.2803347-2.7368758-15.167364 56.1971831z" mask="url(#l)"/><path d="m14.0753138 0h28.0899582l-4.5502092 6.93341869h-19.1108787z" mask="url(#l)"/><path d="m35.6129707 71.7669654 5.3995816 8.6971831h-24.5711297l4.9142259-8.6971831z" mask="url(#l)"/><path d="m.06066946 24.2669654 16.38075314 56.1971831-1.4898451 10.2784891-14.9515775-51.2099872z" mask="url(#l)"/><path d="m41.0125523 80.4641485 1.6446342 10.2784891h-27.705609l1.4898451-10.2784891z" mask="url(#l)"/><path d="m41.0125523 80.4641485 15.167364-56.1971831v15.265685l-13.5227298 51.2099872z" mask="url(#l)"/><path d="m18.5041841 6.93341869h19.1108787l11.2845188 20.07042251-13.2866109 44.7631242h-14.2573222l-14.13598323-44.7631242z" mask="url(#l)"/></g><path d="m15.9560669 42.2695262c3.1426818-5.4879474 4.8654276-8.4544303 5.1682377-8.8994488.295762-.4346605 4.242845-5.0039331 11.8412489-13.7078177.3636983-.4166153.6542046-.8918235.859191-1.4054627.1875366-.4699148.6394872-.7807552 1.145393-.787773l.0809876-.0011234c.593517-.008233 1.1723167.1848492 1.6420224.5477635l1.5004381 1.1593012c.1912597.1477753.368732.3125815.5302389.4923961l.8563871.9534632c.1609792.1792271.2045917.4350314.1120941.6574742-.0870814.2094175-.3140308.3238704-.5341939.2693993l-.8435918-.208715c-.7510221-.1858121-1.5424525.0702515-2.0422921.6607773-7.6508283 9.0388357-11.6615428 13.7048388-12.0321437 13.9980094-.3835594.3034217-3.1448985 2.3940072-8.2840173 6.2717564z"/></g><g transform="matrix(-1 0 0 1 1291.05 45.6)"><path d="m1.88075314 27.9161332 14.01464436-24.26696547h28.0899581l14.0146444 24.26696547v15.265685l-13.5227298 51.2099872h-27.705609l-14.95157752-51.2099872z"/><g fill="#000"><use xlink:href="#e"/><path d="m14.0753138 0 4.4288703 6.93341869-11.28451883 20.07042251-7.15899581-2.7368758z" mask="url(#m)"/><path d="m37.6150628 6.93341869 4.5502092-6.93341869 14.0146443 24.2669654-7.2803347 2.7368758z" mask="url(#m)"/><path d="m7.21966527 27.0038412 14.13598323 44.7631242-4.9142259 8.6971831-16.38075314-56.1971831z" mask="url(#m)"/><path d="m35.6129707 71.7669654 13.2866109-44.7631242 7.2803347-2.7368758-15.167364 56.1971831z" mask="url(#m)"/><path d="m14.0753138 0h28.0899582l-4.5502092 6.93341869h-19.1108787z" mask="url(#m)"/><path d="m35.6129707 71.7669654 5.3995816 8.6971831h-24.5711297l4.9142259-8.6971831z" mask="url(#m)"/><path d="m.06066946 24.2669654 16.38075314 56.1971831-1.4898451 10.2784891-14.9515775-51.2099872z" mask="url(#m)"/><path d="m41.0125523 80.4641485 1.6446342 10.2784891h-27.705609l1.4898451-10.2784891z" mask="url(#m)"/><path d="m41.0125523 80.4641485 15.167364-56.1971831v15.265685l-13.5227298 51.2099872z" mask="url(#m)"/><path d="m18.5041841 6.93341869h19.1108787l11.2845188 20.07042251-13.2866109 44.7631242h-14.2573222l-14.13598323-44.7631242z" mask="url(#m)"/></g><path d="m15.9560669 42.2695262c3.1426818-5.4879474 4.8654276-8.4544303 5.1682377-8.8994488.295762-.4346605 4.242845-5.0039331 11.8412489-13.7078177.3636983-.4166153.6542046-.8918235.859191-1.4054627.1875366-.4699148.6394872-.7807552 1.145393-.787773l.0809876-.0011234c.593517-.008233 1.1723167.1848492 1.6420224.5477635l1.5004381 1.1593012c.1912597.1477753.368732.3125815.5302389.4923961l.8563871.9534632c.1609792.1792271.2045917.4350314.1120941.6574742-.0870814.2094175-.3140308.3238704-.5341939.2693993l-.8435918-.208715c-.7510221-.1858121-1.5424525.0702515-2.0422921.6607773-7.6508283 9.0388357-11.6615428 13.7048388-12.0321437 13.9980094-.3835594.3034217-3.1448985 2.3940072-8.2840173 6.2717564z"/></g><g transform="matrix(-1 0 0 1 843.6 307.8)"><path d="m1.88075314 27.9161332 14.01464436-24.26696547h28.0899581l14.0146444 24.26696547v15.265685l-13.5227298 51.2099872h-27.705609l-14.95157752-51.2099872z"/><g fill="#000"><use xlink:href="#f"/><path d="m14.0753138 0 4.4288703 6.93341869-11.28451883 20.07042251-7.15899581-2.7368758z" mask="url(#n)"/><path d="m37.6150628 6.93341869 4.5502092-6.93341869 14.0146443 24.2669654-7.2803347 2.7368758z" mask="url(#n)"/><path d="m7.21966527 27.0038412 14.13598323 44.7631242-4.9142259 8.6971831-16.38075314-56.1971831z" mask="url(#n)"/><path d="m35.6129707 71.7669654 13.2866109-44.7631242 7.2803347-2.7368758-15.167364 56.1971831z" mask="url(#n)"/><path d="m14.0753138 0h28.0899582l-4.5502092 6.93341869h-19.1108787z" mask="url(#n)"/><path d="m35.6129707 71.7669654 5.3995816 8.6971831h-24.5711297l4.9142259-8.6971831z" mask="url(#n)"/><path d="m.06066946 24.2669654 16.38075314 56.1971831-1.4898451 10.2784891-14.9515775-51.2099872z" mask="url(#n)"/><path d="m41.0125523 80.4641485 1.6446342 10.2784891h-27.705609l1.4898451-10.2784891z" mask="url(#n)"/><path d="m41.0125523 80.4641485 15.167364-56.1971831v15.265685l-13.5227298 51.2099872z" mask="url(#n)"/><path d="m18.5041841 6.93341869h19.1108787l11.2845188 20.07042251-13.2866109 44.7631242h-14.2573222l-14.13598323-44.7631242z" mask="url(#n)"/></g><path d="m15.9560669 42.2695262c3.1426818-5.4879474 4.8654276-8.4544303 5.1682377-8.8994488.295762-.4346605 4.242845-5.0039331 11.8412489-13.7078177.3636983-.4166153.6542046-.8918235.859191-1.4054627.1875366-.4699148.6394872-.7807552 1.145393-.787773l.0809876-.0011234c.593517-.008233 1.1723167.1848492 1.6420224.5477635l1.5004381 1.1593012c.1912597.1477753.368732.3125815.5302389.4923961l.8563871.9534632c.1609792.1792271.2045917.4350314.1120941.6574742-.0870814.2094175-.3140308.3238704-.5341939.2693993l-.8435918-.208715c-.7510221-.1858121-1.5424525.0702515-2.0422921.6607773-7.6508283 9.0388357-11.6615428 13.7048388-12.0321437 13.9980094-.3835594.3034217-3.1448985 2.3940072-8.2840173 6.2717564z"/></g><g transform="matrix(-1 0 0 1 760.95 870.2)"><path d="m1.88075314 27.9161332 14.01464436-24.26696547h28.0899581l14.0146444 24.26696547v15.265685l-13.5227298 51.2099872h-27.705609l-14.95157752-51.2099872z"/><g fill="#000"><use xlink:href="#g"/><path d="m14.0753138 0 4.4288703 6.93341869-11.28451883 20.07042251-7.15899581-2.7368758z" mask="url(#o)"/><path d="m37.6150628 6.93341869 4.5502092-6.93341869 14.0146443 24.2669654-7.2803347 2.7368758z" mask="url(#o)"/><path d="m7.21966527 27.0038412 14.13598323 44.7631242-4.9142259 8.6971831-16.38075314-56.1971831z" mask="url(#o)"/><path d="m35.6129707 71.7669654 13.2866109-44.7631242 7.2803347-2.7368758-15.167364 56.1971831z" mask="url(#o)"/><path d="m14.0753138 0h28.0899582l-4.5502092 6.93341869h-19.1108787z" mask="url(#o)"/><path d="m35.6129707 71.7669654 5.3995816 8.6971831h-24.5711297l4.9142259-8.6971831z" mask="url(#o)"/><path d="m.06066946 24.2669654 16.38075314 56.1971831-1.4898451 10.2784891-14.9515775-51.2099872z" mask="url(#o)"/><path d="m41.0125523 80.4641485 1.6446342 10.2784891h-27.705609l1.4898451-10.2784891z" mask="url(#o)"/><path d="m41.0125523 80.4641485 15.167364-56.1971831v15.265685l-13.5227298 51.2099872z" mask="url(#o)"/><path d="m18.5041841 6.93341869h19.1108787l11.2845188 20.07042251-13.2866109 44.7631242h-14.2573222l-14.13598323-44.7631242z" mask="url(#o)"/></g><path d="m15.9560669 42.2695262c3.1426818-5.4879474 4.8654276-8.4544303 5.1682377-8.8994488.295762-.4346605 4.242845-5.0039331 11.8412489-13.7078177.3636983-.4166153.6542046-.8918235.859191-1.4054627.1875366-.4699148.6394872-.7807552 1.145393-.787773l.0809876-.0011234c.593517-.008233 1.1723167.1848492 1.6420224.5477635l1.5004381 1.1593012c.1912597.1477753.368732.3125815.5302389.4923961l.8563871.9534632c.1609792.1792271.2045917.4350314.1120941.6574742-.0870814.2094175-.3140308.3238704-.5341939.2693993l-.8435918-.208715c-.7510221-.1858121-1.5424525.0702515-2.0422921.6607773-7.6508283 9.0388357-11.6615428 13.7048388-12.0321437 13.9980094-.3835594.3034217-3.1448985 2.3940072-8.2840173 6.2717564z"/></g><g transform="matrix(-1 0 0 1 349.6 624.15)"><path d="m1.88075314 27.9161332 14.01464436-24.26696547h28.0899581l14.0146444 24.26696547v15.265685l-13.5227298 51.2099872h-27.705609l-14.95157752-51.2099872z"/><g fill="#000"><use xlink:href="#h"/><path d="m14.0753138 0 4.4288703 6.93341869-11.28451883 20.07042251-7.15899581-2.7368758z" mask="url(#p)"/><path d="m37.6150628 6.93341869 4.5502092-6.93341869 14.0146443 24.2669654-7.2803347 2.7368758z" mask="url(#p)"/><path d="m7.21966527 27.0038412 14.13598323 44.7631242-4.9142259 8.6971831-16.38075314-56.1971831z" mask="url(#p)"/><path d="m35.6129707 71.7669654 13.2866109-44.7631242 7.2803347-2.7368758-15.167364 56.1971831z" mask="url(#p)"/><path d="m14.0753138 0h28.0899582l-4.5502092 6.93341869h-19.1108787z" mask="url(#p)"/><path d="m35.6129707 71.7669654 5.3995816 8.6971831h-24.5711297l4.9142259-8.6971831z" mask="url(#p)"/><path d="m.06066946 24.2669654 16.38075314 56.1971831-1.4898451 10.2784891-14.9515775-51.2099872z" mask="url(#p)"/><path d="m41.0125523 80.4641485 1.6446342 10.2784891h-27.705609l1.4898451-10.2784891z" mask="url(#p)"/><path d="m41.0125523 80.4641485 15.167364-56.1971831v15.265685l-13.5227298 51.2099872z" mask="url(#p)"/><path d="m18.5041841 6.93341869h19.1108787l11.2845188 20.07042251-13.2866109 44.7631242h-14.2573222l-14.13598323-44.7631242z" mask="url(#p)"/></g><path d="m15.9560669 42.2695262c3.1426818-5.4879474 4.8654276-8.4544303 5.1682377-8.8994488.295762-.4346605 4.242845-5.0039331 11.8412489-13.7078177.3636983-.4166153.6542046-.8918235.859191-1.4054627.1875366-.4699148.6394872-.7807552 1.145393-.787773l.0809876-.0011234c.593517-.008233 1.1723167.1848492 1.6420224.5477635l1.5004381 1.1593012c.1912597.1477753.368732.3125815.5302389.4923961l.8563871.9534632c.1609792.1792271.2045917.4350314.1120941.6574742-.0870814.2094175-.3140308.3238704-.5341939.2693993l-.8435918-.208715c-.7510221-.1858121-1.5424525.0702515-2.0422921.6607773-7.6508283 9.0388357-11.6615428 13.7048388-12.0321437 13.9980094-.3835594.3034217-3.1448985 2.3940072-8.2840173 6.2717564z"/></g><g transform="matrix(-1 0 0 1 349.6 307.8)"><path d="m1.88075314 27.9161332 14.01464436-24.26696547h28.0899581l14.0146444 24.26696547v15.265685l-13.5227298 51.2099872h-27.705609l-14.95157752-51.2099872z"/><g fill="#000"><use xlink:href="#i"/><path d="m14.0753138 0 4.4288703 6.93341869-11.28451883 20.07042251-7.15899581-2.7368758z" mask="url(#q)"/><path d="m37.6150628 6.93341869 4.5502092-6.93341869 14.0146443 24.2669654-7.2803347 2.7368758z" mask="url(#q)"/><path d="m7.21966527 27.0038412 14.13598323 44.7631242-4.9142259 8.6971831-16.38075314-56.1971831z" mask="url(#q)"/><path d="m35.6129707 71.7669654 13.2866109-44.7631242 7.2803347-2.7368758-15.167364 56.1971831z" mask="url(#q)"/><path d="m14.0753138 0h28.0899582l-4.5502092 6.93341869h-19.1108787z" mask="url(#q)"/><path d="m35.6129707 71.7669654 5.3995816 8.6971831h-24.5711297l4.9142259-8.6971831z" mask="url(#q)"/><path d="m.06066946 24.2669654 16.38075314 56.1971831-1.4898451 10.2784891-14.9515775-51.2099872z" mask="url(#q)"/><path d="m41.0125523 80.4641485 1.6446342 10.2784891h-27.705609l1.4898451-10.2784891z" mask="url(#q)"/><path d="m41.0125523 80.4641485 15.167364-56.1971831v15.265685l-13.5227298 51.2099872z" mask="url(#q)"/><path d="m18.5041841 6.93341869h19.1108787l11.2845188 20.07042251-13.2866109 44.7631242h-14.2573222l-14.13598323-44.7631242z" mask="url(#q)"/></g><path d="m15.9560669 42.2695262c3.1426818-5.4879474 4.8654276-8.4544303 5.1682377-8.8994488.295762-.4346605 4.242845-5.0039331 11.8412489-13.7078177.3636983-.4166153.6542046-.8918235.859191-1.4054627.1875366-.4699148.6394872-.7807552 1.145393-.787773l.0809876-.0011234c.593517-.008233 1.1723167.1848492 1.6420224.5477635l1.5004381 1.1593012c.1912597.1477753.368732.3125815.5302389.4923961l.8563871.9534632c.1609792.1792271.2045917.4350314.1120941.6574742-.0870814.2094175-.3140308.3238704-.5341939.2693993l-.8435918-.208715c-.7510221-.1858121-1.5424525.0702515-2.0422921.6607773-7.6508283 9.0388357-11.6615428 13.7048388-12.0321437 13.9980094-.3835594.3034217-3.1448985 2.3940072-8.2840173 6.2717564z"/></g></g></g></svg>