<svg height="57" viewBox="0 0 135 57" width="135" xmlns="http://www.w3.org/2000/svg"><g fill="none" fill-rule="evenodd"><path d="m10.724365 15.7945953c23.3685049-32.6330106 49.7111832 8.3318324 107.070241 1.041479 28.89197 21.1767409 5.523465 41.6591624-23.6367641 23.259699-.1566229 10.7619503-32.291025 24.9954975-45.0374822 0-27.1924422 27.4256153-61.7644997 8.3318325-38.3959947-24.301178z" fill="#af89d2" fill-rule="nonzero"/><path d="m9.71354413 53.040914c-5.71148475-3.3276496-9.21907916-8.9514202-9.66465553-15.7903243-.46139089-7.0816325 2.3447151-15.0570805 8.3469309-23.2685301 7.2978178-9.98392354 15.4781927-14.22655381 25.7097378-13.97121679 4.1908979.10458747 8.668922.9295634 14.2971504 2.49633465 2.182228.60748281 4.4546942 1.29855879 7.6022055 2.29736544.8787631.27885982 4.8153553 1.53710332 4.1305536 1.31855676 1.5647561.49944808 2.7523716.87513462 3.9380436 1.24428019 9.24034 2.87687535 16.3714063 4.66942765 24.0911946 5.82277815 9.7215366 1.4524154 19.427781 1.6500276 29.63726.378774l1.394625-.1736545 1.138624.8176062c7.417236 5.3260605 12.133183 11.0217232 13.897189 16.6468391 1.777127 5.6669567.428934 11.0240651-3.633954 14.7280586-7.189895 6.5547755-20.540255 6.4147285-33.9640455-.5393292-3.1617329 5.3574143-10.7371574 9.8760827-19.1436895 11.3950658-11.3253538 2.0463873-21.8787742-1.5305265-28.6410838-11.0733248-13.0553937 11.0409489-28.4908523 13.8728922-39.13608607 7.6707208zm50.31389537-47.03215224c-.0170359-.00543944-.0353186-.01127732-.054879-.01752352.01529.00488255.030544.00975329.0457623.01461234zm-2.0996184 6.96819464c.0609056.0194485.1086436.034689.1443578.0460872-.0477707-.015248-.0958865-.0306094-.1443578-.0460872zm-4.1025433-1.4938267c-3.0783316-.9783313-5.2826112-1.64968512-7.3694248-2.23148545-5.1174713-1.42674292-9.0664286-2.15535056-12.5731526-2.24299625-7.8364463-.19586109-13.8314541 2.91806403-19.7957097 11.0899237-9.66406631 13.2411151-8.95285769 24.1735728-.8444048 28.9049001 8.4981354 4.9587091 22.2870429 1.8150971 33.861471-9.6386121l3.4542954-3.4182678 2.2369776 4.3040011c4.9601146 9.5433848 13.5918043 13.0885508 23.4497861 11.3046097 4.1303799-.7474505 8.0842869-2.4354785 10.993765-4.6046276 2.5299923-1.8862252 3.8689418-3.8460662 3.8879063-5.1246077l.0931421-6.2794313 5.3644114 3.3210449c6.4384752 3.9859854 12.7984112 6.1308232 18.3888072 6.4466929 4.809778.271763 8.681123-.8484945 10.922264-2.894755 1.998189-1.8244349 2.628429-4.3325117 1.653818-7.4450801-1.17728-3.7598268-4.566888-8.0004155-10.183717-12.24628-10.376535 1.1680147-20.2988951.9095064-30.2113201-.5736681-8.158943-1.2208049-15.6307169-3.1018427-25.2086164-6.088324-1.2087414-.3768972-2.4151142-.7591039-4.0011638-1.266125.7030176.2247077-3.2447046-1.0390073-4.1191349-1.316912z" fill="#1e0238"/></g></svg>