<svg height="49" viewBox="0 0 145 49" width="145" xmlns="http://www.w3.org/2000/svg"><g fill="none" fill-rule="evenodd"><path d="m15.1943364 7.73881532c40.3994853-5.32870054 78.0728681-4.96140241 113.0201486 1.1018944 30.4975 22.40518598 5.098745 49.21794958-24.950262 24.60897478-4.5530463 10.0840975-37.6562641 22.9424836-49.9638707-1.3841928-28.7035298 29.0165524-69.1772373 7.2980029-38.1060159-24.32667638z" fill="#af89d2" fill-rule="nonzero"/><path d="m31.1334942 47.8731735c-7.9855034 1.6792287-15.6967664.6990536-21.53219203-2.7079962-6.17807652-3.6071087-9.7473991-9.6440304-9.59671515-16.8015753.15680645-7.4483657 4.28112274-15.5358206 12.21520028-23.58211799l.8584578-.87059982 1.2076601-.15871648c40.7054003-5.34969894 78.7019128-4.98058566 113.9825388 1.11848342l.818933.14157143.672265.49210395c7.807825 5.71539489 12.749702 12.14889509 14.522361 18.63383389 1.728309 6.3226968.296461 12.3632661-3.864044 16.5970976-4.051318 4.1227212-10.225537 6.063627-17.175618 5.3893856-6.331657-.614247-13.072018-3.3392167-19.713476-8.1035424-4.5852661 5.0865179-13.3941094 9.3657299-22.3630753 10.6001625-11.9146032 1.6398517-22.4942436-2.0202799-29.1326754-11.4717141-6.4639315 5.5702695-13.6424316 9.1975486-20.8996201 10.7236239zm-24.13052546-19.3165767c-.09429148 4.5166556 2.0603917 8.1916831 6.05677006 10.5446726 4.2433989 2.4984303 10.1805736 3.2594667 16.5365722 1.9116253 7.1517989-1.5165973 14.3392602-5.5556408 20.661032-11.977024l3.467052-3.5216819 2.2329758 4.4347836c4.7960592 9.5251753 13.5578068 13.2185784 24.2575102 11.7335178 8.8709024-1.231233 17.5334813-6.1924286 19.3323746-10.1957429l1.9130724-4.2574117 3.579178 2.945276c6.583565 5.4175608 13.144442 8.3811427 18.980902 8.9521249 4.933861.4826807 8.991701-.8036859 11.452341-3.3288129 2.327658-2.3886587 3.129239-5.798827 2.061531-9.7377795-1.261742-4.6547747-4.996286-9.6591011-11.201246-14.3874915-34.029217-5.83570283-70.6963036-6.20711914-110.0078936-1.1035939-6.1904069 6.5850309-9.21335539 12.7751307-9.32217166 17.9875381z" fill="#1e0238"/></g></svg>