<svg height="58" viewBox="0 0 135 58" width="135" xmlns="http://www.w3.org/2000/svg"><g fill="none" fill-rule="evenodd"><path d="m10.724365 15.7945953c23.3685049-32.6330106 49.7111832 8.3318324 107.070241 1.041479 28.89197 21.1767409 5.523465 41.6591624-23.6367641 23.259699-.1566229 10.7619503-32.291025 24.9954975-45.0374822 0-27.1924422 27.4256153-61.7644997 8.3318325-38.3959947-24.301178z" fill="#af89d2" fill-rule="nonzero"/><path d="m9.71354413 53.9714564c-5.71148475-3.3860294-9.21907916-9.1084627-9.66465553-16.0673476-.46139089-7.2058717 2.3447151-15.3212398 8.3469309-23.6767499 7.2978178-10.1590801 15.4781927-14.47614248 25.7097378-14.21632586 4.1908979.10642233 8.668922.94587152 14.2971504 2.54012999 2.182228.6181404 4.4546942 1.32134053 7.6022055 2.3376701.8787631.28375209 4.8153553 1.56407004 4.1305536 1.34168933 1.5647561.50821033 2.7523716.89048786 3.9380436 1.26610966 9.24034 2.92734688 16.3714063 4.75134738 24.0911946 5.92493218 9.7215366 1.4778964 19.427781 1.6789754 29.63726.3854191l1.394625-.176701 1.138624.8319501c7.417236 5.4195002 12.133183 11.2150868 13.897189 16.938889 1.777127 5.7663769.428934 11.2174697-3.633954 14.9864455-7.189895 6.6697716-20.540255 6.5272676-33.9640455-.5487911-3.1617329 5.451404-10.7371574 10.0493474-19.1436895 11.5949793-11.3253538 2.0822888-21.8787742-1.5573779-28.6410838-11.2675937-13.0553937 11.2346498-28.4908523 14.1162763-39.13608607 7.8052949zm50.85190347-48.45039207c-.0406334-.01307706-.0842406-.02711204-.1308952-.04212866.0364691.01173823.0728523.0234481.1091504.03512984zm-3.2376056 7.92353607c.1452693.0467566.259132.0833966.344316.1107992-.1139407-.0366581-.2287044-.0735886-.344316-.1107992zm-3.5025642-1.8572118c-3.0783316-1.0010832-5.2826112-1.68804996-7.3694248-2.28338053-5.1174713-1.45992299-9.0664286-2.20547499-12.5731526-2.29515896-7.8364463-.20041599-13.8314541 2.98592599-19.7957097 11.34782889-9.66406631 13.549048-8.95285769 24.7357489-.8444048 29.5771071 8.4981354 5.074028 22.2870429 1.8573086 33.861471-9.8627659l3.4542954-3.4977624 2.2369776 4.4040941c4.9601146 9.7653241 13.5918043 13.3929358 23.4497861 11.5675077 4.1303799-.7648331 8.0842869-2.4921175 10.993765-4.711712 2.5299923-1.9300909 3.8689418-3.9355096 3.8879063-5.2437846l.0931421-6.4254646 5.3644114 3.3982785c6.4384752 4.0786828 12.7984112 6.2734005 18.3888072 6.596616 4.809778.2780831 8.681123-.8682269 10.922264-2.9620749 1.998189-1.8668636 2.628429-4.4332678 1.653818-7.6182214-1.17728-3.8472647-4.566888-8.1864718-10.183717-12.5310773-10.376535 1.1951778-20.2988951.9306578-30.2113201-.5870093-8.158943-1.2491957-15.6307169-3.1739785-25.2086164-6.2299128-1.2087414-.3856623-2.4151142-.7767575-4.0011638-1.2955698.7030176.2299335-3.2447046-1.0631703-4.1191349-1.3475378z" fill="#1e0238"/></g></svg>