<svg height="111" viewBox="0 0 158 111" width="158" xmlns="http://www.w3.org/2000/svg"><g fill="none" fill-rule="evenodd"><g transform="translate(13 62)"><path d="m15.1943364 7.73881532c40.3994853-5.32870054 78.0728681-4.96140241 113.0201486 1.1018944 30.4975 22.40518598 5.098745 49.21794958-24.950262 24.60897478-4.5530463 10.0840975-37.6562641 22.9424836-49.9638707-1.3841928-28.7035298 29.0165524-69.1772373 7.2980029-38.1060159-24.32667638z" fill="#af89d2" fill-rule="nonzero"/><path d="m31.1334942 47.8731735c-7.9855034 1.6792287-15.6967664.6990536-21.53219203-2.7079962-6.17807652-3.6071087-9.7473991-9.6440304-9.59671515-16.8015753.15680645-7.4483657 4.28112274-15.5358206 12.21520028-23.58211799l.8584578-.87059982 1.2076601-.15871648c40.7054003-5.34969894 78.7019128-4.98058566 113.9825388 1.11848342l.818933.14157143.672265.49210395c7.807825 5.71539489 12.749702 12.14889509 14.522361 18.63383389 1.728309 6.3226968.296461 12.3632661-3.864044 16.5970976-4.051318 4.1227212-10.225537 6.063627-17.175618 5.3893856-6.331657-.614247-13.072018-3.3392167-19.713476-8.1035424-4.5852661 5.0865179-13.3941094 9.3657299-22.3630753 10.6001625-11.9146032 1.6398517-22.4942436-2.0202799-29.1326754-11.4717141-6.4639315 5.5702695-13.6424316 9.1975486-20.8996201 10.7236239zm-24.13052546-19.3165767c-.09429148 4.5166556 2.0603917 8.1916831 6.05677006 10.5446726 4.2433989 2.4984303 10.1805736 3.2594667 16.5365722 1.9116253 7.1517989-1.5165973 14.3392602-5.5556408 20.661032-11.977024l3.467052-3.5216819 2.2329758 4.4347836c4.7960592 9.5251753 13.5578068 13.2185784 24.2575102 11.7335178 8.8709024-1.231233 17.5334813-6.1924286 19.3323746-10.1957429l1.9130724-4.2574117 3.579178 2.945276c6.583565 5.4175608 13.144442 8.3811427 18.980902 8.9521249 4.933861.4826807 8.991701-.8036859 11.452341-3.3288129 2.327658-2.3886587 3.129239-5.798827 2.061531-9.7377795-1.261742-4.6547747-4.996286-9.6591011-11.201246-14.3874915-34.029217-5.83570283-70.6963036-6.20711914-110.0078936-1.1035939-6.1904069 6.5850309-9.21335539 12.7751307-9.32217166 17.9875381z" fill="#1e0238"/></g><g transform="translate(8 26)"><path d="m10.724365 15.7945953c23.3685049-32.6330106 49.7111832 8.3318324 107.070241 1.041479 28.89197 21.1767409 5.523465 41.6591624-23.6367641 23.259699-.1566229 10.7619503-32.291025 24.9954975-45.0374822 0-27.1924422 27.4256153-61.7644997 8.3318325-38.3959947-24.301178z" fill="#af89d2" fill-rule="nonzero"/><path d="m9.71354413 53.9714564c-5.71148475-3.3860294-9.21907916-9.1084627-9.66465553-16.0673476-.46139089-7.2058717 2.3447151-15.3212398 8.3469309-23.6767499 7.2978178-10.1590801 15.4781927-14.47614248 25.7097378-14.21632586 4.1908979.10642233 8.668922.94587152 14.2971504 2.54012999 2.182228.6181404 4.4546942 1.32134053 7.6022055 2.3376701.8787631.28375209 4.8153553 1.56407004 4.1305536 1.34168933 1.5647561.50821033 2.7523716.89048786 3.9380436 1.26610966 9.24034 2.92734688 16.3714063 4.75134738 24.0911946 5.92493218 9.7215366 1.4778964 19.427781 1.6789754 29.63726.3854191l1.394625-.176701 1.138624.8319501c7.417236 5.4195002 12.133183 11.2150868 13.897189 16.938889 1.777127 5.7663769.428934 11.2174697-3.633954 14.9864455-7.189895 6.6697716-20.540255 6.5272676-33.9640455-.5487911-3.1617329 5.451404-10.7371574 10.0493474-19.1436895 11.5949793-11.3253538 2.0822888-21.8787742-1.5573779-28.6410838-11.2675937-13.0553937 11.2346498-28.4908523 14.1162763-39.13608607 7.8052949zm50.85190347-48.45039207c-.0406334-.01307706-.0842406-.02711204-.1308952-.04212866.0364691.01173823.0728523.0234481.1091504.03512984zm-3.2376056 7.92353607c.1452693.0467566.259132.0833966.344316.1107992-.1139407-.0366581-.2287044-.0735886-.344316-.1107992zm-3.5025642-1.8572118c-3.0783316-1.0010832-5.2826112-1.68804996-7.3694248-2.28338053-5.1174713-1.45992299-9.0664286-2.20547499-12.5731526-2.29515896-7.8364463-.20041599-13.8314541 2.98592599-19.7957097 11.34782889-9.66406631 13.549048-8.95285769 24.7357489-.8444048 29.5771071 8.4981354 5.074028 22.2870429 1.8573086 33.861471-9.8627659l3.4542954-3.4977624 2.2369776 4.4040941c4.9601146 9.7653241 13.5918043 13.3929358 23.4497861 11.5675077 4.1303799-.7648331 8.0842869-2.4921175 10.993765-4.711712 2.5299923-1.9300909 3.8689418-3.9355096 3.8879063-5.2437846l.0931421-6.4254646 5.3644114 3.3982785c6.4384752 4.0786828 12.7984112 6.2734005 18.3888072 6.596616 4.809778.2780831 8.681123-.8682269 10.922264-2.9620749 1.998189-1.8668636 2.628429-4.4332678 1.653818-7.6182214-1.17728-3.8472647-4.566888-8.1864718-10.183717-12.5310773-10.376535 1.1951778-20.2988951.9306578-30.2113201-.5870093-8.158943-1.2491957-15.6307169-3.1739785-25.2086164-6.2299128-1.2087414-.3856623-2.4151142-.7767575-4.0011638-1.2955698.7030176.2299335-3.2447046-1.0631703-4.1191349-1.3475378z" fill="#1e0238"/></g><g><path d="m10.724365 15.7945953c23.3685049-32.6330106 49.7111832 8.3318324 107.070241 1.041479 28.89197 21.1767409 5.523465 41.6591624-23.6367641 23.259699-.1566229 10.7619503-32.291025 24.9954975-45.0374822 0-27.1924422 27.4256153-61.7644997 8.3318325-38.3959947-24.301178z" fill="#af89d2" fill-rule="nonzero"/><path d="m9.71354413 53.040914c-5.71148475-3.3276496-9.21907916-8.9514202-9.66465553-15.7903243-.46139089-7.0816325 2.3447151-15.0570805 8.3469309-23.2685301 7.2978178-9.98392354 15.4781927-14.22655381 25.7097378-13.97121679 4.1908979.10458747 8.668922.9295634 14.2971504 2.49633465 2.182228.60748281 4.4546942 1.29855879 7.6022055 2.29736544.8787631.27885982 4.8153553 1.53710332 4.1305536 1.31855676 1.5647561.49944808 2.7523716.87513462 3.9380436 1.24428019 9.24034 2.87687535 16.3714063 4.66942765 24.0911946 5.82277815 9.7215366 1.4524154 19.427781 1.6500276 29.63726.378774l1.394625-.1736545 1.138624.8176062c7.417236 5.3260605 12.133183 11.0217232 13.897189 16.6468391 1.777127 5.6669567.428934 11.0240651-3.633954 14.7280586-7.189895 6.5547755-20.540255 6.4147285-33.9640455-.5393292-3.1617329 5.3574143-10.7371574 9.8760827-19.1436895 11.3950658-11.3253538 2.0463873-21.8787742-1.5305265-28.6410838-11.0733248-13.0553937 11.0409489-28.4908523 13.8728922-39.13608607 7.6707208zm50.31389537-47.03215224c-.0170359-.00543944-.0353186-.01127732-.054879-.01752352.01529.00488255.030544.00975329.0457623.01461234zm-2.0996184 6.96819464c.0609056.0194485.1086436.034689.1443578.0460872-.0477707-.015248-.0958865-.0306094-.1443578-.0460872zm-4.1025433-1.4938267c-3.0783316-.9783313-5.2826112-1.64968512-7.3694248-2.23148545-5.1174713-1.42674292-9.0664286-2.15535056-12.5731526-2.24299625-7.8364463-.19586109-13.8314541 2.91806403-19.7957097 11.0899237-9.66406631 13.2411151-8.95285769 24.1735728-.8444048 28.9049001 8.4981354 4.9587091 22.2870429 1.8150971 33.861471-9.6386121l3.4542954-3.4182678 2.2369776 4.3040011c4.9601146 9.5433848 13.5918043 13.0885508 23.4497861 11.3046097 4.1303799-.7474505 8.0842869-2.4354785 10.993765-4.6046276 2.5299923-1.8862252 3.8689418-3.8460662 3.8879063-5.1246077l.0931421-6.2794313 5.3644114 3.3210449c6.4384752 3.9859854 12.7984112 6.1308232 18.3888072 6.4466929 4.809778.271763 8.681123-.8484945 10.922264-2.894755 1.998189-1.8244349 2.628429-4.3325117 1.653818-7.4450801-1.17728-3.7598268-4.566888-8.0004155-10.183717-12.24628-10.376535 1.1680147-20.2988951.9095064-30.2113201-.5736681-8.158943-1.2208049-15.6307169-3.1018427-25.2086164-6.088324-1.2087414-.3768972-2.4151142-.7591039-4.0011638-1.266125.7030176.2247077-3.2447046-1.0390073-4.1191349-1.316912z" fill="#1e0238"/></g></g></svg>