<svg height="928" width="1340" xmlns="http://www.w3.org/2000/svg"><g fill="none"><path d="M1053.025 0c4.487 13.104 9.188 26.136 13.32 39.382 91.883 12.178 184.692-4.985 273.655-27.418-64.39 60.604-67.096 155.676-74.717 237.786-54.418 9.33-110.901 29.91-144.165 76.485-49.503 67.084-47.223 156.032-33.904 234.44-42.451-3.277-89.818-8.333-126.642 17.945-47.01 33.186-60.045 95.143-59.689 149.338 16.098 10.326 34.118 19.655 45.301 35.75 7.194 10.967-3.917 20.937-9.9 29.126-12.038-3.56-24.004-7.121-36.042-10.61 3.134 48.781 15.67 96.709 15.03 145.776-31.84-40.094-53.207-87.523-87.468-125.979-11.752 8.83-23.291 17.946-35.257 26.492-7.835-5.982-21.155-11.75-17.807-24 3.846-13.815 12.393-25.708 19.231-38.1-38.747-38.028-93.593-68.152-149.292-55.333-51.284 10.682-88.393 50.847-119.164 90.514-23.291-45.791-57.124-91.369-108.977-105.897-64.105-18.587-129.136 7.834-184.622 38.741-32.052-37.672-73.008-69.078-121.585-81.47-35.756-10.824-73.435-9.685-110.331-8.26 94.875-54.693 173.082-135.024 232.13-226.606a16534.015 16534.015 0 0 0-21.368-36.462c7.407-6.196 13.675-19.726 25.5-15.169 17.806 11.323 31.482 27.845 47.579 41.305 89.889 77.695 204.992 128.614 324.37 133.456 15.1.072 36.254 1.994 42.023-15.952 13.747-46.503-3.775-94.573-10.185-140.863 14.744 13.887 28.847 28.558 44.73 41.305 25.714-16.45 55.202-24.854 84.832-31.05 3.562-18.8 4.132-38.028 4.915-57.043 19.659 31.549 34.332 68.723 65.387 91.155 15.314 8.902 29.417-6.48 38.89-16.949C950.6 328.3 1009.576 228.6 1024.819 117.932c5.983-38.528-.926-77.126-1.14-115.724C1033.366.926 1043.196.214 1053.025 0z" fill="#070707"/><g fill="#f8eb20"><path d="M690.082 507.107c-7.376-12.413 6.587-22.116 14.822-29.107 14.036 13.626 27.283 28.108 38.096 44.374-17.974-.072-43.967 5.493-52.918-15.267zM815.224 458.065c-3.702-14.065-20.27-11.852-30.943-11.48-.054 19.415 1.047 38.931 5.102 58.13 12.408-12.084 34.378-25.392 25.841-46.65z"/></g></g></svg>