<svg width="500" height="500" xmlns="http://www.w3.org/2000/svg" xmlns:xlink="http://www.w3.org/1999/xlink"><defs><filter x="-20.7%" y="-12.8%" width="141.4%" height="125.6%" filterUnits="objectBoundingBox" id="c"><feOffset in="SourceAlpha" result="shadowOffsetOuter1"/><feGaussianBlur stdDeviation="17.5" in="shadowOffsetOuter1" result="shadowBlurOuter1"/><feColorMatrix values="0 0 0 0 0 0 0 0 0 0 0 0 0 0 0 0 0 0 0.3 0" in="shadowBlurOuter1"/></filter><filter x="-63%" y="-43.1%" width="226%" height="186.1%" filterUnits="objectBoundingBox" id="e"><feOffset in="SourceAlpha" result="shadowOffsetOuter1"/><feGaussianBlur stdDeviation="17.5" in="shadowOffsetOuter1" result="shadowBlurOuter1"/><feComposite in="shadowBlurOuter1" in2="SourceAlpha" operator="out" result="shadowBlurOuter1"/><feColorMatrix values="0 0 0 0 0.00523997927 0 0 0 0 0.113304925 0 0 0 0 0.30932971 0 0 0 0.3 0" in="shadowBlurOuter1"/></filter><filter x="-62.6%" y="-43.1%" width="225.2%" height="186.1%" filterUnits="objectBoundingBox" id="g"><feOffset in="SourceAlpha" result="shadowOffsetOuter1"/><feGaussianBlur stdDeviation="17.5" in="shadowOffsetOuter1" result="shadowBlurOuter1"/><feComposite in="shadowBlurOuter1" in2="SourceAlpha" operator="out" result="shadowBlurOuter1"/><feColorMatrix values="0 0 0 0 0.00523997927 0 0 0 0 0.113304925 0 0 0 0 0.30932971 0 0 0 0.3 0" in="shadowBlurOuter1"/></filter><filter x="-54.6%" y="-20.7%" width="209.2%" height="141.4%" filterUnits="objectBoundingBox" id="i"><feOffset in="SourceAlpha" result="shadowOffsetOuter1"/><feGaussianBlur stdDeviation="17.5" in="shadowOffsetOuter1" result="shadowBlurOuter1"/><feComposite in="shadowBlurOuter1" in2="SourceAlpha" operator="out" result="shadowBlurOuter1"/><feColorMatrix values="0 0 0 0 0.00523997927 0 0 0 0 0.113304925 0 0 0 0 0.30932971 0 0 0 0.3 0" in="shadowBlurOuter1"/></filter><filter x="-56.5%" y="-20.7%" width="213%" height="141.4%" filterUnits="objectBoundingBox" id="k"><feOffset in="SourceAlpha" result="shadowOffsetOuter1"/><feGaussianBlur stdDeviation="17.5" in="shadowOffsetOuter1" result="shadowBlurOuter1"/><feComposite in="shadowBlurOuter1" in2="SourceAlpha" operator="out" result="shadowBlurOuter1"/><feColorMatrix values="0 0 0 0 0.00523997927 0 0 0 0 0.113304925 0 0 0 0 0.30932971 0 0 0 0.3 0" in="shadowBlurOuter1"/></filter><filter x="-41.4%" y="-167.7%" width="182.7%" height="435.4%" filterUnits="objectBoundingBox" id="m"><feOffset in="SourceAlpha" result="shadowOffsetOuter1"/><feGaussianBlur stdDeviation="17.5" in="shadowOffsetOuter1" result="shadowBlurOuter1"/><feComposite in="shadowBlurOuter1" in2="SourceAlpha" operator="out" result="shadowBlurOuter1"/><feColorMatrix values="0 0 0 0 0.00523997927 0 0 0 0 0.113304925 0 0 0 0 0.30932971 0 0 0 0.3 0" in="shadowBlurOuter1"/></filter><filter x="-47.3%" y="-133.7%" width="194.6%" height="367.3%" filterUnits="objectBoundingBox" id="o"><feOffset in="SourceAlpha" result="shadowOffsetOuter1"/><feGaussianBlur stdDeviation="17.5" in="shadowOffsetOuter1" result="shadowBlurOuter1"/><feComposite in="shadowBlurOuter1" in2="SourceAlpha" operator="out" result="shadowBlurOuter1"/><feColorMatrix values="0 0 0 0 0.00523997927 0 0 0 0 0.113304925 0 0 0 0 0.30932971 0 0 0 0.3 0" in="shadowBlurOuter1"/></filter><filter x="-70.7%" y="-17.5%" width="241.4%" height="135%" filterUnits="objectBoundingBox" id="q"><feOffset in="SourceAlpha" result="shadowOffsetOuter1"/><feGaussianBlur stdDeviation="17.5" in="shadowOffsetOuter1" result="shadowBlurOuter1"/><feComposite in="shadowBlurOuter1" in2="SourceAlpha" operator="out" result="shadowBlurOuter1"/><feColorMatrix values="0 0 0 0 0.00523997927 0 0 0 0 0.113304925 0 0 0 0 0.30932971 0 0 0 0.3 0" in="shadowBlurOuter1"/></filter><filter x="-41.9%" y="-113.1%" width="183.9%" height="326.2%" filterUnits="objectBoundingBox" id="s"><feOffset in="SourceAlpha" result="shadowOffsetOuter1"/><feGaussianBlur stdDeviation="17.5" in="shadowOffsetOuter1" result="shadowBlurOuter1"/><feComposite in="shadowBlurOuter1" in2="SourceAlpha" operator="out" result="shadowBlurOuter1"/><feColorMatrix values="0 0 0 0 0.00523997927 0 0 0 0 0.113304925 0 0 0 0 0.30932971 0 0 0 0.3 0" in="shadowBlurOuter1"/></filter><filter x="-76.6%" y="-17.5%" width="253.3%" height="135%" filterUnits="objectBoundingBox" id="u"><feOffset in="SourceAlpha" result="shadowOffsetOuter1"/><feGaussianBlur stdDeviation="17.5" in="shadowOffsetOuter1" result="shadowBlurOuter1"/><feComposite in="shadowBlurOuter1" in2="SourceAlpha" operator="out" result="shadowBlurOuter1"/><feColorMatrix values="0 0 0 0 0.00523997927 0 0 0 0 0.113304925 0 0 0 0 0.30932971 0 0 0 0.3 0" in="shadowBlurOuter1"/></filter><filter x="-27.9%" y="-17.9%" width="155.8%" height="135.9%" filterUnits="objectBoundingBox" id="w"><feOffset in="SourceAlpha" result="shadowOffsetOuter1"/><feGaussianBlur stdDeviation="17.5" in="shadowOffsetOuter1" result="shadowBlurOuter1"/><feComposite in="shadowBlurOuter1" in2="SourceAlpha" operator="out" result="shadowBlurOuter1"/><feColorMatrix values="0 0 0 0 0.00523997927 0 0 0 0 0.113304925 0 0 0 0 0.30932971 0 0 0 0.3 0" in="shadowBlurOuter1"/></filter><path id="b" d="M.274 109.585 63.582 0h126.889l63.307 109.585v68.936l-61.085 231.254H67.54L0 178.521z"/><path id="f" d="m63.582 0 20.006 31.31-50.975 90.634L.274 109.585z"/><path id="h" d="M169.916 31.31 190.471 0l63.307 109.585-32.887 12.359z"/><path id="j" d="m32.613 121.944 63.856 202.141-22.199 39.274L.274 109.585z"/><path id="l" d="m160.872 324.085 60.019-202.141 32.887-12.359-68.514 253.774z"/><path id="n" d="M63.582 0h126.889l-20.555 31.31H83.588z"/><path id="p" d="m160.872 324.085 24.392 39.274H74.27l22.199-39.274z"/><path id="r" d="M.274 109.585 74.27 363.359l-6.73 46.416L0 178.521z"/><path id="t" d="m185.264 363.359 7.429 46.416H67.54l6.73-46.416z"/><path id="v" d="m185.264 363.359 68.514-253.774v68.936l-61.085 231.254z"/><path id="x" d="M83.588 31.31h86.328l50.975 90.634-60.019 202.141H96.469L32.613 121.944z"/><linearGradient x1="50%" y1="0%" x2="50%" y2="100%" id="a"><stop stop-color="#1061F9" offset="0%"/><stop stop-color="#022D7B" offset="100%"/></linearGradient></defs><g fill="none" fill-rule="evenodd"><circle fill="url(#a)" cx="250" cy="250" r="250"/><path fill="#022D7B" d="m127.496 164.063 63.307-109.584h126.889L381 164.063V233l-61.085 231.254H194.762L127.222 233z"/><g transform="translate(119 38)"><mask id="d" fill="#fff"><use xlink:href="#b"/></mask><use fill="#000" filter="url(#c)" xlink:href="#b"/><use fill="#444" xlink:href="#b"/><g mask="url(#d)"><use fill="#000" filter="url(#e)" xlink:href="#f"/><path stroke-opacity=".2" stroke="#011D4F" stroke-width="2" d="M63.625 1.925 1.727 109.069l30.437 11.633 50.258-89.36L63.625 1.926Z" stroke-linejoin="square" fill="#1969FF"/></g><g mask="url(#d)"><use fill="#000" filter="url(#g)" xlink:href="#h"/><path stroke-opacity=".2" stroke="#011D4F" stroke-width="2" d="m171.086 31.35 50.256 89.356 30.98-11.643L190.416 1.905l-19.33 29.445Z" stroke-linejoin="square" fill="#1969FF"/></g><g mask="url(#d)"><use fill="#000" filter="url(#i)" xlink:href="#j"/><path stroke-opacity=".2" stroke="#011D4F" stroke-width="2" d="M31.805 122.705 1.798 111.237l72.768 249.566 20.818-36.832-63.58-201.266Z" stroke-linejoin="square" fill="#1969FF"/></g><g mask="url(#d)"><use fill="#000" filter="url(#k)" xlink:href="#l"/><path stroke-opacity=".2" stroke="#011D4F" stroke-width="2" d="m161.959 323.939 22.94 36.937 67.405-249.67-30.596 11.499-59.75 201.234Z" stroke-linejoin="square" fill="#1969FF"/></g><g mask="url(#d)"><use fill="#000" filter="url(#m)" xlink:href="#n"/><path stroke-opacity=".2" stroke="#011D4F" stroke-width="2" d="m65.407 1 18.729 29.31h85.24L188.619 1H65.408Z" stroke-linejoin="square" fill="#1969FF"/></g><g mask="url(#d)"><use fill="#000" filter="url(#o)" xlink:href="#p"/><path stroke-opacity=".2" stroke="#011D4F" stroke-width="2" d="M160.316 325.085H97.052l-21.068 37.274h107.481l-23.149-37.274Z" stroke-linejoin="square" fill="#1969FF"/></g><g mask="url(#d)"><use fill="#000" filter="url(#q)" xlink:href="#r"/><path stroke-opacity=".2" stroke="#011D4F" stroke-width="2" d="M1.247 116.492 1 178.38l66.21 226.699 6.038-41.648L1.247 116.492Z" stroke-linejoin="square" fill="#1969FF"/></g><g mask="url(#d)"><use fill="#000" filter="url(#s)" xlink:href="#t"/><path stroke-opacity=".2" stroke="#011D4F" stroke-width="2" d="M184.41 364.36H75.136l-6.44 44.415H191.52l-7.11-44.416Z" stroke-linejoin="square" fill="#1969FF"/></g><g mask="url(#d)"><use fill="#000" filter="url(#u)" xlink:href="#v"/><path stroke-opacity=".2" stroke="#011D4F" stroke-width="2" d="m186.285 363.413 6.648 41.536 59.845-226.558v-61.266l-66.493 246.288Z" stroke-linejoin="square" fill="#1969FF"/></g><g mask="url(#d)"><use fill="#000" filter="url(#w)" xlink:href="#x"/><path stroke-opacity=".2" stroke="#011D4F" stroke-width="2" d="m84.173 32.31-50.476 89.746 63.504 201.029h62.925l59.686-201.02-50.48-89.755h-85.16Z" stroke-linejoin="square" fill="#1969FF"/></g></g><path d="M242.982 117.172c2.26-1.197 5.704-1.197 7.964 0l23.086 12.254c1.359.718 2.117 1.803 2.244 2.92h.015v61.57c-.031 1.213-.79 2.426-2.26 3.208l-23.085 12.253c-2.26 1.197-5.705 1.197-7.964 0l-23.086-12.253c-1.47-.782-2.18-1.995-2.213-3.207V132.33h.016c.095-1.117.822-2.17 2.212-2.92l23.087-12.254-.016.016Zm30.35 49.216-21.91 11.552c-2.278 1.2-5.751 1.2-8.03 0l-21.86-11.536v27.152l21.86 11.472c1.227.656 2.518 1.296 3.76 1.376l.256.016c1.306 0 2.565-.656 3.855-1.28l22.068-11.68v-27.072Zm-59.512 26.095c0 2.394.283 3.963.866 5.079.467.922 1.183 1.617 2.483 2.474l.067.049c.283.178.6.372.983.614l.45.26 1.382.808-1.982 3.17-1.55-.906-.267-.161c-.45-.275-.816-.502-1.166-.728-3.699-2.41-5.082-5.03-5.099-10.497v-.162h3.833Zm31.687-42.404a3.33 3.33 0 0 0-.48.209l-23.415 12.345c-.032.016-.048.033-.065.033l-.016.016.033.016.048.032 23.415 12.345c.144.08.304.145.48.21v-25.206Zm2.96.016v25.19a3.33 3.33 0 0 0 .481-.21l23.415-12.345c.032-.016.048-.032.064-.032l.016-.016-.032-.016-.048-.033-23.415-12.345a3.33 3.33 0 0 0-.48-.209v.016Zm23.976-13.36-20.72 10.972 20.72 10.971v-21.943Zm-50.912 0v21.943l20.72-10.971-20.72-10.972Zm28.198-16.424c-1.209-.637-3.387-.637-4.595 0l-23.227 12.225c-.032.016-.048.032-.064.032l-.016.016.032.016.048.032 23.227 12.225c1.208.637 3.386.637 4.595 0l23.227-12.225c.032-.016.048-.032.064-.032l.015-.016-.031-.016-.048-.032-23.227-12.225Zm26.177 1.598 1.55.905.266.162c.45.259.817.502 1.167.728 3.699 2.41 5.082 5.03 5.098 10.497v.162h-3.832c0-2.394-.283-3.963-.866-5.079-.467-.922-1.183-1.617-2.483-2.474l-.067-.049c-.283-.178-.6-.372-.983-.615l-.45-.258-1.383-.81 1.983-3.17Z" fill="#04122D"/><path d="M241.337 113.602c2.26-1.197 5.705-1.197 7.964 0l23.086 12.253c1.36.718 2.118 1.803 2.244 2.92h.016v61.571c-.032 1.213-.79 2.425-2.26 3.207l-23.086 12.254c-2.26 1.196-5.704 1.196-7.964 0l-23.086-12.254c-1.47-.782-2.18-1.994-2.212-3.207V128.76h.016c.095-1.117.822-2.17 2.212-2.92l23.086-12.253-.016.016Zm30.35 49.216-21.909 11.552c-2.278 1.2-5.752 1.2-8.03 0l-21.86-11.536v27.151l21.86 11.472c1.227.656 2.517 1.296 3.76 1.376l.255.016c1.307 0 2.565-.656 3.856-1.28l22.068-11.68v-27.071Zm-59.512 26.094c0 2.394.284 3.963.867 5.08.466.921 1.183 1.617 2.483 2.474l.066.048c.283.178.6.372.983.615l.45.259 1.383.809-1.983 3.17-1.55-.906-.266-.162c-.45-.275-.816-.501-1.166-.728-3.7-2.41-5.082-5.03-5.099-10.497v-.162h3.832Zm31.688-42.403a3.33 3.33 0 0 0-.48.209l-23.416 12.345c-.032.016-.048.032-.064.032l-.016.016.032.016.048.032 23.415 12.346c.145.08.305.144.481.209V146.509Zm2.96.016v25.189a3.33 3.33 0 0 0 .48-.21l23.416-12.345c.032-.016.048-.032.064-.032l.016-.016-.032-.016-.048-.032-23.415-12.345a3.33 3.33 0 0 0-.48-.21v.017Zm23.976-13.36-20.72 10.971 20.72 10.972v-21.943Zm-50.912 0v21.943l20.72-10.972-20.72-10.971Zm28.197-16.425c-1.208-.637-3.386-.637-4.594 0l-23.227 12.226c-.032.016-.048.031-.064.031l-.016.016.032.016.048.032 23.227 12.226c1.208.636 3.386.636 4.594 0l23.228-12.226c.031-.016.047-.032.063-.032l.016-.016-.032-.016-.047-.031-23.228-12.226Zm26.178 1.598 1.55.906.266.162c.45.259.817.501 1.166.728 3.7 2.41 5.082 5.03 5.1 10.497v.162h-3.833c0-2.394-.283-3.963-.867-5.08-.466-.921-1.183-1.617-2.482-2.474l-.067-.048c-.283-.178-.6-.372-.983-.615l-.45-.259-1.383-.809 1.983-3.17Z" fill="#EDF3FF"/><path d="M191.077 228.88c14.197-24.782 21.979-38.178 23.347-40.188 1.362-2.001 19.87-23.41 55.522-64.229a4 4 0 0 0 .702-1.148l1.556-3.897a4 4 0 0 1 3.66-2.516l4.215-.059a4 4 0 0 1 2.5.834l9.962 7.694a4 4 0 0 1 .53.492l4.722 5.256c.728.81.925 1.965.507 2.97a2.074 2.074 0 0 1-2.413 1.216l-6.941-1.717a4 4 0 0 0-4.014 1.299c-35.915 42.43-54.726 64.321-56.434 65.671-1.732 1.37-14.206 10.811-37.42 28.322Z"/></g></svg>