<svg height="500" width="500" xmlns="http://www.w3.org/2000/svg" xmlns:xlink="http://www.w3.org/1999/xlink"><defs><path id="a" d="M250 500h250V0H0v500z"/><mask id="b" fill="#fff"><use fill-rule="evenodd" xlink:href="#a"/></mask></defs><g fill="none" fill-rule="evenodd"><use fill="#591794" xlink:href="#a"/><g mask="url(#b)"><path d="M29.035 245.265c150.199-54.842 296.944-54.858 440.237-.047-46.8 35.814-79.812 69.109-99.035 99.885-107.218-26.15-157.48-27.883-249.169 1.152-26.357-51.766-57.034-85.43-92.033-100.99z" fill="#cc0251"/><path d="m27.397 248.447-8.328-3.705 8.561-3.128c151.033-55.177 298.704-55.193 442.845-.028l6.163 2.36-5.24 4.012c-46.482 35.59-79.2 68.608-98.157 98.973l-1.41 2.26-2.586-.631c-57.439-14.017-94.655-19.958-129.551-20.026-36.03-.07-70.796 6.266-117.65 21.111l-2.977.944-1.417-2.785c-26.007-51.108-56.125-84.176-90.253-99.357zm95.392 93.235c46.044-14.393 80.822-20.592 116.919-20.522 35.066.068 72.205 5.915 128.713 19.611 18.918-29.413 50.004-60.931 93.259-94.622-137.895-51.217-278.95-51.407-423.32-.552 31.927 16.971 60.044 49.037 84.429 96.085z" fill="#1e0238" fill-rule="nonzero"/><path d="M116.432 347.938c-75.577 26.22-223.021-114.33-293.216-36.334-46.797 51.998-144.58 198.46-293.347 439.385 87.772-43.332 149.513-64.998 185.225-64.998 79.965 0 141.715 64.998 185.25 64.998 67.235 0 128.98-64.998 185.233-64.998 70.33 0 132.077 64.998 185.242 64.998 52.014 0 112.425-64.998 181.234-64.998 55.036 0 115.444 64.998 181.225 64.998 42.593 0 103.006-64.998 181.241-64.998 34.94 0 90.579 21.666 166.918 64.998-36.83-42.899-280.242-394.109-311.112-439.818-38.675-57.403-174.621 49.832-278.552 36.767-75.024-9.468-139.586-47.167-275.341 0z" fill="#591794"/><path d="M59.68 341.673c-9.853-2.759-20.578-6.468-33.222-11.388-9.314-3.624-14.197-5.64-35.127-14.397a2029.204 2029.204 0 0 0-16.259-6.742c-16.934-6.919-30.186-11.872-42.792-15.812-15.225-4.758-28.796-7.76-41.31-8.93-29.327-2.742-52.74 4.694-70.583 24.52-47.006 52.233-144.84 198.777-293.742 439.927l-6.742 10.918 11.506-5.68c87.28-43.091 148.628-64.62 183.594-64.62 18.208 0 36.377 3.426 55.36 9.956 15.306 5.266 30.123 12.074 49.21 22.12 4.968 2.615 21.202 11.348 22.287 11.925 8.519 4.539 14.82 7.743 20.778 10.502 15.12 7.001 26.944 10.497 37.614 10.497 16.123 0 32.623-3.562 50.699-10.394 13.88-5.246 26.368-11.275 47.75-22.53-.673.355 8.908-4.696 11.507-6.058a828.36 828.36 0 0 1 11.334-5.846c8.334-4.206 15.43-7.527 22.13-10.294 15.866-6.556 29.33-9.878 41.812-9.878 15.89 0 32.154 3.392 49.863 9.929 13.965 5.154 27.043 11.39 47.48 22.147 2.292 1.207 10.157 5.366 11.474 6.061a992.455 992.455 0 0 0 11.318 5.893c8.455 4.322 15.511 7.69 22.186 10.521 16.299 6.915 30.046 10.449 42.92 10.449 12.62 0 26.089-3.539 42.05-10.46 6.534-2.833 13.44-6.202 21.714-10.525a963.69 963.69 0 0 0 11.074-5.894c1.29-.694 8.983-4.854 11.226-6.06 19.99-10.755 32.782-16.99 46.438-22.141 17.312-6.532 33.207-9.92 48.732-9.92 12.19 0 25.343 3.318 40.851 9.867 6.551 2.766 13.491 6.085 21.642 10.29a804.001 804.001 0 0 1 11.088 5.845 8626.067 8626.067 0 0 1 11.257 6.059c20.924 11.257 33.145 17.287 46.731 22.535 17.7 6.838 33.86 10.404 49.655 10.404 10.467 0 22.052-3.501 36.862-10.51 5.83-2.76 11.998-5.965 20.334-10.505 1.061-.577 16.944-9.31 21.804-11.924 18.67-10.044 33.16-16.85 48.128-22.113 18.558-6.525 36.317-9.948 54.113-9.948 34.114 0 89.283 21.484 165.1 64.52l18.379 10.433-13.767-16.036c-16.239-18.915-74.422-99.962-157.57-218.576-60.784-86.711-134.131-192.557-153.283-220.917-11.368-16.872-30.534-21.593-58.413-16.97-11.398 1.89-24.27 5.294-40.327 10.464-6.482 2.087-13.374 4.421-22.067 7.451-4.286 1.494-19.849 6.972-22.984 8.068-24.354 8.514-40.848 13.803-57.602 18.153-30.774 7.99-56.703 10.907-79.751 8.01-8.758-1.106-17.788-2.646-28.225-4.749-7.098-1.43-7.914-1.607-26.938-5.803-19.413-4.28-30.879-6.578-43.966-8.591-16.939-2.606-33.038-4.006-49.598-4.11-39.287-.25-80.696 6.894-128.282 23.428-14.338 4.974-32.364 3.893-55.45-2.57zm754.744 340.43c-18.687 0-37.256 3.578-56.556 10.364-15.394 5.413-30.198 12.367-49.175 22.575-4.895 2.634-20.801 11.38-21.836 11.943-8.225 4.478-14.283 7.627-19.963 10.315-13.911 6.584-24.561 9.802-33.71 9.802-14.794 0-30.089-3.374-47.002-9.908-13.218-5.107-25.228-11.033-45.895-22.152.667.36-8.717-4.698-11.27-6.065a811.01 811.01 0 0 0-11.188-5.898c-8.305-4.284-15.407-7.681-22.153-10.53-16.339-6.9-30.402-10.446-43.717-10.446-16.497 0-33.245 3.57-51.332 10.393-14.039 5.296-27.07 11.648-47.327 22.546-2.251 1.211-9.949 5.372-11.232 6.063a956.861 956.861 0 0 1-10.99 5.85c-8.13 4.248-14.885 7.543-21.233 10.295-15.116 6.555-27.665 9.852-39.12 9.852-11.732 0-24.576-3.302-40.043-9.863-6.491-2.754-13.399-6.05-21.71-10.3-3.321-1.697-6.778-3.499-11.235-5.85-1.311-.69-9.179-4.852-11.48-6.063-20.701-10.896-34.016-17.245-48.36-22.54-18.471-6.817-35.572-10.383-52.413-10.383-13.585 0-27.941 3.542-44.625 10.435-6.893 2.848-14.148 6.243-22.635 10.526a835.352 835.352 0 0 0-11.434 5.897 8868.69 8868.69 0 0 0-11.519 6.066c-21.128 11.12-33.407 17.048-46.924 22.157-17.302 6.54-32.953 9.918-48.095 9.918-9.38 0-20.283-3.224-34.519-9.815-5.808-2.69-12.002-5.84-20.41-10.318-1.058-.564-17.316-9.31-22.319-11.943-19.391-10.206-34.518-17.157-50.245-22.567-19.712-6.78-38.675-10.356-57.756-10.356-34.858 0-93.19 19.933-175.387 59.77 144.871-234.27 240.363-377.036 286.246-428.02 16.152-17.95 37.264-24.654 64.423-22.114 22.136 2.07 46.109 9.561 82.001 24.227 4.685 1.914 9.284 3.823 16.202 6.718 20.998 8.785 25.903 10.81 35.299 14.466 12.85 5 23.791 8.785 33.907 11.617 24.4 6.832 43.825 7.996 59.852 2.436 46.81-16.265 87.389-23.265 125.819-23.021 16.182.102 31.926 1.471 48.525 4.025 12.891 1.983 24.231 4.255 43.5 8.504 19.086 4.21 19.906 4.388 27.07 5.831 10.6 2.136 19.801 3.705 28.758 4.835 24.117 3.032 50.923.017 82.523-8.188 16.995-4.412 33.652-9.754 58.181-18.329 3.147-1.1 18.705-6.576 22.979-8.066 8.642-3.012 15.482-5.329 21.9-7.395 15.741-5.068 28.294-8.388 39.274-10.209 25.34-4.202 41.667-.18 51.101 13.823 19.184 28.407 92.552 134.282 153.359 221.026 69.467 99.099 121.391 171.817 146.332 204.45-68.55-37.572-119.256-56.386-152.443-56.386z" fill="#1e0238" fill-rule="nonzero"/><path d="M452.139 686.007c55.027 0 115.425 64.982 181.195 64.982 42.586 0 102.99-64.982 181.212-64.982 34.934 0 90.564 21.66 166.891 64.982C944.613 708.1 701.24 356.975 670.376 311.277c-38.67-57.389-174.593 49.82-278.507 36.758-25.858-3.263-50.473-9.88-77.19-15.219-50.785-10.15 68.662 353.19 137.46 353.19z" fill="#3a086b"/><path d="M452.26 686.106c22.609 0 46.125 10.979 70.548 23.909 23.726 12.561-112.658-472.54-70.66-235.667 14.936 84.248-37.22 211.758.112 211.758zM728.224 709.389c28.49-14.33 54.735-23.435 86.507-23.435 17.007 0 38.915 5.128 65.723 15.384 28.314 10.831-102.49-166.27-203.97-269.028-101.482-102.758 28.622 169.096 51.74 277.079z" fill="#1e0238" opacity=".5"/><path d="M451.949 689.486c12.19 0 25.344 3.317 40.852 9.864 6.551 2.766 13.49 6.084 21.642 10.288a804.09 804.09 0 0 1 11.088 5.844 8632.37 8632.37 0 0 1 11.257 6.057c20.925 11.255 33.146 17.283 46.732 22.531 17.7 6.836 33.86 10.401 49.656 10.401 10.467 0 22.053-3.5 36.862-10.507 5.832-2.76 11.999-5.965 20.336-10.503 1.06-.577 16.944-9.308 21.803-11.922 18.67-10.04 33.162-16.846 48.13-22.107 18.558-6.524 36.318-9.946 54.114-9.946 34.114 0 89.285 21.479 165.102 64.505l18.38 10.43-13.767-16.031c-16.24-18.91-74.423-99.94-157.573-218.527-60.785-86.691-134.134-192.513-153.286-220.866-11.368-16.869-30.535-21.589-58.414-16.967-11.398 1.89-24.271 5.293-40.328 10.462-6.482 2.086-13.374 4.42-22.067 7.449-4.287 1.494-19.85 6.97-22.985 8.066-24.354 8.512-40.849 13.8-57.603 18.15-30.774 7.988-56.704 10.903-79.752 8.007-8.759-1.105-17.789-2.645-28.226-4.747-7.098-1.43-7.914-1.608-26.938-5.802-9.26-2.041-15.377-3.35-21.777-4.628-4.374-.874-8.22.315-11.04 3.438-2.423 2.686-3.97 6.657-4.816 11.844-1.502 9.222-.816 22.715 1.872 39.807 5.126 32.597 17.403 77.154 33.685 122.562 16.987 47.37 36.903 91.784 56.238 124.427 22.228 37.528 42.778 58.421 60.823 58.421zm362.472-7.365c-18.687 0-37.257 3.578-56.557 10.363-15.395 5.411-30.2 12.363-49.176 22.57-4.896 2.632-20.802 11.376-21.837 11.939-8.225 4.477-14.283 7.626-19.963 10.313-13.912 6.582-24.562 9.8-33.712 9.8-14.793 0-30.088-3.374-47.001-9.906-13.22-5.106-25.23-11.03-45.897-22.147.668.36-8.717-4.697-11.27-6.064a811.11 811.11 0 0 0-11.188-5.896c-8.306-4.284-15.407-7.68-22.154-10.528-16.339-6.898-30.402-10.444-43.717-10.444-14.393 0-33.569-19.496-54.485-54.81-19.07-32.195-38.802-76.197-55.642-123.159-16.138-45.005-28.296-89.133-33.342-121.22-2.577-16.386-3.228-29.193-1.878-37.48.637-3.914 1.697-6.633 3.015-8.093 1.04-1.153 2.247-1.526 4.126-1.15 6.342 1.267 12.42 2.567 21.635 4.598 19.086 4.208 19.906 4.387 27.07 5.83 10.6 2.135 19.802 3.704 28.76 4.834 24.117 3.03 50.922.017 82.523-8.186 16.995-4.412 33.652-9.752 58.183-18.325 3.147-1.1 18.705-6.575 22.978-8.064 8.643-3.012 15.483-5.328 21.9-7.394 15.743-5.067 28.295-8.386 39.275-10.206 25.341-4.201 41.668-.18 51.103 13.82 19.184 28.4 92.554 134.251 153.361 220.975 69.47 99.076 121.394 171.778 146.335 204.405-68.552-37.565-119.258-56.375-152.445-56.375z" fill="#1e0238" fill-rule="nonzero"/><path d="M171.52 333.41c13.722-7.795-4.613-2.953-55.005 14.528-75.588 26.22-223.052-114.33-293.258-36.334-46.803 51.998-144.6 198.46-293.388 439.385 87.784-43.332 149.534-64.998 185.251-64.998 79.977 0 141.735 64.998 185.277 64.998 67.244 0 128.998-64.998 185.259-64.998 46.893 0 75.515-117.527 85.864-352.581z" fill="#3a086b"/><path d="M54.215 453.75c0-191.44-73.524 272.676-36.35 253.775 23.426-11.911 46.03-21.62 67.813-21.62 70.448 0-31.463-40.714-31.463-232.155zM-166.918 471.69c41.193-143.759-219.07 240.047-187.448 229.24 29.068-9.933 52.16-14.9 69.277-14.9 18.732 0-11.768-4.06 53.201 9.012 20.742 5.71 23.777-79.592 64.97-223.351z" fill="#1e0238" opacity=".5"/><path d="M177.264 334.144c.69-.561 1.203-1.094 1.59-1.789.976-1.754.667-4.064-1.29-5.317-1.965-1.257-4.308-.875-10.665.804-9.283 2.452-26.524 8.052-51.8 16.82-14.34 4.974-32.365 3.893-55.45-2.57-9.852-2.758-20.577-6.466-33.22-11.385-9.313-3.623-14.196-5.638-35.125-14.393a2029.337 2029.337 0 0 0-16.258-6.74c-16.933-6.918-30.184-11.87-42.79-15.809-15.224-4.757-28.794-7.758-41.307-8.928-29.325-2.741-52.737 4.693-70.58 24.515-47.003 52.22-144.832 198.729-293.725 439.82l-6.741 10.917 11.505-5.68c87.276-43.08 148.62-64.603 183.584-64.603 18.207 0 36.375 3.425 55.357 9.953 15.305 5.264 30.121 12.072 49.207 22.115 4.968 2.614 21.201 11.345 22.285 11.922 8.519 4.537 14.82 7.741 20.778 10.5 15.12 6.999 26.942 10.494 37.612 10.494 16.122 0 32.62-3.561 50.696-10.392 13.88-5.245 26.366-11.272 47.748-22.524-.675.355 8.906-4.696 11.506-6.057 4.33-2.269 7.916-4.12 11.333-5.845 8.334-4.205 15.429-7.524 22.128-10.292 15.865-6.553 29.328-9.874 41.81-9.874 25.829 0 45.52-30.647 60.203-90.938 14.295-58.697 24.03-146.37 29.235-263.093.996-.612 1.781-1.15 2.374-1.631zm-38.765 262.981c-13.933 57.212-31.991 85.316-53.047 85.316-13.584 0-27.94 3.541-44.623 10.433-6.892 2.846-14.147 6.241-22.633 10.523a835.37 835.37 0 0 0-11.434 5.896c-2.609 1.367-12.2 6.423-11.518 6.064-21.127 11.118-33.405 17.044-46.922 22.152-17.3 6.538-32.95 9.916-48.091 9.916-9.38 0-20.283-3.223-34.517-9.813-5.809-2.689-12.002-5.838-20.41-10.316-1.058-.563-17.314-9.307-22.317-11.94-19.39-10.203-34.516-17.152-50.242-22.561-19.711-6.78-38.673-10.354-57.753-10.354-34.856 0-93.184 19.928-175.377 59.755 144.863-234.212 240.349-376.945 286.23-427.918 16.151-17.944 37.262-24.647 64.419-22.108 22.135 2.07 46.106 9.56 81.997 24.221a2022.91 2022.91 0 0 1 16.2 6.717c20.997 8.783 25.902 10.807 35.297 14.463 12.85 4.999 23.79 8.782 33.906 11.614 24.397 6.83 43.822 7.994 59.848 2.435 24-8.325 40.698-13.772 50.026-16.324-5.184 116.363-14.874 203.664-29.04 261.83z" fill="#1e0238" fill-rule="nonzero"/><path d="M201.355 416.807c41.734-5.442 80.651-5.067 116.752 1.126 31.505 22.885 5.267 50.273-25.774 25.136-4.703 10.3-38.9 23.434-51.614-1.414-29.651 29.639-71.461 7.455-39.364-24.848z" fill="#af89d2" fill-rule="nonzero"/><path d="M218.298 458.425c-8.256 1.723-16.23.717-22.263-2.779-6.388-3.7-10.078-9.895-9.922-17.239.162-7.642 4.426-15.94 12.63-24.196l.887-.893 1.249-.163c42.087-5.489 81.373-5.11 117.851 1.148l.847.145.695.505c8.073 5.864 13.182 12.465 15.015 19.119 1.787 6.487.307 12.685-3.995 17.029-4.189 4.23-10.573 6.222-17.759 5.53-6.546-.63-13.515-3.426-20.382-8.315-4.741 5.22-13.849 9.61-23.122 10.876-12.32 1.683-23.258-2.073-30.122-11.77-6.683 5.715-14.105 9.437-21.609 11.003zm-24.82-19.861c-.098 4.586 2.125 8.319 6.25 10.708 4.379 2.537 10.506 3.31 17.065 1.941 7.381-1.54 14.799-5.642 21.323-12.163l3.578-3.576 2.304 4.504c4.95 9.673 13.992 13.424 25.034 11.915 9.155-1.25 18.094-6.288 19.95-10.354l1.975-4.323 3.694 2.99c6.794 5.502 13.565 8.512 19.588 9.092 5.092.49 9.28-.816 11.819-3.38 2.402-2.426 3.23-5.89 2.127-9.89-1.302-4.727-5.156-9.809-11.56-14.61-35.117-5.927-72.958-6.304-113.527-1.122-6.389 6.688-9.509 12.974-9.62 18.268z" fill="#1e0238"/><path d="M192.133 388.767c24.128-33.273 51.326 8.496 110.548 1.062 29.83 21.592 5.703 42.476-24.404 23.716-.162 10.973-33.34 25.486-46.5 0-28.076 27.963-63.771 8.495-39.644-24.778z" fill="#af89d2" fill-rule="nonzero"/><path d="M190.514 427.296c-5.903-3.467-9.528-9.326-9.989-16.45-.477-7.378 2.423-15.686 8.627-24.241 7.542-10.401 15.996-14.821 26.57-14.555 4.332.109 8.96.968 14.777 2.6 2.255.633 4.604 1.353 7.857 2.394.908.29 4.976 1.601 4.269 1.374 1.617.52 2.844.911 4.07 1.296 9.55 2.997 16.92 4.864 24.898 6.066 10.047 1.513 20.078 1.719 30.63.395l1.441-.181 1.177.851c7.666 5.549 12.54 11.483 14.363 17.343 1.836 5.904.443 11.485-3.756 15.343-7.43 6.829-21.228 6.683-35.102-.562-3.268 5.582-11.097 10.29-19.785 11.872-11.705 2.132-22.612-1.595-29.6-11.536-13.493 11.502-29.446 14.452-40.447 7.99zm52-48.914a2299.044 2299.044 0 0 1-.009-.003zm-2.302 6.998zm-4.1-1.32c-3.176-1.015-5.45-1.713-7.603-2.317-5.28-1.481-9.354-2.238-12.972-2.329-8.084-.203-14.269 3.03-20.422 11.516-9.97 13.749-9.236 25.1-.871 30.014 8.767 5.149 22.993 1.884 34.933-10.009l3.564-3.55 2.308 4.47c5.117 9.91 14.022 13.59 24.192 11.738 4.261-.776 8.34-2.529 11.342-4.781 2.61-1.959 3.992-3.994 4.011-5.321l.096-6.52 5.535 3.448c6.642 4.139 13.203 6.366 18.97 6.694 4.963.282 8.957-.881 11.269-3.006 2.061-1.894 2.711-4.499 1.706-7.73-1.215-3.905-4.712-8.308-10.506-12.717-10.705 1.213-20.942.945-31.168-.596-8.417-1.267-16.126-3.22-26.007-6.321a586.372 586.372 0 0 1-4.128-1.315c.725.233-3.347-1.079-4.25-1.368z" fill="#1e0238"/><path d="M184.334 361.467c24.127-33.273 51.326 8.496 110.548 1.062 29.83 21.592 5.703 42.476-24.405 23.716-.161 10.973-33.34 25.486-46.5 0-28.076 27.963-63.77 8.495-39.643-24.778z" fill="#af89d2" fill-rule="nonzero"/><path d="M182.498 400.198c-5.903-3.465-9.528-9.323-9.989-16.446-.476-7.375 2.424-15.682 8.627-24.234 7.542-10.399 15.997-14.817 26.571-14.552 4.332.11 8.96.969 14.777 2.6 2.255.633 4.604 1.353 7.856 2.393.909.29 4.977 1.601 4.27 1.374 1.617.52 2.844.911 4.07 1.295 9.55 2.997 16.92 4.864 24.898 6.065 10.047 1.513 20.079 1.719 30.63.395l1.442-.181 1.177.851c7.665 5.547 12.54 11.48 14.362 17.338 1.837 5.902.444 11.482-3.755 15.34-7.431 6.827-21.229 6.68-35.103-.562-3.267 5.58-11.096 10.286-19.785 11.868-11.705 2.132-22.612-1.594-29.6-11.533-13.493 11.5-29.446 14.45-40.448 7.99zm52.002-48.9-.057-.02.047.016zm-2.303 6.995zm-4.1-1.32c-3.176-1.015-5.45-1.712-7.604-2.316-5.28-1.48-9.353-2.237-12.971-2.328-8.085-.203-14.27 3.03-20.423 11.512-9.97 13.746-9.236 25.095-.87 30.007 8.766 5.147 22.992 1.884 34.933-10.006l3.564-3.549 2.308 4.468c5.117 9.907 14.022 13.588 24.192 11.736 4.262-.776 8.34-2.529 11.342-4.78 2.61-1.959 3.992-3.993 4.011-5.32l.097-6.519 5.534 3.448c6.642 4.137 13.204 6.364 18.971 6.692 4.962.282 8.956-.88 11.269-3.005 2.061-1.894 2.711-4.498 1.706-7.729-1.215-3.903-4.712-8.305-10.507-12.713-10.705 1.213-20.942.944-31.168-.595-8.417-1.268-16.126-3.22-26.007-6.32a586.517 586.517 0 0 1-4.128-1.315c.725.233-3.348-1.079-4.25-1.367z" fill="#1e0238"/><g><path d="M367.914 108.304c3.327-12.66-3.328-6.681-19.967 17.934l19.967 28.484c-3.328-18.286-3.328-33.758 0-46.418z" fill="#78bc4d"/><path d="M371.728 109.446c1.08-4.086 1.343-6.608.36-8.572-1.071-2.14-3.356-2.93-5.524-2.246-1.135.358-2.196 1.07-3.39 2.137-3.648 3.261-9.605 11.046-18.134 23.603l-1.426 2.1 31.198 44.287-3.022-16.525c-3.252-17.779-3.252-32.71-.062-44.784zm-7.987 1.647c-1.82 8.652-2.252 18.407-1.309 29.266l-9.836-13.963c4.549-6.631 8.28-11.748 11.145-15.303z" fill="#000" fill-rule="nonzero"/><path d="M380.964 246.218c-.534-3.568-5.958-11.953-13.902-15.938 19.86-17.93 27.805-21.914 27.805-27.89 9.268-6.642 10.592-11.954 3.972-15.939-1.324-14.61-12.579-26.562-33.763-35.86-21.847-43.828-41.89-39.193-47.849-41.186-49.24-28.43-88.654-31.156-118.245-8.174-5.682 0-36.924 2.84-51.488 53.31-1.24 2.842-5.41-6.897-11.718-17.77s-14.067-30.897-13.849-22.035c.213 8.646-7.882 38.576-5.282 57.947 2.377 17.715 15.564 26.63 14.515 29.835-27.342 83.517-1.526 98.893 1.545 103.466 3.07 4.574 36.45 52.196 72.668 55.04 36.22 2.842 77.503 5.008 95.52 0 25.566-7.109 48.226-45.987 52.198-47.979 15.916-7.982 20.24-13.86 18.11-23.811 2.771-7.314 12.428-20.613 13.848-30.208.206-1.392-3.532-.3-3.55-1.777-.047-3.561 0-7.464-.535-11.031z" fill="#78bc4d"/><g fill="#000" fill-rule="nonzero"><path d="M373.367 229.559c2.501-2.21 4.981-4.35 7.651-6.617.864-.732 6.812-5.74 8.213-6.945 5.478-4.718 7.813-7.272 8.932-10.403.167-.467.299-.938.395-1.414 4.481-3.422 7.191-6.693 8.035-10.08.97-3.895-.594-7.325-4.083-9.965-2.128-15.051-13.814-27.233-34.525-36.587-8.734-17.208-17.849-28.302-27.4-34.633-3.898-2.584-7.744-4.296-11.687-5.374a42.745 42.745 0 0 0-4.68-.992 69.03 69.03 0 0 0-1.942-.276c-.29-.037-1.372-.173-1.621-.206-.85-.11-1.399-.2-1.763-.287-49.704-28.596-90.22-31.594-120.984-8.412-2.296.112-5.047.522-8.053 1.324-5.038 1.344-10.148 3.621-15.138 7.007-12.025 8.162-21.91 21.686-28.63 41.499-1.711-3.117-5.358-9.819-6.908-12.489-.865-1.492-1.812-3.254-2.886-5.359a280.816 280.816 0 0 1-1.67-3.33c-.525-1.063-2.913-5.95-3.53-7.193-1.305-2.628-2.262-4.456-3.09-5.86-1.471-2.492-2.375-3.635-4.133-4.158-2.453-.73-4.415.752-5.08 2.799-.277.849-.356 1.793-.326 3.006.036 1.448-.228 3.92-.812 7.741-.343 2.246-1.875 11.452-2.039 12.464-.977 6.05-1.665 10.93-2.164 15.673-.927 8.827-1.07 16.25-.236 22.467.982 7.315 3.632 13.657 7.68 19.803a78.935 78.935 0 0 0 3.07 4.313c.435.576 2.121 2.762 2.487 3.25.552.737.925 1.275 1.156 1.665-8.718 26.83-12.569 48.411-12.338 65.494.186 13.74 2.963 23.934 7.666 31.639 1.414 2.316 2.882 4.229 4.594 6.132.29.322.574.63.916.997.06.064.604.643.74.79.407.437.617.683.682.78 1.623 2.418 4.379 6.183 7.74 10.378 5.068 6.328 10.66 12.575 16.658 18.382 16.82 16.284 34.042 26.562 51.037 27.896 21.691 1.703 39.49 2.713 54.813 2.956 19.038.3 33.147-.624 41.977-3.08 11.267-3.131 22.33-11.714 33.82-24.566 4.407-4.93 7.898-9.29 13.377-16.464 2.733-3.58 3.366-4.399 4.292-5.532.552-.676.99-1.181 1.322-1.524.101-.105.186-.188.25-.247 16.442-8.28 22.06-15.337 20.082-26.632.509-1.179 1.227-2.618 2.206-4.44.74-1.379 3.644-6.602 3.839-6.956 1.137-2.07 2.048-3.79 2.879-5.45 2.59-5.177 4.183-9.405 4.743-13.193.33-2.233-.968-3.953-2.799-4.64a5.604 5.604 0 0 0-.737-.22c-.015-1.395-.03-2.184-.063-3.15-.074-2.223-.221-4.112-.486-5.883-.699-4.667-5.461-11.389-11.449-15.898zm4.203 39.69a151.838 151.838 0 0 1-2.748 5.198c-.172.313-3.1 5.581-3.871 7.017-1.393 2.593-2.34 4.545-2.985 6.249l-.384 1.015.227 1.061c1.714 8.007-1.664 12.477-16.159 19.748-1.164.584-2.145 1.598-3.775 3.595-1 1.225-1.64 2.054-4.441 5.72-5.37 7.033-8.767 11.274-13.015 16.026-10.63 11.891-20.714 19.714-30.3 22.38-14.842 4.126-46.492 3.625-94.242-.124-14.916-1.17-30.786-10.642-46.49-25.845-5.759-5.575-11.147-11.595-16.033-17.695-3.23-4.03-5.862-7.63-7.373-9.88-.348-.517-.738-.973-1.401-1.687-.152-.164-.707-.755-.756-.807a60.86 60.86 0 0 1-.82-.891c-1.428-1.588-2.626-3.15-3.783-5.044-3.994-6.544-6.419-15.445-6.587-27.901-.222-16.371 3.57-37.438 12.244-63.934.515-1.573.21-3.024-.562-4.54-.444-.87-1.045-1.767-1.97-3.002-.405-.54-2.107-2.745-2.511-3.28a71.821 71.821 0 0 1-2.79-3.918c-3.481-5.285-5.711-10.621-6.531-16.731-.744-5.537-.61-12.422.261-20.717.482-4.585 1.153-9.341 2.11-15.268.156-.97 1.697-10.222 2.049-12.526l.055-.364c.928 1.887 2.593 5.295 3.03 6.179.623 1.262 1.18 2.374 1.714 3.418 1.13 2.212 2.135 4.083 3.075 5.705 1.864 3.213 7.073 12.839 7.756 14.022 1.227 2.125 2.139 3.491 3.04 4.418.919.946 1.895 1.568 3.275 1.655 2.034.129 3.497-1.07 4.208-2.702l.096-.22.067-.231c6.227-21.579 15.862-35.584 27.604-43.553 4.285-2.909 8.638-4.849 12.9-5.985 2.953-.788 5.544-1.108 7.444-1.108h1.262l.997-.774c28.22-21.918 66.071-19.302 114.14 8.454l.321.186.353.118c.928.31 1.865.482 3.432.686 4.58.597 5.035.669 7.253 1.275 3.204.876 6.33 2.268 9.56 4.408 8.593 5.696 17.096 16.16 25.473 32.966l.595 1.194 1.221.536c20.077 8.81 30.392 19.766 31.574 32.819l.17 1.86 1.6.963c2.05 1.234 2.515 2.05 2.297 2.926-.4 1.602-2.53 4.005-6.516 6.862l-1.538 1.102v1.892c0 .325-.051.621-.165.938-.53 1.482-2.32 3.442-6.802 7.301-1.363 1.174-7.281 6.155-8.172 6.912a481.344 481.344 0 0 0-11.45 10.005l-4 3.611 4.817 2.416c3.145 1.577 6.116 4.127 8.498 7.124 1.937 2.438 3.243 4.93 3.413 6.066.218 1.453.344 3.075.41 5.038.036 1.102.05 1.978.068 4.004.007.726.01 1.076.016 1.49.026 2.022 1.27 3.45 2.922 4.085-.689 2.29-1.816 4.963-3.377 8.083z"/><path d="M230.534 134.796a3.687 3.687 0 0 0-3.905 3.458 3.691 3.691 0 0 0 3.445 3.92c26.06 1.639 48.562 6.888 67.52 15.724l1.553.724 1.553-.727c13.378-6.263 27.622-10.397 42.747-12.402a3.694 3.694 0 0 0 3.168-4.149 3.685 3.685 0 0 0-4.132-3.18c-15.28 2.025-29.732 6.13-43.343 12.314-19.503-8.814-42.376-14.033-68.606-15.682z"/><path d="M246.015 152.904a3.684 3.684 0 0 0-3.792 3.574 3.686 3.686 0 0 0 3.564 3.802c22.459.698 40.764 4.482 54.915 11.296l1.894.913 1.746-1.172c8.908-5.978 22.822-10.257 41.698-12.713a3.688 3.688 0 0 0 3.176-4.134 3.682 3.682 0 0 0-4.123-3.184c-18.762 2.441-33.108 6.662-43.075 12.764-14.874-6.75-33.542-10.448-56.003-11.146zM228.233 171.264c-9.48 1.917-18.474 9.956-23.301 19.282a3.65 3.65 0 0 0 1.612 4.939c1.824.923 4.06.21 4.994-1.595 3.883-7.502 11.174-14.018 18.182-15.436 2.008-.406 3.303-2.345 2.892-4.33s-2.371-3.266-4.379-2.86zM125.169 158.978a17.285 17.285 0 0 1 2.213 3.565c.661 1.424 1.1 2.756 1.822 5.362 1.793 6.465 2.85 9.25 5.726 13.592 4.442 6.706 9.53 11.54 15.284 14.431a3.687 3.687 0 1 0 3.313-6.59c-4.518-2.27-8.673-6.217-12.446-11.913-2.333-3.522-3.169-5.724-4.767-11.49-.824-2.973-1.363-4.608-2.242-6.5a24.653 24.653 0 0 0-3.139-5.06 3.69 3.69 0 0 0-5.764 4.603z"/></g><path d="M193.257 101.504c41.256-39.92 110.658-19.379 136.491 10.076-13.623-.775-27.632 7.106-42.027 23.642-19.02-22.479-50.509-33.718-94.464-33.718z" fill="#444"/><path d="M217.273 89.906c2.596-.952 13.735.383 24.262 3.474 13.09 3.843 23.405 9.53 27.756 15.96a3.69 3.69 0 0 0 5.103.992 3.643 3.643 0 0 0 .998-5.074c-5.539-8.186-17.187-14.608-31.774-18.89-11.994-3.522-24.318-4.999-28.89-3.321a3.65 3.65 0 0 0-2.177 4.695 3.683 3.683 0 0 0 4.722 2.164zM265.752 84.063c8.76 1.217 20.546 11.974 25.778 23.832.822 1.862 2.988 2.702 4.84 1.876s2.686-3.005 1.864-4.867c-6.179-14.004-19.915-26.54-31.478-28.147-2.007-.279-3.858 1.13-4.135 3.148-.277 2.018 1.125 3.88 3.13 4.158z" fill="#242424" fill-rule="nonzero"/><path d="m193.218 104.965-2.56-6.335c20.034-19.324 47.727-26.333 77.295-21.95 25.944 3.846 50.9 16.404 64.828 32.235l-2.977 6.111c-12.334-.7-25.385 6.619-39.134 22.363l-5.589-.04c-18.27-21.521-48.8-32.384-91.863-32.384zm94.685 24.485c11.288-12.116 22.536-19.26 33.75-21.258-13.331-11.837-33.706-21.099-54.782-24.223-23.976-3.554-46.385.901-63.836 13.819 38.016 1.515 66.367 12.023 84.868 31.662z" fill="#242424" fill-rule="nonzero"/><path d="M330.612 277.731c43.342-2.628 44.273-17.294 57.739-14.396 11.946 2.056-7.964 18.51-9.955 20.566-1.99 2.057 5.973 10.283-5.973 14.397-17.027 4.885-26.215 9.824-63.918 9.824-37.702 0-101.84-9.977-110.94-37.306-6.5-24.293 65.87 10.844 133.047 6.915z" fill="#dd503c"/><path d="M216.036 278.238c5.627 2.936 22.437 7.808 40.95 11.817 21.963 4.756 43.009 7.667 58.68 7.667 22.925 0 44.267-3.352 64.013-10.063a3.683 3.683 0 0 0-2.37-6.975c-18.963 6.445-39.506 9.671-61.643 9.671-15.054 0-35.626-2.845-57.12-7.5-17.882-3.871-34.249-8.615-39.103-11.148a3.683 3.683 0 1 0-3.407 6.531z" fill="#000" fill-rule="nonzero"/><path d="M382.392 286.909c.617 2.337.848 3.948.583 5.859-.58 4.191-3.62 7.33-9.14 9.231l-.091.031-.092.027-.528.152c-1.515.439-3.017.89-4.934 1.48-.11.034-3.723 1.15-4.765 1.468-7.891 2.405-13.451 3.761-20.772 4.848-9.04 1.341-19.856 2.017-33.936 2.017-21.403 0-46.705-3.008-67.157-8.53-25.62-6.918-42.589-17.204-47.28-31.29l-.035-.105-.029-.107c-1.361-5.085-.084-9.208 3.915-11.445 3.025-1.692 7.298-2.111 13.273-1.646 4.77.37 10.6 1.297 18.917 2.924 3.952.773 20.222 4.128 24.082 4.897 25.626 5.103 44.847 7.7 63.958 7.848 4.185.032 8.267-.065 12.25-.298h-.009c15.048-.912 25.652-3.266 34.331-6.906 2.57-1.078 4.308-1.936 7.864-3.805 3.37-1.77 4.792-2.452 6.681-3.089 3.198-1.077 6.266-1.28 9.79-.533 4.552.812 7.2 3.733 6.72 7.84-.303 2.594-1.82 5.293-4.308 8.377-1.052 1.304-2.268 2.655-3.634 4.061-1.55 1.596-4.46 4.33-5.92 5.681l.266 1.013zm5.549-19.72-.076-.012-.074-.016c-2.239-.482-3.982-.37-5.962.297-1.385.467-2.595 1.047-5.608 2.63-3.733 1.961-5.62 2.893-8.44 4.076-9.468 3.971-20.883 6.505-36.733 7.466h-.008a192.63 192.63 0 0 1-12.736.311c-19.674-.152-39.295-2.804-65.339-7.99-3.898-.776-20.15-4.128-24.057-4.892-8.059-1.576-13.657-2.466-18.075-2.81-4.634-.36-7.691-.06-9.108.732-.747.418-.94 1.008-.421 2.994 3.73 10.969 18.821 20.092 42.175 26.398 19.791 5.344 44.454 8.276 65.238 8.276 13.741 0 24.205-.654 32.856-1.938 6.908-1.025 12.135-2.3 19.705-4.607 1.027-.313 4.627-1.425 4.748-1.463a314.023 314.023 0 0 1 5.5-1.644c3.012-1.05 3.99-2.07 4.152-3.24.094-.682-.024-1.51-.408-2.964l-.162-.604c-.068-.258-.119-.45-.166-.64a12.75 12.75 0 0 1-.29-1.46c-.22-1.7.055-3.236 1.312-4.535-.103.106 4.8-4.42 6.8-6.479 1.219-1.254 2.288-2.442 3.184-3.553 1.435-1.78 2.336-3.27 2.627-4.189a5.569 5.569 0 0 0-.634-.143z" fill="#000" fill-rule="nonzero"/><path d="M198.992 247.161c-12.994 3.68-19.167 13.838-18.202 29.34.126 2.03 1.868 3.574 3.89 3.447s3.558-1.876 3.432-3.906c-.761-12.23 3.423-19.115 12.871-21.791a3.685 3.685 0 0 0 2.535-4.545 3.666 3.666 0 0 0-4.526-2.545z" fill="#000" fill-rule="nonzero"/><path d="M229.655 280.39c1.733 4.007 4.298 11.663 7.694 22.965 9.274-10.58 14.22-16.23 14.838-16.955-3.033-.43-22.31-6.084-22.532-6.01z" fill="#ede9f1"/><path d="M226.035 282.105c1.663 3.855 4.2 11.442 7.562 22.658l1.917 6.392 4.404-5.035c9.326-10.663 14.257-16.31 14.893-17.057l4.309-5.057-6.603-.937c-.973-.138-4.789-1.136-10.612-2.757l-.53-.148c-1.799-.502-7.313-.33-7.49-.38a280.272 280.272 0 0 0-2.506-.693 38.75 38.75 0 0 0-.789-.205 8.57 8.57 0 0 0-.345-.08c-1.088-.22-1.031-.212-1.986.104l-3.804 1.26zm13.345 5.114.534.15a597.4 597.4 0 0 0 5.343 1.465c-1.661 1.902-3.839 4.394-6.529 7.47-1.234-3.974-2.337-7.371-3.313-10.197 1.52.427 3.134.88 3.965 1.112z" fill="#000" fill-rule="nonzero"/><g fill="#000" fill-rule="nonzero"><path d="M367.304 227.135c-22.025 3.899-40.684 3.253-55.993-1.865a3.682 3.682 0 1 0-2.337 6.984c16.582 5.544 36.459 6.232 59.614 2.133a3.682 3.682 0 1 0-1.284-7.252zM313.814 201.079a3.683 3.683 0 0 0-7.343-.61c-1.204 14.484-5.579 21.615-12.797 22.649l-.085.013c-23.2 3.878-42.355 1.957-57.538-5.657a3.681 3.681 0 1 0-3.304 6.582c16.7 8.375 37.397 10.455 62.016 6.346 11.357-1.652 17.598-11.843 19.05-29.323z"/></g><g transform="translate(221.598 169.85)"><path d="M3.467 23.682c0-10.108 23.577-20.216 43.224-20.216 37.33 0 40.787 10.99 41.26 20.216.471 9.227-3.93 16.173-39.295 16.173-25.541 0-45.189-6.065-45.189-16.173zM179.432 21.66c0 10.109-19.572 18.195-44.975 18.195-35.173 0-43.458-4.925-42.989-14.151s7.816-22.238 44.943-22.238c19.54 0 43.02 8.086 43.02 18.194z" fill="#fff"/><ellipse cx="41.391" cy="21.66" fill="#000" fill-rule="nonzero" rx="18.42" ry="18.195"/><ellipse cx="132.84" cy="21.66" fill="#000" fill-rule="nonzero" rx="18.42" ry="18.195"/><ellipse cx="35.973" cy="17.545" fill="#fff" rx="2.6" ry="2.383"/><ellipse cx="123.955" cy="14.946" fill="#fff" rx="2.6" ry="2.383"/><g fill="#000" fill-rule="nonzero"><path d="M2.167 24.94c0-11.915 24.115-22.774 45.597-22.774 32.182 0 42.868 7.397 43.653 22.618.698 13.54-9.649 18.97-41.713 18.97-27.794 0-47.537-6.717-47.537-18.814zm5.82 0c0 7.047 17.123 12.873 41.717 12.873 29.168 0 36.36-3.775 35.9-12.717-.268-5.185-1.587-8.314-5.45-10.988-5.548-3.84-15.898-6-32.39-6-18.617 0-39.776 9.527-39.776 16.832z"/><path d="M182.899 22.96c0 12.357-21.395 20.794-48.452 20.794-34.712 0-47.098-4.463-46.44-16.99.787-14.984 15.512-24.598 48.416-24.598 22.818 0 46.476 9.055 46.476 20.794zm-5.929 0c0-6.897-20.786-14.853-40.547-14.853-16.737 0-28.168 2.552-35.013 7.021-5.014 3.274-7.24 7.34-7.482 11.949-.385 7.321 9.09 10.736 40.519 10.736 24.035 0 42.523-7.291 42.523-14.853z"/></g></g></g><g fill-rule="nonzero"><path d="M193.72 389.416c41.744-5.441 80.67-5.066 116.78 1.125 31.513 22.879 5.27 50.258-25.78 25.13-4.704 10.296-38.909 23.426-51.626-1.414-29.659 29.63-71.479 7.452-39.374-24.841z"/><path d="M210.667 431.021c-8.258 1.723-16.233.717-22.268-2.777-6.39-3.7-10.08-9.893-9.925-17.234.162-7.64 4.428-15.936 12.633-24.19l.888-.893 1.249-.162c42.097-5.488 81.393-5.11 117.88 1.147l.847.145.695.505c8.075 5.862 13.186 12.461 15.019 19.113 1.787 6.486.306 12.682-3.996 17.025-4.19 4.228-10.575 6.22-17.763 5.528-6.548-.63-13.52-3.425-20.388-8.312-4.742 5.217-13.852 9.606-23.128 10.873-12.322 1.682-23.263-2.073-30.128-11.767-6.685 5.713-14.11 9.434-21.615 11zm-24.827-19.855c-.097 4.585 2.127 8.316 6.252 10.705 4.38 2.537 10.51 3.31 17.07 1.94 7.383-1.539 14.802-5.64 21.328-12.159l3.579-3.575 2.305 4.502c4.95 9.67 13.995 13.42 25.04 11.913 9.156-1.25 18.098-6.287 19.955-10.351l1.975-4.323 3.695 2.99c6.796 5.5 13.568 8.51 19.593 9.089 5.093.49 9.281-.816 11.821-3.38 2.403-2.425 3.23-5.887 2.129-9.886-1.303-4.726-5.158-9.806-11.563-14.607-35.127-5.924-72.976-6.301-113.556-1.12-6.39 6.685-9.51 12.97-9.623 18.262z"/><path d="M184.496 361.384c24.134-33.263 51.339 8.493 110.575 1.062 29.838 21.585 5.705 42.463-24.41 23.708-.162 10.97-33.348 25.479-46.512 0-28.083 27.956-63.786 8.493-39.653-24.77z"/><path d="M182.876 399.901c-5.904-3.465-9.53-9.322-9.99-16.445-.478-7.375 2.423-15.682 8.628-24.234 7.544-10.398 16-14.816 26.577-14.55 4.333.108 8.962.968 14.78 2.6 2.256.632 4.605 1.352 7.859 2.392.908.29 4.978 1.6 4.27 1.373 1.617.52 2.845.912 4.07 1.296 9.553 2.996 16.925 4.863 24.905 6.065 10.05 1.512 20.083 1.718 30.638.394l1.441-.18 1.177.85c7.668 5.548 12.543 11.48 14.366 17.338 1.838 5.902.444 11.481-3.756 15.34-7.433 6.826-21.234 6.68-35.11-.563-3.269 5.58-11.1 10.286-19.79 11.868-11.708 2.131-22.617-1.594-29.608-11.533-13.496 11.5-29.452 14.449-40.457 7.99zm52.014-48.9a1770.923 1770.923 0 0 1-.01-.002zm-2.304 6.997zm-4.1-1.32c-3.177-1.015-5.452-1.712-7.606-2.316-5.28-1.481-9.355-2.237-12.974-2.328-8.087-.204-14.273 3.029-20.428 11.512-9.972 13.745-9.238 25.094-.87 30.005 8.769 5.147 22.998 1.884 34.941-10.006l3.565-3.548 2.308 4.468c5.119 9.907 14.026 13.587 24.199 11.735 4.262-.776 8.342-2.528 11.344-4.78 2.611-1.958 3.993-3.993 4.012-5.32l.096-6.518 5.536 3.447c6.644 4.138 13.207 6.364 18.976 6.692 4.963.282 8.958-.88 11.27-3.005 2.063-1.894 2.713-4.497 1.707-7.728-1.215-3.903-4.712-8.305-10.509-12.713-10.707 1.213-20.946.945-31.175-.595-8.42-1.267-16.13-3.22-26.013-6.32a586.668 586.668 0 0 1-4.13-1.314c.726.233-3.348-1.079-4.25-1.368z"/></g></g></g></svg>