<svg height="1600" width="2500" xmlns="http://www.w3.org/2000/svg"><linearGradient id="a" x1="0%" x2="50%" y1="29.52%" y2="70.48%"><stop offset="0" stop-color="#591794"/><stop offset="1" stop-color="#1e0238"/></linearGradient><radialGradient id="b" cx="75.103%" cy="63.108%" gradientTransform="matrix(-.33844 -.3807 .1006 -.6676 .942 1.338)" r="114.147%"><stop offset="0" stop-color="#a9a9a9"/><stop offset="1"/></radialGradient><g fill="none" fill-rule="evenodd"><path d="M0 0h2500v1600H0z" fill="url(#a)"/><path d="M694.462 381.95c-8.277 10.039-12.7 15.292-13.27 15.758-.854.7-6.998 5.514-18.433 14.446l11.5-20.498c.673-1.025 9.863-12.032 27.57-33.022l1.378-3.575 4.079-.059 5.355 4.283c3.137-3.73 6.71-7.972 10.72-12.726l1.38-3.575 4.078-.059 5.593 4.473 3.031 3.494-.673 1.677-5.544-1.25c-18.147 22.177-27.648 33.616-28.501 34.314-.854.7-6.998 5.514-18.433 14.446zm-12.371 343.085c4.58-5.483 11.16-13.309 19.737-23.478l1.379-3.575 4.079-.059 5.592 4.473 3.032 3.494-.674 1.677-5.543-1.25a5316.483 5316.483 0 0 1-19.296 23.476l2.754 3.174-.674 1.677-5.146-1.161c-3.718 4.458-5.764 6.841-6.14 7.148-.103.085-.284.23-.542.435-14.062 17.148-21.468 26.03-22.217 26.642-.853.7-6.997 5.514-18.432 14.446l11.5-20.498c.673-1.025 9.863-12.032 27.57-33.022l1.378-3.575zm455.668-667.881 11.5-20.498c.673-1.025 9.863-12.032 27.57-33.022l1.378-3.575 4.079-.059 5.592 4.473 3.032 3.494-.674 1.677-5.543-1.25c-18.148 22.177-27.648 33.616-28.502 34.314-.853.7-6.997 5.514-18.432 14.446zm-662.759 0 11.5-20.498c.673-1.025 9.863-12.032 27.57-33.022L515.447.06 519.527 0l5.592 4.473 3.032 3.494-.674 1.677-5.543-1.25c-18.148 22.177-27.648 33.616-28.502 34.314-.853.7-6.997 5.514-18.432 14.446zm271.713 457.23 11.5-20.497c.673-1.025 9.863-12.032 27.57-33.022l1.378-3.576 4.079-.058 5.592 4.472 3.032 3.495-.674 1.677-5.543-1.251c-18.148 22.178-27.648 33.616-28.502 34.315-.853.699-6.997 5.514-18.432 14.446zM799.953 743l11.5-20.498c.674-1.025 9.864-12.032 27.57-33.022l1.379-3.575 4.079-.059 5.592 4.473 3.032 3.494-.674 1.677-5.543-1.25c-18.148 22.177-27.648 33.616-28.502 34.315-.853.698-6.997 5.514-18.432 14.445zm0-457.23 11.5-20.499c.674-1.024 9.864-12.032 27.57-33.022l1.379-3.575 4.079-.059 5.592 4.473 3.032 3.494-.674 1.678-5.543-1.251c-18.148 22.178-27.648 33.616-28.502 34.315-.853.699-6.997 5.514-18.432 14.445zm284.565 407.316 11.5-20.498c.673-1.025 9.863-12.032 27.57-33.022l1.378-3.576 4.079-.058 5.592 4.472 3.032 3.495-.674 1.677-5.543-1.251c-18.148 22.178-27.648 33.616-28.502 34.315-.853.699-6.997 5.514-18.432 14.446zM915.615 285.769l11.5-20.498c.674-1.024 9.864-12.032 27.57-33.022l1.378-3.575 4.08-.059 5.592 4.473 3.032 3.494-.674 1.678-5.544-1.251c-18.147 22.178-27.648 33.616-28.501 34.315-.854.699-6.998 5.514-18.433 14.445zM596.17 228.615l11.5-20.497c.674-1.025 9.864-12.033 27.57-33.022l1.378-3.576 4.08-.058 5.591 4.472 3.032 3.495-.673 1.677-5.544-1.251c-18.148 22.178-27.648 33.616-28.501 34.315s-6.998 5.514-18.433 14.445zm541.59 57.154 11.5-20.498c.673-1.024 9.863-12.032 27.57-33.022l1.378-3.575 4.079-.059 5.592 4.473 3.032 3.494-.674 1.678-5.543-1.251c-18.148 22.178-27.648 33.616-28.502 34.315-.853.699-6.997 5.514-18.432 14.445zM631.051 635.932l11.5-20.498c.674-1.025 9.864-12.032 27.57-33.022l1.378-3.575 4.08-.06 5.591 4.474 3.032 3.494-.673 1.677-5.544-1.25c-18.147 22.177-27.648 33.615-28.501 34.314-.854.7-6.998 5.514-18.433 14.446zm506.708-235.855 11.5-20.498c.673-1.025 9.863-12.032 27.57-33.022l1.378-3.575 4.079-.059 5.592 4.473 3.032 3.494-.674 1.677-5.543-1.25c-18.148 22.177-27.648 33.616-28.502 34.314-.853.7-6.997 5.514-18.432 14.446zM799.954 57.154l11.5-20.498c.673-1.025 9.863-12.032 27.57-33.022L840.401.06 844.48 0l5.592 4.473 3.032 3.494-.674 1.677-5.543-1.25C828.74 30.57 819.24 42.01 818.386 42.707c-.853.7-6.997 5.514-18.432 14.446zm231.323 457.23 11.5-20.497c.673-1.025 9.863-12.032 27.57-33.022l1.378-3.576 4.079-.058 5.592 4.472 3.032 3.495-.674 1.677-5.543-1.251c-18.148 22.178-27.648 33.616-28.502 34.315-.853.699-6.997 5.514-18.432 14.446zm0-457.23 11.5-20.498c.673-1.025 9.863-12.032 27.57-33.022l1.378-3.575 4.079-.059 5.592 4.473 3.032 3.494-.674 1.677-5.543-1.25c-18.148 22.177-27.648 33.616-28.502 34.314-.853.7-6.997 5.514-18.432 14.446zM631.05 514.384l11.5-20.497c.674-1.025 9.864-12.032 27.57-33.022l1.378-3.576 4.08-.058 5.591 4.472 3.032 3.495-.673 1.677-5.544-1.251c-18.147 22.178-27.648 33.616-28.501 34.315-.854.699-6.998 5.514-18.433 14.446zm346.985 114.308 11.5-20.497c.673-1.025 9.863-12.033 27.57-33.022l1.378-3.576 4.079-.059 5.592 4.473 3.032 3.494-.674 1.678-5.543-1.251c-18.148 22.178-27.648 33.616-28.502 34.315s-6.997 5.514-18.432 14.445zm967.723-455.538 11.5-20.498c.673-1.025 9.863-12.032 27.57-33.022l1.378-3.575 4.079-.059 5.592 4.473 3.032 3.494-.674 1.677-5.543-1.25c-18.148 22.177-27.648 33.616-28.502 34.314-.853.7-6.997 5.514-18.432 14.446zm-662.759 0 11.5-20.498c.673-1.025 9.863-12.032 27.57-33.022l1.378-3.575 4.079-.059 5.592 4.473 3.032 3.494-.674 1.677-5.543-1.25c-18.148 22.177-27.648 33.616-28.502 34.314-.853.7-6.997 5.514-18.432 14.446zm271.713 457.23 11.5-20.497c.673-1.025 9.863-12.032 27.57-33.022l1.378-3.576 4.079-.058 5.592 4.472 3.032 3.495-.674 1.677-5.543-1.251c-18.148 22.178-27.648 33.616-28.502 34.315-.853.699-6.997 5.514-18.432 14.446zM1607.953 859l11.5-20.498c.674-1.025 9.864-12.032 27.57-33.022l1.379-3.575 4.079-.059 5.592 4.473 3.032 3.494-.674 1.677-5.543-1.25c-18.148 22.177-27.648 33.616-28.502 34.315-.853.698-6.997 5.514-18.432 14.445zm0-457.23 11.5-20.499c.674-1.024 9.864-12.032 27.57-33.022l1.379-3.575 4.079-.059 5.592 4.473 3.032 3.494-.674 1.678-5.543-1.251c-18.148 22.178-27.648 33.616-28.502 34.315-.853.699-6.997 5.514-18.432 14.445zm284.565 407.316 11.5-20.498c.673-1.025 9.863-12.032 27.57-33.022l1.378-3.576 4.079-.058 5.592 4.472 3.032 3.495-.674 1.677-5.543-1.251c-18.148 22.178-27.648 33.616-28.502 34.315-.853.699-6.997 5.514-18.432 14.446zm-168.903-407.317 11.5-20.498c.674-1.024 9.864-12.032 27.57-33.022l1.378-3.575 4.08-.059 5.592 4.473 3.032 3.494-.674 1.678-5.544-1.251c-18.147 22.178-27.648 33.616-28.501 34.315-.854.699-6.998 5.514-18.433 14.445zm-319.446-57.154 11.5-20.497c.674-1.025 9.864-12.033 27.57-33.022l1.378-3.576 4.08-.058 5.591 4.472 3.032 3.495-.673 1.677-5.544-1.251c-18.148 22.178-27.648 33.616-28.501 34.315s-6.998 5.514-18.433 14.445zm541.59 57.154 11.5-20.498c.673-1.024 9.863-12.032 27.57-33.022l1.378-3.575 4.079-.059 5.592 4.473 3.032 3.494-.674 1.678-5.543-1.251c-18.148 22.178-27.648 33.616-28.502 34.315-.853.699-6.997 5.514-18.432 14.445zm-453.467 114.308 11.5-20.498c.674-1.025 9.864-12.032 27.57-33.022l1.378-3.575 4.08-.059 5.592 4.473 3.031 3.494-.673 1.677-5.544-1.25c-18.147 22.177-27.648 33.616-28.501 34.314-.854.7-6.998 5.514-18.433 14.446zm-53.24 235.855 11.499-20.498c.674-1.025 9.864-12.032 27.57-33.022l1.378-3.575 4.08-.06 5.591 4.474 3.032 3.494-.673 1.677-5.544-1.25c-18.147 22.177-27.648 33.615-28.501 34.314-.854.7-6.998 5.514-18.433 14.446zm506.707-235.855 11.5-20.498c.673-1.025 9.863-12.032 27.57-33.022l1.378-3.575 4.079-.059 5.592 4.473 3.032 3.494-.674 1.677-5.543-1.25c-18.148 22.177-27.648 33.616-28.502 34.314-.853.7-6.997 5.514-18.432 14.446zm-337.805-342.923 11.5-20.498c.673-1.025 9.863-12.032 27.57-33.022l1.378-3.575 4.079-.059 5.592 4.473 3.032 3.494-.674 1.677-5.543-1.25c-18.148 22.177-27.648 33.616-28.502 34.314-.853.7-6.997 5.514-18.432 14.446zm231.323 457.23 11.5-20.497c.673-1.025 9.863-12.032 27.57-33.022l1.378-3.576 4.079-.058 5.592 4.472 3.032 3.495-.674 1.677-5.543-1.251c-18.148 22.178-27.648 33.616-28.502 34.315-.853.699-6.997 5.514-18.432 14.446zm0-457.23 11.5-20.498c.673-1.025 9.863-12.032 27.57-33.022l1.378-3.575 4.079-.059 5.592 4.473 3.032 3.494-.674 1.677-5.543-1.25c-18.148 22.177-27.648 33.616-28.502 34.314-.853.7-6.997 5.514-18.432 14.446zm-400.226 457.23 11.5-20.497c.674-1.025 9.864-12.032 27.57-33.022l1.378-3.576 4.08-.058 5.591 4.472 3.032 3.495-.673 1.677-5.544-1.251c-18.147 22.178-27.648 33.616-28.501 34.315-.854.699-6.998 5.514-18.433 14.446zm346.985 114.308 11.5-20.497c.673-1.025 9.863-12.033 27.57-33.022l1.378-3.576 4.079-.059 5.592 4.473 3.032 3.494-.674 1.678-5.543-1.251c-18.148 22.178-27.648 33.616-28.502 34.315-.853.699-6.997 5.514-18.432 14.445zm-483.277 37.462 11.5-20.498c.673-1.025 9.863-12.032 27.57-33.022l1.378-3.575 4.079-.059 5.592 4.473 3.032 3.494-.674 1.677-5.543-1.25c-18.148 22.177-27.648 33.616-28.502 34.314-.853.7-6.997 5.514-18.432 14.446zm-391.046 457.23 11.5-20.497c.673-1.025 9.863-12.032 27.57-33.022l1.378-3.576 4.079-.058 5.592 4.472 3.032 3.495-.674 1.677-5.543-1.251c-18.148 22.178-27.648 33.616-28.502 34.315s-6.997 5.514-18.432 14.446zM964.953 1468l11.5-20.498c.674-1.025 9.864-12.032 27.57-33.022l1.379-3.575 4.079-.059 5.592 4.473 3.032 3.494-.674 1.677-5.543-1.25c-18.148 22.177-27.648 33.616-28.502 34.315s-6.997 5.514-18.432 14.445zm0-457.23 11.5-20.499c.674-1.024 9.864-12.032 27.57-33.022l1.379-3.575 4.079-.059 5.592 4.473 3.032 3.494-.674 1.678-5.543-1.251c-18.148 22.178-27.648 33.616-28.502 34.315-.853.699-6.997 5.514-18.432 14.445zm284.565 407.316 11.5-20.498c.673-1.025 9.863-12.032 27.57-33.022l1.378-3.576 4.079-.058 5.592 4.472 3.032 3.495-.674 1.677-5.543-1.251c-18.148 22.178-27.648 33.616-28.502 34.315-.853.699-6.997 5.514-18.432 14.446zm-168.903-407.317 11.5-20.498c.674-1.024 9.864-12.032 27.57-33.022l1.378-3.575 4.08-.059 5.592 4.473 3.032 3.494-.674 1.678-5.544-1.251c-18.147 22.178-27.648 33.616-28.501 34.315-.854.699-6.998 5.514-18.433 14.445zM761.17 953.615l11.5-20.497c.674-1.025 9.864-12.033 27.57-33.022l1.378-3.576 4.08-.058 5.591 4.472 3.032 3.495-.673 1.677-5.544-1.251c-18.148 22.178-27.648 33.616-28.501 34.315s-6.998 5.514-18.433 14.445zm541.59 57.154 11.5-20.498c.673-1.024 9.863-12.032 27.57-33.022l1.378-3.575 4.079-.059 5.592 4.473 3.032 3.494-.674 1.678-5.543-1.251c-18.148 22.178-27.648 33.616-28.502 34.315-.853.699-6.997 5.514-18.432 14.445zm-453.467 114.308 11.5-20.498c.674-1.025 9.864-12.032 27.57-33.022l1.378-3.575 4.08-.059 5.592 4.473 3.031 3.494-.673 1.677-5.544-1.25c-18.147 22.177-27.648 33.616-28.501 34.314-.854.7-6.998 5.514-18.433 14.446zm-53.24 235.855 11.499-20.498c.674-1.025 9.864-12.032 27.57-33.022l1.378-3.575 4.08-.06 5.591 4.474 3.032 3.494-.673 1.677-5.544-1.25c-18.147 22.177-27.648 33.615-28.501 34.314s-6.998 5.514-18.433 14.446zm506.707-235.855 11.5-20.498c.673-1.025 9.863-12.032 27.57-33.022l1.378-3.575 4.079-.059 5.592 4.473 3.032 3.494-.674 1.677-5.543-1.25c-18.148 22.177-27.648 33.616-28.502 34.314-.853.7-6.997 5.514-18.432 14.446zM964.954 782.154l11.5-20.498c.673-1.025 9.863-12.032 27.57-33.022l1.378-3.575 4.079-.059 5.592 4.473 3.032 3.494-.674 1.677-5.543-1.25c-18.148 22.177-27.648 33.616-28.502 34.314-.853.7-6.997 5.514-18.432 14.446zm231.323 457.23 11.5-20.497c.673-1.025 9.863-12.032 27.57-33.022l1.378-3.576 4.079-.058 5.592 4.472 3.032 3.495-.674 1.677-5.543-1.251c-18.148 22.178-27.648 33.616-28.502 34.315s-6.997 5.514-18.432 14.446zm0-457.23 11.5-20.498c.673-1.025 9.863-12.032 27.57-33.022l1.378-3.575 4.079-.059 5.592 4.473 3.032 3.494-.674 1.677-5.543-1.25c-18.148 22.177-27.648 33.616-28.502 34.314-.853.7-6.997 5.514-18.432 14.446zm-400.226 457.23 11.5-20.497c.674-1.025 9.864-12.032 27.57-33.022l1.378-3.576 4.08-.058 5.591 4.472 3.032 3.495-.673 1.677-5.544-1.251c-18.147 22.178-27.648 33.616-28.501 34.315s-6.998 5.514-18.433 14.446zm346.985 114.308 11.5-20.497c.673-1.025 9.863-12.033 27.57-33.022l1.378-3.576 4.079-.059 5.592 4.473 3.032 3.494-.674 1.678-5.543-1.251c-18.148 22.178-27.648 33.616-28.502 34.315-.853.699-6.997 5.514-18.432 14.445zM0 412.154l11.5-20.498c.673-1.025 9.863-12.032 27.57-33.022l1.378-3.575 4.079-.059 5.592 4.473 3.032 3.494-.674 1.677-5.543-1.25c-18.148 22.177-27.648 33.616-28.502 34.314-.853.7-6.997 5.514-18.432 14.446zm271.713 457.23 11.5-20.497c.673-1.025 9.863-12.032 27.57-33.022l1.378-3.576 4.079-.058 5.592 4.472 3.032 3.495-.674 1.677-5.543-1.251c-18.148 22.178-27.648 33.616-28.502 34.315-.853.699-6.997 5.514-18.432 14.446zM324.953 1098l11.5-20.498c.674-1.025 9.864-12.032 27.57-33.022l1.379-3.575 4.079-.059 5.592 4.473 3.032 3.494-.674 1.677-5.543-1.25c-18.148 22.177-27.648 33.616-28.502 34.315s-6.997 5.514-18.432 14.445zm0-457.23 11.5-20.499c.674-1.024 9.864-12.032 27.57-33.022l1.379-3.575 4.079-.059 5.592 4.473 3.032 3.494-.674 1.678-5.543-1.251c-18.148 22.178-27.648 33.616-28.502 34.315-.853.699-6.997 5.514-18.432 14.445zm284.565 407.316 11.5-20.498c.673-1.025 9.863-12.032 27.57-33.022l1.378-3.576 4.079-.058 5.592 4.472 3.032 3.495-.674 1.677-5.543-1.251c-18.148 22.178-27.648 33.616-28.502 34.315s-6.997 5.514-18.432 14.446zM440.615 640.769l11.5-20.498c.674-1.024 9.864-12.032 27.57-33.022l1.378-3.575 4.08-.059 5.592 4.473 3.032 3.494-.674 1.678-5.544-1.251c-18.147 22.178-27.648 33.616-28.501 34.315-.854.699-6.998 5.514-18.433 14.445zM121.17 583.615l11.5-20.497c.674-1.025 9.864-12.033 27.57-33.022l1.378-3.576 4.08-.058 5.591 4.472 3.032 3.495-.673 1.677-5.544-1.251c-18.148 22.178-27.648 33.616-28.501 34.315s-6.998 5.514-18.433 14.445zm541.59 57.154 11.5-20.498c.673-1.024 9.863-12.032 27.57-33.022l1.378-3.575 4.079-.059 5.592 4.473 3.032 3.494-.674 1.678-5.543-1.251c-18.148 22.178-27.648 33.616-28.502 34.315-.853.699-6.997 5.514-18.432 14.445zM209.292 755.077l11.5-20.498c.674-1.025 9.864-12.032 27.57-33.022l1.378-3.575 4.08-.059 5.592 4.473 3.031 3.494-.673 1.677-5.544-1.25c-18.147 22.177-27.648 33.616-28.501 34.314-.854.7-6.998 5.514-18.433 14.446zm-53.24 235.855 11.499-20.498c.674-1.025 9.864-12.032 27.57-33.022l1.378-3.575 4.08-.06 5.591 4.474 3.032 3.494-.673 1.677-5.544-1.25c-18.147 22.177-27.648 33.615-28.501 34.314-.854.7-6.998 5.514-18.433 14.446zm168.902-578.778 11.5-20.498c.673-1.025 9.863-12.032 27.57-33.022l1.378-3.575 4.079-.059 5.592 4.473 3.032 3.494-.674 1.677-5.543-1.25c-18.148 22.177-27.648 33.616-28.502 34.314-.853.7-6.997 5.514-18.432 14.446zm231.323 457.23 11.5-20.497c.673-1.025 9.863-12.032 27.57-33.022l1.378-3.576 4.079-.058 5.592 4.472 3.032 3.495-.674 1.677-5.543-1.251c-18.148 22.178-27.648 33.616-28.502 34.315-.853.699-6.997 5.514-18.432 14.446zm0-457.23 11.5-20.498c.673-1.025 9.863-12.032 27.57-33.022l1.378-3.575 4.079-.059 5.592 4.473 3.032 3.494-.674 1.677-5.543-1.25c-18.148 22.177-27.648 33.616-28.502 34.314-.853.7-6.997 5.514-18.432 14.446zM156.05 869.384l11.5-20.497c.674-1.025 9.864-12.032 27.57-33.022l1.378-3.576 4.08-.058 5.591 4.472 3.032 3.495-.673 1.677-5.544-1.251c-18.147 22.178-27.648 33.616-28.501 34.315-.854.699-6.998 5.514-18.433 14.446zm346.985 114.308 11.5-20.497c.673-1.025 9.863-12.033 27.57-33.022l1.378-3.576 4.079-.059 5.592 4.473 3.032 3.494-.674 1.678-5.543-1.251c-18.148 22.178-27.648 33.616-28.502 34.315s-6.997 5.514-18.432 14.445zm1607.723-85.538 11.5-20.498c.673-1.025 9.863-12.032 27.57-33.022l1.378-3.575 4.079-.059 5.592 4.473 3.032 3.494-.674 1.677-5.543-1.25c-18.148 22.177-27.648 33.616-28.502 34.314-.853.7-6.997 5.514-18.432 14.446zm-662.759 0 11.5-20.498c.673-1.025 9.863-12.032 27.57-33.022l1.378-3.575 4.079-.059 5.592 4.473 3.032 3.494-.674 1.677-5.543-1.25c-18.148 22.177-27.648 33.616-28.502 34.314-.853.7-6.997 5.514-18.432 14.446zm271.713 457.23 11.5-20.497c.673-1.025 9.863-12.032 27.57-33.022l1.378-3.576 4.079-.058 5.592 4.472 3.032 3.495-.674 1.677-5.543-1.251c-18.148 22.178-27.648 33.616-28.502 34.315s-6.997 5.514-18.432 14.446zm53.24 228.616 11.5-20.498c.674-1.025 9.864-12.032 27.57-33.022l1.379-3.575 4.079-.059 5.592 4.473 3.032 3.494-.674 1.677-5.543-1.25c-18.148 22.177-27.648 33.616-28.502 34.315s-6.997 5.514-18.432 14.445zm0-457.23 11.5-20.499c.674-1.024 9.864-12.032 27.57-33.022l1.379-3.575 4.079-.059 5.592 4.473 3.032 3.494-.674 1.678-5.543-1.251c-18.148 22.178-27.648 33.616-28.502 34.315s-6.997 5.514-18.432 14.445zm284.565 407.316 11.5-20.498c.673-1.025 9.863-12.032 27.57-33.022l1.378-3.576 4.079-.058 5.592 4.472 3.032 3.495-.674 1.677-5.543-1.251c-18.148 22.178-27.648 33.616-28.502 34.315-.853.699-6.997 5.514-18.432 14.446zm-168.903-407.317 11.5-20.498c.674-1.024 9.864-12.032 27.57-33.022l1.378-3.575 4.08-.059 5.592 4.473 3.032 3.494-.674 1.678-5.544-1.251c-18.147 22.178-27.648 33.616-28.501 34.315s-6.998 5.514-18.433 14.445zm-319.446-57.154 11.5-20.497c.674-1.025 9.864-12.033 27.57-33.022l1.378-3.576 4.08-.058 5.591 4.472 3.032 3.495-.673 1.677-5.544-1.251c-18.148 22.178-27.648 33.616-28.501 34.315s-6.998 5.514-18.433 14.445zm541.59 57.154 11.5-20.498c.673-1.024 9.863-12.032 27.57-33.022l1.378-3.575 4.079-.059 5.592 4.473 3.032 3.494-.674 1.678-5.543-1.251c-18.148 22.178-27.648 33.616-28.502 34.315s-6.997 5.514-18.432 14.445zm-453.467 114.308 11.5-20.498c.674-1.025 9.864-12.032 27.57-33.022l1.378-3.575 4.08-.059 5.592 4.473 3.031 3.494-.673 1.677-5.544-1.25c-18.147 22.177-27.648 33.616-28.501 34.314-.854.7-6.998 5.514-18.433 14.446zm-53.24 235.855 11.499-20.498c.674-1.025 9.864-12.032 27.57-33.022l1.378-3.575 4.08-.06 5.591 4.474 3.032 3.494-.673 1.677-5.544-1.25c-18.147 22.177-27.648 33.615-28.501 34.314s-6.998 5.514-18.433 14.446zm506.707-235.855 11.5-20.498c.673-1.025 9.863-12.032 27.57-33.022l1.378-3.575 4.079-.059 5.592 4.473 3.032 3.494-.674 1.677-5.543-1.25c-18.148 22.177-27.648 33.616-28.502 34.314-.853.7-6.997 5.514-18.432 14.446zm-337.805-342.923 11.5-20.498c.673-1.025 9.863-12.032 27.57-33.022l1.378-3.575 4.079-.059 5.592 4.473 3.032 3.494-.674 1.677-5.543-1.25c-18.148 22.177-27.648 33.616-28.502 34.314-.853.7-6.997 5.514-18.432 14.446zm231.323 457.23 11.5-20.497c.673-1.025 9.863-12.032 27.57-33.022l1.378-3.576 4.079-.058 5.592 4.472 3.032 3.495-.674 1.677-5.543-1.251c-18.148 22.178-27.648 33.616-28.502 34.315s-6.997 5.514-18.432 14.446zm0-457.23 11.5-20.498c.673-1.025 9.863-12.032 27.57-33.022l1.378-3.575 4.079-.059 5.592 4.473 3.032 3.494-.674 1.677-5.543-1.25c-18.148 22.177-27.648 33.616-28.502 34.314-.853.7-6.997 5.514-18.432 14.446zm-400.226 457.23 11.5-20.497c.674-1.025 9.864-12.032 27.57-33.022l1.378-3.576 4.08-.058 5.591 4.472 3.032 3.495-.673 1.677-5.544-1.251c-18.147 22.178-27.648 33.616-28.501 34.315s-6.998 5.514-18.433 14.446zm346.985 114.308 11.5-20.497c.673-1.025 9.863-12.033 27.57-33.022l1.378-3.576 4.079-.059 5.592 4.473 3.032 3.494-.674 1.678-5.543-1.251c-18.148 22.178-27.648 33.616-28.502 34.315-.853.699-6.997 5.514-18.432 14.445zM2858.462 381.95c-8.277 10.04-12.7 15.293-13.27 15.76-.854.698-6.998 5.513-18.433 14.445l11.5-20.498c.673-1.025 9.863-12.032 27.57-33.022l1.378-3.575 4.079-.059 5.355 4.283c3.137-3.73 6.71-7.972 10.72-12.726l1.38-3.575 4.078-.059 5.593 4.473 3.031 3.494-.673 1.677-5.544-1.25c-18.147 22.177-27.648 33.616-28.501 34.314-.854.7-6.998 5.514-18.433 14.446zm-12.371 343.086c4.58-5.483 11.16-13.309 19.737-23.478l1.379-3.575 4.079-.059 5.592 4.473 3.032 3.494-.674 1.677-5.543-1.25a5316.601 5316.601 0 0 1-19.296 23.476l2.754 3.174-.674 1.677-5.146-1.161c-3.718 4.458-5.764 6.841-6.14 7.148-.103.085-.284.23-.542.435-14.062 17.148-21.468 26.03-22.217 26.642-.853.7-6.997 5.514-18.432 14.446l11.5-20.498c.673-1.025 9.863-12.032 27.57-33.022l1.378-3.575zm455.668-667.881 11.5-20.498c.673-1.025 9.863-12.032 27.57-33.022l1.378-3.575 4.079-.059 5.592 4.473 3.032 3.494-.674 1.677-5.543-1.25c-18.148 22.177-27.648 33.616-28.502 34.314-.853.7-6.997 5.514-18.432 14.446zm-662.759 0 11.5-20.498c.673-1.025 9.863-12.032 27.57-33.022l1.378-3.575 4.079-.059 5.592 4.473 3.032 3.494-.674 1.677-5.543-1.25c-18.148 22.177-27.648 33.616-28.502 34.314-.853.7-6.997 5.514-18.432 14.446zm271.713 457.23 11.5-20.497c.673-1.025 9.863-12.032 27.57-33.022l1.378-3.576 4.079-.058 5.592 4.472 3.032 3.495-.674 1.677-5.543-1.251c-18.148 22.178-27.648 33.616-28.502 34.315-.853.699-6.997 5.514-18.432 14.446zM2963.953 743l11.5-20.498c.674-1.025 9.864-12.032 27.57-33.022l1.379-3.575 4.079-.059 5.592 4.473 3.032 3.494-.674 1.677-5.543-1.25c-18.148 22.177-27.648 33.616-28.502 34.315-.853.698-6.997 5.514-18.432 14.445zm0-457.23 11.5-20.499c.674-1.024 9.864-12.032 27.57-33.022l1.379-3.575 4.079-.059 5.592 4.473 3.032 3.494-.674 1.678-5.543-1.251c-18.148 22.178-27.648 33.616-28.502 34.315-.853.699-6.997 5.514-18.432 14.445zm284.565 407.316 11.5-20.498c.673-1.025 9.863-12.032 27.57-33.022l1.378-3.576 4.079-.058 5.592 4.472 3.032 3.495-.674 1.677-5.543-1.251c-18.148 22.178-27.648 33.616-28.502 34.315-.853.699-6.997 5.514-18.432 14.446zm-168.903-407.317 11.5-20.498c.674-1.024 9.864-12.032 27.57-33.022l1.378-3.575 4.08-.059 5.592 4.473 3.032 3.494-.674 1.678-5.544-1.251c-18.147 22.178-27.648 33.616-28.501 34.315-.854.699-6.998 5.514-18.433 14.445zm-319.446-57.154 11.5-20.497c.674-1.025 9.864-12.033 27.57-33.022l1.378-3.576 4.08-.058 5.591 4.472 3.032 3.495-.673 1.677-5.544-1.251c-18.148 22.178-27.648 33.616-28.501 34.315s-6.998 5.514-18.433 14.445zm541.59 57.154 11.5-20.498c.673-1.024 9.863-12.032 27.57-33.022l1.378-3.575 4.079-.059 5.592 4.473 3.032 3.494-.674 1.678-5.543-1.251c-18.148 22.178-27.648 33.616-28.502 34.315-.853.699-6.997 5.514-18.432 14.445zm-506.708 350.163 11.5-20.498c.674-1.025 9.864-12.032 27.57-33.022l1.378-3.575 4.08-.06 5.591 4.474 3.032 3.494-.673 1.677-5.544-1.25c-18.147 22.177-27.648 33.615-28.501 34.314-.854.7-6.998 5.514-18.433 14.446zm506.708-235.855 11.5-20.498c.673-1.025 9.863-12.032 27.57-33.022l1.378-3.575 4.079-.059 5.592 4.473 3.032 3.494-.674 1.677-5.543-1.25c-18.148 22.177-27.648 33.616-28.502 34.314-.853.7-6.997 5.514-18.432 14.446zM2963.954 57.154l11.5-20.498c.673-1.025 9.863-12.032 27.57-33.022l1.378-3.575L3008.48 0l5.592 4.473 3.032 3.494-.674 1.677-5.543-1.25c-18.148 22.177-27.648 33.616-28.502 34.314-.853.7-6.997 5.514-18.432 14.446zm231.323 457.23 11.5-20.497c.673-1.025 9.863-12.032 27.57-33.022l1.378-3.576 4.079-.058 5.592 4.472 3.032 3.495-.674 1.677-5.543-1.251c-18.148 22.178-27.648 33.616-28.502 34.315-.853.699-6.997 5.514-18.432 14.446zm0-457.23 11.5-20.498c.673-1.025 9.863-12.032 27.57-33.022l1.378-3.575 4.079-.059 5.592 4.473 3.032 3.494-.674 1.677-5.543-1.25c-18.148 22.177-27.648 33.616-28.502 34.314-.853.7-6.997 5.514-18.432 14.446zm-400.226 457.23 11.5-20.497c.674-1.025 9.864-12.032 27.57-33.022l1.378-3.576 4.08-.058 5.591 4.472 3.032 3.495-.673 1.677-5.544-1.251c-18.147 22.178-27.648 33.616-28.501 34.315-.854.699-6.998 5.514-18.433 14.446zm346.985 114.308 11.5-20.497c.673-1.025 9.863-12.033 27.57-33.022l1.378-3.576 4.079-.059 5.592 4.473 3.032 3.494-.674 1.678-5.543-1.251c-18.148 22.178-27.648 33.616-28.502 34.315-.853.699-6.997 5.514-18.432 14.445zm967.723-455.538 11.5-20.498c.673-1.025 9.863-12.032 27.57-33.022l1.378-3.575 4.079-.059 5.592 4.473 3.032 3.494-.674 1.677-5.543-1.25c-18.148 22.177-27.648 33.616-28.502 34.314-.853.7-6.997 5.514-18.432 14.446zm-662.759 0 11.5-20.498c.673-1.025 9.863-12.032 27.57-33.022l1.378-3.575 4.079-.059 5.592 4.473 3.032 3.494-.674 1.677-5.543-1.25c-18.148 22.177-27.648 33.616-28.502 34.314-.853.7-6.997 5.514-18.432 14.446zm271.713 457.23 11.5-20.497c.673-1.025 9.863-12.032 27.57-33.022l1.378-3.576 4.079-.058 5.592 4.472 3.032 3.495-.674 1.677-5.543-1.251c-18.148 22.178-27.648 33.616-28.502 34.315-.853.699-6.997 5.514-18.432 14.446zM3771.953 859l11.5-20.498c.674-1.025 9.864-12.032 27.57-33.022l1.379-3.575 4.079-.059 5.592 4.473 3.032 3.494-.674 1.677-5.543-1.25c-18.148 22.177-27.648 33.616-28.502 34.315-.853.698-6.997 5.514-18.432 14.445zm0-457.23 11.5-20.499c.674-1.024 9.864-12.032 27.57-33.022l1.379-3.575 4.079-.059 5.592 4.473 3.032 3.494-.674 1.678-5.543-1.251c-18.148 22.178-27.648 33.616-28.502 34.315-.853.699-6.997 5.514-18.432 14.445zm284.565 407.316 11.5-20.498c.673-1.025 9.863-12.032 27.57-33.022l1.378-3.576 4.079-.058 5.592 4.472 3.032 3.495-.674 1.677-5.543-1.251c-18.148 22.178-27.648 33.616-28.502 34.315-.853.699-6.997 5.514-18.432 14.446zm-168.903-407.317 11.5-20.498c.674-1.024 9.864-12.032 27.57-33.022l1.378-3.575 4.08-.059 5.592 4.473 3.032 3.494-.674 1.678-5.544-1.251c-18.147 22.178-27.648 33.616-28.501 34.315-.854.699-6.998 5.514-18.433 14.445zm-319.446-57.154 11.5-20.497c.674-1.025 9.864-12.033 27.57-33.022l1.378-3.576 4.08-.058 5.591 4.472 3.032 3.495-.673 1.677-5.544-1.251c-18.148 22.178-27.648 33.616-28.501 34.315s-6.998 5.514-18.433 14.445zm541.59 57.154 11.5-20.498c.673-1.024 9.863-12.032 27.57-33.022l1.378-3.575 4.079-.059 5.592 4.473 3.032 3.494-.674 1.678-5.543-1.251c-18.148 22.178-27.648 33.616-28.502 34.315-.853.699-6.997 5.514-18.432 14.445zm-453.467 114.308 11.5-20.498c.674-1.025 9.864-12.032 27.57-33.022l1.378-3.575 4.08-.059 5.592 4.473 3.031 3.494-.673 1.677-5.544-1.25c-18.147 22.177-27.648 33.616-28.501 34.314-.854.7-6.998 5.514-18.433 14.446zm-53.24 235.855 11.499-20.498c.674-1.025 9.864-12.032 27.57-33.022l1.378-3.575 4.08-.06 5.591 4.474 3.032 3.494-.673 1.677-5.544-1.25c-18.147 22.177-27.648 33.615-28.501 34.314-.854.7-6.998 5.514-18.433 14.446zm506.707-235.855 11.5-20.498c.673-1.025 9.863-12.032 27.57-33.022l1.378-3.575 4.079-.059 5.592 4.473 3.032 3.494-.674 1.677-5.543-1.25c-18.148 22.177-27.648 33.616-28.502 34.314-.853.7-6.997 5.514-18.432 14.446zm-337.805-342.923 11.5-20.498c.673-1.025 9.863-12.032 27.57-33.022l1.378-3.575 4.079-.059 5.592 4.473 3.032 3.494-.674 1.677-5.543-1.25c-18.148 22.177-27.648 33.616-28.502 34.314-.853.7-6.997 5.514-18.432 14.446zm231.323 457.23 11.5-20.497c.673-1.025 9.863-12.032 27.57-33.022l1.378-3.576 4.079-.058 5.592 4.472 3.032 3.495-.674 1.677-5.543-1.251c-18.148 22.178-27.648 33.616-28.502 34.315-.853.699-6.997 5.514-18.432 14.446zm0-457.23 11.5-20.498c.673-1.025 9.863-12.032 27.57-33.022l1.378-3.575 4.079-.059 5.592 4.473 3.032 3.494-.674 1.677-5.543-1.25c-18.148 22.177-27.648 33.616-28.502 34.314-.853.7-6.997 5.514-18.432 14.446zm-400.226 457.23 11.5-20.497c.674-1.025 9.864-12.032 27.57-33.022l1.378-3.576 4.08-.058 5.591 4.472 3.032 3.495-.673 1.677-5.544-1.251c-18.147 22.178-27.648 33.616-28.501 34.315-.854.699-6.998 5.514-18.433 14.446zm346.985 114.308 11.5-20.497c.673-1.025 9.863-12.033 27.57-33.022l1.378-3.576 4.079-.059 5.592 4.473 3.032 3.494-.674 1.678-5.543-1.251c-18.148 22.178-27.648 33.616-28.502 34.315-.853.699-6.997 5.514-18.432 14.445zm-483.277 37.462 11.5-20.498c.673-1.025 9.863-12.032 27.57-33.022l1.378-3.575 4.079-.059 5.592 4.473 3.032 3.494-.674 1.677-5.543-1.25c-18.148 22.177-27.648 33.616-28.502 34.314-.853.7-6.997 5.514-18.432 14.446zm-391.046 457.23 11.5-20.497c.673-1.025 9.863-12.032 27.57-33.022l1.378-3.576 4.079-.058 5.592 4.472 3.032 3.495-.674 1.677-5.543-1.251c-18.148 22.178-27.648 33.616-28.502 34.315s-6.997 5.514-18.432 14.446zm53.24 228.616 11.5-20.498c.674-1.025 9.864-12.032 27.57-33.022l1.379-3.575 4.079-.059 5.592 4.473 3.032 3.494-.674 1.677-5.543-1.25c-18.148 22.177-27.648 33.616-28.502 34.315s-6.997 5.514-18.432 14.445zm0-457.23 11.5-20.499c.674-1.024 9.864-12.032 27.57-33.022l1.379-3.575 4.079-.059 5.592 4.473 3.032 3.494-.674 1.678-5.543-1.251c-18.148 22.178-27.648 33.616-28.502 34.315-.853.699-6.997 5.514-18.432 14.445zm284.565 407.316 11.5-20.498c.673-1.025 9.863-12.032 27.57-33.022l1.378-3.576 4.079-.058 5.592 4.472 3.032 3.495-.674 1.677-5.543-1.251c-18.148 22.178-27.648 33.616-28.502 34.315-.853.699-6.997 5.514-18.432 14.446zm-168.903-407.317 11.5-20.498c.674-1.024 9.864-12.032 27.57-33.022l1.378-3.575 4.08-.059 5.592 4.473 3.032 3.494-.674 1.678-5.544-1.251c-18.147 22.178-27.648 33.616-28.501 34.315-.854.699-6.998 5.514-18.433 14.445zm-319.446-57.154 11.5-20.497c.674-1.025 9.864-12.033 27.57-33.022l1.378-3.576 4.08-.058 5.591 4.472 3.032 3.495-.673 1.677-5.544-1.251c-18.148 22.178-27.648 33.616-28.501 34.315s-6.998 5.514-18.433 14.445zm541.59 57.154 11.5-20.498c.673-1.024 9.863-12.032 27.57-33.022l1.378-3.575 4.079-.059 5.592 4.473 3.032 3.494-.674 1.678-5.543-1.251c-18.148 22.178-27.648 33.616-28.502 34.315-.853.699-6.997 5.514-18.432 14.445zm-453.467 114.308 11.5-20.498c.674-1.025 9.864-12.032 27.57-33.022l1.378-3.575 4.08-.059 5.592 4.473 3.031 3.494-.673 1.677-5.544-1.25c-18.147 22.177-27.648 33.616-28.501 34.314-.854.7-6.998 5.514-18.433 14.446zm-53.24 235.855 11.499-20.498c.674-1.025 9.864-12.032 27.57-33.022l1.378-3.575 4.08-.06 5.591 4.474 3.032 3.494-.673 1.677-5.544-1.25c-18.147 22.177-27.648 33.615-28.501 34.314s-6.998 5.514-18.433 14.446zm506.707-235.855 11.5-20.498c.673-1.025 9.863-12.032 27.57-33.022l1.378-3.575 4.079-.059 5.592 4.473 3.032 3.494-.674 1.677-5.543-1.25c-18.148 22.177-27.648 33.616-28.502 34.314-.853.7-6.997 5.514-18.432 14.446zm-337.805-342.923 11.5-20.498c.673-1.025 9.863-12.032 27.57-33.022l1.378-3.575 4.079-.059 5.592 4.473 3.032 3.494-.674 1.677-5.543-1.25c-18.148 22.177-27.648 33.616-28.502 34.314-.853.7-6.997 5.514-18.432 14.446zm231.323 457.23 11.5-20.497c.673-1.025 9.863-12.032 27.57-33.022l1.378-3.576 4.079-.058 5.592 4.472 3.032 3.495-.674 1.677-5.543-1.251c-18.148 22.178-27.648 33.616-28.502 34.315s-6.997 5.514-18.432 14.446zm0-457.23 11.5-20.498c.673-1.025 9.863-12.032 27.57-33.022l1.378-3.575 4.079-.059 5.592 4.473 3.032 3.494-.674 1.677-5.543-1.25c-18.148 22.177-27.648 33.616-28.502 34.314-.853.7-6.997 5.514-18.432 14.446zm-400.226 457.23 11.5-20.497c.674-1.025 9.864-12.032 27.57-33.022l1.378-3.576 4.08-.058 5.591 4.472 3.032 3.495-.673 1.677-5.544-1.251c-18.147 22.178-27.648 33.616-28.501 34.315s-6.998 5.514-18.433 14.446zm346.985 114.308 11.5-20.497c.673-1.025 9.863-12.033 27.57-33.022l1.378-3.576 4.079-.059 5.592 4.473 3.032 3.494-.674 1.678-5.543-1.251c-18.148 22.178-27.648 33.616-28.502 34.315-.853.699-6.997 5.514-18.432 14.445zM2164 412.154l11.5-20.498c.673-1.025 9.863-12.032 27.57-33.022l1.378-3.575 4.079-.059 5.592 4.473 3.032 3.494-.674 1.677-5.543-1.25c-18.148 22.177-27.648 33.616-28.502 34.314-.853.7-6.997 5.514-18.432 14.446zm271.713 457.23 11.5-20.497c.673-1.025 9.863-12.032 27.57-33.022l1.378-3.576 4.079-.058 5.592 4.472 3.032 3.495-.674 1.677-5.543-1.251c-18.148 22.178-27.648 33.616-28.502 34.315-.853.699-6.997 5.514-18.432 14.446zm53.24 228.616 11.5-20.498c.674-1.025 9.864-12.032 27.57-33.022l1.379-3.575 4.079-.059 5.592 4.473 3.032 3.494-.674 1.677-5.543-1.25c-18.148 22.177-27.648 33.616-28.502 34.315s-6.997 5.514-18.432 14.445zm0-457.23 11.5-20.499c.674-1.024 9.864-12.032 27.57-33.022l1.379-3.575 4.079-.059 5.592 4.473 3.032 3.494-.674 1.678-5.543-1.251c-18.148 22.178-27.648 33.616-28.502 34.315-.853.699-6.997 5.514-18.432 14.445zm284.565 407.316 11.5-20.498c.673-1.025 9.863-12.032 27.57-33.022l1.378-3.576 4.079-.058 5.592 4.472 3.032 3.495-.674 1.677-5.543-1.251c-18.148 22.178-27.648 33.616-28.502 34.315-.853.699-6.997 5.514-18.432 14.446zm-168.903-407.317 11.5-20.498c.674-1.024 9.864-12.032 27.57-33.022l1.378-3.575 4.08-.059 5.592 4.473 3.032 3.494-.674 1.678-5.544-1.251c-18.147 22.178-27.648 33.616-28.501 34.315-.854.699-6.998 5.514-18.433 14.445zm-319.446-57.154 11.5-20.497c.674-1.025 9.864-12.033 27.57-33.022l1.378-3.576 4.08-.058 5.591 4.472 3.032 3.495-.673 1.677-5.544-1.251c-18.148 22.178-27.648 33.616-28.501 34.315s-6.998 5.514-18.433 14.445zm541.59 57.154 11.5-20.498c.673-1.024 9.863-12.032 27.57-33.022l1.378-3.575 4.079-.059 5.592 4.473 3.032 3.494-.674 1.678-5.543-1.251c-18.148 22.178-27.648 33.616-28.502 34.315-.853.699-6.997 5.514-18.432 14.445zm-453.467 114.308 11.5-20.498c.674-1.025 9.864-12.032 27.57-33.022l1.378-3.575 4.08-.059 5.592 4.473 3.031 3.494-.673 1.677-5.544-1.25c-18.147 22.177-27.648 33.616-28.501 34.314-.854.7-6.998 5.514-18.433 14.446zm-53.24 235.855 11.499-20.498c.674-1.025 9.864-12.032 27.57-33.022l1.378-3.575 4.08-.06 5.591 4.474 3.032 3.494-.673 1.677-5.544-1.25c-18.147 22.177-27.648 33.615-28.501 34.314-.854.7-6.998 5.514-18.433 14.446zm168.902-578.778 11.5-20.498c.673-1.025 9.863-12.032 27.57-33.022l1.378-3.575 4.079-.059 5.592 4.473 3.032 3.494-.674 1.677-5.543-1.25c-18.148 22.177-27.648 33.616-28.502 34.314-.853.7-6.997 5.514-18.432 14.446zm231.323 457.23 11.5-20.497c.673-1.025 9.863-12.032 27.57-33.022l1.378-3.576 4.079-.058 5.592 4.472 3.032 3.495-.674 1.677-5.543-1.251c-18.148 22.178-27.648 33.616-28.502 34.315-.853.699-6.997 5.514-18.432 14.446zm0-457.23 11.5-20.498c.673-1.025 9.863-12.032 27.57-33.022l1.378-3.575 4.079-.059 5.592 4.473 3.032 3.494-.674 1.677-5.543-1.25c-18.148 22.177-27.648 33.616-28.502 34.314-.853.7-6.997 5.514-18.432 14.446zm-400.226 457.23 11.5-20.497c.674-1.025 9.864-12.032 27.57-33.022l1.378-3.576 4.08-.058 5.591 4.472 3.032 3.495-.673 1.677-5.544-1.251c-18.147 22.178-27.648 33.616-28.501 34.315-.854.699-6.998 5.514-18.433 14.446zm346.985 114.308 11.5-20.497c.673-1.025 9.863-12.033 27.57-33.022l1.378-3.576 4.079-.059 5.592 4.473 3.032 3.494-.674 1.678-5.543-1.251c-18.148 22.178-27.648 33.616-28.502 34.315-.853.699-6.997 5.514-18.432 14.445zm1607.723-85.538 11.5-20.498c.673-1.025 9.863-12.032 27.57-33.022l1.378-3.575 4.079-.059 5.592 4.473 3.032 3.494-.674 1.677-5.543-1.25c-18.148 22.177-27.648 33.616-28.502 34.314-.853.7-6.997 5.514-18.432 14.446zm-662.759 0 11.5-20.498c.673-1.025 9.863-12.032 27.57-33.022l1.378-3.575 4.079-.059 5.592 4.473 3.032 3.494-.674 1.677-5.543-1.25c-18.148 22.177-27.648 33.616-28.502 34.314-.853.7-6.997 5.514-18.432 14.446zm271.713 457.23 11.5-20.497c.673-1.025 9.863-12.032 27.57-33.022l1.378-3.576 4.079-.058 5.592 4.472 3.032 3.495-.674 1.677-5.543-1.251c-18.148 22.178-27.648 33.616-28.502 34.315s-6.997 5.514-18.432 14.446zm53.24 228.616 11.5-20.498c.674-1.025 9.864-12.032 27.57-33.022l1.379-3.575 4.079-.059 5.592 4.473 3.032 3.494-.674 1.677-5.543-1.25c-18.148 22.177-27.648 33.616-28.502 34.315s-6.997 5.514-18.432 14.445zm0-457.23 11.5-20.499c.674-1.024 9.864-12.032 27.57-33.022l1.379-3.575 4.079-.059 5.592 4.473 3.032 3.494-.674 1.678-5.543-1.251c-18.148 22.178-27.648 33.616-28.502 34.315s-6.997 5.514-18.432 14.445zm284.565 407.316 11.5-20.498c.673-1.025 9.863-12.032 27.57-33.022l1.378-3.576 4.079-.058 5.592 4.472 3.032 3.495-.674 1.677-5.543-1.251c-18.148 22.178-27.648 33.616-28.502 34.315-.853.699-6.997 5.514-18.432 14.446zm-168.903-407.317 11.5-20.498c.674-1.024 9.864-12.032 27.57-33.022l1.378-3.575 4.08-.059 5.592 4.473 3.032 3.494-.674 1.678-5.544-1.251c-18.147 22.178-27.648 33.616-28.501 34.315s-6.998 5.514-18.433 14.445zm-319.446-57.154 11.5-20.497c.674-1.025 9.864-12.033 27.57-33.022l1.378-3.576 4.08-.058 5.591 4.472 3.032 3.495-.673 1.677-5.544-1.251c-18.148 22.178-27.648 33.616-28.501 34.315s-6.998 5.514-18.433 14.445zm541.59 57.154 11.5-20.498c.673-1.024 9.863-12.032 27.57-33.022l1.378-3.575 4.079-.059 5.592 4.473 3.032 3.494-.674 1.678-5.543-1.251c-18.148 22.178-27.648 33.616-28.502 34.315s-6.997 5.514-18.432 14.445zm-453.467 114.308 11.5-20.498c.674-1.025 9.864-12.032 27.57-33.022l1.378-3.575 4.08-.059 5.592 4.473 3.031 3.494-.673 1.677-5.544-1.25c-18.147 22.177-27.648 33.616-28.501 34.314-.854.7-6.998 5.514-18.433 14.446zm-53.24 235.855 11.499-20.498c.674-1.025 9.864-12.032 27.57-33.022l1.378-3.575 4.08-.06 5.591 4.474 3.032 3.494-.673 1.677-5.544-1.25c-18.147 22.177-27.648 33.615-28.501 34.314s-6.998 5.514-18.433 14.446zm506.707-235.855 11.5-20.498c.673-1.025 9.863-12.032 27.57-33.022l1.378-3.575 4.079-.059 5.592 4.473 3.032 3.494-.674 1.677-5.543-1.25c-18.148 22.177-27.648 33.616-28.502 34.314-.853.7-6.997 5.514-18.432 14.446zm-337.805-342.923 11.5-20.498c.673-1.025 9.863-12.032 27.57-33.022l1.378-3.575 4.079-.059 5.592 4.473 3.032 3.494-.674 1.677-5.543-1.25c-18.148 22.177-27.648 33.616-28.502 34.314-.853.7-6.997 5.514-18.432 14.446zm231.323 457.23 11.5-20.497c.673-1.025 9.863-12.032 27.57-33.022l1.378-3.576 4.079-.058 5.592 4.472 3.032 3.495-.674 1.677-5.543-1.251c-18.148 22.178-27.648 33.616-28.502 34.315s-6.997 5.514-18.432 14.446zm0-457.23 11.5-20.498c.673-1.025 9.863-12.032 27.57-33.022l1.378-3.575 4.079-.059 5.592 4.473 3.032 3.494-.674 1.677-5.543-1.25c-18.148 22.177-27.648 33.616-28.502 34.314-.853.7-6.997 5.514-18.432 14.446zm-400.226 457.23 11.5-20.497c.674-1.025 9.864-12.032 27.57-33.022l1.378-3.576 4.08-.058 5.591 4.472 3.032 3.495-.673 1.677-5.544-1.251c-18.147 22.178-27.648 33.616-28.501 34.315s-6.998 5.514-18.433 14.446zm346.985 114.308 11.5-20.497c.673-1.025 9.863-12.033 27.57-33.022l1.378-3.576 4.079-.059 5.592 4.473 3.032 3.494-.674 1.678-5.543-1.251c-18.148 22.178-27.648 33.616-28.502 34.315-.853.699-6.997 5.514-18.432 14.445z" fill="url(#b)" fill-rule="nonzero" opacity=".1" transform="translate(-890)"/></g></svg>