<svg width="500" height="500" xmlns="http://www.w3.org/2000/svg" xmlns:xlink="http://www.w3.org/1999/xlink"><defs><path id="a" d="M.274 109.074 63.582 0h126.889l63.307 109.074v68.615l-61.085 230.175H67.54L0 177.689z"/><path id="e" d="m63.582 0 20.006 31.164-50.975 90.211L.274 109.074z"/><path id="g" d="M169.916 31.164 190.471 0l63.307 109.074-32.887 12.301z"/><path id="i" d="m32.613 121.375 63.856 201.199-22.199 39.091L.274 109.074z"/><path id="k" d="m160.872 322.574 60.019-201.199 32.887-12.301-68.514 252.591z"/><path id="m" d="M63.582 0h126.889l-20.555 31.164H83.588z"/><path id="o" d="m160.872 322.574 24.392 39.091H74.27l22.199-39.091z"/><path id="q" d="M.274 109.074 74.27 361.665l-6.73 46.199L0 177.689z"/><path id="s" d="m185.264 361.665 7.429 46.199H67.54l6.73-46.199z"/><path id="u" d="m185.264 361.665 68.514-252.591v68.615l-61.085 230.175z"/><path id="w" d="M83.588 31.164h86.328l50.975 90.211-60.019 201.199H96.469L32.613 121.375z"/><path d="m0 112 23.385-40.168c1.37-2.008 20.058-23.579 56.063-64.71L82.252.114 90.546 0l11.372 8.765 6.166 6.847-1.37 3.287-11.273-2.451c-36.904 43.46-56.223 65.875-57.958 67.244C35.747 85.062 23.253 94.498 0 112Z" id="x"/><filter x="-20.7%" y="-12.9%" width="141.4%" height="125.7%" filterUnits="objectBoundingBox" id="b"><feOffset in="SourceAlpha" result="shadowOffsetOuter1"/><feGaussianBlur stdDeviation="17.5" in="shadowOffsetOuter1" result="shadowBlurOuter1"/><feColorMatrix values="0 0 0 0 0 0 0 0 0 0 0 0 0 0 0 0 0 0 0.3 0" in="shadowBlurOuter1"/></filter><filter x="-63%" y="-43.3%" width="226%" height="186.5%" filterUnits="objectBoundingBox" id="d"><feOffset in="SourceAlpha" result="shadowOffsetOuter1"/><feGaussianBlur stdDeviation="17.5" in="shadowOffsetOuter1" result="shadowBlurOuter1"/><feComposite in="shadowBlurOuter1" in2="SourceAlpha" operator="out" result="shadowBlurOuter1"/><feColorMatrix values="0 0 0 0 0.117647059 0 0 0 0 0.00784313725 0 0 0 0 0.219607843 0 0 0 0.3 0" in="shadowBlurOuter1"/></filter><filter x="-62.6%" y="-43.3%" width="225.2%" height="186.5%" filterUnits="objectBoundingBox" id="f"><feOffset in="SourceAlpha" result="shadowOffsetOuter1"/><feGaussianBlur stdDeviation="17.5" in="shadowOffsetOuter1" result="shadowBlurOuter1"/><feComposite in="shadowBlurOuter1" in2="SourceAlpha" operator="out" result="shadowBlurOuter1"/><feColorMatrix values="0 0 0 0 0.117647059 0 0 0 0 0.00784313725 0 0 0 0 0.219607843 0 0 0 0.3 0" in="shadowBlurOuter1"/></filter><filter x="-54.6%" y="-20.8%" width="209.2%" height="141.6%" filterUnits="objectBoundingBox" id="h"><feOffset in="SourceAlpha" result="shadowOffsetOuter1"/><feGaussianBlur stdDeviation="17.5" in="shadowOffsetOuter1" result="shadowBlurOuter1"/><feComposite in="shadowBlurOuter1" in2="SourceAlpha" operator="out" result="shadowBlurOuter1"/><feColorMatrix values="0 0 0 0 0.117647059 0 0 0 0 0.00784313725 0 0 0 0 0.219607843 0 0 0 0.3 0" in="shadowBlurOuter1"/></filter><filter x="-56.5%" y="-20.8%" width="213%" height="141.6%" filterUnits="objectBoundingBox" id="j"><feOffset in="SourceAlpha" result="shadowOffsetOuter1"/><feGaussianBlur stdDeviation="17.5" in="shadowOffsetOuter1" result="shadowBlurOuter1"/><feComposite in="shadowBlurOuter1" in2="SourceAlpha" operator="out" result="shadowBlurOuter1"/><feColorMatrix values="0 0 0 0 0.117647059 0 0 0 0 0.00784313725 0 0 0 0 0.219607843 0 0 0 0.3 0" in="shadowBlurOuter1"/></filter><filter x="-41.4%" y="-168.5%" width="182.7%" height="436.9%" filterUnits="objectBoundingBox" id="l"><feOffset in="SourceAlpha" result="shadowOffsetOuter1"/><feGaussianBlur stdDeviation="17.5" in="shadowOffsetOuter1" result="shadowBlurOuter1"/><feComposite in="shadowBlurOuter1" in2="SourceAlpha" operator="out" result="shadowBlurOuter1"/><feColorMatrix values="0 0 0 0 0.117647059 0 0 0 0 0.00784313725 0 0 0 0 0.219607843 0 0 0 0.3 0" in="shadowBlurOuter1"/></filter><filter x="-47.3%" y="-134.3%" width="194.6%" height="368.6%" filterUnits="objectBoundingBox" id="n"><feOffset in="SourceAlpha" result="shadowOffsetOuter1"/><feGaussianBlur stdDeviation="17.5" in="shadowOffsetOuter1" result="shadowBlurOuter1"/><feComposite in="shadowBlurOuter1" in2="SourceAlpha" operator="out" result="shadowBlurOuter1"/><feColorMatrix values="0 0 0 0 0.117647059 0 0 0 0 0.00784313725 0 0 0 0 0.219607843 0 0 0 0.3 0" in="shadowBlurOuter1"/></filter><filter x="-70.7%" y="-17.6%" width="241.4%" height="135.1%" filterUnits="objectBoundingBox" id="p"><feOffset in="SourceAlpha" result="shadowOffsetOuter1"/><feGaussianBlur stdDeviation="17.5" in="shadowOffsetOuter1" result="shadowBlurOuter1"/><feComposite in="shadowBlurOuter1" in2="SourceAlpha" operator="out" result="shadowBlurOuter1"/><feColorMatrix values="0 0 0 0 0.117647059 0 0 0 0 0.00784313725 0 0 0 0 0.219607843 0 0 0 0.3 0" in="shadowBlurOuter1"/></filter><filter x="-41.9%" y="-113.6%" width="183.9%" height="327.3%" filterUnits="objectBoundingBox" id="r"><feOffset in="SourceAlpha" result="shadowOffsetOuter1"/><feGaussianBlur stdDeviation="17.5" in="shadowOffsetOuter1" result="shadowBlurOuter1"/><feComposite in="shadowBlurOuter1" in2="SourceAlpha" operator="out" result="shadowBlurOuter1"/><feColorMatrix values="0 0 0 0 0.117647059 0 0 0 0 0.00784313725 0 0 0 0 0.219607843 0 0 0 0.3 0" in="shadowBlurOuter1"/></filter><filter x="-76.6%" y="-17.6%" width="253.3%" height="135.1%" filterUnits="objectBoundingBox" id="t"><feOffset in="SourceAlpha" result="shadowOffsetOuter1"/><feGaussianBlur stdDeviation="17.5" in="shadowOffsetOuter1" result="shadowBlurOuter1"/><feComposite in="shadowBlurOuter1" in2="SourceAlpha" operator="out" result="shadowBlurOuter1"/><feColorMatrix values="0 0 0 0 0.117647059 0 0 0 0 0.00784313725 0 0 0 0 0.219607843 0 0 0 0.3 0" in="shadowBlurOuter1"/></filter><filter x="-27.9%" y="-18%" width="155.8%" height="136%" filterUnits="objectBoundingBox" id="v"><feOffset in="SourceAlpha" result="shadowOffsetOuter1"/><feGaussianBlur stdDeviation="17.5" in="shadowOffsetOuter1" result="shadowBlurOuter1"/><feComposite in="shadowBlurOuter1" in2="SourceAlpha" operator="out" result="shadowBlurOuter1"/><feColorMatrix values="0 0 0 0 0.117647059 0 0 0 0 0.00784313725 0 0 0 0 0.219607843 0 0 0 0.3 0" in="shadowBlurOuter1"/></filter></defs><g fill="none" fill-rule="evenodd"><path fill="#3A086B" d="m127.496 163.476 63.307-109.074h126.889L381 163.476v68.615l-61.085 230.175H194.762l-67.54-230.175z"/><g transform="translate(119 38)"><mask id="c" fill="#fff"><use xlink:href="#a"/></mask><use fill="#000" filter="url(#b)" xlink:href="#a"/><use fill="#444" xlink:href="#a"/><g mask="url(#c)"><use fill="#000" filter="url(#d)" xlink:href="#e"/><path stroke-opacity=".2" stroke="#1E0238" stroke-width="2" d="M63.625 1.918 1.73 108.558l30.435 11.577 50.256-88.938L63.625 1.918Z" stroke-linejoin="square" fill="#591794"/></g><g mask="url(#c)"><use fill="#000" filter="url(#f)" xlink:href="#g"/><path stroke-opacity=".2" stroke="#1E0238" stroke-width="2" d="m171.088 31.204 50.253 88.935 30.978-11.587L190.416 1.899l-19.328 29.305Z" stroke-linejoin="square" fill="#591794"/></g><g mask="url(#c)"><use fill="#000" filter="url(#h)" xlink:href="#i"/><path stroke-opacity=".2" stroke="#1E0238" stroke-width="2" d="M31.806 122.138 1.799 110.724l72.767 248.395 20.817-36.66-63.577-200.32Z" stroke-linejoin="square" fill="#591794"/></g><g mask="url(#c)"><use fill="#000" filter="url(#j)" xlink:href="#k"/><path stroke-opacity=".2" stroke="#1E0238" stroke-width="2" d="m161.96 322.427 22.939 36.764 67.404-248.498-30.596 11.445-59.747 200.29Z" stroke-linejoin="square" fill="#591794"/></g><g mask="url(#c)"><use fill="#000" filter="url(#l)" xlink:href="#m"/><path stroke-opacity=".2" stroke="#1E0238" stroke-width="2" d="m65.412 1 18.722 29.164h85.244L188.613 1H65.412Z" stroke-linejoin="square" fill="#591794"/></g><g mask="url(#c)"><use fill="#000" filter="url(#n)" xlink:href="#o"/><path stroke-opacity=".2" stroke="#1E0238" stroke-width="2" d="M160.318 323.574H97.05l-21.063 37.091H183.46l-23.143-37.091Z" stroke-linejoin="square" fill="#591794"/></g><g mask="url(#c)"><use fill="#000" filter="url(#p)" xlink:href="#q"/><path stroke-opacity=".2" stroke="#1E0238" stroke-width="2" d="M1.247 115.95 1 177.548 67.21 403.19l6.038-41.452L1.247 115.95Z" stroke-linejoin="square" fill="#591794"/></g><g mask="url(#c)"><use fill="#000" filter="url(#r)" xlink:href="#s"/><path stroke-opacity=".2" stroke="#1E0238" stroke-width="2" d="M184.412 362.665H75.135l-6.439 44.2H191.52l-7.107-44.2Z" stroke-linejoin="square" fill="#591794"/></g><g mask="url(#c)"><use fill="#000" filter="url(#t)" xlink:href="#u"/><path stroke-opacity=".2" stroke="#1E0238" stroke-width="2" d="m186.285 361.72 6.648 41.34 59.845-225.502V116.58l-66.493 245.14Z" stroke-linejoin="square" fill="#591794"/></g><g mask="url(#c)"><use fill="#000" filter="url(#v)" xlink:href="#w"/><path stroke-opacity=".2" stroke="#1E0238" stroke-width="2" d="m84.171 32.164-50.473 89.324L97.2 321.574h62.927l59.684-200.077-50.478-89.333H84.17Z" stroke-linejoin="square" fill="#591794"/></g></g><path d="M191.077 227.99c14.197-24.666 21.979-38 23.347-40 1.362-1.992 19.869-23.301 55.52-63.928a4 4 0 0 0 .706-1.149l1.552-3.868a4 4 0 0 1 3.657-2.511l4.225-.058a4 4 0 0 1 2.494.828l9.962 7.66a4 4 0 0 1 .532.49l4.723 5.233c.726.804.922 1.954.505 2.953a2.071 2.071 0 0 1-2.407 1.213l-6.956-1.713a4 4 0 0 0-4.003 1.293c-35.916 42.234-54.728 64.024-56.436 65.368-1.732 1.363-14.206 10.76-37.42 28.19Z" fill="#1E0238"/><g transform="translate(189.981 112.356)"><path d="M.56 115.357c14.22-24.77 22.014-38.16 23.384-40.168 1.37-2.009 20.058-23.579 56.064-64.711l2.803-7.007 8.295-.114 11.372 8.764 6.165 6.848-1.37 3.287-11.098-2.74C59.155 63.17 39.777 85.68 38.042 87.05c-1.736 1.37-14.23 10.805-37.483 28.308Z" fill="#1E0238"/><mask id="y" fill="#fff"><use xlink:href="#x"/></mask><use fill="#EDE9F1" fill-rule="nonzero" xlink:href="#x"/><path d="M23.385 71.832C24.755 69.825 43.459 48.23 79.5 7.05l1.507 1.232C48.28 50.995 31.05 73.037 29.315 74.406l-5.93-2.574Z" mask="url(#y)"/><path mask="url(#y)" d="M29.315 74.406 81.036 8.28l8.922 5.201-54.042 60.365z"/><path d="M35.916 73.846c.756-1.109 18.755-21.211 53.995-60.308l5.53 2.91c-36.904 43.46-56.223 65.875-57.958 67.244l-1.567-9.846Z" mask="url(#y)"/><path d="m38.713 78.881 55.17-63.888 1.558 1.455C58.538 59.907 39.218 82.322 37.483 83.692l1.23-4.81ZM0 112l23.385-40.168-10.294 26.406z" mask="url(#y)"/><path mask="url(#y)" d="m13.091 98.238 10.294-26.406 5.93 2.574-8.056 15.552z"/><path mask="url(#y)" d="m21.24 89.975 8.075-15.569 6.601-.56 1.567 9.846z"/><path d="m0 112 13.09-13.762 8.169-8.28 9.622-8.727 7.832-2.35-1.23 4.811C35.75 85.064 23.257 94.5 0 112ZM79.441 7.125l2.803-7.01L90.542 0l11.375 8.769 6.167 6.852-1.371 3.288-11.272-2.461-5.585-2.883-8.908-5.207z" mask="url(#y)"/><path mask="url(#y)" d="m79.441 7.125 22.476 1.644 6.167 6.852-1.371 3.288-11.272-2.461-5.585-2.883-8.908-5.207z"/><path mask="url(#y)" d="m79.441 7.125 2.803-7.01 13.197 16.333-5.585-2.883-8.908-5.207z"/></g></g></svg>