<svg width="500" height="500" xmlns="http://www.w3.org/2000/svg" xmlns:xlink="http://www.w3.org/1999/xlink"><defs><filter x="-20.7%" y="-12.9%" width="141.4%" height="125.7%" filterUnits="objectBoundingBox" id="c"><feOffset in="SourceAlpha" result="shadowOffsetOuter1"/><feGaussianBlur stdDeviation="17.5" in="shadowOffsetOuter1" result="shadowBlurOuter1"/><feColorMatrix values="0 0 0 0 0 0 0 0 0 0 0 0 0 0 0 0 0 0 0.3 0" in="shadowBlurOuter1"/></filter><filter x="-63%" y="-43.3%" width="226%" height="186.5%" filterUnits="objectBoundingBox" id="e"><feOffset in="SourceAlpha" result="shadowOffsetOuter1"/><feGaussianBlur stdDeviation="17.5" in="shadowOffsetOuter1" result="shadowBlurOuter1"/><feComposite in="shadowBlurOuter1" in2="SourceAlpha" operator="out" result="shadowBlurOuter1"/><feColorMatrix values="0 0 0 0 0.389775815 0 0 0 0 0 0 0 0 0 0.152437076 0 0 0 0.3 0" in="shadowBlurOuter1"/></filter><filter x="-62.6%" y="-43.3%" width="225.2%" height="186.5%" filterUnits="objectBoundingBox" id="g"><feOffset in="SourceAlpha" result="shadowOffsetOuter1"/><feGaussianBlur stdDeviation="17.5" in="shadowOffsetOuter1" result="shadowBlurOuter1"/><feComposite in="shadowBlurOuter1" in2="SourceAlpha" operator="out" result="shadowBlurOuter1"/><feColorMatrix values="0 0 0 0 0.389775815 0 0 0 0 0 0 0 0 0 0.152437076 0 0 0 0.3 0" in="shadowBlurOuter1"/></filter><filter x="-54.6%" y="-20.8%" width="209.2%" height="141.6%" filterUnits="objectBoundingBox" id="i"><feOffset in="SourceAlpha" result="shadowOffsetOuter1"/><feGaussianBlur stdDeviation="17.5" in="shadowOffsetOuter1" result="shadowBlurOuter1"/><feComposite in="shadowBlurOuter1" in2="SourceAlpha" operator="out" result="shadowBlurOuter1"/><feColorMatrix values="0 0 0 0 0.389775815 0 0 0 0 0 0 0 0 0 0.152437076 0 0 0 0.3 0" in="shadowBlurOuter1"/></filter><filter x="-56.5%" y="-20.8%" width="213%" height="141.6%" filterUnits="objectBoundingBox" id="k"><feOffset in="SourceAlpha" result="shadowOffsetOuter1"/><feGaussianBlur stdDeviation="17.5" in="shadowOffsetOuter1" result="shadowBlurOuter1"/><feComposite in="shadowBlurOuter1" in2="SourceAlpha" operator="out" result="shadowBlurOuter1"/><feColorMatrix values="0 0 0 0 0.389775815 0 0 0 0 0 0 0 0 0 0.152437076 0 0 0 0.3 0" in="shadowBlurOuter1"/></filter><filter x="-41.4%" y="-168.5%" width="182.7%" height="436.9%" filterUnits="objectBoundingBox" id="m"><feOffset in="SourceAlpha" result="shadowOffsetOuter1"/><feGaussianBlur stdDeviation="17.5" in="shadowOffsetOuter1" result="shadowBlurOuter1"/><feComposite in="shadowBlurOuter1" in2="SourceAlpha" operator="out" result="shadowBlurOuter1"/><feColorMatrix values="0 0 0 0 0.389775815 0 0 0 0 0 0 0 0 0 0.152437076 0 0 0 0.3 0" in="shadowBlurOuter1"/></filter><filter x="-47.3%" y="-134.3%" width="194.6%" height="368.6%" filterUnits="objectBoundingBox" id="o"><feOffset in="SourceAlpha" result="shadowOffsetOuter1"/><feGaussianBlur stdDeviation="17.5" in="shadowOffsetOuter1" result="shadowBlurOuter1"/><feComposite in="shadowBlurOuter1" in2="SourceAlpha" operator="out" result="shadowBlurOuter1"/><feColorMatrix values="0 0 0 0 0.389775815 0 0 0 0 0 0 0 0 0 0.152437076 0 0 0 0.3 0" in="shadowBlurOuter1"/></filter><filter x="-70.7%" y="-17.6%" width="241.4%" height="135.1%" filterUnits="objectBoundingBox" id="q"><feOffset in="SourceAlpha" result="shadowOffsetOuter1"/><feGaussianBlur stdDeviation="17.5" in="shadowOffsetOuter1" result="shadowBlurOuter1"/><feComposite in="shadowBlurOuter1" in2="SourceAlpha" operator="out" result="shadowBlurOuter1"/><feColorMatrix values="0 0 0 0 0.389775815 0 0 0 0 0 0 0 0 0 0.152437076 0 0 0 0.3 0" in="shadowBlurOuter1"/></filter><filter x="-41.9%" y="-113.6%" width="183.9%" height="327.3%" filterUnits="objectBoundingBox" id="s"><feOffset in="SourceAlpha" result="shadowOffsetOuter1"/><feGaussianBlur stdDeviation="17.5" in="shadowOffsetOuter1" result="shadowBlurOuter1"/><feComposite in="shadowBlurOuter1" in2="SourceAlpha" operator="out" result="shadowBlurOuter1"/><feColorMatrix values="0 0 0 0 0.389775815 0 0 0 0 0 0 0 0 0 0.152437076 0 0 0 0.3 0" in="shadowBlurOuter1"/></filter><filter x="-76.6%" y="-17.6%" width="253.3%" height="135.1%" filterUnits="objectBoundingBox" id="u"><feOffset in="SourceAlpha" result="shadowOffsetOuter1"/><feGaussianBlur stdDeviation="17.5" in="shadowOffsetOuter1" result="shadowBlurOuter1"/><feComposite in="shadowBlurOuter1" in2="SourceAlpha" operator="out" result="shadowBlurOuter1"/><feColorMatrix values="0 0 0 0 0.389775815 0 0 0 0 0 0 0 0 0 0.152437076 0 0 0 0.3 0" in="shadowBlurOuter1"/></filter><filter x="-27.9%" y="-18%" width="155.8%" height="136%" filterUnits="objectBoundingBox" id="w"><feOffset in="SourceAlpha" result="shadowOffsetOuter1"/><feGaussianBlur stdDeviation="17.5" in="shadowOffsetOuter1" result="shadowBlurOuter1"/><feComposite in="shadowBlurOuter1" in2="SourceAlpha" operator="out" result="shadowBlurOuter1"/><feColorMatrix values="0 0 0 0 0.389775815 0 0 0 0 0 0 0 0 0 0.152437076 0 0 0 0.3 0" in="shadowBlurOuter1"/></filter><path id="b" d="M.274 109.074 63.582 0h126.889l63.307 109.074v68.615l-61.085 230.175H67.54L0 177.689z"/><path id="f" d="m63.582 0 20.006 31.164-50.975 90.211L.274 109.074z"/><path id="h" d="M169.916 31.164 190.471 0l63.307 109.074-32.887 12.301z"/><path id="j" d="m32.613 121.375 63.856 201.199-22.199 39.091L.274 109.074z"/><path id="l" d="m160.872 322.574 60.019-201.199 32.887-12.301-68.514 252.591z"/><path id="n" d="M63.582 0h126.889l-20.555 31.164H83.588z"/><path id="p" d="m160.872 322.574 24.392 39.091H74.27l22.199-39.091z"/><path id="r" d="M.274 109.074 74.27 361.665l-6.73 46.199L0 177.689z"/><path id="t" d="m185.264 361.665 7.429 46.199H67.54l6.73-46.199z"/><path id="v" d="m185.264 361.665 68.514-252.591v68.615l-61.085 230.175z"/><path id="x" d="M83.588 31.164h86.328l50.975 90.211-60.019 201.199H96.469L32.613 121.375z"/><linearGradient x1="50%" y1="0%" x2="50%" y2="100%" id="a"><stop stop-color="#CC0251" offset="0%"/><stop stop-color="#630027" offset="100%"/></linearGradient></defs><g fill="none" fill-rule="evenodd"><circle fill="url(#a)" cx="250" cy="250" r="250"/><path fill="#630027" d="m127.496 163.476 63.307-109.074h126.889L381 163.476v68.615l-61.085 230.175H194.762l-67.54-230.175z"/><g transform="translate(119 38)"><mask id="d" fill="#fff"><use xlink:href="#b"/></mask><use fill="#000" filter="url(#c)" xlink:href="#b"/><use fill="#444" xlink:href="#b"/><g mask="url(#d)"><use fill="#000" filter="url(#e)" xlink:href="#f"/><path stroke-opacity=".2" stroke="#630027" stroke-width="2" d="M63.625 1.918 1.73 108.558l30.435 11.577 50.256-88.938L63.625 1.918Z" stroke-linejoin="square" fill="#CC0251"/></g><g mask="url(#d)"><use fill="#000" filter="url(#g)" xlink:href="#h"/><path stroke-opacity=".2" stroke="#630027" stroke-width="2" d="m171.088 31.204 50.253 88.935 30.978-11.587L190.416 1.899l-19.328 29.305Z" stroke-linejoin="square" fill="#CC0251"/></g><g mask="url(#d)"><use fill="#000" filter="url(#i)" xlink:href="#j"/><path stroke-opacity=".2" stroke="#630027" stroke-width="2" d="M31.806 122.138 1.799 110.724l72.767 248.395 20.817-36.66-63.577-200.32Z" stroke-linejoin="square" fill="#CC0251"/></g><g mask="url(#d)"><use fill="#000" filter="url(#k)" xlink:href="#l"/><path stroke-opacity=".2" stroke="#630027" stroke-width="2" d="m161.96 322.427 22.939 36.764 67.404-248.498-30.596 11.445-59.747 200.29Z" stroke-linejoin="square" fill="#CC0251"/></g><g mask="url(#d)"><use fill="#000" filter="url(#m)" xlink:href="#n"/><path stroke-opacity=".2" stroke="#630027" stroke-width="2" d="m65.412 1 18.722 29.164h85.244L188.613 1H65.412Z" stroke-linejoin="square" fill="#CC0251"/></g><g mask="url(#d)"><use fill="#000" filter="url(#o)" xlink:href="#p"/><path stroke-opacity=".2" stroke="#630027" stroke-width="2" d="M160.318 323.574H97.05l-21.063 37.091H183.46l-23.143-37.091Z" stroke-linejoin="square" fill="#CC0251"/></g><g mask="url(#d)"><use fill="#000" filter="url(#q)" xlink:href="#r"/><path stroke-opacity=".2" stroke="#630027" stroke-width="2" d="M1.247 115.95 1 177.548 67.21 403.19l6.038-41.452L1.247 115.95Z" stroke-linejoin="square" fill="#CC0251"/></g><g mask="url(#d)"><use fill="#000" filter="url(#s)" xlink:href="#t"/><path stroke-opacity=".2" stroke="#630027" stroke-width="2" d="M184.412 362.665H75.135l-6.439 44.2H191.52l-7.107-44.2Z" stroke-linejoin="square" fill="#CC0251"/></g><g mask="url(#d)"><use fill="#000" filter="url(#u)" xlink:href="#v"/><path stroke-opacity=".2" stroke="#630027" stroke-width="2" d="m186.285 361.72 6.648 41.34 59.845-225.502V116.58l-66.493 245.14Z" stroke-linejoin="square" fill="#CC0251"/></g><g mask="url(#d)"><use fill="#000" filter="url(#w)" xlink:href="#x"/><path stroke-opacity=".2" stroke="#630027" stroke-width="2" d="m84.171 32.164-50.473 89.324L97.2 321.574h62.927l59.684-200.077-50.478-89.333H84.17Z" stroke-linejoin="square" fill="#CC0251"/></g></g><path d="M275.037 123.29c.395 1.159.809 2.31 1.173 3.48 8.09 1.077 16.263-.44 24.098-2.422-5.67 5.355-5.909 13.756-6.58 21.011-4.792.824-9.766 2.643-12.695 6.758-4.36 5.928-4.159 13.788-2.986 20.716-3.738-.29-7.909-.736-11.152 1.586-4.14 2.932-5.287 8.407-5.256 13.195 1.418.913 3.004 1.737 3.99 3.16.633.968-.346 1.85-.873 2.573-1.06-.315-2.113-.63-3.173-.937.276 4.31 1.38 8.545 1.323 12.88-2.804-3.542-4.685-7.733-7.702-11.131-1.035.78-2.051 1.586-3.105 2.34-.69-.528-1.863-1.038-1.568-2.12.339-1.22 1.091-2.272 1.693-3.366-3.412-3.36-8.241-6.023-13.146-4.89-4.516.944-7.784 4.493-10.494 7.998-2.05-4.046-5.03-8.073-9.596-9.357-5.645-1.642-11.372.692-16.258 3.423-2.823-3.329-6.43-6.104-10.707-7.199-3.148-.956-6.466-.856-9.715-.73 8.354-4.832 15.241-11.93 20.44-20.023-.626-1.076-1.254-2.152-1.88-3.222.651-.547 1.203-1.743 2.245-1.34 1.568 1 2.772 2.46 4.19 3.65 7.915 6.865 18.051 11.364 28.563 11.792 1.33.006 3.193.176 3.701-1.41 1.21-4.109-.332-8.356-.897-12.446 1.298 1.227 2.54 2.523 3.939 3.65 2.264-1.454 4.861-2.197 7.47-2.744.314-1.662.364-3.36.433-5.04 1.731 2.787 3.023 6.072 5.758 8.054 1.349.787 2.59-.573 3.425-1.498 6.322-7.381 11.516-16.19 12.858-25.97.527-3.404-.082-6.815-.1-10.225a23.566 23.566 0 0 1 2.584-.195Z" fill="#630027"/><path d="M243.076 168.1c-.65-1.097.58-1.955 1.305-2.572 1.236 1.204 2.403 2.483 3.355 3.92-1.583-.006-3.872.486-4.66-1.348ZM254.096 163.766c-.326-1.243-1.785-1.047-2.725-1.014-.005 1.715.092 3.44.45 5.136 1.092-1.067 3.027-2.243 2.275-4.122Z"/><g><path d="M272.022 120.284c.395 1.157.81 2.309 1.173 3.48 8.091 1.076 16.264-.441 24.098-2.423-5.67 5.355-5.909 13.756-6.58 21.011-4.792.824-9.766 2.643-12.695 6.758-4.359 5.928-4.158 13.788-2.985 20.716-3.739-.29-7.91-.736-11.152 1.586-4.14 2.932-5.288 8.407-5.257 13.195 1.418.913 3.005 1.737 3.99 3.16.633.968-.345 1.85-.872 2.573-1.06-.315-2.114-.63-3.174-.938.276 4.311 1.38 8.546 1.323 12.882-2.803-3.543-4.685-7.734-7.702-11.132-1.035.78-2.051 1.586-3.105 2.34-.69-.528-1.863-1.038-1.568-2.12.339-1.22 1.092-2.272 1.694-3.366-3.412-3.36-8.242-6.023-13.147-4.89-4.516.944-7.784 4.493-10.493 7.998-2.051-4.046-5.03-8.073-9.597-9.357-5.645-1.643-11.372.692-16.258 3.423-2.822-3.329-6.429-6.104-10.706-7.199-3.15-.956-6.467-.856-9.716-.73 8.355-4.832 15.241-11.93 20.441-20.023-.627-1.076-1.254-2.152-1.881-3.222.652-.547 1.204-1.743 2.245-1.34 1.568 1 2.772 2.46 4.19 3.65 7.915 6.865 18.051 11.364 28.564 11.792 1.33.006 3.192.176 3.7-1.41 1.21-4.109-.332-8.356-.897-12.446 1.299 1.227 2.54 2.523 3.94 3.65 2.264-1.454 4.86-2.197 7.47-2.744.313-1.662.363-3.36.432-5.04 1.732 2.787 3.024 6.072 5.758 8.054 1.349.786 2.59-.573 3.425-1.498 6.322-7.381 11.516-16.19 12.858-25.97.527-3.404-.081-6.815-.1-10.225a23.566 23.566 0 0 1 2.584-.195Z" fill="#EDE9F1" fill-rule="nonzero"/><path d="M240.061 165.093c-.65-1.097.58-1.955 1.306-2.572 1.235 1.204 2.402 2.483 3.354 3.92-1.583-.006-3.872.486-4.66-1.348ZM251.081 160.76c-.326-1.244-1.785-1.048-2.725-1.015-.004 1.715.093 3.44.45 5.136 1.092-1.067 3.027-2.243 2.275-4.122Z" fill="#630027"/></g><path d="M191.077 227.99c14.197-24.666 21.979-38 23.347-40 1.362-1.992 19.869-23.301 55.52-63.928a4 4 0 0 0 .706-1.149l1.552-3.868a4 4 0 0 1 3.657-2.511l4.225-.058a4 4 0 0 1 2.494.828l9.962 7.66a4 4 0 0 1 .532.49l4.723 5.233c.726.804.922 1.954.505 2.953a2.071 2.071 0 0 1-2.407 1.213l-6.956-1.713a4 4 0 0 0-4.003 1.293c-35.916 42.234-54.728 64.024-56.436 65.368-1.732 1.363-14.206 10.76-37.42 28.19Z"/></g></svg>