<svg height="1816" width="3399" xmlns="http://www.w3.org/2000/svg" xmlns:xlink="http://www.w3.org/1999/xlink"><defs><filter id="a" height="120.7%" width="107%" x="-3.5%" y="-6.6%"><feOffset dy="10" in="SourceAlpha" result="shadowOffsetOuter1"/><feGaussianBlur in="shadowOffsetOuter1" result="shadowBlurOuter1" stdDeviation="7.5"/><feColorMatrix in="shadowBlurOuter1" values="0 0 0 0 0.141176471 0 0 0 0 0.141176471 0 0 0 0 0.141176471 0 0 0 0.15 0"/></filter><filter id="c" height="104.4%" width="103.1%" x="-1.6%" y="-1.4%"><feOffset dy="10" in="SourceAlpha" result="shadowOffsetOuter1"/><feGaussianBlur in="shadowOffsetOuter1" result="shadowBlurOuter1" stdDeviation="7.5"/><feColorMatrix in="shadowBlurOuter1" values="0 0 0 0 0.141176471 0 0 0 0 0.141176471 0 0 0 0 0.141176471 0 0 0 0.15 0"/></filter><path id="b" d="M2689 716c-76.767-87.695-139.974-176.362-189.619-266-213.726 94.944-412.187 157.73-595.381 188.357 407.607-55.129 613.7-59.723 785 77.643z"/><path id="d" d="M1555.348 0c-64.21 39.733-113.132 117.67-146.766 233.813-128.42 293.411-36.691 348.426-36.691 357.595-.55 9.17-5.137 22.923-32.656 45.846C1137.433 591.408 938.688 528.752 743 449.287 587.062 724.36 339.395 990.265 0 1247c61.744-6.431 507.168-448.015 775.105-545.563C1043.043 603.89 1199.37 769 1392 769s370.414-40.83 375-50-186.406 22.493-268.962-18.768c-28.717-14.353 41.486-100.08 25.897-103.625-28.823-6.553-43.455-12.818-46.556-14.368-9.173-4.585-7.027-36.266 4.586-68.768 11.613-32.503 32.105-59.6 41.278-59.6 3.802 0-18.346-45.845-9.173-100.86 13.76-96.276 48.396-108.93 55.037-142.121 4.586-22.923 6.268-77.769-.19-74.684-19.225 9.183-75.44 35.792-82.366 24.254-15.288-24.451 7.644-77.938 68.797-160.46z"/></defs><g fill="none" fill-rule="evenodd"><path d="M1967.268 473.43c-1.231-8.22-13.742-27.54-32.065-36.721 45.808-41.312 64.131-50.493 64.131-64.263 21.377-15.3 24.431-27.541 9.162-36.722-3.054-33.661-29.012-61.203-77.874-82.623-50.39-100.985-114.52-82.624-128.263-87.214-18.323-4.59-4.58-91.805 18.323-146.887-123.682 68.853-96.197 156.067-119.101 146.887-119.102-50.493-128.263 22.95-142.006 0-9.161-15.301-3.054-64.263 18.324-146.887-64.132 39.782-112.994 117.815-146.587 234.1-128.263 293.774-36.646 348.856-36.646 358.037s-4.581 18.36-32.066 41.311c-.13.109-274.85-45.902-595.507-183.608C614.4 744.253 367.035 1010.485 25 1267.536c274.85 0 522.214-9.18 705.447 348.856 171.017-153.007 332.873-229.51 485.567-229.51 152.694 0 313.023 137.706 480.986 413.118 183.247-274.333 351.214-411.769 503.901-412.309s306.904 75.694 462.652 228.7c183.233-358.035 430.598-348.855 705.447-348.855-409.22-257.051-690.177-523.283-842.871-798.696-213.772 94.864-412.274 156.067-595.507 183.608-13.743-9.18-36.804-20.452-27.642-25.042 36.709-18.392 46.683-31.935 41.77-54.863 6.392-16.852 28.664-47.493 31.94-69.602.476-3.207-8.146-.692-8.19-4.095-.106-8.204 0-17.195-1.232-25.416z" fill="#444"/><g fill-rule="nonzero" transform="translate(25 19)"><g fill="#242424"><path d="M2612 895c89.017 154.883 136.446 331.68 142.285 530.39 52.838-58.094 109.38-97.124 169.016-123.341 65.496-28.793 134.725-42.131 206.88-48.291C2895.71 1159.703 2722.984 1040.118 2612 895zM1780.555 1632.282c141.541-175.296 273.323-263.16 395.346-263.59 77.361-.274 155.116 19.16 233.263 58.304C2485.254 1465.11 2180 1298 2059 895c-15 316-314.013 781.333-278.445 737.282zM1259 895c-68 376-397.175 577.121-321.931 539.08 87.29-44.132 171.939-66.199 253.945-66.199 123.546 0 252.09 90.151 385.634 270.453C1608.153 1680.872 1313 1266 1259 895zM211.65 1253.575c71.632 5.969 140.391 18.918 205.493 46.927 60.123 25.868 117.126 64.58 170.39 122.5C527.844 1314.335 530.667 1138.334 596 895c-51.333 196-179.45 315.525-384.35 358.575zM1469 999.5c34 9.667 90.667 14.667 170 15s136-4.667 170-15c10 .333 30-9.167 60-28.5-15 2-103.653 19.667-140.48 19.75-36.84.083-80.52-10.75-80.52-82.75v-75c0-10-3-20-9-30 0 6.667-3 16.667-9 30v75c0 73-43.667 82.833-80.5 82.75-24.556-.056-71.389-6.639-140.5-19.75 30 19.333 50 28.833 60 28.5z"/></g><use fill="#000" filter="url(#a)" xlink:href="#b"/><use fill="#242424" xlink:href="#b"/><use fill="#000" filter="url(#c)" xlink:href="#d"/><use fill="#242424" xlink:href="#d"/><path d="M1801.491 419.027c-4.565 18.419 4.565 55.256 18.26 82.884C1892.786 460.47 1943 460.47 1943 455.864c0-4.604-9.13-23.023-27.389-32.232-9.13-9.21-54.777 13.814-54.777 0 3.043-67.536-25.868-130.467-86.732-188.793-12.172-36.837-25.867-61.396-41.083-73.675-10.052-8.112 32.824-11.986 27.389-13.814-18.26-4.605-9.13-101.303 36.518-147.35-123.25 69.07-95.86 156.56-118.684 147.35 54.777 55.256 50.212 73.675 50.212 96.699 0 6.402 70.626 73.59 41.084 128.931-18.26 32.233-82.167 27.628-114.12 13.814s-50.213-23.023-77.602-46.047c-4.565 4.605 0 41.442 9.13 46.047 54.777 46.047 168.897 23.024 173.462 18.419 12.254 12.443 27.389 13.814 41.083 13.814z" fill="#242424"/></g><path d="M1949.754 435.84a1157.623 1157.623 0 0 1 17.633-15.23c1.991-1.689 15.712-13.224 18.943-16.003 12.638-10.87 18.022-16.756 20.606-23.974a23.6 23.6 0 0 0 .911-3.254c10.335-7.884 16.587-15.423 18.534-23.228 2.241-8.983-1.369-16.89-9.418-22.975-4.913-34.682-31.871-62.75-79.646-84.301-10.25-20.02-21.512-36.299-33.7-49.18-16.071-16.985-33.301-27.667-51.636-33.413-12.833-4.023-21.854-5.024-38.568-5.548-2.844-.089-4.298-.154-5.59-.263-1.13-.096-1.877-.213-2.213-.305a6.644 6.644 0 0 1-.452-.851c-.864-1.9-1.56-4.99-1.952-9.066-.836-8.696-.225-20.98 1.75-35.398 4.036-29.464 13.203-64.179 24.05-90.262L1838.398 0l-21.377 11.9c-19.44 10.82-36.054 22.534-50.108 35.07-22.113 19.727-37.207 40.74-47.434 63.436-3.8 8.433-6.743 16.63-9.485 25.834-.896 3.009-4.341 15.457-5.148 17.95-.46 1.418-.875 2.55-1.26 3.437-31.082-12.98-56.973-18.601-78.714-18.014-17.745.48-31.654 4.905-44.24 12.547-3.531 2.144-11.128 7.552-13.559 9.202-3.049-5.817-3.63-20.27-.882-42.301 3-24.058 9.803-56.621 20.408-97.606l5.312-20.53-18.022 11.178c-66.093 40.996-115.998 120.59-150.119 238.415-41.53 95.211-62.977 171.869-67.795 232.536-3.726 46.91 2.534 81.416 15.737 107.314 3.587 7.036 7.15 12.509 11.679 18.526.52.692 2.127 2.801 2.046 2.695.478.63.825 1.095 1.097 1.473-.858 6.854-7.37 15.077-27.99 32.375-.745.315-1.524.622-2.283.892-.904.323-1.701.564-2.291.695a8.396 8.396 0 0 1-.053.012c-38.608-7.529-115.986-26.307-200.283-50.533-129.177-37.125-259.33-82.189-382.723-135.176l-7.061-3.032-3.727 6.72C608.06 739.272 361.496 1004.623 20.352 1260.986L0 1276.28h25.459c5.592 0 10.085-.002 20.068-.01 98.996-.082 141.694.78 193.782 5.265 68.059 5.86 125.896 17.564 178.93 37.548 124.026 46.735 222.578 140.157 305.106 301.403l5.02 9.81 8.214-7.348c169.59-151.718 329.57-227.33 479.904-227.33 148.915 0 307.162 135.908 473.733 409.018l6.931 11.364 7.394-11.069c181.824-272.181 347.798-407.976 496.868-408.503 150.194-.531 302.393 74.699 456.67 226.25l8.252 8.106 5.27-10.298c82.528-161.246 181.08-254.668 305.107-301.403 53.034-19.984 110.87-31.688 178.93-37.548 52.087-4.484 94.785-5.347 193.781-5.266 9.983.009 14.477.011 20.069.011H3399l-24.99-15.696c-408.108-256.334-688.057-521.592-839.967-795.569l-3.771-6.802-7.11 3.155c-211.869 94.013-408.585 154.828-590.13 182.476-1.809-1.154-3.991-2.498-7.688-4.757l-.666-.408c-4.948-3.026-8.296-5.15-10.714-6.855 33.105-17.727 44.388-33.587 40.087-58.134 1.173-2.714 2.829-6.028 5.084-10.221 1.709-3.178 8.406-15.212 8.855-16.028 2.623-4.77 4.726-8.731 6.64-12.556 5.975-11.931 9.65-21.673 10.944-30.404.764-5.154-2.236-9.123-6.462-10.706a12.932 12.932 0 0 0-1.695-.504c-.035-3.21-.07-5.024-.144-7.248-.17-5.123-.511-9.475-1.123-13.556-1.611-10.754-12.59-26.236-26.396-36.627zm9.676 91.434c-1.804 3.602-3.811 7.382-6.338 11.978-.396.721-7.152 12.86-8.93 16.166-3.214 5.976-5.395 10.474-6.885 14.4l-.89 2.344.526 2.452c3.952 18.437-3.835 28.73-37.266 45.48-4.952 2.48-7.784 7.293-6.482 12.832.79 3.356 2.805 6.003 5.866 8.754 3.553 3.192 7.772 5.994 16.777 11.5l.67.41c5.483 3.351 7.484 4.598 9.898 6.21l2.733 1.827 3.252-.489c182.006-27.355 378.867-87.73 590.603-181.095 151.151 268.776 423.575 528.454 817.164 779.223-92.93-.018-134.876.936-185.948 5.333-69.506 5.984-128.831 17.99-183.467 38.577-125.493 47.288-225.62 140.71-308.952 299.359-154.444-149.1-307.938-223.645-460.412-223.106-154.22.545-321.733 135.922-503.553 405.058-166.859-270.165-326.974-405.868-481.313-405.868-152.602 0-313.606 74.953-483.05 224.386-83.38-158.934-183.582-252.495-309.2-299.829-54.635-20.587-113.96-32.593-183.466-38.577-51.8-4.46-94.213-5.378-189.957-5.332 329.728-250.884 569.901-510.628 720.445-779.304 122.002 51.987 250.32 96.274 377.684 132.877 85.337 24.525 163.677 43.512 202.523 51.036 4.92.952 14.46-2.45 17.056-4.619 26.636-22.24 35.118-33.926 35.118-47.833 0-2.98-.961-4.932-2.88-7.695a70.823 70.823 0 0 0-1.773-2.412c.055.072-1.523-2-2.009-2.645-3.983-5.292-7.033-9.977-10.116-16.024-11.73-23.008-17.42-54.377-13.935-98.248 4.663-58.713 25.68-133.755 66.65-227.588l.222-.509.154-.533c29.742-102.947 71.387-175.017 124.638-216.48-17.54 72.036-21.781 114.664-11.832 131.279.79 1.321 1.618 2.488 2.513 3.516 5.56 6.394 12.54 6.566 19.671 2.418 1.867-1.086 11.303-7.861 14.517-9.813 10.159-6.168 21.223-9.688 35.877-10.084 19.522-.528 43.631 4.801 73.403 17.422l.156.064c5.76 2.309 11.437 1.519 15.718-2.657 2.837-2.766 4.595-6.401 6.41-12.01.943-2.912 4.465-15.638 5.268-18.332 2.54-8.528 5.235-16.032 8.692-23.704 9.27-20.573 22.962-39.634 43.251-57.734 7.913-7.059 16.733-13.863 26.524-20.398-7.518 22.902-13.524 48.523-16.642 71.287-2.139 15.612-2.81 29.124-1.83 39.331.557 5.79 1.645 10.617 3.4 14.476 2.288 5.032 5.832 8.654 10.74 10.006 2.925.936 5.634 1.154 12.457 1.368 15.262.478 23.062 1.344 34.016 4.777 15.585 4.885 30.309 14.013 44.371 28.875 11.543 12.199 22.326 27.993 32.224 47.829l1.375 2.754 2.818 1.235c46.306 20.299 70.095 45.537 72.823 75.602l.39 4.295 3.695 2.222c4.726 2.84 5.795 4.715 5.294 6.723-.92 3.685-5.83 9.22-15.023 15.8l-3.553 2.543v4.369a6.19 6.19 0 0 1-.38 2.155c-1.22 3.411-5.35 7.926-15.687 16.816-3.144 2.704-16.793 14.18-18.85 15.923-9.229 7.824-17.502 15.022-26.408 23.053l-9.243 8.335 11.128 5.575c7.254 3.634 14.106 9.508 19.598 16.412 4.467 5.615 7.478 11.353 7.87 13.968.502 3.348.794 7.083.945 11.605.084 2.538.115 4.557.158 9.224.015 1.674.023 2.48.036 3.436.06 4.662 2.927 7.952 6.736 9.419-1.59 5.273-4.188 11.424-7.783 18.604z" fill="#000" fill-rule="nonzero"/><path d="M517.258 1380.755H304.985V881.509h212.273c127.513 0 204.021 55.472 204.021 141.268 0 53.993-28.503 90.974-72.757 110.204 45.004 14.793 76.508 45.857 76.508 106.506 0 93.192-84.01 141.268-207.772 141.268zm-76.22-394.906v81.887h81.738c39.355 0 58.276-15.398 58.276-42.693 0-23.796-18.164-39.194-58.276-39.194zm-1.322 207.359v76.603h82.591c39.766 0 62.708-10.64 62.708-38.302 0-29.79-22.942-38.301-62.708-38.301zm272.105 187.547 128.816-422.933c18.509-61.801 70.331-90.84 122.154-90.84 51.823 0 103.646 29.039 122.154 90.84l128.816 422.933H1073.84l-22.95-84.885H875.433l-23.69 84.885zm253.566-384.933-46.186 172.291h103.03l-45.475-172.29c-1.421-5.133-2.842-7.332-5.684-7.332s-4.264 2.199-5.685 7.331zm610.3-114.313v125.736H1432.41v373.51h-138.775v-373.51h-143.277V881.51zm-72.65 499.246 128.817-422.933c18.508-61.801 70.33-90.84 122.153-90.84 51.823 0 103.646 29.039 122.154 90.84l128.817 422.933h-139.922l-22.95-84.885H1666.65l-23.69 84.885zM1750 995.822l-46.186 172.291h103.03l-45.475-172.29c-1.421-5.133-2.842-7.332-5.684-7.332-2.843 0-4.264 2.199-5.685 7.331zM2185.725 1390c-94.31 0-167.99-39.263-201.882-113.345l113.466-57.044c14 30.374 41.998 44.45 88.416 44.45 36.102 0 63.364-11.113 63.364-34.819 0-29.633-29.472-34.078-74.416-40.745-74.416-11.112-183.462-40.004-183.462-159.276 0-91.862 81.784-162.24 192.303-162.24 86.942 0 160.621 39.264 194.514 113.346l-113.467 57.043c-13.999-24.447-40.523-44.45-86.941-44.45-32.419 0-50.102 10.372-50.102 31.115 0 28.151 32.419 37.041 81.047 44.45 73.68 11.111 176.83 39.263 176.83 159.275 0 91.862-89.151 162.24-199.67 162.24zm351.063-11.47h-139.504l66.042-420.36c9.646-59.31 51.2-91.189 111.306-91.189 51.943 0 95.724 22.241 109.823 77.845l68.268 265.412 67.526-263.188c14.099-55.603 59.364-80.069 112.79-80.069 58.622 0 98.693 32.62 107.597 93.414L3100 1378.53h-138.762l-40.07-352.895-79.4 289.136c-12.614 44.483-47.49 65.983-89.045 65.983-40.812 0-77.915-20.759-89.045-63.017l-78.657-292.844z" fill="#1b330b"/><path d="M505.37 1368.868H293.097V869.623H505.37c127.513 0 204.021 55.471 204.021 141.268 0 53.992-28.503 90.973-72.757 110.203 45.004 14.793 76.508 45.857 76.508 106.506 0 93.192-84.01 141.268-207.772 141.268zm-76.22-394.906v81.887h81.738c39.355 0 58.276-15.397 58.276-42.693 0-23.796-18.164-39.194-58.276-39.194zm-1.322 207.359v76.604h82.591c39.766 0 62.708-10.64 62.708-38.302 0-29.79-22.942-38.302-62.708-38.302zm272.105 187.547 128.816-422.933c18.508-61.801 70.331-90.84 122.154-90.84s103.645 29.039 122.154 90.84l128.816 422.933h-139.921l-22.95-84.884H863.545l-23.69 84.884zm253.566-384.933-46.186 172.291h103.03l-45.475-172.29c-1.421-5.133-2.842-7.332-5.684-7.332-2.843 0-4.264 2.2-5.685 7.331zm610.3-114.312v125.735h-143.277v373.51h-138.775v-373.51H1138.47V869.623zm-72.65 499.245 128.817-422.933c18.508-61.801 70.33-90.84 122.153-90.84 51.823 0 103.646 29.039 122.154 90.84l128.817 422.933h-139.922l-22.95-84.884h-175.457l-23.69 84.884zm246.962-384.933-46.186 172.291h103.03l-45.475-172.29c-1.421-5.133-2.842-7.332-5.684-7.332-2.843 0-4.264 2.2-5.685 7.331zm435.726 394.178c-94.31 0-167.99-39.263-201.882-113.345l113.466-57.043c14 30.373 41.998 44.449 88.416 44.449 36.102 0 63.364-11.112 63.364-34.819 0-29.633-29.472-34.077-74.416-40.745-74.416-11.112-183.462-40.004-183.462-159.276 0-91.862 81.784-162.24 192.303-162.24 86.942 0 160.621 39.264 194.514 113.346l-113.467 57.043c-13.999-24.447-40.523-44.45-86.941-44.45-32.42 0-50.102 10.372-50.102 31.115 0 28.151 32.419 37.041 81.047 44.45 73.68 11.112 176.83 39.263 176.83 159.276 0 91.861-89.151 162.24-199.67 162.24zm351.063-11.47h-139.504l66.042-420.36c9.646-59.31 51.2-91.189 111.306-91.189 51.943 0 95.724 22.242 109.823 77.845l68.268 265.412 67.526-263.188c14.099-55.603 59.364-80.069 112.79-80.069 58.622 0 98.693 32.62 107.597 93.414l59.364 418.136H2949.35l-40.07-352.895-79.4 289.136c-12.614 44.483-47.49 65.983-89.045 65.983-40.812 0-77.915-20.759-89.045-63.017l-78.657-292.844z" fill="#4e832c"/><path d="M492.828 1355.66h-212.94V856.415h212.94c127.915 0 204.664 55.472 204.664 141.268 0 53.992-28.593 90.974-72.987 110.204 45.146 14.792 76.749 45.856 76.749 106.505 0 93.193-84.273 141.268-208.426 141.268zM415.94 960.755v81.887h82.51c39.727 0 58.826-15.398 58.826-42.694 0-23.796-18.335-39.193-58.826-39.193zm-1.32 207.358v76.604h82.59c39.766 0 62.708-10.64 62.708-38.302 0-29.79-22.942-38.302-62.708-38.302zm272.104 187.547L815.54 932.728c18.509-61.802 70.331-90.841 122.154-90.841s103.646 29.04 122.154 90.84l128.816 422.933h-139.921l-22.95-84.884H850.336l-23.69 84.884zM940.29 970.728l-46.186 172.29h103.03l-45.475-172.29c-1.421-5.132-2.842-7.332-5.684-7.332-2.843 0-4.264 2.2-5.685 7.332zm610.3-114.313v125.736h-143.277v373.51h-138.775V982.15H1125.26V856.415zm-72.65 499.245 128.817-422.932c18.508-61.802 70.33-90.841 122.153-90.841 51.823 0 103.646 29.04 122.154 90.84l128.817 422.933h-139.922l-22.95-84.884h-175.457l-23.69 84.884zm248.283-384.932-46.186 172.29h103.03l-45.475-172.29c-1.421-5.132-2.842-7.332-5.684-7.332-2.843 0-4.264 2.2-5.685 7.332zm435.069 394.178c-94.62 0-168.542-39.264-202.546-113.346l113.84-57.043c14.045 30.374 42.135 44.45 88.706 44.45 36.221 0 63.572-11.113 63.572-34.82 0-29.632-29.568-34.077-74.66-40.744-74.661-11.113-184.066-40.005-184.066-159.277 0-91.861 82.053-162.24 192.936-162.24 87.228 0 161.15 39.264 195.153 113.346l-113.84 57.043c-14.044-24.447-40.656-44.449-87.227-44.449-32.525 0-50.266 10.372-50.266 31.115 0 28.15 32.525 37.04 81.313 44.449 73.922 11.112 177.412 39.263 177.412 159.276 0 91.862-89.445 162.24-200.327 162.24zm350.661-11.47h-139.766l66.166-420.36c9.664-59.31 51.297-91.19 111.516-91.19 52.04 0 95.903 22.242 110.029 77.845l68.396 265.413 67.653-263.189c14.125-55.603 59.475-80.068 113.003-80.068 58.732 0 98.877 32.62 107.799 93.413l59.475 418.136H2937.2l-40.146-352.895-79.548 289.137c-12.639 44.482-47.58 65.982-89.213 65.982-40.889 0-78.061-20.758-89.213-63.017L2560.277 999.8z" fill="#78bc4d"/><path d="M480.273 1343.774H268V844.528h212.273c127.513 0 204.021 55.472 204.021 141.268 0 53.993-28.503 90.974-72.757 110.204 45.004 14.792 76.508 45.857 76.508 106.506 0 93.192-84.01 141.268-207.772 141.268zm-76.22-394.906v81.887h81.738c39.355 0 58.276-15.398 58.276-42.693 0-23.797-18.164-39.194-58.276-39.194zm-1.322 207.358v76.604h82.591c39.766 0 62.708-10.64 62.708-38.302 0-29.79-22.942-38.302-62.708-38.302zm272.105 187.548L803.652 920.84C822.16 859.04 873.983 830 925.806 830s103.645 29.04 122.154 90.841l128.816 422.933h-139.921l-22.95-84.885H838.448l-23.69 84.885zM928.402 958.84l-46.186 172.291h103.03l-45.475-172.291c-1.421-5.132-2.842-7.332-5.684-7.332-2.843 0-4.264 2.2-5.685 7.332zm610.3-114.313v125.736h-143.277v373.51H1256.65v-373.51h-143.277V844.528zm-72.65 499.246L1594.87 920.84c18.508-61.802 70.33-90.841 122.153-90.841 51.823 0 103.646 29.04 122.154 90.841l128.817 422.933H1828.07l-22.95-84.885h-175.457l-23.69 84.885zm246.962-384.933-46.186 172.291h103.03l-45.475-172.291c-1.421-5.132-2.842-7.332-5.684-7.332s-4.264 2.2-5.685 7.332zm435.726 394.178c-94.31 0-167.99-39.264-201.882-113.346l113.466-57.043c14 30.374 41.998 44.45 88.416 44.45 36.102 0 63.364-11.113 63.364-34.82 0-29.632-29.472-34.077-74.416-40.744-74.416-11.112-183.462-40.004-183.462-159.276 0-91.862 81.784-162.24 192.303-162.24 86.942 0 160.621 39.263 194.514 113.345l-113.467 57.044c-13.999-24.447-40.523-44.45-86.941-44.45-32.42 0-50.102 10.372-50.102 31.115 0 28.151 32.419 37.04 81.047 44.449 73.68 11.112 176.83 39.263 176.83 159.276 0 91.862-89.152 162.24-199.67 162.24zm351.063-11.47h-139.504l66.041-420.36c9.647-59.31 51.202-91.189 111.307-91.189 51.943 0 95.724 22.241 109.823 77.844l68.268 265.413 67.526-263.188c14.099-55.604 59.364-80.069 112.79-80.069 58.622 0 98.693 32.62 107.597 93.413l59.364 418.136h-138.762l-40.07-352.895-79.4 289.137c-12.614 44.483-47.49 65.983-89.045 65.983-40.813 0-77.915-20.759-89.045-63.017l-78.657-292.844z" fill="#eff4ed" fill-rule="nonzero"/><path d="M1901.737 630.118c-279.47 28.865-391.875-17.703-401.038-22.514-9.163-4.81-7.02-38.055 4.581-72.162 11.6-34.108 32.07-62.542 41.233-62.542s251.98 33.676 297.795 48.109C1917.612 477.711 1965.7 472 1967.34 472c3.28 4.118 1.699 27.166 1.64 28-.155 2.174 8.342 1.836 8.203 4.118-.549 8.784-11.243 32.054-32.083 69.81 6.626 20.44-7.828 39.17-43.363 56.19z" fill="#78bc4d"/><path d="M1556.025 500.51c-36.69 13.741-59.685 72.588 3.706 123.017.298.238-56.207-16.301-59-17.696-9.215-4.602-7.059-40.478 4.608-73.106 11.667-32.628 32.255-59.829 41.47-59.829 9.216 0 253.43 32.216 299.508 46.022 73.725-41.42 124.411-41.42 124.411-46.022 0-.781.51 4.745 1.532 16.58-52.218 11.033-102.904 43.249-121.335 43.249-78.333 0-258.037-46.022-294.9-32.216z" fill="#4e832c"/><path d="m1904.977 636.882-1.175.562-1.295.134c-123.729 12.78-224.377 12.01-303.654 1.344-28.856-3.882-53.165-8.88-72.973-14.496-13.576-3.849-24.046-7.755-28.668-10.181-8.15-4.28-10.546-15.716-9.494-32.214.912-14.291 4.622-31.835 10.462-49.004 5.708-16.785 13.815-33.164 22.424-45.856 9.244-13.63 17.869-21.77 25.91-21.77 5.851 0 74.108 9.321 136.274 18.726 78.434 11.865 137.128 22.143 160.535 28.765 31.58-18.41 60.846-31.375 87.09-39.768 17.088-5.464 32.43-8.624 36.927-8.624h3.614l2.252 2.827c3.015 3.785 3.694 9.776 3.706 19.896.003 2.607-.059 5.298-.167 7.966.777.21 1.382.415 2.085.709 1.208.504 2.282 1.143 3.274 2.111 1.703 1.663 2.723 3.97 2.565 6.576-.636 10.18-10.96 32.846-31.519 70.273 5.677 23.636-11.347 44.385-48.173 62.024zm32.989-60.641-1.002-3.092 1.57-2.845c16.734-30.316 26.87-51.345 30.073-61.679a15.13 15.13 0 0 1-1.291-.468c-1.188-.488-2.245-1.106-3.23-2.052-1.734-1.665-2.775-4.002-2.587-6.637.056-.791.14-2.22.218-3.952.125-2.78.198-5.596.195-8.276-.003-2.57-.077-4.874-.226-6.808-.775.147-1.59.307-2.44.483-6.936 1.428-15.083 3.56-24.264 6.497-25.966 8.303-55.17 21.337-86.86 40.055l-2.878 1.7-3.19-1.005c-19.74-6.218-80.221-16.906-161.51-29.204-59.274-8.967-126.662-18.187-133.682-18.547a5.402 5.402 0 0 0-.52.27c-.898.52-2.046 1.412-3.358 2.65-2.962 2.796-6.41 7.016-9.966 12.26-7.848 11.57-15.357 26.741-20.637 42.265-5.432 15.972-8.87 32.228-9.693 45.13-.384 6.022-.172 11.028.57 14.572.314 1.499.702 2.625 1.091 3.328.054.097.101.174.14.232 1.318.655 3.915 1.755 7.231 2.992 5.023 1.874 11.136 3.868 18.252 5.885 19.11 5.418 42.72 10.273 70.881 14.061 77.784 10.466 176.82 11.257 298.808-1.264 31.691-15.412 43.396-30.846 38.305-46.551z" fill="#000" fill-rule="nonzero"/><g fill="#000" fill-rule="nonzero"><path d="M1600.552 263.783a8.5 8.5 0 1 0 5.02 16.242c38.51-11.904 87.82-14.907 147.882-8.873l2.314.233 2.111-.979c38.054-17.645 80.56-22.063 127.76-13.171a8.5 8.5 0 0 0 3.147-16.707c-49.706-9.363-95.093-4.895-135.929 13.483-61.127-5.939-111.879-2.725-152.305 9.772zM1804.717 157.5c-16.891 0-33.667 5.056-50.219 15.034a8.5 8.5 0 0 0 8.777 14.56c14.002-8.441 27.78-12.594 41.442-12.594a8.5 8.5 0 0 0 0-17z"/></g><g><path d="M1851.013 546.942c69.78 0 102.162-39.868 133.235-33.187 27.565 4.74-18.378 42.67-22.972 47.41-4.594 4.742 13.783 23.706-13.783 33.188-39.29 11.263-105.668 18.965-151.611 14.223s-73.509-14.223-119.452-23.705c-45.943-9.482-105.668 4.741-119.451-9.482-27.566-28.447 13.783-56.893 50.537-56.893s173.717 28.446 243.497 28.446z" fill="#dd503c"/><g fill="#000" fill-rule="nonzero"><path d="M1965.663 571.025c1.38 5.33 1.892 8.978 1.312 13.255-1.26 9.285-7.837 16.207-20.334 20.582-42.675 12.477-109.404 19.322-153.534 14.677-20.736-2.182-38.338-5.315-60.274-10.366 3.581.825-43.82-10.548-59.369-13.82-9.316-1.962-19.789-3.002-31.976-3.335-9.002-.247-16.808-.142-31.816.287-39.345 1.125-50.29.286-58.696-8.561-15.64-16.463-14.024-35.599 1.406-50.215 12.81-12.136 33.934-19.917 53.786-19.917 15.108 0 8.755-.905 109.917 14.524 10.492 1.6 19.608 2.96 28.304 4.213 46.435 6.692 79.99 10.162 104.315 10.162 26.43 0 47.656-5.485 73.311-16.69a570.349 570.349 0 0 0 8.278-3.705l3.99-1.82c1.608-.735 2.77-1.263 3.906-1.776 6.27-2.83 10.712-4.699 15.012-6.245 11.304-4.064 20.522-5.32 29.34-3.381 9.789 1.717 15.364 7.93 14.338 16.872-.663 5.784-4.046 11.921-9.62 18.962-2.388 3.015-5.154 6.148-8.264 9.41-3.738 3.921-10.99 10.846-14.127 13.794.134.545.367 1.443.795 3.093zm-13.993.905c-.303-1.24-.51-2.265-.64-3.282-.465-3.641.107-6.896 2.648-9.571-.275.29 10.99-10.31 15.626-15.173 2.831-2.97 5.317-5.786 7.408-8.426 3.999-5.051 6.28-9.188 6.538-11.443.053-.463.163-.34-3.237-.942-6.308-1.383-13.195-.444-22.374 2.856-3.9 1.402-8.063 3.154-14.04 5.851a988.028 988.028 0 0 0-3.854 1.752c-1.976.902-3.03 1.384-4.001 1.826a582.767 582.767 0 0 1-8.467 3.79c-27.187 11.873-50.094 17.793-78.573 17.793-25.127 0-59.155-3.52-106.177-10.296a3467.444 3467.444 0 0 1-28.411-4.229c-98.915-15.086-93.92-14.374-107.948-14.374-16.594 0-34.428 6.57-44.602 16.207-9.854 9.335-10.667 18.958-.882 29.257 4.178 4.398 15.653 5.278 48.615 4.335 15.244-.435 23.227-.543 32.546-.288 12.912.353 24.133 1.468 34.311 3.61 15.762 3.318 63.352 14.736 59.611 13.874 21.454 4.94 38.55 7.983 58.706 10.104 42.381 4.461 107.409-2.21 148.16-14.114 7.606-2.669 10.303-5.508 10.751-8.81.242-1.783-.042-3.832-.948-7.342.124.48-.604-2.299-.766-2.965z"/><path d="M1586.462 561.746c39.406-3.103 72.62-1.558 99.606 4.582 7.778 1.77 14.612 3.492 22.668 5.662 1.447.39 2.89.782 4.784 1.298 2.32.635 3.543.969 4.59 1.253 3.642.992 6.286 1.696 8.9 2.365 18.53 4.738 34.667 7.11 61.856 8.503 52.92 3.187 106.404 2.445 168.562-10.283 3.753-.769 6.187-4.506 5.436-8.349-.75-3.842-4.401-6.334-8.154-5.566-61.044 12.5-113.351 13.144-165.09 10.028-26.372-1.35-41.618-3.592-59.251-8.1a571.087 571.087 0 0 1-8.699-2.312l-4.58-1.25c-1.907-.52-3.364-.916-4.829-1.31-8.215-2.213-15.216-3.978-23.186-5.791-28.455-6.474-63.001-8.082-103.676-4.878-3.816.3-6.672 3.711-6.378 7.618.293 3.907 3.625 6.83 7.44 6.53zM1515.41 578.423c6.944 19.815 26.54 41.95 48.38 51.074 3.444 1.438 7.35-.311 8.728-3.907 1.377-3.595-.297-7.676-3.74-9.114-18.184-7.596-35.086-26.688-40.757-42.872-1.274-3.637-5.13-5.506-8.613-4.175-3.482 1.33-5.272 5.358-3.997 8.994z"/></g></g><g fill="#000" fill-rule="nonzero"><path d="M1936.185 430.237c-50.817 8.998-93.868 7.509-129.191-4.306a8.5 8.5 0 1 0-5.393 16.122c38.26 12.797 84.123 14.384 137.549 4.923a8.5 8.5 0 1 0-2.965-16.74zM1812.768 370.088a8.5 8.5 0 0 0-16.941-1.407c-2.777 33.433-12.872 49.894-29.527 52.282l-.196.03c-53.53 8.953-97.724 4.518-132.755-13.058a8.5 8.5 0 0 0-7.624 15.195c38.53 19.332 86.285 24.132 143.09 14.646 26.203-3.812 40.602-27.337 43.953-67.688z"/></g><g transform="translate(1600 298)"><path d="M8 54.667C8 31.333 62.398 8 107.73 8c86.13 0 94.108 25.368 95.197 46.667C204.016 75.965 193.86 92 112.263 92 53.332 92 8 78 8 54.667zM414 50c0 23.333-45.158 42-103.77 42-81.153 0-100.27-11.368-99.187-32.667C212.126 38.035 229.077 8 314.739 8 359.825 8 414 26.667 414 50z" fill="#fff"/><ellipse cx="95.5" cy="50" fill="#000" fill-rule="nonzero" rx="42.5" ry="42"/><ellipse cx="306.5" cy="50" fill="#000" fill-rule="nonzero" rx="42.5" ry="42"/><ellipse cx="83" cy="40.5" fill="#fff" rx="6" ry="5.5"/><ellipse cx="286" cy="34.5" fill="#fff" rx="6" ry="5.5"/><g fill="#000" fill-rule="nonzero"><path d="M5 57.571C5 30.066 60.64 5 110.205 5c74.253 0 98.908 17.075 100.72 52.211C212.534 88.465 188.661 101 114.681 101 50.554 101 5 85.495 5 57.571zm13.43 0c0 16.268 39.506 29.715 96.252 29.715 67.3 0 83.894-8.714 82.83-29.354-.617-11.971-3.66-19.193-12.575-25.367-12.8-8.863-36.68-13.85-74.732-13.85-42.955 0-91.775 21.992-91.775 38.856z"/><path d="M422 53c0 28.524-49.363 48-111.793 48-80.09 0-108.668-10.303-107.15-39.218C204.873 27.192 238.848 5 314.767 5 367.415 5 422 25.903 422 53zm-13.68 0c0-15.92-47.958-34.286-93.553-34.286-38.617 0-64.993 5.892-80.785 16.207-11.57 7.558-16.705 16.942-17.264 27.582-.887 16.901 20.976 24.783 93.489 24.783 55.456 0 98.113-16.83 98.113-34.286z"/></g></g></g></svg>