<svg height="500" width="500" xmlns="http://www.w3.org/2000/svg" xmlns:xlink="http://www.w3.org/1999/xlink"><defs><filter id="c" height="147.7%" width="116.2%" x="-8.1%" y="-15.2%"><feOffset dy="10" in="SourceAlpha" result="shadowOffsetOuter1"/><feGaussianBlur in="shadowOffsetOuter1" result="shadowBlurOuter1" stdDeviation="7.5"/><feColorMatrix in="shadowBlurOuter1" values="0 0 0 0 0.141176471 0 0 0 0 0.141176471 0 0 0 0 0.141176471 0 0 0 0.15 0"/></filter><filter id="e" height="110.2%" width="107.2%" x="-3.6%" y="-3.2%"><feOffset dy="10" in="SourceAlpha" result="shadowOffsetOuter1"/><feGaussianBlur in="shadowOffsetOuter1" result="shadowBlurOuter1" stdDeviation="7.5"/><feColorMatrix in="shadowBlurOuter1" values="0 0 0 0 0.141176471 0 0 0 0 0.141176471 0 0 0 0 0.141176471 0 0 0 0.15 0"/></filter><path id="d" d="M1165.312 310.293c-33.268-38.004-60.659-76.43-82.173-115.276-92.621 41.145-178.627 68.355-258.016 81.628 176.641-23.891 265.955-25.882 340.19 33.648z"/><path id="f" d="M674.03 0c-27.826 17.219-49.027 50.995-63.603 101.327-55.652 127.156-15.9 150.998-15.9 154.972-.24 3.973-2.227 9.934-14.152 19.868-87.454-19.868-173.583-47.022-258.386-81.46C254.41 313.917 147.08 429.151 0 540.412c26.758-2.787 219.788-194.156 335.902-236.43 116.114-42.274 183.86 29.28 267.339 29.28s160.523-17.695 162.511-21.669-80.782 9.748-116.558-8.134c-12.445-6.22 17.978-43.371 11.223-44.907-12.49-2.84-18.832-5.555-20.176-6.227-3.975-1.987-3.045-15.717 1.987-29.802 5.033-14.086 13.914-25.829 17.889-25.829 1.648 0-7.95-19.868-3.975-43.71 5.962-41.723 20.973-47.207 23.85-61.59 1.988-9.935 2.717-33.703-.081-32.366-8.332 3.98-32.694 15.51-35.695 10.51C637.591 58.942 647.529 35.763 674.03 0z"/><circle id="a" cx="250" cy="250" r="250"/><mask id="b" fill="#fff"><use fill-rule="evenodd" xlink:href="#a"/></mask></defs><g fill="none" fill-rule="evenodd"><use fill="#78bc4d" xlink:href="#a"/><g mask="url(#b)"><path d="M380.679 245.936c-.534-3.563-5.956-11.936-13.896-15.914 19.851-17.904 27.792-21.882 27.792-27.85 9.264-6.63 10.587-11.935 3.97-15.914-1.323-14.588-12.573-26.523-33.748-35.807-21.836-43.763-49.629-35.806-55.584-37.795-7.94-1.99-1.985-39.786 7.94-63.657-53.599 29.84-41.688 67.635-51.613 63.657-51.615-21.882-55.585 9.946-61.54 0-3.97-6.631-1.324-27.85 7.94-63.657-27.792 17.24-48.967 51.058-63.525 101.452-55.584 127.313-15.881 151.184-15.881 155.163 0 3.978-1.985 7.957-13.896 17.903-.056.047-119.11-19.893-258.07-79.57-66.173 119.355-173.371 234.732-321.596 346.13 119.11 0 226.308-3.978 305.714 151.184 74.113-66.309 144.255-99.463 210.427-99.463s135.652 59.678 208.441 179.033c79.413-118.887 152.203-178.448 218.372-178.682 66.17-.234 133.001 32.803 200.497 99.112 79.406-155.162 186.604-151.184 305.714-151.184-177.34-111.398-299.097-226.775-365.27-346.13-92.64 41.11-178.663 67.634-258.07 79.57-5.955-3.979-15.949-8.864-11.979-10.853 15.909-7.97 20.231-13.84 18.102-23.776 2.77-7.303 12.422-20.582 13.842-30.163.206-1.39-3.53-.3-3.55-1.775-.045-3.555 0-7.452-.533-11.014z" fill="#444"/><g fill-rule="nonzero"><g fill="#242424"><path d="M670.915 436.865c38.577 67.122 59.13 143.74 61.661 229.855 22.899-25.175 47.402-42.09 73.246-53.452 28.383-12.478 58.385-18.258 89.654-20.928-101.611-40.76-176.465-92.585-224.56-155.475zM310.598 756.381c61.339-75.968 118.448-114.045 171.328-114.232 33.526-.118 67.222 8.304 101.088 25.268 32.975 16.517-99.311-55.903-151.748-230.552-6.5 136.945-136.082 338.607-120.668 319.516zM84.576 436.865C55.106 599.813-87.545 686.973-54.937 670.487c37.828-19.126 74.512-28.689 110.05-28.689 53.54 0 109.247 39.069 167.12 117.206 13.653 18.435-114.256-161.358-137.657-322.139zM-369.307 592.261c31.043 2.587 60.84 8.199 89.053 20.337 26.055 11.21 50.758 27.987 73.84 53.088-25.866-47.094-24.643-123.367 3.67-228.82-22.246 84.94-77.767 136.739-166.563 155.395zM175.582 482.153c14.734 4.189 39.291 6.356 73.671 6.5 34.38.145 58.938-2.022 73.672-6.5 4.334.144 13-3.973 26.002-12.351-6.5.866-44.92 8.523-60.879 8.559-15.965.036-34.894-4.659-34.894-35.862v-32.502c0-4.334-1.3-8.668-3.9-13.002 0 2.89-1.3 7.223-3.9 13.002v32.502c0 31.636-18.924 35.898-34.887 35.862-10.641-.024-30.937-2.877-60.887-8.56 13 8.38 21.668 12.496 26.002 12.352z"/></g><g transform="translate(-461.028 49)"><use fill="#000" filter="url(#c)" xlink:href="#d"/><use fill="#242424" xlink:href="#d"/></g><g transform="translate(-461.028 49)"><use fill="#000" filter="url(#e)" xlink:href="#f"/><use fill="#242424" xlink:href="#f"/></g><path d="M319.671 230.593c-1.978 7.982 1.978 23.946 7.913 35.92 31.651-17.96 53.412-17.96 53.412-19.956s-3.957-9.977-11.87-13.968c-3.956-3.992-23.738 5.986-23.738 0 1.319-29.268-11.21-56.54-37.586-81.817-5.275-15.965-11.21-26.608-17.804-31.929-4.357-3.516 14.224-5.195 11.87-5.987-7.914-1.995-3.957-43.901 15.825-63.857-53.412 29.933-41.543 67.849-51.434 63.857 23.739 23.947 21.76 31.929 21.76 41.907 0 2.774 30.607 31.892 17.805 55.875-7.913 13.968-35.608 11.973-49.456 5.986-13.847-5.986-21.76-9.977-33.63-19.955-1.978 1.995 0 17.96 3.957 19.955 23.739 19.956 73.194 9.978 75.172 7.982 5.31 5.393 11.87 5.987 17.804 5.987z" fill="#242424"/></g><path d="M373.089 229.645a501.654 501.654 0 0 1 7.64-6.6c.864-.732 6.81-5.731 8.21-6.935 5.477-4.711 7.81-7.262 8.93-10.39.167-.465.298-.935.395-1.41 4.479-3.417 7.188-6.684 8.032-10.066.971-3.893-.593-7.32-4.082-9.957-2.129-15.03-13.811-27.194-34.515-36.533-4.443-8.677-9.323-15.731-14.605-21.314-6.964-7.36-14.431-11.99-22.376-14.48-5.562-1.743-9.472-2.177-16.715-2.404-1.232-.039-1.862-.067-2.422-.114-.49-.042-.813-.093-.96-.132a2.879 2.879 0 0 1-.195-.37c-.375-.823-.676-2.162-.846-3.928-.362-3.769-.098-9.092.758-15.34 1.75-12.77 5.722-27.814 10.422-39.117l4.071-9.79-9.264 5.157c-8.424 4.69-15.624 9.766-21.715 15.199-9.582 8.549-16.124 17.655-20.556 27.491-1.646 3.654-2.922 7.207-4.11 11.196-.388 1.303-1.881 6.698-2.231 7.779-.2.614-.38 1.105-.546 1.489-13.47-5.625-24.69-8.061-34.112-7.806-7.69.207-13.717 2.125-19.172 5.437-1.53.93-4.822 3.273-5.876 3.988-1.32-2.521-1.573-8.785-.382-18.332 1.3-10.426 4.248-24.538 8.844-42.3l2.302-8.897-7.81 4.844c-28.642 17.767-50.269 52.26-65.056 103.322-17.997 41.262-27.292 74.483-29.38 100.774-1.614 20.33 1.098 35.284 6.82 46.507 1.555 3.05 3.098 5.421 5.061 8.029.226.3.922 1.214.887 1.168.207.272.357.474.475.638-.372 2.97-3.193 6.534-12.13 14.03-.322.137-.66.27-.989.387a8.895 8.895 0 0 1-1.016.306c-16.731-3.262-50.264-11.4-86.795-21.9-55.98-16.088-112.384-35.617-165.858-58.58l-3.06-1.315-1.615 2.913c-65.899 118.855-172.75 233.85-320.59 344.95l-8.82 6.628h11.034c2.423 0 4.37-.001 8.696-.005 42.902-.035 61.405.339 83.978 2.282 29.495 2.54 54.559 7.612 77.542 16.272 53.748 20.254 96.457 60.74 132.221 130.62l2.176 4.25 3.56-3.184c73.494-65.75 142.823-98.518 207.972-98.518 64.534 0 133.113 58.899 205.299 177.256l3.003 4.925 3.205-4.797c78.795-117.955 150.722-176.804 215.323-177.033 65.089-.23 131.046 32.373 197.904 98.05l3.576 3.513 2.285-4.463c35.764-69.879 78.473-110.365 132.221-130.619 22.983-8.66 48.047-13.732 77.542-16.272 22.572-1.943 41.076-2.317 83.977-2.282 4.327.004 6.274.005 8.697.005h12.79l-10.83-6.803C813.449 475.977 692.13 361.022 626.298 242.29l-1.635-2.948-3.081 1.367c-91.816 40.743-177.066 67.098-255.74 79.08-.784-.5-1.73-1.083-3.332-2.062l-.288-.176c-2.145-1.312-3.596-2.232-4.644-2.971 14.347-7.683 19.236-14.556 17.373-25.194.508-1.176 1.226-2.612 2.203-4.43.74-1.377 3.643-6.591 3.837-6.945a158.468 158.468 0 0 0 2.878-5.442c2.59-5.17 4.182-9.392 4.743-13.176.33-2.233-.97-3.953-2.8-4.64a5.604 5.604 0 0 0-.735-.218c-.015-1.39-.03-2.177-.063-3.14-.074-2.22-.221-4.107-.486-5.876-.699-4.66-5.456-11.37-11.44-15.873zm4.193 39.625a151.54 151.54 0 0 1-2.747 5.19c-.172.313-3.1 5.574-3.87 7.007-1.393 2.59-2.338 4.539-2.983 6.24l-.386 1.016.228 1.063c1.712 7.99-1.662 12.45-16.15 19.71-2.146 1.074-3.373 3.16-2.809 5.56.342 1.455 1.215 2.602 2.542 3.794 1.54 1.384 3.368 2.598 7.27 4.984l.291.178c2.376 1.452 3.243 1.992 4.29 2.691l1.184.791 1.409-.211c78.875-11.855 164.187-38.02 255.945-78.481C687 365.28 805.058 477.818 975.625 586.493c-40.273-.007-58.45.406-80.583 2.312-30.121 2.593-55.83 7.796-79.508 16.718-54.384 20.493-97.775 60.98-133.888 129.733-66.93-64.615-133.45-96.921-199.526-96.688-66.832.237-139.427 58.905-218.22 175.54-72.311-117.08-141.7-175.89-208.584-175.89-66.132 0-135.905 32.482-209.336 97.242-36.134-68.877-79.557-109.424-133.995-129.937-23.677-8.922-49.387-14.125-79.508-16.718-22.448-1.933-40.828-2.33-82.32-2.311 142.892-108.726 246.974-221.291 312.214-337.727 52.871 22.53 108.48 41.722 163.674 57.585 36.982 10.628 70.932 18.856 87.766 22.117 2.132.413 6.266-1.062 7.392-2.001 11.543-9.639 15.219-14.703 15.219-20.73 0-1.291-.417-2.137-1.249-3.335a30.694 30.694 0 0 0-.768-1.045c.024.031-.66-.866-.87-1.146-1.727-2.294-3.048-4.324-4.384-6.945-5.084-9.97-7.55-23.565-6.04-42.577 2.021-25.445 11.129-57.966 28.884-98.63l.096-.22.067-.232c12.89-44.614 30.936-75.847 54.013-93.816-7.6 31.219-9.439 49.692-5.127 56.893.343.572.701 1.078 1.089 1.524 2.41 2.77 5.434 2.845 8.525 1.047.809-.47 4.898-3.406 6.29-4.252 4.403-2.673 9.198-4.199 15.548-4.37 8.46-.23 18.909 2.08 31.81 7.55l.068.028c2.497 1 4.957.658 6.812-1.152 1.23-1.199 1.991-2.774 2.778-5.205.408-1.262 1.935-6.777 2.283-7.944 1.1-3.696 2.268-6.948 3.766-10.273 4.018-8.916 9.951-17.176 18.744-25.02 3.429-3.059 7.251-6.008 11.495-8.84-3.259 9.925-5.861 21.028-7.213 30.894-.926 6.765-1.217 12.621-.792 17.045.24 2.51.712 4.6 1.473 6.273.991 2.18 2.527 3.75 4.654 4.336 1.268.406 2.441.5 5.398.593 6.614.208 9.995.583 14.742 2.07 6.754 2.117 13.134 6.073 19.229 12.514 5.002 5.287 9.675 12.131 13.964 20.728l.596 1.193 1.221.535c20.067 8.797 30.377 19.735 31.559 32.764l.169 1.861 1.601.963c2.048 1.231 2.512 2.044 2.295 2.914-.399 1.597-2.527 3.996-6.511 6.847l-1.54 1.102v1.893c0 .324-.051.619-.164.935-.53 1.478-2.32 3.434-6.798 7.287-1.363 1.172-7.278 6.145-8.17 6.9-3.999 3.391-7.584 6.51-11.443 9.99l-4.006 3.613 4.822 2.416c3.144 1.575 6.113 4.12 8.493 7.113 1.936 2.433 3.241 4.92 3.41 6.053.218 1.45.345 3.07.41 5.03.037 1.1.05 1.974.069 3.997.006.725.01 1.075.015 1.489.026 2.02 1.269 3.446 2.92 4.081-.69 2.286-1.815 4.951-3.373 8.063z" fill="#000" fill-rule="nonzero"/><path d="M352.28 313.84c-121.112 12.509-169.824-7.672-173.795-9.757s-3.042-16.492 1.985-31.273c5.027-14.781 13.898-27.104 17.87-27.104s109.198 14.594 129.052 20.849c31.767-18.764 52.607-21.24 53.317-21.24 1.422 1.785.737 11.774.711 12.135-.067.942 3.615.796 3.555 1.785-.237 3.807-4.872 13.891-13.903 30.254 2.871 8.858-3.393 16.975-18.792 24.35z" fill="#78bc4d"/><path d="M202.461 257.671c-15.9 5.955-25.865 31.458 1.606 53.312.13.103-24.358-7.064-25.568-7.669-3.994-1.994-3.06-17.542 1.997-31.682 5.056-14.14 13.978-25.928 17.971-25.928 3.994 0 109.827 13.962 129.796 19.945 31.95-17.95 53.915-17.95 53.915-19.945 0-.338.221 2.057.664 7.186-22.63 4.781-44.595 18.742-52.582 18.742-33.947 0-111.824-19.944-127.799-13.96z" fill="#4e832c"/><path d="m353.684 316.77-.51.245-.56.057c-53.62 5.539-97.237 5.206-131.593.583-12.505-1.682-23.04-3.848-31.623-6.282-5.884-1.668-10.421-3.36-12.424-4.412-3.532-1.855-4.57-6.811-4.114-13.96.395-6.194 2.002-13.797 4.533-21.238 2.474-7.274 5.987-14.372 9.718-19.872 4.006-5.907 7.744-9.435 11.228-9.435 2.536 0 32.116 4.04 59.057 8.115 33.99 5.143 59.426 9.597 69.57 12.466 13.685-7.978 26.368-13.597 37.741-17.234 7.405-2.368 14.054-3.737 16.002-3.737h1.567l.976 1.225c1.306 1.64 1.6 4.237 1.606 8.622a83.398 83.398 0 0 1-.073 3.452c.337.091.6.18.904.307.523.219.99.496 1.419.915.738.721 1.18 1.721 1.111 2.85-.275 4.412-4.749 14.235-13.659 30.454 2.46 10.244-4.917 19.236-20.876 26.88zm14.296-26.28-.434-1.339.68-1.233c7.252-13.138 11.645-22.252 13.033-26.73a6.557 6.557 0 0 1-.56-.203 4.314 4.314 0 0 1-1.4-.889 3.594 3.594 0 0 1-1.12-2.876c.024-.343.06-.962.094-1.713.054-1.205.086-2.425.084-3.586a39.825 39.825 0 0 0-.098-2.95c-.335.063-.688.132-1.057.208-3.006.62-6.536 1.543-10.515 2.816-11.253 3.598-23.909 9.247-37.642 17.359l-1.247.736-1.382-.435c-8.555-2.695-34.765-7.327-69.993-12.656-25.687-3.886-54.89-7.882-57.933-8.038a2.341 2.341 0 0 0-.225.117c-.39.225-.887.612-1.455 1.148-1.284 1.212-2.778 3.04-4.32 5.313-3.4 5.015-6.655 11.59-8.943 18.317-2.354 6.922-3.843 13.967-4.2 19.558-.167 2.61-.075 4.779.247 6.315.136.65.304 1.138.473 1.442.023.042.043.076.06.1.571.285 1.697.761 3.134 1.297 2.177.812 4.826 1.677 7.91 2.55 8.281 2.349 18.513 4.453 30.717 6.095 33.709 4.535 76.627 4.878 129.492-.548 13.734-6.68 18.806-13.368 16.6-20.174z" fill="#000" fill-rule="nonzero"/><g fill="#000" fill-rule="nonzero"><path d="M221.757 155.081a3.684 3.684 0 0 0 2.176 7.039c16.688-5.16 38.058-6.46 64.086-3.845l1.003.1.915-.424c16.491-7.647 34.911-9.561 55.366-5.708a3.684 3.684 0 0 0 1.364-7.24c-21.54-4.058-41.21-2.121-58.906 5.843-26.49-2.574-48.484-1.18-66.004 4.235zM310.235 109.021c-7.32 0-14.59 2.191-21.763 6.515a3.684 3.684 0 0 0 3.803 6.31c6.068-3.658 12.039-5.458 17.96-5.458a3.684 3.684 0 0 0 0-7.367z"/></g><g><path d="M330.298 277.794c30.24 0 44.273-17.278 57.739-14.383 11.946 2.055-7.964 18.492-9.955 20.547-1.991 2.054 5.973 10.273-5.973 14.382-17.027 4.881-45.793 8.219-65.703 6.164s-31.856-6.164-51.766-10.273c-19.91-4.11-45.793 2.054-51.766-4.11-11.946-12.327 5.973-24.655 21.901-24.655s75.283 12.328 105.523 12.328z" fill="#dd503c"/><g fill="#000" fill-rule="nonzero"><path d="M379.983 288.23c.598 2.31.82 3.891.568 5.745-.546 4.024-3.396 7.024-8.812 8.92-18.493 5.406-47.411 8.373-66.535 6.36-8.987-.946-16.615-2.304-26.12-4.492 1.551.357-18.991-4.571-25.73-5.99-4.036-.85-8.575-1.3-13.856-1.445-3.902-.107-7.284-.061-13.788.125-17.051.487-21.794.123-25.437-3.71-6.778-7.135-6.078-15.428.61-21.762 5.551-5.26 14.705-8.632 23.308-8.632 6.547 0 3.794-.392 47.634 6.295 4.547.693 8.497 1.282 12.266 1.825 20.123 2.9 34.664 4.404 45.206 4.404 11.454 0 20.653-2.377 31.77-7.232 1.088-.475 2.174-.962 3.588-1.606l1.729-.79c.697-.317 1.2-.546 1.693-.768 2.717-1.227 4.642-2.037 6.505-2.707 4.9-1.761 8.894-2.306 12.715-1.465 4.242.744 6.658 3.436 6.214 7.312-.287 2.506-1.754 5.166-4.17 8.217-1.034 1.307-2.233 2.664-3.58 4.078-1.62 1.7-4.763 4.7-6.123 5.978.058.236.16.625.345 1.34zm-6.064.393a12.666 12.666 0 0 1-.278-1.423c-.201-1.578.047-2.988 1.148-4.148-.12.126 4.763-4.468 6.772-6.575 1.227-1.287 2.304-2.508 3.21-3.652 1.733-2.189 2.721-3.981 2.833-4.959.023-.2.071-.147-1.402-.408-2.734-.6-5.719-.192-9.696 1.238-1.69.608-3.494 1.366-6.085 2.536-.483.218-.98.444-1.67.759l-1.734.791a252.55 252.55 0 0 1-3.67 1.642c-11.78 5.146-21.708 7.711-34.05 7.711-10.89 0-25.635-1.525-46.013-4.461-3.786-.546-7.751-1.137-12.312-1.833-42.866-6.538-40.701-6.23-46.78-6.23-7.192 0-14.92 2.847-19.33 7.024-4.27 4.046-4.622 8.216-.382 12.68 1.81 1.905 6.784 2.286 21.068 1.878 6.606-.189 10.066-.235 14.104-.125 5.596.153 10.459.636 14.87 1.565 6.83 1.438 27.454 6.386 25.833 6.012 9.297 2.14 16.705 3.46 25.44 4.38 18.367 1.932 46.548-.959 64.207-6.118 3.297-1.156 4.465-2.386 4.66-3.818.105-.772-.019-1.66-.411-3.181.053.208-.262-.997-.332-1.285z"/><path d="M215.651 284.21c17.077-1.346 31.471-.676 43.166 1.985 3.37.767 6.332 1.513 9.823 2.454.627.168 1.253.338 2.074.562l1.988.543c1.58.43 2.725.735 3.858 1.025 8.03 2.053 15.023 3.082 26.806 3.685 22.933 1.381 46.111 1.06 73.048-4.456 1.626-.333 2.681-1.953 2.356-3.618-.325-1.666-1.908-2.746-3.534-2.413-26.454 5.417-49.122 5.697-71.544 4.346-11.428-.585-18.035-1.556-25.677-3.51-1.098-.281-2.217-.58-3.77-1.002l-1.984-.542c-.827-.225-1.458-.397-2.093-.568a251.737 251.737 0 0 0-10.048-2.51c-12.331-2.805-27.302-3.502-44.93-2.113-1.653.13-2.89 1.608-2.763 3.301.127 1.693 1.57 2.96 3.224 2.83zM184.86 291.437c3.01 8.587 11.501 18.18 20.966 22.133 1.492.624 3.186-.134 3.783-1.693.596-1.558-.13-3.326-1.621-3.95-7.88-3.291-15.205-11.565-17.663-18.579-.552-1.576-2.223-2.386-3.732-1.81s-2.285 2.323-1.733 3.899z"/></g><g><g fill="#000" fill-rule="nonzero"><path d="M367.302 227.145c-22.024 3.898-40.683 3.253-55.993-1.865a3.682 3.682 0 1 0-2.337 6.984c16.583 5.544 36.46 6.231 59.615 2.133a3.682 3.682 0 1 0-1.285-7.252zM313.812 201.088a3.683 3.683 0 0 0-7.343-.61c-1.203 14.484-5.578 21.615-12.797 22.65l-.085.013c-23.2 3.878-42.354 1.957-57.537-5.657a3.681 3.681 0 1 0-3.304 6.582c16.7 8.375 37.397 10.455 62.016 6.345 11.357-1.651 17.598-11.842 19.05-29.323z"/></g><g transform="translate(221.596 169.86)"><path d="M3.467 23.682c0-10.108 23.577-20.216 43.224-20.216 37.33 0 40.787 10.99 41.26 20.216.471 9.227-3.93 16.173-39.295 16.173-25.541 0-45.189-6.065-45.189-16.173zM179.432 21.66c0 10.109-19.572 18.195-44.975 18.195-35.173 0-43.458-4.925-42.989-14.151s7.816-22.238 44.943-22.238c19.54 0 43.02 8.086 43.02 18.194z" fill="#fff"/><ellipse cx="41.391" cy="21.66" fill="#000" fill-rule="nonzero" rx="18.42" ry="18.195"/><ellipse cx="132.84" cy="21.66" fill="#000" fill-rule="nonzero" rx="18.42" ry="18.195"/><ellipse cx="35.973" cy="17.545" fill="#fff" rx="2.6" ry="2.383"/><ellipse cx="123.955" cy="14.946" fill="#fff" rx="2.6" ry="2.383"/><g fill="#000" fill-rule="nonzero"><path d="M2.167 24.94c0-11.915 24.115-22.774 45.597-22.774 32.182 0 42.868 7.397 43.653 22.618.698 13.54-9.649 18.97-41.713 18.97-27.794 0-47.537-6.717-47.537-18.814zm5.82 0c0 7.047 17.123 12.873 41.717 12.873 29.168 0 36.36-3.775 35.9-12.717-.268-5.185-1.587-8.314-5.45-10.988-5.548-3.84-15.898-6-32.39-6-18.617 0-39.776 9.527-39.776 16.832z"/><path d="M182.899 22.96c0 12.357-21.395 20.794-48.452 20.794-34.712 0-47.098-4.463-46.44-16.99.787-14.984 15.512-24.598 48.416-24.598 22.818 0 46.476 9.055 46.476 20.794zm-5.929 0c0-6.897-20.786-14.853-40.547-14.853-16.737 0-28.168 2.552-35.013 7.021-5.014 3.274-7.24 7.34-7.482 11.949-.385 7.321 9.09 10.736 40.519 10.736 24.035 0 42.523-7.291 42.523-14.853z"/></g></g></g></g><g fill-rule="nonzero"><path d="M193.72 389.416c41.744-5.441 80.67-5.066 116.78 1.125 31.513 22.879 5.27 50.258-25.78 25.13-4.704 10.296-38.909 23.426-51.626-1.414-29.659 29.63-71.479 7.452-39.374-24.841z"/><path d="M210.667 431.021c-8.258 1.723-16.233.717-22.268-2.777-6.39-3.7-10.08-9.893-9.925-17.234.162-7.64 4.428-15.936 12.633-24.19l.888-.893 1.249-.162c42.097-5.488 81.393-5.11 117.88 1.147l.847.145.695.505c8.075 5.862 13.186 12.461 15.019 19.113 1.787 6.486.306 12.682-3.996 17.025-4.19 4.228-10.575 6.22-17.763 5.528-6.548-.63-13.52-3.425-20.388-8.312-4.742 5.217-13.852 9.606-23.128 10.873-12.322 1.682-23.263-2.073-30.128-11.767-6.685 5.713-14.11 9.434-21.615 11zm-24.827-19.855c-.097 4.585 2.127 8.316 6.252 10.705 4.38 2.537 10.51 3.31 17.07 1.94 7.383-1.539 14.802-5.64 21.328-12.159l3.579-3.575 2.305 4.502c4.95 9.67 13.995 13.42 25.04 11.913 9.156-1.25 18.098-6.287 19.955-10.351l1.975-4.323 3.695 2.99c6.796 5.5 13.568 8.51 19.593 9.089 5.093.49 9.281-.816 11.821-3.38 2.403-2.425 3.23-5.887 2.129-9.886-1.303-4.726-5.158-9.806-11.563-14.607-35.127-5.924-72.976-6.301-113.556-1.12-6.39 6.685-9.51 12.97-9.623 18.262z"/><path d="M184.496 361.384c24.134-33.263 51.339 8.493 110.575 1.062 29.838 21.585 5.705 42.463-24.41 23.708-.162 10.97-33.348 25.479-46.512 0-28.083 27.956-63.786 8.493-39.653-24.77z"/><path d="M182.876 399.901c-5.904-3.465-9.53-9.322-9.99-16.445-.478-7.375 2.423-15.682 8.628-24.234 7.544-10.398 16-14.816 26.577-14.55 4.333.108 8.962.968 14.78 2.6 2.256.632 4.605 1.352 7.859 2.392.908.29 4.978 1.6 4.27 1.373 1.617.52 2.845.912 4.07 1.296 9.553 2.996 16.925 4.863 24.905 6.065 10.05 1.512 20.083 1.718 30.638.394l1.441-.18 1.177.85c7.668 5.548 12.543 11.48 14.366 17.338 1.838 5.902.444 11.481-3.756 15.34-7.433 6.826-21.234 6.68-35.11-.563-3.269 5.58-11.1 10.286-19.79 11.868-11.708 2.131-22.617-1.594-29.608-11.533-13.496 11.5-29.452 14.449-40.457 7.99zm52.014-48.9a1770.923 1770.923 0 0 1-.01-.002zm-2.304 6.997zm-4.1-1.32c-3.177-1.015-5.452-1.712-7.606-2.316-5.28-1.481-9.355-2.237-12.974-2.328-8.087-.204-14.273 3.029-20.428 11.512-9.972 13.745-9.238 25.094-.87 30.005 8.769 5.147 22.998 1.884 34.941-10.006l3.565-3.548 2.308 4.468c5.119 9.907 14.026 13.587 24.199 11.735 4.262-.776 8.342-2.528 11.344-4.78 2.611-1.958 3.993-3.993 4.012-5.32l.096-6.518 5.536 3.447c6.644 4.138 13.207 6.364 18.976 6.692 4.963.282 8.958-.88 11.27-3.005 2.063-1.894 2.713-4.497 1.707-7.728-1.215-3.903-4.712-8.305-10.509-12.713-10.707 1.213-20.946.945-31.175-.595-8.42-1.267-16.13-3.22-26.013-6.32a586.668 586.668 0 0 1-4.13-1.314c.726.233-3.348-1.079-4.25-1.368z"/></g></g></g></svg>