<svg height="424" viewBox="0 0 2144 424" width="2144" xmlns="http://www.w3.org/2000/svg"><g fill="none" fill-rule="evenodd"><path d="m188.703571 417h-160.703571v-378h160.703571c96.535715 0 154.457143 42 154.457143 106.96 0 40.88-21.578571 68.88-55.082143 83.44 34.071429 11.2 57.921429 34.72 57.921429 80.64 0 70.56-63.6 106.96-157.296429 106.96zm-57.703571-299v62h61.881081c29.794595 0 44.118919-11.65812 44.118919-32.324786 0-18.017094-13.751351-29.675214-44.118919-29.675214zm-1 157v58h62.526316c30.105263 0 47.473684-8.055556 47.473684-29 0-22.555556-17.368421-29-47.473684-29zm206 142 97.522124-320.2202899c14.011799-46.7927536 53.244838-68.7797101 92.477876-68.7797101s78.466077 21.9869565 92.477876 68.7797101l97.522124 320.2202899h-105.929204l-17.374631-64.269565h-132.831858l-17.935103 64.269565zm191.965517-291.44898-34.965517 130.44898h78l-34.427586-130.44898c-1.075862-3.885714-2.151724-5.55102-4.303448-5.55102-2.151725 0-3.227587 1.665306-4.303449 5.55102zm462.034483-86.55102v95.2h-108.469136v282.8h-105.061728v-282.8h-108.469136v-95.2zm-55 378 97.52212-320.2202899c14.0118-46.7927536 53.24484-68.7797101 92.47788-68.7797101s78.46608 21.9869565 92.47788 68.7797101l97.52212 320.2202899h-105.9292l-17.37463-64.269565h-132.83186l-17.93511 64.269565zm186.96552-291.44898-34.96552 130.44898h78l-34.42759-130.44898c-1.07586-3.885714-2.15172-5.55102-4.30344-5.55102-2.15173 0-3.22759 1.665306-4.30345 5.55102zm329.87118 298.44898c-71.39817 0-127.17798-29.728045-152.8367-85.818697l85.90092-43.189802c10.59816 22.997168 31.79449 33.654391 66.93578 33.654391 27.33211 0 47.97064-8.413597 47.97064-26.362606 0-22.436261-22.31193-25.8017-56.33762-30.849858-56.33761-8.413598-138.89174-30.288952-138.89174-120.594901 0-69.552408 61.9156-122.838527 145.58532-122.838527 65.82019 0 121.6 29.7280453 147.25872 85.818697l-85.90092 43.189802c-10.59816-18.509915-30.6789-33.654391-65.82018-33.654391-24.54312 0-37.93028 7.852691-37.93028 23.558073 0 21.314448 24.54312 28.045326 61.3578 33.654391 55.77982 8.413598 133.87156 29.728046 133.87156 120.594901 0 69.552408-67.49358 122.838527-151.1633 122.838527zm265.77682-8.683983h-105.61352l49.99789-318.272727c7.30306-44.9062049 38.76241-69.04329 84.2661-69.04329 39.32418 0 72.46885 16.8398268 83.14256 58.9393939l51.68321 200.9552671 51.12143-199.2712844c10.67371-42.0995671 44.94193-60.6233766 85.38965-60.6233766 44.38015 0 74.71595 24.6984127 81.45724 70.7272727l44.94192 316.5887443h-105.05174l-30.3358-267.191919-60.10982 218.917749c-9.55016 33.679654-35.95354 49.958153-67.41288 49.958153-30.89757 0-58.98628-15.717172-67.41289-47.712843l-59.54804-221.724386z" fill="#1b330b"/><path d="m179.703571 408h-160.703571v-378h160.703571c96.535715 0 154.457143 42 154.457143 106.96 0 40.88-21.578571 68.88-55.082143 83.44 34.071429 11.2 57.921429 34.72 57.921429 80.64 0 70.56-63.6 106.96-157.296429 106.96zm-57.703571-299v62h61.881081c29.794595 0 44.118919-11.65812 44.118919-32.324786 0-18.017094-13.751351-29.675214-44.118919-29.675214zm-1 157v58h62.526316c30.105263 0 47.473684-8.055556 47.473684-29 0-22.555556-17.368421-29-47.473684-29zm206 142 97.522124-320.2202899c14.011799-46.7927536 53.244838-68.7797101 92.477876-68.7797101s78.466077 21.9869565 92.477876 68.7797101l97.522124 320.2202899h-105.929204l-17.374631-64.269565h-132.831858l-17.935103 64.269565zm191.965517-291.44898-34.965517 130.44898h78l-34.427586-130.44898c-1.075862-3.885714-2.151724-5.55102-4.303448-5.55102-2.151725 0-3.227587 1.665306-4.303449 5.55102zm462.034483-86.55102v95.2h-108.469136v282.8h-105.061728v-282.8h-108.469136v-95.2zm-55 378 97.52212-320.2202899c14.0118-46.7927536 53.24484-68.7797101 92.47788-68.7797101s78.46608 21.9869565 92.47788 68.7797101l97.52212 320.2202899h-105.9292l-17.37463-64.269565h-132.83186l-17.93511 64.269565zm186.96552-291.44898-34.96552 130.44898h78l-34.42759-130.44898c-1.07586-3.885714-2.15172-5.55102-4.30344-5.55102-2.15173 0-3.22759 1.665306-4.30345 5.55102zm329.87118 298.44898c-71.39817 0-127.17798-29.728045-152.8367-85.818697l85.90092-43.189802c10.59816 22.997168 31.79449 33.654391 66.93578 33.654391 27.33211 0 47.97064-8.413597 47.97064-26.362606 0-22.436261-22.31193-25.8017-56.33762-30.849858-56.33761-8.413598-138.89174-30.288952-138.89174-120.594901 0-69.552408 61.9156-122.838527 145.58532-122.838527 65.82019 0 121.6 29.7280453 147.25872 85.818697l-85.90092 43.189802c-10.59816-18.509915-30.6789-33.654391-65.82018-33.654391-24.54312 0-37.93028 7.852691-37.93028 23.558073 0 21.314448 24.54312 28.045326 61.3578 33.654391 55.77982 8.413598 133.87156 29.728046 133.87156 120.594901 0 69.552408-67.49358 122.838527-151.1633 122.838527zm265.77682-8.683983h-105.61352l49.99789-318.272727c7.30306-44.9062049 38.76241-69.04329 84.2661-69.04329 39.32418 0 72.46885 16.8398268 83.14256 58.9393939l51.68321 200.9552671 51.12143-199.2712844c10.67371-42.0995671 44.94193-60.6233766 85.38965-60.6233766 44.38015 0 74.71595 24.6984127 81.45724 70.7272727l44.94192 316.5887443h-105.05174l-30.3358-267.191919-60.10982 218.917749c-9.55016 33.679654-35.95354 49.958153-67.41288 49.958153-30.89757 0-58.98628-15.717172-67.41289-47.712843l-59.54804-221.724386z" fill="#4e832c"/><path d="m170.208929 398h-161.208929v-378h161.208929c96.839285 0 154.942857 42 154.942857 106.96 0 40.88-21.646429 68.88-55.255357 83.44 34.178571 11.2 58.103571 34.72 58.103571 80.64 0 70.56-63.8 106.96-157.791071 106.96zm-58.208929-299v62h62.464865c30.075676 0 44.535135-11.65812 44.535135-32.324786 0-18.017094-13.881081-29.675214-44.535135-29.675214zm-1 157v58h62.526316c30.105263 0 47.473684-8.055556 47.473684-29 0-22.555556-17.368421-29-47.473684-29zm206 142 97.522124-320.2202899c14.011799-46.7927536 53.244838-68.7797101 92.477876-68.7797101s78.466077 21.9869565 92.477876 68.7797101l97.522124 320.2202899h-105.929204l-17.374631-64.269565h-132.831858l-17.935103 64.269565zm191.965517-291.44898-34.965517 130.44898h78l-34.427586-130.44898c-1.075862-3.885714-2.151724-5.55102-4.303448-5.55102-2.151725 0-3.227587 1.665306-4.303449 5.55102zm462.034483-86.55102v95.2h-108.469136v282.8h-105.061728v-282.8h-108.469136v-95.2zm-55 378 97.52212-320.2202899c14.0118-46.7927536 53.24484-68.7797101 92.47788-68.7797101s78.46608 21.9869565 92.47788 68.7797101l97.52212 320.2202899h-105.9292l-17.37463-64.269565h-132.83186l-17.93511 64.269565zm187.96552-291.44898-34.96552 130.44898h78l-34.42759-130.44898c-1.07586-3.885714-2.15172-5.55102-4.30344-5.55102-2.15173 0-3.22759 1.665306-4.30345 5.55102zm329.37393 298.44898c-71.63303 0-127.59633-29.728045-153.33945-85.818697l86.18349-43.189802c10.63302 22.997168 31.89908 33.654391 67.15596 33.654391 27.42202 0 48.12844-8.413597 48.12844-26.362606 0-22.436261-22.38532-25.8017-56.52294-30.849858-56.52293-8.413598-139.34862-30.288952-139.34862-120.594901 0-69.552408 62.11927-122.838527 146.06422-122.838527 66.0367 0 122 29.7280453 147.74312 85.8186969l-86.18349 43.1898021c-10.63302-18.509915-30.77981-33.654391-66.03669-33.654391-24.62386 0-38.05505 7.852691-38.05505 23.558073 0 21.314448 24.62385 28.045326 61.55963 33.654391 55.96331 8.413598 134.31193 29.728046 134.31193 120.594901 0 69.552408-67.7156 122.838527-151.66055 122.838527zm265.47259-8.683983h-105.81204l50.09187-318.272727c7.31679-44.9062049 38.83527-69.04329 84.4245-69.04329 39.3981 0 72.60507 16.8398268 83.29884 58.9393939l51.78035 200.9552671 51.21753-199.2712844c10.69377-42.0995671 45.0264-60.6233766 85.55016-60.6233766 44.46357 0 74.85639 24.6984127 81.61035 70.7272727l45.0264 316.5887443h-105.24921l-30.39282-267.191919-60.22281 218.917749c-9.56811 33.679654-36.02112 49.958153-67.5396 49.958153-30.95564 0-59.09714-15.717172-67.53959-47.712843l-59.65998-221.724386z" fill="#78bc4d"/><path d="m160.703571 389h-160.703571v-378h160.703571c96.535715 0 154.457143 42 154.457143 106.96 0 40.88-21.578571 68.88-55.082143 83.44 34.071429 11.2 57.921429 34.72 57.921429 80.64 0 70.56-63.6 106.96-157.296429 106.96zm-57.703571-299v62h61.881081c29.794595 0 44.118919-11.65812 44.118919-32.324786 0-18.017094-13.751351-29.675214-44.118919-29.675214zm-1 157v58h62.526316c30.105263 0 47.473684-8.055556 47.473684-29 0-22.555556-17.368421-29-47.473684-29zm206 142 97.522124-320.2202899c14.011799-46.7927536 53.244838-68.7797101 92.477876-68.7797101s78.466077 21.9869565 92.477876 68.7797101l97.522124 320.2202899h-105.929204l-17.374631-64.269565h-132.831858l-17.935103 64.269565zm191.965517-291.4489796-34.965517 130.4489796h78l-34.427586-130.4489796c-1.075862-3.8857143-2.151724-5.5510204-4.303448-5.5510204-2.151725 0-3.227587 1.6653061-4.303449 5.5510204zm462.034483-86.5510204v95.2h-108.469136v282.8h-105.061728v-282.8h-108.469136v-95.2zm-55 378 97.52212-320.2202899c14.0118-46.7927536 53.24484-68.7797101 92.47788-68.7797101s78.46608 21.9869565 92.47788 68.7797101l97.52212 320.2202899h-105.9292l-17.37463-64.269565h-132.83186l-17.93511 64.269565zm186.96552-291.4489796-34.96552 130.4489796h78l-34.42759-130.4489796c-1.07586-3.8857143-2.15172-5.5510204-4.30344-5.5510204-2.15173 0-3.22759 1.6653061-4.30345 5.5510204zm329.87118 298.4489796c-71.39817 0-127.17798-29.728045-152.8367-85.818697l85.90092-43.189802c10.59816 22.997168 31.79449 33.654391 66.93578 33.654391 27.33211 0 47.97064-8.413597 47.97064-26.362606 0-22.436261-22.31193-25.8017-56.33762-30.849858-56.33761-8.413598-138.89174-30.288952-138.89174-120.594901 0-69.552408 61.9156-122.838527 145.58532-122.838527 65.82019 0 121.6 29.7280453 147.25872 85.8186969l-85.90092 43.1898021c-10.59816-18.509915-30.6789-33.6543914-65.82018-33.6543914-24.54312 0-37.93028 7.8526914-37.93028 23.5580734 0 21.314448 24.54312 28.045326 61.3578 33.654391 55.77982 8.413598 133.87156 29.728046 133.87156 120.594901 0 69.552408-67.49358 122.838527-151.1633 122.838527zm265.77682-8.683983h-105.61352l49.99789-318.272727c7.30306-44.9062049 38.76241-69.04329 84.2661-69.04329 39.32418 0 72.46885 16.8398268 83.14256 58.9393939l51.68321 200.9552671 51.12143-199.2712844c10.67371-42.0995671 44.94193-60.6233766 85.38965-60.6233766 44.38015 0 74.71595 24.6984127 81.45724 70.7272727l44.94192 316.5887443h-105.05174l-30.3358-267.191919-60.10982 218.917749c-9.55016 33.679654-35.95354 49.958153-67.41288 49.958153-30.89757 0-58.98628-15.717172-67.41289-47.712843l-59.54804-221.724386z" fill="#eff4ed" fill-rule="nonzero"/></g></svg>