<svg width="500" height="500" xmlns="http://www.w3.org/2000/svg" xmlns:xlink="http://www.w3.org/1999/xlink"><defs><path id="b" d="M.274 109.585 63.582 0h126.889l63.307 109.585v68.936l-61.085 231.254H67.54L0 178.521z"/><path id="e" d="m63.582 0 20.006 31.31-50.975 90.634L.274 109.585z"/><path id="g" d="M169.916 31.31 190.471 0l63.307 109.585-32.887 12.359z"/><path id="i" d="m32.613 121.944 63.856 202.141-22.199 39.274L.274 109.585z"/><path id="k" d="m160.872 324.085 60.019-202.141 32.887-12.359-68.514 253.774z"/><path id="m" d="M63.582 0h126.889l-20.555 31.31H83.588z"/><path id="o" d="m160.872 324.085 24.392 39.274H74.27l22.199-39.274z"/><path id="q" d="M.274 109.585 74.27 363.359l-6.73 46.416L0 178.521z"/><path id="s" d="m185.264 363.359 7.429 46.416H67.54l6.73-46.416z"/><path id="u" d="m185.264 363.359 68.514-253.774v68.936l-61.085 231.254z"/><path id="w" d="M83.588 31.31h86.328l50.975 90.634-60.019 202.141H96.469L32.613 121.944z"/><filter x="-63%" y="-43.1%" width="226%" height="186.1%" filterUnits="objectBoundingBox" id="d"><feOffset in="SourceAlpha" result="shadowOffsetOuter1"/><feGaussianBlur stdDeviation="17.5" in="shadowOffsetOuter1" result="shadowBlurOuter1"/><feComposite in="shadowBlurOuter1" in2="SourceAlpha" operator="out" result="shadowBlurOuter1"/><feColorMatrix values="0 0 0 0 0.305882353 0 0 0 0 0.305882353 0 0 0 0 0.305882353 0 0 0 0.3 0" in="shadowBlurOuter1"/></filter><filter x="-62.6%" y="-43.1%" width="225.2%" height="186.1%" filterUnits="objectBoundingBox" id="f"><feOffset in="SourceAlpha" result="shadowOffsetOuter1"/><feGaussianBlur stdDeviation="17.5" in="shadowOffsetOuter1" result="shadowBlurOuter1"/><feComposite in="shadowBlurOuter1" in2="SourceAlpha" operator="out" result="shadowBlurOuter1"/><feColorMatrix values="0 0 0 0 0.305882353 0 0 0 0 0.305882353 0 0 0 0 0.305882353 0 0 0 0.3 0" in="shadowBlurOuter1"/></filter><filter x="-54.6%" y="-20.7%" width="209.2%" height="141.4%" filterUnits="objectBoundingBox" id="h"><feOffset in="SourceAlpha" result="shadowOffsetOuter1"/><feGaussianBlur stdDeviation="17.5" in="shadowOffsetOuter1" result="shadowBlurOuter1"/><feComposite in="shadowBlurOuter1" in2="SourceAlpha" operator="out" result="shadowBlurOuter1"/><feColorMatrix values="0 0 0 0 0.305882353 0 0 0 0 0.305882353 0 0 0 0 0.305882353 0 0 0 0.3 0" in="shadowBlurOuter1"/></filter><filter x="-56.5%" y="-20.7%" width="213%" height="141.4%" filterUnits="objectBoundingBox" id="j"><feOffset in="SourceAlpha" result="shadowOffsetOuter1"/><feGaussianBlur stdDeviation="17.5" in="shadowOffsetOuter1" result="shadowBlurOuter1"/><feComposite in="shadowBlurOuter1" in2="SourceAlpha" operator="out" result="shadowBlurOuter1"/><feColorMatrix values="0 0 0 0 0.305882353 0 0 0 0 0.305882353 0 0 0 0 0.305882353 0 0 0 0.3 0" in="shadowBlurOuter1"/></filter><filter x="-41.4%" y="-167.7%" width="182.7%" height="435.4%" filterUnits="objectBoundingBox" id="l"><feOffset in="SourceAlpha" result="shadowOffsetOuter1"/><feGaussianBlur stdDeviation="17.5" in="shadowOffsetOuter1" result="shadowBlurOuter1"/><feComposite in="shadowBlurOuter1" in2="SourceAlpha" operator="out" result="shadowBlurOuter1"/><feColorMatrix values="0 0 0 0 0.305882353 0 0 0 0 0.305882353 0 0 0 0 0.305882353 0 0 0 0.3 0" in="shadowBlurOuter1"/></filter><filter x="-47.3%" y="-133.7%" width="194.6%" height="367.3%" filterUnits="objectBoundingBox" id="n"><feOffset in="SourceAlpha" result="shadowOffsetOuter1"/><feGaussianBlur stdDeviation="17.5" in="shadowOffsetOuter1" result="shadowBlurOuter1"/><feComposite in="shadowBlurOuter1" in2="SourceAlpha" operator="out" result="shadowBlurOuter1"/><feColorMatrix values="0 0 0 0 0.305882353 0 0 0 0 0.305882353 0 0 0 0 0.305882353 0 0 0 0.3 0" in="shadowBlurOuter1"/></filter><filter x="-70.7%" y="-17.5%" width="241.4%" height="135%" filterUnits="objectBoundingBox" id="p"><feOffset in="SourceAlpha" result="shadowOffsetOuter1"/><feGaussianBlur stdDeviation="17.5" in="shadowOffsetOuter1" result="shadowBlurOuter1"/><feComposite in="shadowBlurOuter1" in2="SourceAlpha" operator="out" result="shadowBlurOuter1"/><feColorMatrix values="0 0 0 0 0.305882353 0 0 0 0 0.305882353 0 0 0 0 0.305882353 0 0 0 0.3 0" in="shadowBlurOuter1"/></filter><filter x="-41.9%" y="-113.1%" width="183.9%" height="326.2%" filterUnits="objectBoundingBox" id="r"><feOffset in="SourceAlpha" result="shadowOffsetOuter1"/><feGaussianBlur stdDeviation="17.5" in="shadowOffsetOuter1" result="shadowBlurOuter1"/><feComposite in="shadowBlurOuter1" in2="SourceAlpha" operator="out" result="shadowBlurOuter1"/><feColorMatrix values="0 0 0 0 0.305882353 0 0 0 0 0.305882353 0 0 0 0 0.305882353 0 0 0 0.3 0" in="shadowBlurOuter1"/></filter><filter x="-76.6%" y="-17.5%" width="253.3%" height="135%" filterUnits="objectBoundingBox" id="t"><feOffset in="SourceAlpha" result="shadowOffsetOuter1"/><feGaussianBlur stdDeviation="17.5" in="shadowOffsetOuter1" result="shadowBlurOuter1"/><feComposite in="shadowBlurOuter1" in2="SourceAlpha" operator="out" result="shadowBlurOuter1"/><feColorMatrix values="0 0 0 0 0.305882353 0 0 0 0 0.305882353 0 0 0 0 0.305882353 0 0 0 0.3 0" in="shadowBlurOuter1"/></filter><filter x="-27.9%" y="-17.9%" width="155.8%" height="135.9%" filterUnits="objectBoundingBox" id="v"><feOffset in="SourceAlpha" result="shadowOffsetOuter1"/><feGaussianBlur stdDeviation="17.5" in="shadowOffsetOuter1" result="shadowBlurOuter1"/><feComposite in="shadowBlurOuter1" in2="SourceAlpha" operator="out" result="shadowBlurOuter1"/><feColorMatrix values="0 0 0 0 0.305882353 0 0 0 0 0.305882353 0 0 0 0 0.305882353 0 0 0 0.3 0" in="shadowBlurOuter1"/></filter><linearGradient x1="50%" y1="0%" x2="50%" y2="100%" id="a"><stop stop-color="#444" offset="0%"/><stop offset="100%"/></linearGradient></defs><g fill="none" fill-rule="evenodd"><circle fill="url(#a)" cx="250" cy="250" r="250"/><path fill="#242424" d="m127.496 164.063 63.307-109.584h126.889L381 164.063V233l-61.085 231.254H194.762L127.222 233z"/><g transform="translate(119 38)"><mask id="c" fill="#fff"><use xlink:href="#b"/></mask><use fill="#000" fill-rule="nonzero" xlink:href="#b"/><g mask="url(#c)"><use fill="#000" filter="url(#d)" xlink:href="#e"/><path stroke-opacity=".4" stroke="#4E4E4E" stroke-width="2" d="M63.625 1.925 1.727 109.069l30.437 11.633 50.258-89.36L63.625 1.926Z" stroke-linejoin="square" fill="#242424"/></g><g mask="url(#c)"><use fill="#000" filter="url(#f)" xlink:href="#g"/><path stroke-opacity=".4" stroke="#4E4E4E" stroke-width="2" d="m171.086 31.35 50.256 89.356 30.98-11.643L190.416 1.905l-19.33 29.445Z" stroke-linejoin="square" fill="#242424"/></g><g mask="url(#c)"><use fill="#000" filter="url(#h)" xlink:href="#i"/><path stroke-opacity=".4" stroke="#4E4E4E" stroke-width="2" d="M31.805 122.705 1.798 111.237l72.768 249.566 20.818-36.832-63.58-201.266Z" stroke-linejoin="square" fill="#242424"/></g><g mask="url(#c)"><use fill="#000" filter="url(#j)" xlink:href="#k"/><path stroke-opacity=".4" stroke="#4E4E4E" stroke-width="2" d="m161.959 323.939 22.94 36.937 67.405-249.67-30.596 11.499-59.75 201.234Z" stroke-linejoin="square" fill="#242424"/></g><g mask="url(#c)"><use fill="#000" filter="url(#l)" xlink:href="#m"/><path stroke-opacity=".4" stroke="#4E4E4E" stroke-width="2" d="m65.407 1 18.729 29.31h85.24L188.619 1H65.408Z" stroke-linejoin="square" fill="#242424"/></g><g mask="url(#c)"><use fill="#000" filter="url(#n)" xlink:href="#o"/><path stroke-opacity=".4" stroke="#4E4E4E" stroke-width="2" d="M160.316 325.085H97.052l-21.068 37.274h107.481l-23.149-37.274Z" stroke-linejoin="square" fill="#242424"/></g><g mask="url(#c)"><use fill="#000" filter="url(#p)" xlink:href="#q"/><path stroke-opacity=".4" stroke="#4E4E4E" stroke-width="2" d="M1.247 116.492 1 178.38l66.21 226.699 6.038-41.648L1.247 116.492Z" stroke-linejoin="square" fill="#242424"/></g><g mask="url(#c)"><use fill="#000" filter="url(#r)" xlink:href="#s"/><path stroke-opacity=".4" stroke="#4E4E4E" stroke-width="2" d="M184.41 364.36H75.136l-6.44 44.415H191.52l-7.11-44.416Z" stroke-linejoin="square" fill="#242424"/></g><g mask="url(#c)"><use fill="#000" filter="url(#t)" xlink:href="#u"/><path stroke-opacity=".4" stroke="#4E4E4E" stroke-width="2" d="m186.285 363.413 6.648 41.536 59.845-226.558v-61.266l-66.493 246.288Z" stroke-linejoin="square" fill="#242424"/></g><g mask="url(#c)"><use fill="#000" filter="url(#v)" xlink:href="#w"/><path stroke-opacity=".4" stroke="#4E4E4E" stroke-width="2" d="m84.173 32.31-50.476 89.746 63.504 201.029h62.925l59.686-201.02-50.48-89.755h-85.16Z" stroke-linejoin="square" fill="#242424"/></g></g><path d="M191.077 228.88c14.197-24.782 21.979-38.178 23.347-40.188 1.362-2.001 19.87-23.41 55.522-64.229a4 4 0 0 0 .702-1.148l1.556-3.897a4 4 0 0 1 3.66-2.516l4.215-.059a4 4 0 0 1 2.5.834l9.962 7.694a4 4 0 0 1 .53.492l4.722 5.256c.728.81.925 1.965.507 2.97a2.074 2.074 0 0 1-2.413 1.216l-6.941-1.717a4 4 0 0 0-4.014 1.299c-35.915 42.43-54.726 64.321-56.434 65.671-1.732 1.37-14.206 10.811-37.42 28.322Z"/><g fill="#FFF"><path d="M251.792 123.935v18.174c.143.055.281.117.412.186l11.788 6.28 1.576-1.438-.196-.113-.748-.44 1.072-1.72.837.492.145.088c.165.095.31.187.445.274l12.352-11.273c-12.418 1.262-21.717-2.246-27.683-10.51Zm0-6.66c5.491 11.799 16.005 16.168 32.03 13.14a3.696 3.696 0 1 1 2.524 2.31l-.167.15c-4.855 14.358-.597 24.646 13.013 31.43a3.696 3.696 0 1 1-.069 3.488l-.126-.001c-13.091 6.568-17.42 16.605-13.18 30.624l1.075.982a3.696 3.696 0 1 1-3.112 2.532c-12.247-4.813-22.676-.516-31.697 13.247a3.696 3.696 0 1 1-3.539-.22v-.1c-10.09-13.505-20.827-17.697-32.55-12.931a3.696 3.696 0 1 1-2.667-2.452l.336-.305c3.391-13.76-.807-24.05-12.734-31.264a3.696 3.696 0 1 1 .06-3.473h.1c12.42-7.878 16.497-18.321 12.438-31.734a3.696 3.696 0 1 1 2.516-2.559l.393.358c16.488 2.894 26.956-1.62 31.928-13.544a3.695 3.695 0 0 1 1.748-6.953 3.696 3.696 0 0 1 1.68 6.989v.286Zm-3.36 6.587c-5.704 8.25-14.991 11.788-27.638 10.613l15.398 14.053 11.715-6.242-.008.009c.167-.089.345-.165.533-.23v-18.203Zm-30.568 12.488c2.023 11.262-1.668 20.689-10.971 28.082h27.331V151.28l-16.36-14.93Zm-11.158 31.442c8.937 6.936 12.661 16.198 11.103 27.592l12.286-11.212c-.02-.292-.03-.601-.031-.93v-.087h1.146l3.014-2.751v-12.612h-27.518Zm14.314 29.211c9.832-1.633 19.056 2.576 27.524 12.472v-16.887a3.78 3.78 0 0 1-.645-.267l-12.48-6.648c-.457-.245-.78-.567-.973-.923l-1.64 1.496c.25.347.603.652 1.14 1.007l.036.026c.153.097.324.202.531.334l.243.14.748.44-1.072 1.72-.837-.492-.145-.088c-.243-.15-.44-.272-.63-.395-.627-.41-1.132-.832-1.528-1.309l-10.272 9.374Zm30.884 12.626c7.939-10.288 17.186-14.5 27.548-12.472l-13.72-12.521c-.192.4-.542.766-1.05 1.037l-12.478 6.648a3.522 3.522 0 0 1-.3.141v17.167Zm29.497-15.242c-1.956-11.23 1.737-20.172 10.993-26.595h-26.49v12.452l15.497 14.143Zm11.328-29.955c-9.74-6.594-13.5-15.791-11.171-27.338l-12.094 11.036c.416.878.596 1.957.6 3.404v.088h-2.072c0-.822-.06-1.464-.186-1.979l-1.902 1.736v13.053h26.825Zm-28.425 4.565-11.843 6.268c-1.231.65-3.109.65-4.34 0l-11.817-6.259v14.731l11.817 6.224c.663.356 1.36.703 2.032.747l.138.009c.706 0 1.387-.356 2.084-.695l11.929-6.337v-14.688Zm-15.04-8.848c-.095.035-.182.07-.26.113l-12.657 6.698c-.017.009-.026.018-.034.018l-.009.008.017.009.026.017 12.657 6.698c.078.044.165.079.26.114V160.149Zm1.6.008v13.667c.095-.035.182-.07.26-.114l12.657-6.698c.017-.008.026-.017.034-.017l.009-.009-.017-.008-.026-.018-12.657-6.698a1.797 1.797 0 0 0-.26-.113v.008Zm12.96-7.248-11.2 5.953 11.2 5.952V152.91Zm-27.52 0v11.905l11.2-5.952-11.2-5.953Zm15.242-8.911c-.653-.346-1.83-.346-2.484 0l-12.555 6.633c-.017.008-.026.017-.034.017l-.009.009.017.008.026.017 12.555 6.633c.653.346 1.83.346 2.484 0l12.555-6.633c.017-.008.026-.017.034-.017l.009-.008-.017-.01-.026-.016-12.555-6.633Z"/></g></g></svg>