<svg width="612" height="1000" viewBox="0 0 612 1000" version="1.1" xmlns="http://www.w3.org/2000/svg" xmlns:xlink="http://www.w3.org/1999/xlink"><title>Artboard</title><desc>Created with Sketch.</desc><defs><polygon id="path-1" points="0.640167364 255.441741 148.518828 6.46957377e-13 444.916318 4.54747351e-13 592.794979 255.441741 592.794979 416.133163 450.106864 955.185659 157.764921 955.185659 0 416.133163"/><polygon id="path-3" points="148.518828 4.54747351e-13 195.251046 72.9833547 76.1799163 284.25096 0.640167364 255.441741"/><filter x="-27%" y="-18.5%" width="154%" height="136.9%" filterUnits="objectBoundingBox" id="filter-4"><feOffset dx="0" dy="0" in="SourceAlpha" result="shadowOffsetOuter1"/><feGaussianBlur stdDeviation="17.5" in="shadowOffsetOuter1" result="shadowBlurOuter1"/><feComposite in="shadowBlurOuter1" in2="SourceAlpha" operator="out" result="shadowBlurOuter1"/><feColorMatrix values="0 0 0 0 0.305882353 0 0 0 0 0.305882353 0 0 0 0 0.305882353 0 0 0 0.3 0" type="matrix" in="shadowBlurOuter1"/></filter><polygon id="path-5" points="396.903766 72.9833547 444.916318 4.54747351e-13 592.794979 255.441741 515.974895 284.25096"/><filter x="-26.8%" y="-18.5%" width="153.6%" height="136.9%" filterUnits="objectBoundingBox" id="filter-6"><feOffset dx="0" dy="0" in="SourceAlpha" result="shadowOffsetOuter1"/><feGaussianBlur stdDeviation="17.5" in="shadowOffsetOuter1" result="shadowBlurOuter1"/><feComposite in="shadowBlurOuter1" in2="SourceAlpha" operator="out" result="shadowBlurOuter1"/><feColorMatrix values="0 0 0 0 0.305882353 0 0 0 0 0.305882353 0 0 0 0 0.305882353 0 0 0 0.3 0" type="matrix" in="shadowBlurOuter1"/></filter><polygon id="path-7" points="76.1799163 284.25096 225.338912 755.441741 173.485356 846.991037 0.640167364 255.441741"/><filter x="-23.4%" y="-8.9%" width="146.7%" height="117.7%" filterUnits="objectBoundingBox" id="filter-8"><feOffset dx="0" dy="0" in="SourceAlpha" result="shadowOffsetOuter1"/><feGaussianBlur stdDeviation="17.5" in="shadowOffsetOuter1" result="shadowBlurOuter1"/><feComposite in="shadowBlurOuter1" in2="SourceAlpha" operator="out" result="shadowBlurOuter1"/><feColorMatrix values="0 0 0 0 0.305882353 0 0 0 0 0.305882353 0 0 0 0 0.305882353 0 0 0 0.3 0" type="matrix" in="shadowBlurOuter1"/></filter><polygon id="path-9" points="375.778243 755.441741 515.974895 284.25096 592.794979 255.441741 432.753138 846.991037"/><filter x="-24.2%" y="-8.9%" width="148.4%" height="117.7%" filterUnits="objectBoundingBox" id="filter-10"><feOffset dx="0" dy="0" in="SourceAlpha" result="shadowOffsetOuter1"/><feGaussianBlur stdDeviation="17.5" in="shadowOffsetOuter1" result="shadowBlurOuter1"/><feComposite in="shadowBlurOuter1" in2="SourceAlpha" operator="out" result="shadowBlurOuter1"/><feColorMatrix values="0 0 0 0 0.305882353 0 0 0 0 0.305882353 0 0 0 0 0.305882353 0 0 0 0.3 0" type="matrix" in="shadowBlurOuter1"/></filter><polygon id="path-11" points="148.518828 4.54747351e-13 444.916318 4.54747351e-13 396.903766 72.9833547 195.251046 72.9833547"/><filter x="-17.7%" y="-71.9%" width="135.4%" height="243.9%" filterUnits="objectBoundingBox" id="filter-12"><feOffset dx="0" dy="0" in="SourceAlpha" result="shadowOffsetOuter1"/><feGaussianBlur stdDeviation="17.5" in="shadowOffsetOuter1" result="shadowBlurOuter1"/><feComposite in="shadowBlurOuter1" in2="SourceAlpha" operator="out" result="shadowBlurOuter1"/><feColorMatrix values="0 0 0 0 0.305882353 0 0 0 0 0.305882353 0 0 0 0 0.305882353 0 0 0 0.3 0" type="matrix" in="shadowBlurOuter1"/></filter><polygon id="path-13" points="375.778243 755.441741 432.753138 846.991037 173.485356 846.991037 225.338912 755.441741"/><filter x="-20.2%" y="-57.3%" width="140.5%" height="214.7%" filterUnits="objectBoundingBox" id="filter-14"><feOffset dx="0" dy="0" in="SourceAlpha" result="shadowOffsetOuter1"/><feGaussianBlur stdDeviation="17.5" in="shadowOffsetOuter1" result="shadowBlurOuter1"/><feComposite in="shadowBlurOuter1" in2="SourceAlpha" operator="out" result="shadowBlurOuter1"/><feColorMatrix values="0 0 0 0 0.305882353 0 0 0 0 0.305882353 0 0 0 0 0.305882353 0 0 0 0.3 0" type="matrix" in="shadowBlurOuter1"/></filter><polygon id="path-15" points="0.640167364 255.441741 173.485356 846.991037 157.764921 955.185659 0 416.133163"/><filter x="-30.3%" y="-7.5%" width="160.5%" height="115%" filterUnits="objectBoundingBox" id="filter-16"><feOffset dx="0" dy="0" in="SourceAlpha" result="shadowOffsetOuter1"/><feGaussianBlur stdDeviation="17.5" in="shadowOffsetOuter1" result="shadowBlurOuter1"/><feComposite in="shadowBlurOuter1" in2="SourceAlpha" operator="out" result="shadowBlurOuter1"/><feColorMatrix values="0 0 0 0 0.305882353 0 0 0 0 0.305882353 0 0 0 0 0.305882353 0 0 0 0.3 0" type="matrix" in="shadowBlurOuter1"/></filter><polygon id="path-17" points="432.753138 846.991037 450.106864 955.185659 157.764921 955.185659 173.485356 846.991037"/><filter x="-18%" y="-48.5%" width="135.9%" height="197%" filterUnits="objectBoundingBox" id="filter-18"><feOffset dx="0" dy="0" in="SourceAlpha" result="shadowOffsetOuter1"/><feGaussianBlur stdDeviation="17.5" in="shadowOffsetOuter1" result="shadowBlurOuter1"/><feComposite in="shadowBlurOuter1" in2="SourceAlpha" operator="out" result="shadowBlurOuter1"/><feColorMatrix values="0 0 0 0 0.305882353 0 0 0 0 0.305882353 0 0 0 0 0.305882353 0 0 0 0.3 0" type="matrix" in="shadowBlurOuter1"/></filter><polygon id="path-19" points="432.753138 846.991037 592.794979 255.441741 592.794979 416.133163 450.106864 955.185659"/><filter x="-32.8%" y="-7.5%" width="165.6%" height="115%" filterUnits="objectBoundingBox" id="filter-20"><feOffset dx="0" dy="0" in="SourceAlpha" result="shadowOffsetOuter1"/><feGaussianBlur stdDeviation="17.5" in="shadowOffsetOuter1" result="shadowBlurOuter1"/><feComposite in="shadowBlurOuter1" in2="SourceAlpha" operator="out" result="shadowBlurOuter1"/><feColorMatrix values="0 0 0 0 0.305882353 0 0 0 0 0.305882353 0 0 0 0 0.305882353 0 0 0 0.3 0" type="matrix" in="shadowBlurOuter1"/></filter><polygon id="path-21" points="195.251046 72.9833547 396.903766 72.9833547 515.974895 284.25096 375.778243 755.441741 225.338912 755.441741 76.1799163 284.25096"/><filter x="-11.9%" y="-7.7%" width="123.9%" height="115.4%" filterUnits="objectBoundingBox" id="filter-22"><feOffset dx="0" dy="0" in="SourceAlpha" result="shadowOffsetOuter1"/><feGaussianBlur stdDeviation="17.5" in="shadowOffsetOuter1" result="shadowBlurOuter1"/><feComposite in="shadowBlurOuter1" in2="SourceAlpha" operator="out" result="shadowBlurOuter1"/><feColorMatrix values="0 0 0 0 0.305882353 0 0 0 0 0.305882353 0 0 0 0 0.305882353 0 0 0 0.3 0" type="matrix" in="shadowBlurOuter1"/></filter></defs><g id="Artboard" stroke="none" stroke-width="1" fill="none" fill-rule="evenodd"><g id="coffin"><polygon id="BG-Shadow" fill="#C5C5C5" fill-rule="evenodd" points="19.8451883 293.854033 167.723849 38.4122919 464.121339 38.4122919 612 293.854033 612 454.545455 469.311885 993.597951 176.969942 993.597951 19.2050209 454.545455"/><g id="Shaded-Cells" stroke-width="1" fill-rule="evenodd"><mask id="mask-2" fill="#fff"><use xlink:href="#path-1"/></mask><use id="Solid-Background" fill="#444" xlink:href="#path-1"/><g id="Shadow" mask="url(#mask-2)"><use fill="#000" fill-opacity="1" filter="url(#filter-4)" xlink:href="#path-3"/><path stroke-opacity=".4" stroke="#4E4E4E" stroke-width="2" d="M148.561847,1.92164214 L2.09420629,254.926024 L75.7315931,283.009723 L194.084644,73.0162024 L148.561847,1.92164214 Z" stroke-linejoin="square" fill="#242424" fill-rule="evenodd"/></g><g id="Shadow" mask="url(#mask-2)"><use fill="#000" fill-opacity="1" filter="url(#filter-6)" xlink:href="#path-5"/><path stroke-opacity=".4" stroke="#4E4E4E" stroke-width="2" d="M398.074309,73.0235499 L516.425591,283.013932 L591.337614,254.920277 L444.861991,1.90210733 L398.074309,73.0235499 Z" stroke-linejoin="square" fill="#242424" fill-rule="evenodd"/></g><g id="Shadow" mask="url(#mask-2)"><use fill="#000" fill-opacity="1" filter="url(#filter-8)" xlink:href="#path-7"/><path stroke-opacity=".4" stroke="#4E4E4E" stroke-width="2" d="M75.3723043,285.013211 L2.16457222,257.093373 L173.781514,844.439091 L224.254024,755.328082 L75.3723043,285.013211 Z" stroke-linejoin="square" fill="#242424" fill-rule="evenodd"/></g><g id="Shadow" mask="url(#mask-2)"><use fill="#000" fill-opacity="1" filter="url(#filter-10)" xlink:href="#path-9"/><path stroke-opacity=".4" stroke="#4E4E4E" stroke-width="2" d="M376.865077,755.29551 L432.38797,844.511676 L591.320477,257.06272 L516.791577,285.012695 L376.865077,755.29551 Z" stroke-linejoin="square" fill="#242424" fill-rule="evenodd"/></g><g id="Shadow" mask="url(#mask-2)"><use fill="#000" fill-opacity="1" filter="url(#filter-12)" xlink:href="#path-11"/><path stroke-opacity=".4" stroke="#4E4E4E" stroke-width="2" d="M150.346577,1 L195.798167,71.9833547 L396.364636,71.9833547 L443.061476,1 L150.346577,1 Z" stroke-linejoin="square" fill="#242424" fill-rule="evenodd"/></g><g id="Shadow" mask="url(#mask-2)"><use fill="#000" fill-opacity="1" filter="url(#filter-14)" xlink:href="#path-13"/><path stroke-opacity=".4" stroke="#4E4E4E" stroke-width="2" d="M375.222743,756.441741 L225.921776,756.441741 L175.201021,845.991037 L430.952956,845.991037 L375.222743,756.441741 Z" stroke-linejoin="square" fill="#242424" fill-rule="evenodd"/></g><g id="Shadow" mask="url(#mask-2)"><use fill="#000" fill-opacity="1" filter="url(#filter-16)" xlink:href="#path-15"/><path stroke-opacity=".4" stroke="#4E4E4E" stroke-width="2" d="M1.61271085,262.335722 L1.00057116,415.991785 L157.435329,950.499366 L172.464455,847.062611 L1.61271085,262.335722 Z" stroke-linejoin="square" fill="#242424" fill-rule="evenodd"/></g><g id="Shadow" mask="url(#mask-2)"><use fill="#000" fill-opacity="1" filter="url(#filter-18)" xlink:href="#path-17"/><path stroke-opacity=".4" stroke="#4E4E4E" stroke-width="2" d="M431.90075,847.991037 L174.350558,847.991037 L158.92072,954.185659 L448.933689,954.185659 L431.90075,847.991037 Z" stroke-linejoin="square" fill="#242424" fill-rule="evenodd"/></g><g id="Shadow" mask="url(#mask-2)"><use fill="#000" fill-opacity="1" filter="url(#filter-20)" xlink:href="#path-19"/><path stroke-opacity=".4" stroke="#4E4E4E" stroke-width="2" d="M433.774543,847.044804 L450.347204,950.369747 L591.794979,416.003052 L591.794979,262.967059 L433.774543,847.044804 Z" stroke-linejoin="square" fill="#242424" fill-rule="evenodd"/></g><g id="Shadow" mask="url(#mask-2)"><use fill="#000" fill-opacity="1" filter="url(#filter-22)" xlink:href="#path-21"/><path stroke-opacity=".4" stroke="#4E4E4E" stroke-width="2" d="M195.835331,73.9833547 L77.2644238,284.363418 L226.071263,754.441741 L375.032454,754.441741 L514.895442,284.372384 L396.31948,73.9833547 L195.835331,73.9833547 Z" stroke-linejoin="square" fill="#242424" fill-rule="evenodd"/></g></g><g id="BFTM-Icon" fill="#FFF" fill-rule="evenodd"><path d="M134.676,32.4742998 L134.676,74.8657365 C134.967782,74.9806742 135.248818,75.1089697 135.51661,75.2506231 L163.117698,89.8839149 L166.762694,86.5574132 C166.741115,86.543799 166.719366,86.5300624 166.697444,86.5161996 L166.132053,86.1913358 L164.394,85.1761365 L166.885907,81.1965552 L168.833364,82.3335784 L169.168411,82.5366183 C169.618196,82.7950572 170.001719,83.0406463 170.36115,83.2733857 L199.188396,56.9650252 C170.24902,59.9073021 148.579441,51.7324302 134.676,32.4742998 Z M134.676,16.9536506 C147.472476,44.4491383 171.97295,54.6299486 209.315842,47.5738213 C208.982053,46.6556135 208.8,45.6645672 208.8,44.631 C208.8,39.8741714 212.656171,36.018 217.413,36.018 C222.169829,36.018 226.026,39.8741714 226.026,44.631 C226.026,49.3878286 222.169829,53.244 217.413,53.244 C216.646711,53.244 215.903794,53.1439293 215.196606,52.9561435 L214.810787,53.3082504 C203.495672,86.7653277 213.419611,110.741938 245.133802,126.548223 C246.609254,123.922199 249.421434,122.148 252.648,122.148 C257.404829,122.148 261.261,126.004171 261.261,130.761 C261.261,135.517829 257.404829,139.374 252.648,139.374 C249.300922,139.374 246.399763,137.464793 244.974146,134.676001 L244.67958,134.676 C214.173803,149.982034 204.086465,173.371538 213.964807,206.041617 L216.471097,208.328911 C216.780442,208.295266 217.094705,208.278 217.413,208.278 C222.169829,208.278 226.026,212.134171 226.026,216.891 C226.026,221.647829 222.169829,225.504 217.413,225.504 C212.656171,225.504 208.8,221.647829 208.8,216.891 C208.8,215.962027 208.947071,215.067403 209.2192,214.229144 C180.678841,203.013723 156.375755,213.028154 135.352978,245.098838 C137.769152,246.624407 139.374,249.318287 139.374,252.387 C139.374,257.143829 135.517829,261 130.761,261 C126.004171,261 122.148,257.143829 122.148,252.387 C122.148,248.936501 124.177015,245.959903 127.107,244.585252 L127.107,244.352552 C103.595465,212.881971 78.572943,203.113673 51.2559523,214.220348 C51.5298983,215.061147 51.678,215.958778 51.678,216.891 C51.678,221.647829 47.8218286,225.504 43.065,225.504 C38.3081714,225.504 34.452,221.647829 34.452,216.891 C34.452,212.134171 38.3081714,208.278 43.065,208.278 C43.745312,208.278 44.4072019,208.356875 45.0420238,208.505978 L45.8207166,207.795327 C53.7247886,175.729511 43.9423793,151.749821 16.1470759,134.938192 C14.6771049,137.58376 11.8541189,139.374 8.613,139.374 C3.85617145,139.374 0,135.517829 0,130.761 C0,126.004171 3.85617145,122.148 8.613,122.148 C11.9600784,122.148 14.8612375,124.057207 16.2868543,126.845999 L16.5213941,126.846 C45.4607248,108.486343 54.9645572,84.1504176 45.5054376,52.8933745 C44.7317073,53.1215502 43.9126535,53.244 43.065,53.244 C38.3081714,53.244 34.452,49.3878286 34.452,44.631 C34.452,39.8741714 38.3081714,36.018 43.065,36.018 C47.8218286,36.018 51.678,39.8741714 51.678,44.631 C51.678,45.4274196 51.5699051,46.1985922 51.3675863,46.930647 L52.2829761,47.7660514 C90.7061004,54.5088271 115.101389,43.9890012 126.686654,16.2032806 C123.984738,14.7498863 122.148,11.8959397 122.148,8.613 C122.148,3.85617145 126.004171,0 130.761,0 C135.517829,0 139.374,3.85617145 139.374,8.613 C139.374,11.9600784 137.464793,14.8612375 134.676001,16.2868543 L134.676,16.9536506 Z M126.846,32.3040687 C113.553458,51.5294929 91.9115217,59.7737914 62.4399894,57.0355586 L98.2332835,89.7012833 L125.527673,75.2305942 L125.507814,75.2506231 C125.924894,75.0300007 126.374102,74.841781 126.846,74.6859641 L126.846,32.3040687 Z M55.6121023,61.4048357 C60.3248252,87.6483965 51.7245478,109.617331 30.0441483,126.846 L93.714,126.846 L93.714,96.1774414 L55.6121023,61.4048357 Z M29.6093055,134.676 C50.4367967,150.83947 59.1150882,172.422457 55.4845309,198.975923 L84.1665411,172.800108 C84.0853275,171.934611 84.0450808,171.002306 84.042,169.992655 L84.042,169.789615 L87.4652728,169.789615 L93.714,164.086893 L93.714,134.676 L29.6093055,134.676 Z M62.9662109,202.748535 C85.8780537,198.943124 107.372761,208.751555 127.107007,231.811299 L127.107,191.644236 C126.539402,191.473948 126.001135,191.258328 125.507814,190.997377 L96.4942211,175.615216 C95.6344766,175.158352 94.9813,174.584297 94.5246746,173.947607 L90.7658785,177.377965 C91.3158873,178.008956 92.0492243,178.600824 93.0673113,179.271577 L93.1510728,179.332489 C93.5070596,179.555833 93.9049272,179.79948 94.3865563,180.10404 L94.951947,180.428904 L96.69,181.444103 L94.1980927,185.423685 L92.2506358,184.286661 L91.9155894,184.083621 C91.3501987,183.738454 90.8895099,183.454198 90.4497616,183.169942 C89.181505,182.344595 88.1298882,181.499602 87.2706748,180.567762 L62.9662109,202.748535 Z M134.937,232.17022 C153.436979,208.195956 174.985561,198.379279 199.134264,203.1075 L166.774952,173.575701 C166.303802,174.360366 165.554423,175.07095 164.530203,175.615216 L135.51661,190.997377 C135.329583,191.096308 135.136096,191.188724 134.937,191.274624 L134.937,232.17022 Z M203.675829,196.651676 C199.116764,170.480642 207.722979,149.644095 229.29252,134.676 L167.37,134.676 L167.37,163.518201 L203.675829,196.651676 Z M230.073925,126.846 C207.375345,111.480008 198.614378,90.0463005 204.040376,63.137557 L175.744162,88.9612866 C176.641129,90.954256 177.032134,93.3943232 177.042,96.6275847 L177.042,96.8306246 L172.225709,96.8306246 C172.225709,95.0655002 172.10288,93.6576619 171.85298,92.5124628 L167.37,96.6037257 L167.37,126.846 L230.073925,126.846 Z M163.65,137.032517 L136.116164,151.5338 C133.252645,153.040165 128.887281,153.040165 126.023762,151.5338 L98.55,137.052602 L98.55,171.136641 L126.023762,185.537499 C127.565657,186.360979 129.18765,187.164374 130.749569,187.264798 L131.069963,187.284883 C132.711981,187.284883 134.293925,186.461403 135.915918,185.678093 L163.65,171.016132 L163.65,137.032517 Z M128.682,116.559331 C128.460441,116.640046 128.259024,116.720762 128.077749,116.821656 L98.6507086,132.318984 C98.6104251,132.339163 98.5902834,132.359342 98.5701417,132.359342 L98.55,132.379521 L98.5902834,132.399699 L98.6507086,132.440057 L128.077749,147.937385 C128.259024,148.038279 128.460441,148.118995 128.682,148.19971 L128.682,116.57951 L128.682,116.559331 Z M132.402,116.57951 L132.402,148.19971 C132.623559,148.118995 132.824976,148.038279 133.006251,147.937385 L162.433291,132.440057 C162.473575,132.419878 162.493717,132.399699 162.513858,132.399699 L162.534,132.379521 L162.493717,132.359342 L162.433291,132.318984 L133.006251,116.821656 C132.824976,116.720762 132.623559,116.640046 132.402,116.559331 L132.402,116.57951 Z M162.534,99.8085426 L136.494,113.581413 L162.534,127.354284 L162.534,99.8085426 Z M98.55,99.8085426 L98.55,127.354284 L124.59,113.581413 L98.55,99.8085426 Z M133.987129,79.1903642 C132.468639,78.3910479 129.731361,78.3910479 128.212871,79.1903642 L99.0219007,94.5372374 C98.9819404,94.5572203 98.9619603,94.5772032 98.9419801,94.5772032 L98.922,94.5971861 L98.9619603,94.617169 L99.0219007,94.6571348 L128.212871,110.004008 C129.731361,110.803324 132.468639,110.803324 133.987129,110.004008 L163.178099,94.6571348 C163.21806,94.6371519 163.23804,94.617169 163.25802,94.617169 L163.278,94.5971861 L163.23804,94.5772032 L163.178099,94.5372374 L133.987129,79.1903642 Z" transform="translate(165.803347, 174.135723)"/></g><path d="M168.364017,444.942382 C201.524727,387.174514 219.702666,355.948378 222.897834,351.263973 C226.087288,346.587946 269.51824,296.453758 353.19069,200.861407 C353.488628,200.521032 353.726668,200.132583 353.894686,199.712593 L359.186996,186.48346 C359.787002,184.983632 361.230254,183.991917 362.845492,183.969565 L378.128208,183.75808 C379.030599,183.745592 379.910695,184.03863 380.625484,184.589576 L405.753902,203.958092 C405.945299,204.105618 406.122934,204.270184 406.284627,204.449773 L418.72701,218.26921 C419.760847,219.417467 420.040915,221.05847 419.446449,222.484627 L418.544591,224.648236 C417.785172,226.470125 415.810317,227.4657 413.893996,226.99272 L393.749997,222.020848 C392.275923,221.657017 390.722941,222.159127 389.740884,223.317069 C304.452172,323.880865 259.796772,375.749806 255.774681,378.923893 C251.727469,382.117805 222.59058,404.123968 168.364017,444.942382 Z" id="Background-Mask" fill-rule="nonzero"/></g></g></svg>