<svg width="612" height="1000" viewBox="0 0 612 1000" version="1.1" xmlns="http://www.w3.org/2000/svg" xmlns:xlink="http://www.w3.org/1999/xlink"><title>Artboard</title><desc>Created with Sketch.</desc><defs><polygon id="path-1" points="0.640167364 255.441741 148.518828 6.46957377e-13 444.916318 4.54747351e-13 592.794979 255.441741 592.794979 416.133163 450.106864 955.185659 157.764921 955.185659 0 416.133163"/><polygon id="path-3" points="148.518828 4.54747351e-13 195.251046 72.9833547 76.1799163 284.25096 0.640167364 255.441741"/><filter x="-27%" y="-18.5%" width="154%" height="136.9%" filterUnits="objectBoundingBox" id="filter-4"><feOffset dx="0" dy="0" in="SourceAlpha" result="shadowOffsetOuter1"/><feGaussianBlur stdDeviation="17.5" in="shadowOffsetOuter1" result="shadowBlurOuter1"/><feComposite in="shadowBlurOuter1" in2="SourceAlpha" operator="out" result="shadowBlurOuter1"/><feColorMatrix values="0 0 0 0 0.00523997927 0 0 0 0 0.113304925 0 0 0 0 0.30932971 0 0 0 0.3 0" type="matrix" in="shadowBlurOuter1"/></filter><polygon id="path-5" points="396.903766 72.9833547 444.916318 4.54747351e-13 592.794979 255.441741 515.974895 284.25096"/><filter x="-26.8%" y="-18.5%" width="153.6%" height="136.9%" filterUnits="objectBoundingBox" id="filter-6"><feOffset dx="0" dy="0" in="SourceAlpha" result="shadowOffsetOuter1"/><feGaussianBlur stdDeviation="17.5" in="shadowOffsetOuter1" result="shadowBlurOuter1"/><feComposite in="shadowBlurOuter1" in2="SourceAlpha" operator="out" result="shadowBlurOuter1"/><feColorMatrix values="0 0 0 0 0.00523997927 0 0 0 0 0.113304925 0 0 0 0 0.30932971 0 0 0 0.3 0" type="matrix" in="shadowBlurOuter1"/></filter><polygon id="path-7" points="76.1799163 284.25096 225.338912 755.441741 173.485356 846.991037 0.640167364 255.441741"/><filter x="-23.4%" y="-8.9%" width="146.7%" height="117.7%" filterUnits="objectBoundingBox" id="filter-8"><feOffset dx="0" dy="0" in="SourceAlpha" result="shadowOffsetOuter1"/><feGaussianBlur stdDeviation="17.5" in="shadowOffsetOuter1" result="shadowBlurOuter1"/><feComposite in="shadowBlurOuter1" in2="SourceAlpha" operator="out" result="shadowBlurOuter1"/><feColorMatrix values="0 0 0 0 0.00523997927 0 0 0 0 0.113304925 0 0 0 0 0.30932971 0 0 0 0.3 0" type="matrix" in="shadowBlurOuter1"/></filter><polygon id="path-9" points="375.778243 755.441741 515.974895 284.25096 592.794979 255.441741 432.753138 846.991037"/><filter x="-24.2%" y="-8.9%" width="148.4%" height="117.7%" filterUnits="objectBoundingBox" id="filter-10"><feOffset dx="0" dy="0" in="SourceAlpha" result="shadowOffsetOuter1"/><feGaussianBlur stdDeviation="17.5" in="shadowOffsetOuter1" result="shadowBlurOuter1"/><feComposite in="shadowBlurOuter1" in2="SourceAlpha" operator="out" result="shadowBlurOuter1"/><feColorMatrix values="0 0 0 0 0.00523997927 0 0 0 0 0.113304925 0 0 0 0 0.30932971 0 0 0 0.3 0" type="matrix" in="shadowBlurOuter1"/></filter><polygon id="path-11" points="148.518828 4.54747351e-13 444.916318 4.54747351e-13 396.903766 72.9833547 195.251046 72.9833547"/><filter x="-17.7%" y="-71.9%" width="135.4%" height="243.9%" filterUnits="objectBoundingBox" id="filter-12"><feOffset dx="0" dy="0" in="SourceAlpha" result="shadowOffsetOuter1"/><feGaussianBlur stdDeviation="17.5" in="shadowOffsetOuter1" result="shadowBlurOuter1"/><feComposite in="shadowBlurOuter1" in2="SourceAlpha" operator="out" result="shadowBlurOuter1"/><feColorMatrix values="0 0 0 0 0.00523997927 0 0 0 0 0.113304925 0 0 0 0 0.30932971 0 0 0 0.3 0" type="matrix" in="shadowBlurOuter1"/></filter><polygon id="path-13" points="375.778243 755.441741 432.753138 846.991037 173.485356 846.991037 225.338912 755.441741"/><filter x="-20.2%" y="-57.3%" width="140.5%" height="214.7%" filterUnits="objectBoundingBox" id="filter-14"><feOffset dx="0" dy="0" in="SourceAlpha" result="shadowOffsetOuter1"/><feGaussianBlur stdDeviation="17.5" in="shadowOffsetOuter1" result="shadowBlurOuter1"/><feComposite in="shadowBlurOuter1" in2="SourceAlpha" operator="out" result="shadowBlurOuter1"/><feColorMatrix values="0 0 0 0 0.00523997927 0 0 0 0 0.113304925 0 0 0 0 0.30932971 0 0 0 0.3 0" type="matrix" in="shadowBlurOuter1"/></filter><polygon id="path-15" points="0.640167364 255.441741 173.485356 846.991037 157.764921 955.185659 0 416.133163"/><filter x="-30.3%" y="-7.5%" width="160.5%" height="115%" filterUnits="objectBoundingBox" id="filter-16"><feOffset dx="0" dy="0" in="SourceAlpha" result="shadowOffsetOuter1"/><feGaussianBlur stdDeviation="17.5" in="shadowOffsetOuter1" result="shadowBlurOuter1"/><feComposite in="shadowBlurOuter1" in2="SourceAlpha" operator="out" result="shadowBlurOuter1"/><feColorMatrix values="0 0 0 0 0.00523997927 0 0 0 0 0.113304925 0 0 0 0 0.30932971 0 0 0 0.3 0" type="matrix" in="shadowBlurOuter1"/></filter><polygon id="path-17" points="432.753138 846.991037 450.106864 955.185659 157.764921 955.185659 173.485356 846.991037"/><filter x="-18%" y="-48.5%" width="135.9%" height="197%" filterUnits="objectBoundingBox" id="filter-18"><feOffset dx="0" dy="0" in="SourceAlpha" result="shadowOffsetOuter1"/><feGaussianBlur stdDeviation="17.5" in="shadowOffsetOuter1" result="shadowBlurOuter1"/><feComposite in="shadowBlurOuter1" in2="SourceAlpha" operator="out" result="shadowBlurOuter1"/><feColorMatrix values="0 0 0 0 0.00523997927 0 0 0 0 0.113304925 0 0 0 0 0.30932971 0 0 0 0.3 0" type="matrix" in="shadowBlurOuter1"/></filter><polygon id="path-19" points="432.753138 846.991037 592.794979 255.441741 592.794979 416.133163 450.106864 955.185659"/><filter x="-32.8%" y="-7.5%" width="165.6%" height="115%" filterUnits="objectBoundingBox" id="filter-20"><feOffset dx="0" dy="0" in="SourceAlpha" result="shadowOffsetOuter1"/><feGaussianBlur stdDeviation="17.5" in="shadowOffsetOuter1" result="shadowBlurOuter1"/><feComposite in="shadowBlurOuter1" in2="SourceAlpha" operator="out" result="shadowBlurOuter1"/><feColorMatrix values="0 0 0 0 0.00523997927 0 0 0 0 0.113304925 0 0 0 0 0.30932971 0 0 0 0.3 0" type="matrix" in="shadowBlurOuter1"/></filter><polygon id="path-21" points="195.251046 72.9833547 396.903766 72.9833547 515.974895 284.25096 375.778243 755.441741 225.338912 755.441741 76.1799163 284.25096"/><filter x="-11.9%" y="-7.7%" width="123.9%" height="115.4%" filterUnits="objectBoundingBox" id="filter-22"><feOffset dx="0" dy="0" in="SourceAlpha" result="shadowOffsetOuter1"/><feGaussianBlur stdDeviation="17.5" in="shadowOffsetOuter1" result="shadowBlurOuter1"/><feComposite in="shadowBlurOuter1" in2="SourceAlpha" operator="out" result="shadowBlurOuter1"/><feColorMatrix values="0 0 0 0 0.00523997927 0 0 0 0 0.113304925 0 0 0 0 0.30932971 0 0 0 0.3 0" type="matrix" in="shadowBlurOuter1"/></filter></defs><g id="Artboard" stroke="none" stroke-width="1" fill="none" fill-rule="evenodd"><g id="coffin"><polygon id="BG-Shadow" fill="#88AFF6" fill-rule="evenodd" points="19.8451883 293.854033 167.723849 38.4122919 464.121339 38.4122919 612 293.854033 612 454.545455 469.311885 993.597951 176.969942 993.597951 19.2050209 454.545455"/><g id="Shaded-Cells" stroke-width="1" fill-rule="evenodd"><mask id="mask-2" fill="#fff"><use xlink:href="#path-1"/></mask><use id="Solid-Background" fill="#022D7B" xlink:href="#path-1"/><g id="Shadow" mask="url(#mask-2)"><use fill="#000" fill-opacity="1" filter="url(#filter-4)" xlink:href="#path-3"/><path stroke-opacity=".2" stroke="#011D4F" stroke-width="2" d="M148.561847,1.92164214 L2.09420629,254.926024 L75.7315931,283.009723 L194.084644,73.0162024 L148.561847,1.92164214 Z" stroke-linejoin="square" fill="#1969FF" fill-rule="evenodd"/></g><g id="Shadow" mask="url(#mask-2)"><use fill="#000" fill-opacity="1" filter="url(#filter-6)" xlink:href="#path-5"/><path stroke-opacity=".2" stroke="#011D4F" stroke-width="2" d="M398.074309,73.0235499 L516.425591,283.013932 L591.337614,254.920277 L444.861991,1.90210733 L398.074309,73.0235499 Z" stroke-linejoin="square" fill="#1969FF" fill-rule="evenodd"/></g><g id="Shadow" mask="url(#mask-2)"><use fill="#000" fill-opacity="1" filter="url(#filter-8)" xlink:href="#path-7"/><path stroke-opacity=".2" stroke="#011D4F" stroke-width="2" d="M75.3723043,285.013211 L2.16457222,257.093373 L173.781514,844.439091 L224.254024,755.328082 L75.3723043,285.013211 Z" stroke-linejoin="square" fill="#1969FF" fill-rule="evenodd"/></g><g id="Shadow" mask="url(#mask-2)"><use fill="#000" fill-opacity="1" filter="url(#filter-10)" xlink:href="#path-9"/><path stroke-opacity=".2" stroke="#011D4F" stroke-width="2" d="M376.865077,755.29551 L432.38797,844.511676 L591.320477,257.06272 L516.791577,285.012695 L376.865077,755.29551 Z" stroke-linejoin="square" fill="#1969FF" fill-rule="evenodd"/></g><g id="Shadow" mask="url(#mask-2)"><use fill="#000" fill-opacity="1" filter="url(#filter-12)" xlink:href="#path-11"/><path stroke-opacity=".2" stroke="#011D4F" stroke-width="2" d="M150.346577,1 L195.798167,71.9833547 L396.364636,71.9833547 L443.061476,1 L150.346577,1 Z" stroke-linejoin="square" fill="#1969FF" fill-rule="evenodd"/></g><g id="Shadow" mask="url(#mask-2)"><use fill="#000" fill-opacity="1" filter="url(#filter-14)" xlink:href="#path-13"/><path stroke-opacity=".2" stroke="#011D4F" stroke-width="2" d="M375.222743,756.441741 L225.921776,756.441741 L175.201021,845.991037 L430.952956,845.991037 L375.222743,756.441741 Z" stroke-linejoin="square" fill="#1969FF" fill-rule="evenodd"/></g><g id="Shadow" mask="url(#mask-2)"><use fill="#000" fill-opacity="1" filter="url(#filter-16)" xlink:href="#path-15"/><path stroke-opacity=".2" stroke="#011D4F" stroke-width="2" d="M1.61271085,262.335722 L1.00057116,415.991785 L157.435329,950.499366 L172.464455,847.062611 L1.61271085,262.335722 Z" stroke-linejoin="square" fill="#1969FF" fill-rule="evenodd"/></g><g id="Shadow" mask="url(#mask-2)"><use fill="#000" fill-opacity="1" filter="url(#filter-18)" xlink:href="#path-17"/><path stroke-opacity=".2" stroke="#011D4F" stroke-width="2" d="M431.90075,847.991037 L174.350558,847.991037 L158.92072,954.185659 L448.933689,954.185659 L431.90075,847.991037 Z" stroke-linejoin="square" fill="#1969FF" fill-rule="evenodd"/></g><g id="Shadow" mask="url(#mask-2)"><use fill="#000" fill-opacity="1" filter="url(#filter-20)" xlink:href="#path-19"/><path stroke-opacity=".2" stroke="#011D4F" stroke-width="2" d="M433.774543,847.044804 L450.347204,950.369747 L591.794979,416.003052 L591.794979,262.967059 L433.774543,847.044804 Z" stroke-linejoin="square" fill="#1969FF" fill-rule="evenodd"/></g><g id="Shadow" mask="url(#mask-2)"><use fill="#000" fill-opacity="1" filter="url(#filter-22)" xlink:href="#path-21"/><path stroke-opacity=".2" stroke="#011D4F" stroke-width="2" d="M195.835331,73.9833547 L77.2644238,284.363418 L226.071263,754.441741 L375.032454,754.441741 L514.895442,284.372384 L396.31948,73.9833547 L195.835331,73.9833547 Z" stroke-linejoin="square" fill="#1969FF" fill-rule="evenodd"/></g></g><g id="FTM-Logo" transform="translate(212.535565, 182.458387)" fill="#04122D" fill-rule="evenodd"><path d="M76.6894624,2.08138844 C81.9415605,-0.693796147 89.9482556,-0.693796147 95.2003537,2.08138844 L148.859902,30.4992786 C152.018506,32.1643894 153.781448,34.6805567 154.075272,37.270729 L154.112,37.270729 L154.112,180.063227 C154.038544,182.875414 152.275602,185.687601 148.859902,187.500721 L95.2003537,215.918612 C89.9482556,218.693796 81.9415605,218.693796 76.6894624,215.918612 L23.0299143,187.500721 C19.6142141,185.687601 17.9614559,182.875414 17.888,180.063227 L17.888,37.2337266 L17.924728,37.2337266 C18.1450957,34.6435543 19.8345818,32.2013918 23.0666422,30.4622762 L76.7261903,2.04438598 L76.6894624,2.08138844 Z M147.232,116.22082 L96.309207,143.011325 C91.0132365,145.794272 82.9396592,145.794272 77.6436887,143.011325 L26.832,116.257926 L26.832,179.226744 L77.6436887,205.831718 C80.4953651,207.353063 83.4951806,208.837301 86.3838917,209.022831 L86.9764479,209.059937 C90.0132981,209.059937 92.939044,207.538592 95.9388594,206.09146 L147.232,179.004108 L147.232,116.22082 Z M8.90754967,176.73817 C8.90754967,182.289762 9.56593377,185.928305 10.9214305,188.516547 C12.0058278,190.65466 13.6711523,192.267623 16.6919735,194.255693 L16.8468874,194.368225 C17.5052715,194.780843 18.2411126,195.230972 19.1318675,195.793633 L20.1775364,196.393806 L23.392,198.269343 L18.7833113,205.621451 L15.1815629,203.520849 L14.5619073,203.145741 C13.5162384,202.508059 12.6642119,201.982908 11.8509139,201.457757 C3.25319205,195.868655 0.0387284768,189.791913 0,177.113278 L0,176.73817 L8.90754967,176.73817 Z M82.56,78.3974763 C82.1502353,78.5465943 81.7777219,78.6957124 81.4424599,78.8821099 L27.0182567,107.512767 C26.943754,107.550047 26.9065027,107.587326 26.8692513,107.587326 L26.832,107.624606 L26.9065027,107.661885 L27.0182567,107.736444 L81.4424599,136.367101 C81.7777219,136.553499 82.1502353,136.702617 82.56,136.851735 L82.56,78.4347558 L82.56,78.3974763 Z M89.44,78.4347558 L89.44,136.851735 C89.8497647,136.702617 90.2222781,136.553499 90.5575401,136.367101 L144.981743,107.736444 C145.056246,107.699165 145.093497,107.661885 145.130749,107.661885 L145.168,107.624606 L145.093497,107.587326 L144.981743,107.512767 L90.5575401,78.8821099 C90.2222781,78.6957124 89.8497647,78.5465943 89.44,78.3974763 L89.44,78.4347558 Z M145.168,47.4511041 L97.008,72.8958991 L145.168,98.340694 L145.168,47.4511041 Z M26.832,47.4511041 L26.832,98.340694 L74.992,72.8958991 L26.832,47.4511041 Z M92.3716361,9.35989319 C89.5632462,7.88319018 84.5007538,7.88319018 81.6923639,9.35989319 L27.7047625,37.7125911 C27.6308575,37.7495087 27.593905,37.7864263 27.5569525,37.7864263 L27.52,37.8233438 L27.593905,37.8602614 L27.7047625,37.9340966 L81.6923639,66.2867945 C84.5007538,67.7634975 89.5632462,67.7634975 92.3716361,66.2867945 L146.359238,37.9340966 C146.433143,37.897179 146.470095,37.8602614 146.507048,37.8602614 L146.544,37.8233438 L146.470095,37.7864263 L146.359238,37.7125911 L92.3716361,9.35989319 Z M153.216689,13.0662461 L156.818437,15.1668483 L157.438093,15.5419558 C158.483762,16.1421279 159.335788,16.7047892 160.149086,17.2299398 C168.746808,22.8190422 171.961272,28.8957843 172,41.5744193 L172,41.9495268 L163.09245,41.9495268 C163.09245,36.3979352 162.434066,32.759392 161.07857,30.17115 C159.994172,28.033037 158.328848,26.4200746 155.308026,24.4320046 L155.153113,24.3194723 C154.494728,23.906854 153.758887,23.456725 152.868132,22.8940637 L151.822464,22.2938916 L148.608,20.4183539 L153.216689,13.0662461 Z" id="Shape"/></g><g id="FTM-Logo" transform="translate(208.694561, 174.135723)" fill="#EDF3FF" fill-rule="evenodd"><path d="M76.6894624,2.08138844 C81.9415605,-0.693796147 89.9482556,-0.693796147 95.2003537,2.08138844 L148.859902,30.4992786 C152.018506,32.1643894 153.781448,34.6805567 154.075272,37.270729 L154.112,37.270729 L154.112,180.063227 C154.038544,182.875414 152.275602,185.687601 148.859902,187.500721 L95.2003537,215.918612 C89.9482556,218.693796 81.9415605,218.693796 76.6894624,215.918612 L23.0299143,187.500721 C19.6142141,185.687601 17.9614559,182.875414 17.888,180.063227 L17.888,37.2337266 L17.924728,37.2337266 C18.1450957,34.6435543 19.8345818,32.2013918 23.0666422,30.4622762 L76.7261903,2.04438598 L76.6894624,2.08138844 Z M147.232,116.22082 L96.309207,143.011325 C91.0132365,145.794272 82.9396592,145.794272 77.6436887,143.011325 L26.832,116.257926 L26.832,179.226744 L77.6436887,205.831718 C80.4953651,207.353063 83.4951806,208.837301 86.3838917,209.022831 L86.9764479,209.059937 C90.0132981,209.059937 92.939044,207.538592 95.9388594,206.09146 L147.232,179.004108 L147.232,116.22082 Z M8.90754967,176.73817 C8.90754967,182.289762 9.56593377,185.928305 10.9214305,188.516547 C12.0058278,190.65466 13.6711523,192.267623 16.6919735,194.255693 L16.8468874,194.368225 C17.5052715,194.780843 18.2411126,195.230972 19.1318675,195.793633 L20.1775364,196.393806 L23.392,198.269343 L18.7833113,205.621451 L15.1815629,203.520849 L14.5619073,203.145741 C13.5162384,202.508059 12.6642119,201.982908 11.8509139,201.457757 C3.25319205,195.868655 0.0387284768,189.791913 0,177.113278 L0,176.73817 L8.90754967,176.73817 Z M82.56,78.3974763 C82.1502353,78.5465943 81.7777219,78.6957124 81.4424599,78.8821099 L27.0182567,107.512767 C26.943754,107.550047 26.9065027,107.587326 26.8692513,107.587326 L26.832,107.624606 L26.9065027,107.661885 L27.0182567,107.736444 L81.4424599,136.367101 C81.7777219,136.553499 82.1502353,136.702617 82.56,136.851735 L82.56,78.4347558 L82.56,78.3974763 Z M89.44,78.4347558 L89.44,136.851735 C89.8497647,136.702617 90.2222781,136.553499 90.5575401,136.367101 L144.981743,107.736444 C145.056246,107.699165 145.093497,107.661885 145.130749,107.661885 L145.168,107.624606 L145.093497,107.587326 L144.981743,107.512767 L90.5575401,78.8821099 C90.2222781,78.6957124 89.8497647,78.5465943 89.44,78.3974763 L89.44,78.4347558 Z M145.168,47.4511041 L97.008,72.8958991 L145.168,98.340694 L145.168,47.4511041 Z M26.832,47.4511041 L26.832,98.340694 L74.992,72.8958991 L26.832,47.4511041 Z M92.3716361,9.35989319 C89.5632462,7.88319018 84.5007538,7.88319018 81.6923639,9.35989319 L27.7047625,37.7125911 C27.6308575,37.7495087 27.593905,37.7864263 27.5569525,37.7864263 L27.52,37.8233438 L27.593905,37.8602614 L27.7047625,37.9340966 L81.6923639,66.2867945 C84.5007538,67.7634975 89.5632462,67.7634975 92.3716361,66.2867945 L146.359238,37.9340966 C146.433143,37.897179 146.470095,37.8602614 146.507048,37.8602614 L146.544,37.8233438 L146.470095,37.7864263 L146.359238,37.7125911 L92.3716361,9.35989319 Z M153.216689,13.0662461 L156.818437,15.1668483 L157.438093,15.5419558 C158.483762,16.1421279 159.335788,16.7047892 160.149086,17.2299398 C168.746808,22.8190422 171.961272,28.8957843 172,41.5744193 L172,41.9495268 L163.09245,41.9495268 C163.09245,36.3979352 162.434066,32.759392 161.07857,30.17115 C159.994172,28.033037 158.328848,26.4200746 155.308026,24.4320046 L155.153113,24.3194723 C154.494728,23.906854 153.758887,23.456725 152.868132,22.8940637 L151.822464,22.2938916 L148.608,20.4183539 L153.216689,13.0662461 Z" id="Shape"/></g><path d="M168.364017,444.942382 C201.524727,387.174514 219.702666,355.948378 222.897834,351.263973 C226.087288,346.587946 269.51824,296.453758 353.19069,200.861407 C353.488628,200.521032 353.726668,200.132583 353.894686,199.712593 L359.186996,186.48346 C359.787002,184.983632 361.230254,183.991917 362.845492,183.969565 L378.128208,183.75808 C379.030599,183.745592 379.910695,184.03863 380.625484,184.589576 L405.753902,203.958092 C405.945299,204.105618 406.122934,204.270184 406.284627,204.449773 L418.72701,218.26921 C419.760847,219.417467 420.040915,221.05847 419.446449,222.484627 L418.544591,224.648236 C417.785172,226.470125 415.810317,227.4657 413.893996,226.99272 L393.749997,222.020848 C392.275923,221.657017 390.722941,222.159127 389.740884,223.317069 C304.452172,323.880865 259.796772,375.749806 255.774681,378.923893 C251.727469,382.117805 222.59058,404.123968 168.364017,444.942382 Z" id="Background-Mask" fill-rule="nonzero"/></g></g></svg>