<svg width="500" height="500" viewBox="0 0 500 500" version="1.1" xmlns="http://www.w3.org/2000/svg" xmlns:xlink="http://www.w3.org/1999/xlink"><title>FTM Coffin Icon</title><desc>Created with Sketch.</desc><defs><linearGradient x1="50%" y1="0%" x2="50%" y2="100%" id="linearGradient-1"><stop stop-color="#1061F9" offset="0%"/><stop stop-color="#022D7B" offset="100%"/></linearGradient><circle id="path-2" cx="250" cy="250" r="250"/><filter x="-4.5%" y="-4.5%" width="109%" height="109%" filterUnits="objectBoundingBox" id="filter-3"><feOffset dx="0" dy="0" in="SourceAlpha" result="shadowOffsetOuter1"/><feGaussianBlur stdDeviation="7.5" in="shadowOffsetOuter1" result="shadowBlurOuter1"/><feColorMatrix values="0 0 0 0 0.00523997927 0 0 0 0 0.113304925 0 0 0 0 0.30932971 0 0 0 1 0" type="matrix" in="shadowBlurOuter1"/></filter><polygon id="path-4" points="0.274058577 109.584507 63.58159 5.37205452e-13 190.470711 4.54747351e-13 253.778243 109.584507 253.778243 178.521127 192.692808 409.774648 67.5398847 409.774648 0 178.521127"/><polygon id="path-6" points="63.58159 4.54747351e-13 83.5878661 31.3098592 32.6129707 121.943662 0.274058577 109.584507"/><filter x="-63%" y="-43.1%" width="226%" height="186.1%" filterUnits="objectBoundingBox" id="filter-7"><feOffset dx="0" dy="0" in="SourceAlpha" result="shadowOffsetOuter1"/><feGaussianBlur stdDeviation="17.5" in="shadowOffsetOuter1" result="shadowBlurOuter1"/><feComposite in="shadowBlurOuter1" in2="SourceAlpha" operator="out" result="shadowBlurOuter1"/><feColorMatrix values="0 0 0 0 0.00523997927 0 0 0 0 0.113304925 0 0 0 0 0.30932971 0 0 0 0.3 0" type="matrix" in="shadowBlurOuter1"/></filter><polygon id="path-8" points="169.916318 31.3098592 190.470711 4.54747351e-13 253.778243 109.584507 220.891213 121.943662"/><filter x="-62.6%" y="-43.1%" width="225.2%" height="186.1%" filterUnits="objectBoundingBox" id="filter-9"><feOffset dx="0" dy="0" in="SourceAlpha" result="shadowOffsetOuter1"/><feGaussianBlur stdDeviation="17.5" in="shadowOffsetOuter1" result="shadowBlurOuter1"/><feComposite in="shadowBlurOuter1" in2="SourceAlpha" operator="out" result="shadowBlurOuter1"/><feColorMatrix values="0 0 0 0 0.00523997927 0 0 0 0 0.113304925 0 0 0 0 0.30932971 0 0 0 0.3 0" type="matrix" in="shadowBlurOuter1"/></filter><polygon id="path-10" points="32.6129707 121.943662 96.4686192 324.084507 74.2698745 363.359155 0.274058577 109.584507"/><filter x="-54.6%" y="-20.7%" width="209.2%" height="141.4%" filterUnits="objectBoundingBox" id="filter-11"><feOffset dx="0" dy="0" in="SourceAlpha" result="shadowOffsetOuter1"/><feGaussianBlur stdDeviation="17.5" in="shadowOffsetOuter1" result="shadowBlurOuter1"/><feComposite in="shadowBlurOuter1" in2="SourceAlpha" operator="out" result="shadowBlurOuter1"/><feColorMatrix values="0 0 0 0 0.00523997927 0 0 0 0 0.113304925 0 0 0 0 0.30932971 0 0 0 0.3 0" type="matrix" in="shadowBlurOuter1"/></filter><polygon id="path-12" points="160.872385 324.084507 220.891213 121.943662 253.778243 109.584507 185.263598 363.359155"/><filter x="-56.5%" y="-20.7%" width="213%" height="141.4%" filterUnits="objectBoundingBox" id="filter-13"><feOffset dx="0" dy="0" in="SourceAlpha" result="shadowOffsetOuter1"/><feGaussianBlur stdDeviation="17.5" in="shadowOffsetOuter1" result="shadowBlurOuter1"/><feComposite in="shadowBlurOuter1" in2="SourceAlpha" operator="out" result="shadowBlurOuter1"/><feColorMatrix values="0 0 0 0 0.00523997927 0 0 0 0 0.113304925 0 0 0 0 0.30932971 0 0 0 0.3 0" type="matrix" in="shadowBlurOuter1"/></filter><polygon id="path-14" points="63.58159 4.54747351e-13 190.470711 4.54747351e-13 169.916318 31.3098592 83.5878661 31.3098592"/><filter x="-41.4%" y="-167.7%" width="182.7%" height="435.4%" filterUnits="objectBoundingBox" id="filter-15"><feOffset dx="0" dy="0" in="SourceAlpha" result="shadowOffsetOuter1"/><feGaussianBlur stdDeviation="17.5" in="shadowOffsetOuter1" result="shadowBlurOuter1"/><feComposite in="shadowBlurOuter1" in2="SourceAlpha" operator="out" result="shadowBlurOuter1"/><feColorMatrix values="0 0 0 0 0.00523997927 0 0 0 0 0.113304925 0 0 0 0 0.30932971 0 0 0 0.3 0" type="matrix" in="shadowBlurOuter1"/></filter><polygon id="path-16" points="160.872385 324.084507 185.263598 363.359155 74.2698745 363.359155 96.4686192 324.084507"/><filter x="-47.3%" y="-133.7%" width="194.6%" height="367.3%" filterUnits="objectBoundingBox" id="filter-17"><feOffset dx="0" dy="0" in="SourceAlpha" result="shadowOffsetOuter1"/><feGaussianBlur stdDeviation="17.5" in="shadowOffsetOuter1" result="shadowBlurOuter1"/><feComposite in="shadowBlurOuter1" in2="SourceAlpha" operator="out" result="shadowBlurOuter1"/><feColorMatrix values="0 0 0 0 0.00523997927 0 0 0 0 0.113304925 0 0 0 0 0.30932971 0 0 0 0.3 0" type="matrix" in="shadowBlurOuter1"/></filter><polygon id="path-18" points="0.274058577 109.584507 74.2698745 363.359155 67.5398847 409.774648 0 178.521127"/><filter x="-70.7%" y="-17.5%" width="241.4%" height="135%" filterUnits="objectBoundingBox" id="filter-19"><feOffset dx="0" dy="0" in="SourceAlpha" result="shadowOffsetOuter1"/><feGaussianBlur stdDeviation="17.5" in="shadowOffsetOuter1" result="shadowBlurOuter1"/><feComposite in="shadowBlurOuter1" in2="SourceAlpha" operator="out" result="shadowBlurOuter1"/><feColorMatrix values="0 0 0 0 0.00523997927 0 0 0 0 0.113304925 0 0 0 0 0.30932971 0 0 0 0.3 0" type="matrix" in="shadowBlurOuter1"/></filter><polygon id="path-20" points="185.263598 363.359155 192.692808 409.774648 67.5398847 409.774648 74.2698745 363.359155"/><filter x="-41.9%" y="-113.1%" width="183.9%" height="326.2%" filterUnits="objectBoundingBox" id="filter-21"><feOffset dx="0" dy="0" in="SourceAlpha" result="shadowOffsetOuter1"/><feGaussianBlur stdDeviation="17.5" in="shadowOffsetOuter1" result="shadowBlurOuter1"/><feComposite in="shadowBlurOuter1" in2="SourceAlpha" operator="out" result="shadowBlurOuter1"/><feColorMatrix values="0 0 0 0 0.00523997927 0 0 0 0 0.113304925 0 0 0 0 0.30932971 0 0 0 0.3 0" type="matrix" in="shadowBlurOuter1"/></filter><polygon id="path-22" points="185.263598 363.359155 253.778243 109.584507 253.778243 178.521127 192.692808 409.774648"/><filter x="-76.6%" y="-17.5%" width="253.3%" height="135%" filterUnits="objectBoundingBox" id="filter-23"><feOffset dx="0" dy="0" in="SourceAlpha" result="shadowOffsetOuter1"/><feGaussianBlur stdDeviation="17.5" in="shadowOffsetOuter1" result="shadowBlurOuter1"/><feComposite in="shadowBlurOuter1" in2="SourceAlpha" operator="out" result="shadowBlurOuter1"/><feColorMatrix values="0 0 0 0 0.00523997927 0 0 0 0 0.113304925 0 0 0 0 0.30932971 0 0 0 0.3 0" type="matrix" in="shadowBlurOuter1"/></filter><polygon id="path-24" points="83.5878661 31.3098592 169.916318 31.3098592 220.891213 121.943662 160.872385 324.084507 96.4686192 324.084507 32.6129707 121.943662"/><filter x="-27.9%" y="-17.9%" width="155.8%" height="135.9%" filterUnits="objectBoundingBox" id="filter-25"><feOffset dx="0" dy="0" in="SourceAlpha" result="shadowOffsetOuter1"/><feGaussianBlur stdDeviation="17.5" in="shadowOffsetOuter1" result="shadowBlurOuter1"/><feComposite in="shadowBlurOuter1" in2="SourceAlpha" operator="out" result="shadowBlurOuter1"/><feColorMatrix values="0 0 0 0 0.00523997927 0 0 0 0 0.113304925 0 0 0 0 0.30932971 0 0 0 0.3 0" type="matrix" in="shadowBlurOuter1"/></filter></defs><g id="FTM-Coffin-Icon" stroke="none" stroke-width="1" fill="none" fill-rule="evenodd"><g id="Oval"><use fill="#000" fill-opacity="1" filter="url(#filter-3)" xlink:href="#path-2"/><use fill="url(#linearGradient-1)" fill-rule="evenodd" xlink:href="#path-2"/></g><g id="coffin" transform="translate(119.000000, 38.000000)"><polygon id="BG-Shadow" fill="#88AFF6" fill-rule="evenodd" points="8.4958159 126.06338 71.8033473 16.4788732 198.692469 16.4788732 262 126.06338 262 195 200.914565 426.253521 75.761642 426.253521 8.22175732 195"/><g id="Shaded-Cells" stroke-width="1" fill-rule="evenodd"><mask id="mask-5" fill="#fff"><use xlink:href="#path-4"/></mask><use id="Solid-Background" fill="#000" fill-rule="nonzero" xlink:href="#path-4"/><g id="Shadow" mask="url(#mask-5)"><use fill="#000" fill-opacity="1" filter="url(#filter-7)" xlink:href="#path-6"/><path stroke-opacity=".2" stroke="#011D4F" stroke-width="2" d="M63.6246326,1.92457237 L1.72667728,109.069122 L32.1642179,120.701618 L82.4221083,31.3426565 L63.6246326,1.92457237 Z" stroke-linejoin="square" fill="#1969FF" fill-rule="evenodd"/></g><g id="Shadow" mask="url(#mask-5)"><use fill="#000" fill-opacity="1" filter="url(#filter-9)" xlink:href="#path-8"/><path stroke-opacity=".2" stroke="#011D4F" stroke-width="2" d="M171.086202,31.3499933 L221.342341,120.705841 L252.322304,109.063374 L190.416353,1.90498465 L171.086202,31.3499933 Z" stroke-linejoin="square" fill="#1969FF" fill-rule="evenodd"/></g><g id="Shadow" mask="url(#mask-5)"><use fill="#000" fill-opacity="1" filter="url(#filter-11)" xlink:href="#path-10"/><path stroke-opacity=".2" stroke="#011D4F" stroke-width="2" d="M31.8048832,122.705372 L1.79762991,111.237321 L74.5661185,360.80275 L95.3840677,323.971045 L31.8048832,122.705372 Z" stroke-linejoin="square" fill="#1969FF" fill-rule="evenodd"/></g><g id="Shadow" mask="url(#mask-5)"><use fill="#000" fill-opacity="1" filter="url(#filter-13)" xlink:href="#path-12"/><path stroke-opacity=".2" stroke="#011D4F" stroke-width="2" d="M161.958878,323.938524 L184.898325,360.875543 L252.304493,111.206636 L221.70835,122.704861 L161.958878,323.938524 Z" stroke-linejoin="square" fill="#1969FF" fill-rule="evenodd"/></g><g id="Shadow" mask="url(#mask-5)"><use fill="#000" fill-opacity="1" filter="url(#filter-15)" xlink:href="#path-14"/><path stroke-opacity=".2" stroke="#011D4F" stroke-width="2" d="M65.4072814,1 L84.1356038,30.3098592 L169.376569,30.3098592 L188.617997,1 L65.4072814,1 Z" stroke-linejoin="square" fill="#1969FF" fill-rule="evenodd"/></g><g id="Shadow" mask="url(#mask-5)"><use fill="#000" fill-opacity="1" filter="url(#filter-17)" xlink:href="#path-16"/><path stroke-opacity=".2" stroke="#011D4F" stroke-width="2" d="M160.316272,325.084507 L97.0520836,325.084507 L75.9837752,362.359155 L183.465401,362.359155 L160.316272,325.084507 Z" stroke-linejoin="square" fill="#1969FF" fill-rule="evenodd"/></g><g id="Shadow" mask="url(#mask-5)"><use fill="#000" fill-opacity="1" filter="url(#filter-19)" xlink:href="#path-18"/><path stroke-opacity=".2" stroke="#011D4F" stroke-width="2" d="M1.24660433,116.492329 L1.00056883,178.380032 L67.2102641,405.079045 L73.2490602,363.430587 L1.24660433,116.492329 Z" stroke-linejoin="square" fill="#1969FF" fill-rule="evenodd"/></g><g id="Shadow" mask="url(#mask-5)"><use fill="#000" fill-opacity="1" filter="url(#filter-21)" xlink:href="#path-20"/><path stroke-opacity=".2" stroke="#011D4F" stroke-width="2" d="M184.410929,364.359155 L75.135337,364.359155 L68.6953361,408.774648 L191.520021,408.774648 L184.410929,364.359155 Z" stroke-linejoin="square" fill="#1969FF" fill-rule="evenodd"/></g><g id="Shadow" mask="url(#mask-5)"><use fill="#000" fill-opacity="1" filter="url(#filter-23)" xlink:href="#path-22"/><path stroke-opacity=".2" stroke="#011D4F" stroke-width="2" d="M186.284915,363.412815 L192.933168,404.94912 L252.778243,178.391279 L252.778243,117.125019 L186.284915,363.412815 Z" stroke-linejoin="square" fill="#1969FF" fill-rule="evenodd"/></g><g id="Shadow" mask="url(#mask-5)"><use fill="#000" fill-opacity="1" filter="url(#filter-25)" xlink:href="#path-24"/><path stroke-opacity=".2" stroke="#011D4F" stroke-width="2" d="M84.1727508,32.3098592 L33.6971431,122.055924 L97.2014315,323.084507 L160.126152,323.084507 L219.812075,122.064874 L169.331433,32.3098592 L84.1727508,32.3098592 Z" stroke-linejoin="square" fill="#1969FF" fill-rule="evenodd"/></g></g><g id="FTM-Logo" transform="translate(90.987448, 78.274648)" fill="#04122D" fill-rule="evenodd"><path d="M32.9943036,0.89747942 C35.2539272,-0.299159807 38.6986681,-0.299159807 40.9582917,0.89747942 L64.0443764,13.1510651 C65.4033109,13.8690486 66.1617859,14.9540015 66.2881984,16.0708648 L66.304,16.0708648 L66.304,77.6419418 C66.2723969,78.8545362 65.5139218,80.0671306 64.0443764,80.8489349 L40.9582917,93.1025206 C38.6986681,94.2991598 35.2539272,94.2991598 32.9943036,93.1025206 L9.90821893,80.8489349 C8.4386735,80.0671306 7.72760313,78.8545362 7.696,77.6419418 L7.696,16.0549096 L7.71180156,16.0549096 C7.80661095,14.9380463 8.53348288,13.8850038 9.92402049,13.1351099 L33.0101051,0.88152423 L32.9943036,0.89747942 Z M63.344,50.1135647 L41.4353565,61.6654336 C39.1568576,62.86542 35.6833417,62.86542 33.4048428,61.6654336 L11.544,50.1295645 L11.544,77.2812564 L33.4048428,88.7531262 C34.6317269,89.4091188 35.9223451,90.0491115 37.1651627,90.1291106 L37.4200997,90.1451104 C38.7266515,90.1451104 39.9854026,89.4891179 41.2760209,88.8651249 L63.344,77.1852575 L63.344,50.1135647 Z M3.83231788,76.2082019 C3.83231788,78.6020075 4.11557616,80.1709206 4.69875497,81.2869515 C5.16529801,82.2088902 5.88177483,82.9043877 7.18143046,83.7616289 L7.24807947,83.810152 C7.53133775,83.98807 7.84792053,84.1821623 8.23115232,84.4247777 L8.68103311,84.6835675 L10.064,85.4922856 L8.08119205,88.6624606 L6.53160265,87.7566963 L6.26500662,87.5949527 C5.81512583,87.3199885 5.44855629,87.0935475 5.09864901,86.8671064 C1.39962914,84.4571265 0.0166622517,81.8368798 0,76.3699455 L0,76.2082019 L3.83231788,76.2082019 Z M35.52,33.8044164 C35.3437059,33.868715 35.1834385,33.9330136 35.0391979,34.0133868 L11.6241337,46.3587161 C11.5920802,46.3747908 11.5760535,46.3908654 11.5600267,46.3908654 L11.544,46.4069401 L11.5760535,46.4230147 L11.6241337,46.455164 L35.0391979,58.8004933 C35.1834385,58.8808665 35.3437059,58.9451651 35.52,59.0094637 L35.52,33.8204911 L35.52,33.8044164 Z M38.48,33.8204911 L38.48,59.0094637 C38.6562941,58.9451651 38.8165615,58.8808665 38.9608021,58.8004933 L62.3758663,46.455164 C62.4079198,46.4390894 62.4239465,46.4230147 62.4399733,46.4230147 L62.456,46.4069401 L62.4239465,46.3908654 L62.3758663,46.3587161 L38.9608021,34.0133868 C38.8165615,33.9330136 38.6562941,33.868715 38.48,33.8044164 L38.48,33.8204911 Z M62.456,20.4605678 L41.736,31.4321767 L62.456,42.4037855 L62.456,20.4605678 Z M11.544,20.4605678 L11.544,42.4037855 L32.264,31.4321767 L11.544,20.4605678 Z M39.7412853,4.03591725 C38.5330245,3.39917375 36.3549755,3.39917375 35.1467147,4.03591725 L11.9194908,16.2613925 C11.8876945,16.2773111 11.8717963,16.2932297 11.8558982,16.2932297 L11.84,16.3091483 L11.8717963,16.3250669 L11.9194908,16.356904 L35.1467147,28.5823793 C36.3549755,29.2191228 38.5330245,29.2191228 39.7412853,28.5823793 L62.9685092,16.356904 C63.0003055,16.3409854 63.0162037,16.3250669 63.0321018,16.3250669 L63.048,16.3091483 L63.0162037,16.2932297 L62.9685092,16.2613925 L39.7412853,4.03591725 Z M65.9188079,5.6340694 L67.4683974,6.53983367 L67.7349934,6.70157729 C68.1848742,6.96036708 68.5514437,7.20298251 68.901351,7.42942357 C72.6003709,9.8394035 73.9833377,12.4596501 74,17.9265845 L74,18.0883281 L70.1676821,18.0883281 C70.1676821,15.6945225 69.8844238,14.1256094 69.301245,13.0095784 C68.834702,12.0876398 68.1182252,11.3921422 66.8185695,10.5349011 L66.7519205,10.486378 C66.4686623,10.30846 66.1520795,10.1143677 65.7688477,9.87175222 L65.3189669,9.61296243 L63.936,8.80424434 L65.9188079,5.6340694 Z" id="Shape"/></g><g id="FTM-Logo" transform="translate(89.343096, 74.704225)" fill="#EDF3FF" fill-rule="evenodd"><path d="M32.9943036,0.89747942 C35.2539272,-0.299159807 38.6986681,-0.299159807 40.9582917,0.89747942 L64.0443764,13.1510651 C65.4033109,13.8690486 66.1617859,14.9540015 66.2881984,16.0708648 L66.304,16.0708648 L66.304,77.6419418 C66.2723969,78.8545362 65.5139218,80.0671306 64.0443764,80.8489349 L40.9582917,93.1025206 C38.6986681,94.2991598 35.2539272,94.2991598 32.9943036,93.1025206 L9.90821893,80.8489349 C8.4386735,80.0671306 7.72760313,78.8545362 7.696,77.6419418 L7.696,16.0549096 L7.71180156,16.0549096 C7.80661095,14.9380463 8.53348288,13.8850038 9.92402049,13.1351099 L33.0101051,0.88152423 L32.9943036,0.89747942 Z M63.344,50.1135647 L41.4353565,61.6654336 C39.1568576,62.86542 35.6833417,62.86542 33.4048428,61.6654336 L11.544,50.1295645 L11.544,77.2812564 L33.4048428,88.7531262 C34.6317269,89.4091188 35.9223451,90.0491115 37.1651627,90.1291106 L37.4200997,90.1451104 C38.7266515,90.1451104 39.9854026,89.4891179 41.2760209,88.8651249 L63.344,77.1852575 L63.344,50.1135647 Z M3.83231788,76.2082019 C3.83231788,78.6020075 4.11557616,80.1709206 4.69875497,81.2869515 C5.16529801,82.2088902 5.88177483,82.9043877 7.18143046,83.7616289 L7.24807947,83.810152 C7.53133775,83.98807 7.84792053,84.1821623 8.23115232,84.4247777 L8.68103311,84.6835675 L10.064,85.4922856 L8.08119205,88.6624606 L6.53160265,87.7566963 L6.26500662,87.5949527 C5.81512583,87.3199885 5.44855629,87.0935475 5.09864901,86.8671064 C1.39962914,84.4571265 0.0166622517,81.8368798 0,76.3699455 L0,76.2082019 L3.83231788,76.2082019 Z M35.52,33.8044164 C35.3437059,33.868715 35.1834385,33.9330136 35.0391979,34.0133868 L11.6241337,46.3587161 C11.5920802,46.3747908 11.5760535,46.3908654 11.5600267,46.3908654 L11.544,46.4069401 L11.5760535,46.4230147 L11.6241337,46.455164 L35.0391979,58.8004933 C35.1834385,58.8808665 35.3437059,58.9451651 35.52,59.0094637 L35.52,33.8204911 L35.52,33.8044164 Z M38.48,33.8204911 L38.48,59.0094637 C38.6562941,58.9451651 38.8165615,58.8808665 38.9608021,58.8004933 L62.3758663,46.455164 C62.4079198,46.4390894 62.4239465,46.4230147 62.4399733,46.4230147 L62.456,46.4069401 L62.4239465,46.3908654 L62.3758663,46.3587161 L38.9608021,34.0133868 C38.8165615,33.9330136 38.6562941,33.868715 38.48,33.8044164 L38.48,33.8204911 Z M62.456,20.4605678 L41.736,31.4321767 L62.456,42.4037855 L62.456,20.4605678 Z M11.544,20.4605678 L11.544,42.4037855 L32.264,31.4321767 L11.544,20.4605678 Z M39.7412853,4.03591725 C38.5330245,3.39917375 36.3549755,3.39917375 35.1467147,4.03591725 L11.9194908,16.2613925 C11.8876945,16.2773111 11.8717963,16.2932297 11.8558982,16.2932297 L11.84,16.3091483 L11.8717963,16.3250669 L11.9194908,16.356904 L35.1467147,28.5823793 C36.3549755,29.2191228 38.5330245,29.2191228 39.7412853,28.5823793 L62.9685092,16.356904 C63.0003055,16.3409854 63.0162037,16.3250669 63.0321018,16.3250669 L63.048,16.3091483 L63.0162037,16.2932297 L62.9685092,16.2613925 L39.7412853,4.03591725 Z M65.9188079,5.6340694 L67.4683974,6.53983367 L67.7349934,6.70157729 C68.1848742,6.96036708 68.5514437,7.20298251 68.901351,7.42942357 C72.6003709,9.8394035 73.9833377,12.4596501 74,17.9265845 L74,18.0883281 L70.1676821,18.0883281 C70.1676821,15.6945225 69.8844238,14.1256094 69.301245,13.0095784 C68.834702,12.0876398 68.1182252,11.3921422 66.8185695,10.5349011 L66.7519205,10.486378 C66.4686623,10.30846 66.1520795,10.1143677 65.7688477,9.87175222 L65.3189669,9.61296243 L63.936,8.80424434 L65.9188079,5.6340694 Z" id="Shape"/></g><path d="M72.0774059,190.880282 C86.2736578,166.097866 94.0557167,152.701854 95.4235827,150.692244 C96.7857402,148.691021 115.293251,127.281315 150.946116,86.4631259 C151.243402,86.122767 151.480863,85.7344926 151.648414,85.3147909 L153.20394,81.4183283 C153.803238,79.917134 155.247145,78.924173 156.863388,78.9017604 L161.079156,78.8432997 C161.982972,78.8307663 162.864388,79.1247243 163.579748,79.677264 L173.540754,87.3710805 C173.732032,87.5188225 173.909526,87.6835968 174.071058,87.8633813 L178.793484,93.1194301 C179.520562,93.928666 179.71754,95.0838597 179.299726,96.0883177 C178.90634,97.0340468 177.881406,97.550906 176.887085,97.3049776 L169.945963,95.5882105 C168.470034,95.2231588 166.914754,95.7264228 165.932463,96.8869104 C130.017091,139.317637 111.205708,161.208117 109.498311,162.55835 C107.765681,163.928539 95.2920459,173.369182 72.0774059,190.880282 Z" id="Background-Mask" fill-rule="nonzero"/></g></g></svg>