<svg width="612" height="1000" viewBox="0 0 612 1000" version="1.1" xmlns="http://www.w3.org/2000/svg" xmlns:xlink="http://www.w3.org/1999/xlink"><title>Artboard</title><desc>Created with Sketch.</desc><defs><polygon id="path-1" points="0.640167364 255.441741 148.518828 6.46957377e-13 444.916318 4.54747351e-13 592.794979 255.441741 592.794979 416.133163 450.106864 955.185659 157.764921 955.185659 0 416.133163"/><polygon id="path-3" points="148.518828 4.54747351e-13 195.251046 72.9833547 76.1799163 284.25096 0.640167364 255.441741"/><filter x="-27%" y="-18.5%" width="154%" height="136.9%" filterUnits="objectBoundingBox" id="filter-4"><feOffset dx="0" dy="0" in="SourceAlpha" result="shadowOffsetOuter1"/><feGaussianBlur stdDeviation="17.5" in="shadowOffsetOuter1" result="shadowBlurOuter1"/><feComposite in="shadowBlurOuter1" in2="SourceAlpha" operator="out" result="shadowBlurOuter1"/><feColorMatrix values="0 0 0 0 0.117647059 0 0 0 0 0.00784313725 0 0 0 0 0.219607843 0 0 0 0.3 0" type="matrix" in="shadowBlurOuter1"/></filter><polygon id="path-5" points="396.903766 72.9833547 444.916318 4.54747351e-13 592.794979 255.441741 515.974895 284.25096"/><filter x="-26.8%" y="-18.5%" width="153.6%" height="136.9%" filterUnits="objectBoundingBox" id="filter-6"><feOffset dx="0" dy="0" in="SourceAlpha" result="shadowOffsetOuter1"/><feGaussianBlur stdDeviation="17.5" in="shadowOffsetOuter1" result="shadowBlurOuter1"/><feComposite in="shadowBlurOuter1" in2="SourceAlpha" operator="out" result="shadowBlurOuter1"/><feColorMatrix values="0 0 0 0 0.117647059 0 0 0 0 0.00784313725 0 0 0 0 0.219607843 0 0 0 0.3 0" type="matrix" in="shadowBlurOuter1"/></filter><polygon id="path-7" points="76.1799163 284.25096 225.338912 755.441741 173.485356 846.991037 0.640167364 255.441741"/><filter x="-23.4%" y="-8.9%" width="146.7%" height="117.7%" filterUnits="objectBoundingBox" id="filter-8"><feOffset dx="0" dy="0" in="SourceAlpha" result="shadowOffsetOuter1"/><feGaussianBlur stdDeviation="17.5" in="shadowOffsetOuter1" result="shadowBlurOuter1"/><feComposite in="shadowBlurOuter1" in2="SourceAlpha" operator="out" result="shadowBlurOuter1"/><feColorMatrix values="0 0 0 0 0.117647059 0 0 0 0 0.00784313725 0 0 0 0 0.219607843 0 0 0 0.3 0" type="matrix" in="shadowBlurOuter1"/></filter><polygon id="path-9" points="375.778243 755.441741 515.974895 284.25096 592.794979 255.441741 432.753138 846.991037"/><filter x="-24.2%" y="-8.9%" width="148.4%" height="117.7%" filterUnits="objectBoundingBox" id="filter-10"><feOffset dx="0" dy="0" in="SourceAlpha" result="shadowOffsetOuter1"/><feGaussianBlur stdDeviation="17.5" in="shadowOffsetOuter1" result="shadowBlurOuter1"/><feComposite in="shadowBlurOuter1" in2="SourceAlpha" operator="out" result="shadowBlurOuter1"/><feColorMatrix values="0 0 0 0 0.117647059 0 0 0 0 0.00784313725 0 0 0 0 0.219607843 0 0 0 0.3 0" type="matrix" in="shadowBlurOuter1"/></filter><polygon id="path-11" points="148.518828 4.54747351e-13 444.916318 4.54747351e-13 396.903766 72.9833547 195.251046 72.9833547"/><filter x="-17.7%" y="-71.9%" width="135.4%" height="243.9%" filterUnits="objectBoundingBox" id="filter-12"><feOffset dx="0" dy="0" in="SourceAlpha" result="shadowOffsetOuter1"/><feGaussianBlur stdDeviation="17.5" in="shadowOffsetOuter1" result="shadowBlurOuter1"/><feComposite in="shadowBlurOuter1" in2="SourceAlpha" operator="out" result="shadowBlurOuter1"/><feColorMatrix values="0 0 0 0 0.117647059 0 0 0 0 0.00784313725 0 0 0 0 0.219607843 0 0 0 0.3 0" type="matrix" in="shadowBlurOuter1"/></filter><polygon id="path-13" points="375.778243 755.441741 432.753138 846.991037 173.485356 846.991037 225.338912 755.441741"/><filter x="-20.2%" y="-57.3%" width="140.5%" height="214.7%" filterUnits="objectBoundingBox" id="filter-14"><feOffset dx="0" dy="0" in="SourceAlpha" result="shadowOffsetOuter1"/><feGaussianBlur stdDeviation="17.5" in="shadowOffsetOuter1" result="shadowBlurOuter1"/><feComposite in="shadowBlurOuter1" in2="SourceAlpha" operator="out" result="shadowBlurOuter1"/><feColorMatrix values="0 0 0 0 0.117647059 0 0 0 0 0.00784313725 0 0 0 0 0.219607843 0 0 0 0.3 0" type="matrix" in="shadowBlurOuter1"/></filter><polygon id="path-15" points="0.640167364 255.441741 173.485356 846.991037 157.764921 955.185659 0 416.133163"/><filter x="-30.3%" y="-7.5%" width="160.5%" height="115%" filterUnits="objectBoundingBox" id="filter-16"><feOffset dx="0" dy="0" in="SourceAlpha" result="shadowOffsetOuter1"/><feGaussianBlur stdDeviation="17.5" in="shadowOffsetOuter1" result="shadowBlurOuter1"/><feComposite in="shadowBlurOuter1" in2="SourceAlpha" operator="out" result="shadowBlurOuter1"/><feColorMatrix values="0 0 0 0 0.117647059 0 0 0 0 0.00784313725 0 0 0 0 0.219607843 0 0 0 0.3 0" type="matrix" in="shadowBlurOuter1"/></filter><polygon id="path-17" points="432.753138 846.991037 450.106864 955.185659 157.764921 955.185659 173.485356 846.991037"/><filter x="-18%" y="-48.5%" width="135.9%" height="197%" filterUnits="objectBoundingBox" id="filter-18"><feOffset dx="0" dy="0" in="SourceAlpha" result="shadowOffsetOuter1"/><feGaussianBlur stdDeviation="17.5" in="shadowOffsetOuter1" result="shadowBlurOuter1"/><feComposite in="shadowBlurOuter1" in2="SourceAlpha" operator="out" result="shadowBlurOuter1"/><feColorMatrix values="0 0 0 0 0.117647059 0 0 0 0 0.00784313725 0 0 0 0 0.219607843 0 0 0 0.3 0" type="matrix" in="shadowBlurOuter1"/></filter><polygon id="path-19" points="432.753138 846.991037 592.794979 255.441741 592.794979 416.133163 450.106864 955.185659"/><filter x="-32.8%" y="-7.5%" width="165.6%" height="115%" filterUnits="objectBoundingBox" id="filter-20"><feOffset dx="0" dy="0" in="SourceAlpha" result="shadowOffsetOuter1"/><feGaussianBlur stdDeviation="17.5" in="shadowOffsetOuter1" result="shadowBlurOuter1"/><feComposite in="shadowBlurOuter1" in2="SourceAlpha" operator="out" result="shadowBlurOuter1"/><feColorMatrix values="0 0 0 0 0.117647059 0 0 0 0 0.00784313725 0 0 0 0 0.219607843 0 0 0 0.3 0" type="matrix" in="shadowBlurOuter1"/></filter><polygon id="path-21" points="195.251046 72.9833547 396.903766 72.9833547 515.974895 284.25096 375.778243 755.441741 225.338912 755.441741 76.1799163 284.25096"/><filter x="-11.9%" y="-7.7%" width="123.9%" height="115.4%" filterUnits="objectBoundingBox" id="filter-22"><feOffset dx="0" dy="0" in="SourceAlpha" result="shadowOffsetOuter1"/><feGaussianBlur stdDeviation="17.5" in="shadowOffsetOuter1" result="shadowBlurOuter1"/><feComposite in="shadowBlurOuter1" in2="SourceAlpha" operator="out" result="shadowBlurOuter1"/><feColorMatrix values="0 0 0 0 0.117647059 0 0 0 0 0.00784313725 0 0 0 0 0.219607843 0 0 0 0.3 0" type="matrix" in="shadowBlurOuter1"/></filter><path d="M0,261 L54.4945055,167.394605 C57.6873701,162.713852 101.236954,112.44745 185.143256,16.5953997 L191.675621,0.267474582 L211.005459,0 L237.506235,20.4251073 L251.874126,36.3822224 L248.681261,44.0416377 L222.410589,38.3286713 C136.412926,139.606779 91.3919475,191.841544 87.3476523,195.032967 C83.3033572,198.22439 54.1874731,220.213401 0,261 Z" id="path-23"/></defs><g id="Artboard" stroke="none" stroke-width="1" fill="none" fill-rule="evenodd"><g id="coffin"><polygon id="BG-Shadow" fill="#AF89D2" fill-rule="nonzero" points="19.8451883 293.854033 167.723849 38.4122919 464.121339 38.4122919 612 293.854033 612 454.545455 469.311885 993.597951 176.969942 993.597951 19.2050209 454.545455"/><g id="Shaded-Cells" stroke-width="1" fill-rule="evenodd"><mask id="mask-2" fill="#fff"><use xlink:href="#path-1"/></mask><use id="Solid-Background" fill="#1E0238" xlink:href="#path-1"/><g id="Shadow" mask="url(#mask-2)"><use fill="#000" fill-opacity="1" filter="url(#filter-4)" xlink:href="#path-3"/><path stroke-opacity=".2" stroke="#1E0238" stroke-width="2" d="M148.561847,1.92164214 L2.09420629,254.926024 L75.7315931,283.009723 L194.084644,73.0162024 L148.561847,1.92164214 Z" stroke-linejoin="square" fill="#591794" fill-rule="evenodd"/></g><g id="Shadow" mask="url(#mask-2)"><use fill="#000" fill-opacity="1" filter="url(#filter-6)" xlink:href="#path-5"/><path stroke-opacity=".2" stroke="#1E0238" stroke-width="2" d="M398.074309,73.0235499 L516.425591,283.013932 L591.337614,254.920277 L444.861991,1.90210733 L398.074309,73.0235499 Z" stroke-linejoin="square" fill="#591794" fill-rule="evenodd"/></g><g id="Shadow" mask="url(#mask-2)"><use fill="#000" fill-opacity="1" filter="url(#filter-8)" xlink:href="#path-7"/><path stroke-opacity=".2" stroke="#1E0238" stroke-width="2" d="M75.3723043,285.013211 L2.16457222,257.093373 L173.781514,844.439091 L224.254024,755.328082 L75.3723043,285.013211 Z" stroke-linejoin="square" fill="#591794" fill-rule="evenodd"/></g><g id="Shadow" mask="url(#mask-2)"><use fill="#000" fill-opacity="1" filter="url(#filter-10)" xlink:href="#path-9"/><path stroke-opacity=".2" stroke="#1E0238" stroke-width="2" d="M376.865077,755.29551 L432.38797,844.511676 L591.320477,257.06272 L516.791577,285.012695 L376.865077,755.29551 Z" stroke-linejoin="square" fill="#591794" fill-rule="evenodd"/></g><g id="Shadow" mask="url(#mask-2)"><use fill="#000" fill-opacity="1" filter="url(#filter-12)" xlink:href="#path-11"/><path stroke-opacity=".2" stroke="#1E0238" stroke-width="2" d="M150.346577,1 L195.798167,71.9833547 L396.364636,71.9833547 L443.061476,1 L150.346577,1 Z" stroke-linejoin="square" fill="#591794" fill-rule="evenodd"/></g><g id="Shadow" mask="url(#mask-2)"><use fill="#000" fill-opacity="1" filter="url(#filter-14)" xlink:href="#path-13"/><path stroke-opacity=".2" stroke="#1E0238" stroke-width="2" d="M375.222743,756.441741 L225.921776,756.441741 L175.201021,845.991037 L430.952956,845.991037 L375.222743,756.441741 Z" stroke-linejoin="square" fill="#591794" fill-rule="evenodd"/></g><g id="Shadow" mask="url(#mask-2)"><use fill="#000" fill-opacity="1" filter="url(#filter-16)" xlink:href="#path-15"/><path stroke-opacity=".2" stroke="#1E0238" stroke-width="2" d="M1.61271085,262.335722 L1.00057116,415.991785 L157.435329,950.499366 L172.464455,847.062611 L1.61271085,262.335722 Z" stroke-linejoin="square" fill="#591794" fill-rule="evenodd"/></g><g id="Shadow" mask="url(#mask-2)"><use fill="#000" fill-opacity="1" filter="url(#filter-18)" xlink:href="#path-17"/><path stroke-opacity=".2" stroke="#1E0238" stroke-width="2" d="M431.90075,847.991037 L174.350558,847.991037 L158.92072,954.185659 L448.933689,954.185659 L431.90075,847.991037 Z" stroke-linejoin="square" fill="#591794" fill-rule="evenodd"/></g><g id="Shadow" mask="url(#mask-2)"><use fill="#000" fill-opacity="1" filter="url(#filter-20)" xlink:href="#path-19"/><path stroke-opacity=".2" stroke="#1E0238" stroke-width="2" d="M433.774543,847.044804 L450.347204,950.369747 L591.794979,416.003052 L591.794979,262.967059 L433.774543,847.044804 Z" stroke-linejoin="square" fill="#591794" fill-rule="evenodd"/></g><g id="Shadow" mask="url(#mask-2)"><use fill="#000" fill-opacity="1" filter="url(#filter-22)" xlink:href="#path-21"/><path stroke-opacity=".2" stroke="#1E0238" stroke-width="2" d="M195.835331,73.9833547 L77.2644238,284.363418 L226.071263,754.441741 L375.032454,754.441741 L514.895442,284.372384 L396.31948,73.9833547 L195.835331,73.9833547 Z" stroke-linejoin="square" fill="#591794" fill-rule="evenodd"/></g></g><path d="M168.364017,444.942382 C201.524727,387.174514 219.702666,355.948378 222.897834,351.263973 C226.087288,346.587946 269.51824,296.453758 353.19069,200.861407 C353.488628,200.521032 353.726668,200.132583 353.894686,199.712593 L359.186996,186.48346 C359.787002,184.983632 361.230254,183.991917 362.845492,183.969565 L378.128208,183.75808 C379.030599,183.745592 379.910695,184.03863 380.625484,184.589576 L405.753902,203.958092 C405.945299,204.105618 406.122934,204.270184 406.284627,204.449773 L418.72701,218.26921 C419.760847,219.417467 420.040915,221.05847 419.446449,222.484627 L418.544591,224.648236 C417.785172,226.470125 415.810317,227.4657 413.893996,226.99272 L393.749997,222.020848 C392.275923,221.657017 390.722941,222.159127 389.740884,223.317069 C304.452172,323.880865 259.796772,375.749806 255.774681,378.923893 C251.727469,382.117805 222.59058,404.123968 168.364017,444.942382 Z" id="Background-Mask" fill="#1E0238" fill-rule="evenodd"/><g id="-emoji-stake" transform="translate(165.803347, 174.135723)"><mask id="mask-24" fill="#fff"><use xlink:href="#path-23"/></mask><use id="BG" fill="#F2F2F2" fill-rule="evenodd" xlink:href="#path-23"/><path d="M54.4945055,167.394605 C57.6862054,162.716259 101.276155,112.393582 185.264355,16.4265734 L188.775225,19.2973768 C112.510352,118.837083 72.3565061,170.201827 68.3136863,173.391608 L54.4945055,167.394605 Z" id="Light-Long" fill-rule="nonzero" mask="url(#mask-24)"/><polygon id="Base-Long" fill-rule="nonzero" mask="url(#mask-24)" points="68.3136863 173.391608 188.843218 19.2947053 209.634366 31.416087 83.6973027 172.087912"/><path d="M83.6973027,172.087912 C85.4594276,169.503641 127.402052,122.657487 209.525177,31.5494505 L222.410589,38.3286713 C136.411979,139.606306 91.3910003,191.841071 87.3476523,195.032967 L83.6973027,172.087912 Z" id="Shadow-Long" fill-rule="nonzero" mask="url(#mask-24)"/><path d="M90.2157842,183.821179 L218.780391,34.9390609 L222.410589,38.3286713 C136.413855,139.603886 91.3928764,191.838651 87.3476523,195.032967 L90.2157842,183.821179 Z" id="Shadow-Long" fill-rule="nonzero" mask="url(#mask-24)"/><polygon id="Lighter" fill-rule="nonzero" mask="url(#mask-24)" points="0 261 54.4945055 167.394605 30.5064935 228.929071"/><polygon id="Light" fill-rule="nonzero" mask="url(#mask-24)" points="30.5064935 228.929071 54.4945055 167.394605 68.3136863 173.391608 49.5404595 209.634366"/><polygon id="Base" fill-rule="nonzero" mask="url(#mask-24)" points="49.4978485 209.67364 68.3136863 173.391608 83.6973027 172.087912 87.3476523 195.032967"/><path d="M0,261 L30.5064935,228.929071 L49.5404595,209.634366 L71.964036,189.296703 L90.2157842,183.821179 L87.3476523,195.032967 C83.3124502,198.229478 54.1965661,220.218489 0,261 Z" id="Shadow" fill-rule="nonzero" mask="url(#mask-24)"/><polygon id="Light" fill-rule="nonzero" mask="url(#mask-24)" points="185.124875 16.6041784 191.659039 0.267616072 210.994202 0 237.502278 20.4359119 251.874126 36.4014681 248.680382 44.0649351 222.410589 38.3286713 209.39733 31.6118012 188.637994 19.4779785"/><polygon id="Base" fill-rule="nonzero" mask="url(#mask-24)" points="185.124875 16.6041784 237.502278 20.4359119 251.874126 36.4014681 248.680382 44.0649351 222.410589 38.3286713 209.39733 31.6118012 188.637994 19.4779785"/><polygon id="Shadow" fill-rule="nonzero" mask="url(#mask-24)" points="185.124875 16.6041784 191.659039 0.267616072 222.410589 38.3286713 209.39733 31.6118012 188.637994 19.4779785"/></g></g></g></svg>