<svg width="500" height="500" viewBox="0 0 500 500" version="1.1" xmlns="http://www.w3.org/2000/svg" xmlns:xlink="http://www.w3.org/1999/xlink"><title>Vamp Coffin Icon</title><desc>Created with Sketch.</desc><defs><linearGradient x1="50%" y1="0%" x2="50%" y2="100%" id="linearGradient-1"><stop stop-color="#8D4CB3" offset="0%"/><stop stop-color="#591794" offset="100%"/></linearGradient><circle id="path-2" cx="250" cy="250" r="250"/><filter x="-4.5%" y="-4.5%" width="109%" height="109%" filterUnits="objectBoundingBox" id="filter-3"><feOffset dx="0" dy="0" in="SourceAlpha" result="shadowOffsetOuter1"/><feGaussianBlur stdDeviation="7.5" in="shadowOffsetOuter1" result="shadowBlurOuter1"/><feColorMatrix values="0 0 0 0 0.68627451 0 0 0 0 0.537254902 0 0 0 0 0.823529412 0 0 0 0.7 0" type="matrix" in="shadowBlurOuter1"/></filter><polygon id="path-4" points="0.274058577 109.073624 63.58159 5.36821032e-13 190.470711 4.54747351e-13 253.778243 109.073624 253.778243 177.68886 192.692808 407.864277 67.5398847 407.864277 0 177.68886"/><polygon id="path-6" points="63.58159 4.54747351e-13 83.5878661 31.1638924 32.6129707 121.37516 0.274058577 109.073624"/><filter x="-63%" y="-43.3%" width="226%" height="186.5%" filterUnits="objectBoundingBox" id="filter-7"><feOffset dx="0" dy="0" in="SourceAlpha" result="shadowOffsetOuter1"/><feGaussianBlur stdDeviation="17.5" in="shadowOffsetOuter1" result="shadowBlurOuter1"/><feComposite in="shadowBlurOuter1" in2="SourceAlpha" operator="out" result="shadowBlurOuter1"/><feColorMatrix values="0 0 0 0 0.117647059 0 0 0 0 0.00784313725 0 0 0 0 0.219607843 0 0 0 0.3 0" type="matrix" in="shadowBlurOuter1"/></filter><polygon id="path-8" points="169.916318 31.1638924 190.470711 4.54747351e-13 253.778243 109.073624 220.891213 121.37516"/><filter x="-62.6%" y="-43.3%" width="225.2%" height="186.5%" filterUnits="objectBoundingBox" id="filter-9"><feOffset dx="0" dy="0" in="SourceAlpha" result="shadowOffsetOuter1"/><feGaussianBlur stdDeviation="17.5" in="shadowOffsetOuter1" result="shadowBlurOuter1"/><feComposite in="shadowBlurOuter1" in2="SourceAlpha" operator="out" result="shadowBlurOuter1"/><feColorMatrix values="0 0 0 0 0.117647059 0 0 0 0 0.00784313725 0 0 0 0 0.219607843 0 0 0 0.3 0" type="matrix" in="shadowBlurOuter1"/></filter><polygon id="path-10" points="32.6129707 121.37516 96.4686192 322.573624 74.2698745 361.665173 0.274058577 109.073624"/><filter x="-54.6%" y="-20.8%" width="209.2%" height="141.6%" filterUnits="objectBoundingBox" id="filter-11"><feOffset dx="0" dy="0" in="SourceAlpha" result="shadowOffsetOuter1"/><feGaussianBlur stdDeviation="17.5" in="shadowOffsetOuter1" result="shadowBlurOuter1"/><feComposite in="shadowBlurOuter1" in2="SourceAlpha" operator="out" result="shadowBlurOuter1"/><feColorMatrix values="0 0 0 0 0.117647059 0 0 0 0 0.00784313725 0 0 0 0 0.219607843 0 0 0 0.3 0" type="matrix" in="shadowBlurOuter1"/></filter><polygon id="path-12" points="160.872385 322.573624 220.891213 121.37516 253.778243 109.073624 185.263598 361.665173"/><filter x="-56.5%" y="-20.8%" width="213%" height="141.6%" filterUnits="objectBoundingBox" id="filter-13"><feOffset dx="0" dy="0" in="SourceAlpha" result="shadowOffsetOuter1"/><feGaussianBlur stdDeviation="17.5" in="shadowOffsetOuter1" result="shadowBlurOuter1"/><feComposite in="shadowBlurOuter1" in2="SourceAlpha" operator="out" result="shadowBlurOuter1"/><feColorMatrix values="0 0 0 0 0.117647059 0 0 0 0 0.00784313725 0 0 0 0 0.219607843 0 0 0 0.3 0" type="matrix" in="shadowBlurOuter1"/></filter><polygon id="path-14" points="63.58159 4.54747351e-13 190.470711 4.54747351e-13 169.916318 31.1638924 83.5878661 31.1638924"/><filter x="-41.4%" y="-168.5%" width="182.7%" height="436.9%" filterUnits="objectBoundingBox" id="filter-15"><feOffset dx="0" dy="0" in="SourceAlpha" result="shadowOffsetOuter1"/><feGaussianBlur stdDeviation="17.5" in="shadowOffsetOuter1" result="shadowBlurOuter1"/><feComposite in="shadowBlurOuter1" in2="SourceAlpha" operator="out" result="shadowBlurOuter1"/><feColorMatrix values="0 0 0 0 0.117647059 0 0 0 0 0.00784313725 0 0 0 0 0.219607843 0 0 0 0.3 0" type="matrix" in="shadowBlurOuter1"/></filter><polygon id="path-16" points="160.872385 322.573624 185.263598 361.665173 74.2698745 361.665173 96.4686192 322.573624"/><filter x="-47.3%" y="-134.3%" width="194.6%" height="368.6%" filterUnits="objectBoundingBox" id="filter-17"><feOffset dx="0" dy="0" in="SourceAlpha" result="shadowOffsetOuter1"/><feGaussianBlur stdDeviation="17.5" in="shadowOffsetOuter1" result="shadowBlurOuter1"/><feComposite in="shadowBlurOuter1" in2="SourceAlpha" operator="out" result="shadowBlurOuter1"/><feColorMatrix values="0 0 0 0 0.117647059 0 0 0 0 0.00784313725 0 0 0 0 0.219607843 0 0 0 0.3 0" type="matrix" in="shadowBlurOuter1"/></filter><polygon id="path-18" points="0.274058577 109.073624 74.2698745 361.665173 67.5398847 407.864277 0 177.68886"/><filter x="-70.7%" y="-17.6%" width="241.4%" height="135.1%" filterUnits="objectBoundingBox" id="filter-19"><feOffset dx="0" dy="0" in="SourceAlpha" result="shadowOffsetOuter1"/><feGaussianBlur stdDeviation="17.5" in="shadowOffsetOuter1" result="shadowBlurOuter1"/><feComposite in="shadowBlurOuter1" in2="SourceAlpha" operator="out" result="shadowBlurOuter1"/><feColorMatrix values="0 0 0 0 0.117647059 0 0 0 0 0.00784313725 0 0 0 0 0.219607843 0 0 0 0.3 0" type="matrix" in="shadowBlurOuter1"/></filter><polygon id="path-20" points="185.263598 361.665173 192.692808 407.864277 67.5398847 407.864277 74.2698745 361.665173"/><filter x="-41.9%" y="-113.6%" width="183.9%" height="327.3%" filterUnits="objectBoundingBox" id="filter-21"><feOffset dx="0" dy="0" in="SourceAlpha" result="shadowOffsetOuter1"/><feGaussianBlur stdDeviation="17.5" in="shadowOffsetOuter1" result="shadowBlurOuter1"/><feComposite in="shadowBlurOuter1" in2="SourceAlpha" operator="out" result="shadowBlurOuter1"/><feColorMatrix values="0 0 0 0 0.117647059 0 0 0 0 0.00784313725 0 0 0 0 0.219607843 0 0 0 0.3 0" type="matrix" in="shadowBlurOuter1"/></filter><polygon id="path-22" points="185.263598 361.665173 253.778243 109.073624 253.778243 177.68886 192.692808 407.864277"/><filter x="-76.6%" y="-17.6%" width="253.3%" height="135.1%" filterUnits="objectBoundingBox" id="filter-23"><feOffset dx="0" dy="0" in="SourceAlpha" result="shadowOffsetOuter1"/><feGaussianBlur stdDeviation="17.5" in="shadowOffsetOuter1" result="shadowBlurOuter1"/><feComposite in="shadowBlurOuter1" in2="SourceAlpha" operator="out" result="shadowBlurOuter1"/><feColorMatrix values="0 0 0 0 0.117647059 0 0 0 0 0.00784313725 0 0 0 0 0.219607843 0 0 0 0.3 0" type="matrix" in="shadowBlurOuter1"/></filter><polygon id="path-24" points="83.5878661 31.1638924 169.916318 31.1638924 220.891213 121.37516 160.872385 322.573624 96.4686192 322.573624 32.6129707 121.37516"/><filter x="-27.9%" y="-18%" width="155.8%" height="136%" filterUnits="objectBoundingBox" id="filter-25"><feOffset dx="0" dy="0" in="SourceAlpha" result="shadowOffsetOuter1"/><feGaussianBlur stdDeviation="17.5" in="shadowOffsetOuter1" result="shadowBlurOuter1"/><feComposite in="shadowBlurOuter1" in2="SourceAlpha" operator="out" result="shadowBlurOuter1"/><feColorMatrix values="0 0 0 0 0.117647059 0 0 0 0 0.00784313725 0 0 0 0 0.219607843 0 0 0 0.3 0" type="matrix" in="shadowBlurOuter1"/></filter><path d="M0,112 L23.3846154,71.8321678 C24.7547335,69.8235685 43.4426774,48.2533118 79.4484471,7.12139757 L82.2516074,0.114778365 L90.546404,0 L101.918384,8.76479701 L108.083916,15.6122947 L106.713798,18.8990936 L95.4405594,16.4475524 C58.5373478,59.9078897 39.2180005,82.3228082 37.4825175,83.6923077 C35.7470345,85.0618072 23.252862,94.4977047 0,112 Z" id="path-26"/></defs><g id="Vamp-Coffin-Icon" stroke="none" stroke-width="1" fill="none" fill-rule="evenodd"><g id="Oval"><use fill="#000" fill-opacity="1" filter="url(#filter-3)" xlink:href="#path-2"/><use fill="url(#linearGradient-1)" fill-rule="evenodd" xlink:href="#path-2"/></g><g id="coffin" transform="translate(119.000000, 38.000000)"><polygon id="BG-Shadow" fill="#AF89D2" fill-rule="nonzero" points="8.4958159 125.475672 71.8033473 16.4020487 198.692469 16.4020487 262 125.475672 262 194.090909 200.914565 424.266325 75.761642 424.266325 8.22175732 194.090909"/><g id="Shaded-Cells" stroke-width="1" fill-rule="evenodd"><mask id="mask-5" fill="#fff"><use xlink:href="#path-4"/></mask><use id="Solid-Background" fill="#1E0238" xlink:href="#path-4"/><g id="Shadow" mask="url(#mask-5)"><use fill="#000" fill-opacity="1" filter="url(#filter-7)" xlink:href="#path-6"/><path stroke-opacity=".2" stroke="#1E0238" stroke-width="2" d="M63.6245783,1.91802977 L1.72985906,108.557495 L32.1651791,120.134916 L82.4206646,31.1968024 L63.6245783,1.91802977 Z" stroke-linejoin="square" fill="#591794" fill-rule="evenodd"/></g><g id="Shadow" mask="url(#mask-5)"><use fill="#000" fill-opacity="1" filter="url(#filter-9)" xlink:href="#path-8"/><path stroke-opacity=".2" stroke="#1E0238" stroke-width="2" d="M171.087679,31.2041633 L221.341373,120.139107 L252.319108,108.55175 L190.416423,1.89856024 L171.087679,31.2041633 Z" stroke-linejoin="square" fill="#591794" fill-rule="evenodd"/></g><g id="Shadow" mask="url(#mask-5)"><use fill="#000" fill-opacity="1" filter="url(#filter-11)" xlink:href="#path-10"/><path stroke-opacity=".2" stroke="#1E0238" stroke-width="2" d="M31.8059476,122.13808 L1.79949722,110.723798 L74.5659271,359.118725 L95.3833133,322.459721 L31.8059476,122.13808 Z" stroke-linejoin="square" fill="#591794" fill-rule="evenodd"/></g><g id="Shadow" mask="url(#mask-5)"><use fill="#000" fill-opacity="1" filter="url(#filter-13)" xlink:href="#path-12"/><path stroke-opacity=".2" stroke="#1E0238" stroke-width="2" d="M161.959644,322.427085 L184.898561,359.191053 L252.302807,110.693185 L221.707331,122.137557 L161.959644,322.427085 Z" stroke-linejoin="square" fill="#591794" fill-rule="evenodd"/></g><g id="Shadow" mask="url(#mask-5)"><use fill="#000" fill-opacity="1" filter="url(#filter-15)" xlink:href="#path-14"/><path stroke-opacity=".2" stroke="#1E0238" stroke-width="2" d="M65.4118884,1 L84.1342251,30.1638924 L169.377954,30.1638924 L188.613232,1 L65.4118884,1 Z" stroke-linejoin="square" fill="#591794" fill-rule="evenodd"/></g><g id="Shadow" mask="url(#mask-5)"><use fill="#000" fill-opacity="1" filter="url(#filter-17)" xlink:href="#path-16"/><path stroke-opacity=".2" stroke="#1E0238" stroke-width="2" d="M160.317644,323.573624 L97.0507412,323.573624 L75.9877276,360.665173 L183.460955,360.665173 L160.317644,323.573624 Z" stroke-linejoin="square" fill="#591794" fill-rule="evenodd"/></g><g id="Shadow" mask="url(#mask-5)"><use fill="#000" fill-opacity="1" filter="url(#filter-19)" xlink:href="#path-18"/><path stroke-opacity=".2" stroke="#1E0238" stroke-width="2" d="M1.24659925,115.950532 L1.00057406,177.547132 L67.2103263,403.189467 L73.2488677,361.736923 L1.24659925,115.950532 Z" stroke-linejoin="square" fill="#591794" fill-rule="evenodd"/></g><g id="Shadow" mask="url(#mask-5)"><use fill="#000" fill-opacity="1" filter="url(#filter-21)" xlink:href="#path-20"/><path stroke-opacity=".2" stroke="#1E0238" stroke-width="2" d="M184.41156,362.665173 L75.1347556,362.665173 L68.696113,406.864277 L191.519152,406.864277 L184.41156,362.665173 Z" stroke-linejoin="square" fill="#591794" fill-rule="evenodd"/></g><g id="Shadow" mask="url(#mask-5)"><use fill="#000" fill-opacity="1" filter="url(#filter-23)" xlink:href="#path-22"/><path stroke-opacity=".2" stroke="#1E0238" stroke-width="2" d="M186.285113,361.719072 L192.933122,403.060224 L252.778243,177.558425 L252.778243,116.5802 L186.285113,361.719072 Z" stroke-linejoin="square" fill="#591794" fill-rule="evenodd"/></g><g id="Shadow" mask="url(#mask-5)"><use fill="#000" fill-opacity="1" filter="url(#filter-25)" xlink:href="#path-24"/><path stroke-opacity=".2" stroke="#1E0238" stroke-width="2" d="M84.1714102,32.1638924 L33.6978944,121.487859 L97.2003986,321.573624 L160.127146,321.573624 L219.811368,121.496846 L169.332774,32.1638924 L84.1714102,32.1638924 Z" stroke-linejoin="square" fill="#591794" fill-rule="evenodd"/></g></g><path d="M72.0774059,189.990397 C86.2736578,165.323517 94.0557167,151.989957 95.4235827,149.989716 C96.7857131,147.997863 115.292514,126.688778 150.943986,86.0624623 C151.242676,85.7220777 151.481405,85.3334484 151.649984,84.9131405 L153.201609,81.0445674 C153.802488,79.5464313 155.244928,78.5562588 156.858921,78.5339816 L161.084366,78.4756599 C161.984996,78.463229 162.863461,78.7551322 163.577541,79.3041116 L173.540356,86.9634501 C173.731899,87.1107071 173.909707,87.2750155 174.071598,87.4543603 L178.79515,92.6871523 C179.520714,93.4909391 179.717255,94.6412608 179.299726,95.6403535 C178.906076,96.582304 177.884791,97.0969565 176.893491,96.8529185 L169.937476,95.1404885 C168.465901,94.7782278 166.915967,95.278719 165.934175,96.4332099 C130.017689,138.667445 111.205735,160.456543 109.498311,161.800502 C107.765681,163.164303 95.2920459,172.560934 72.0774059,189.990397 Z" id="Background-Mask" fill="#1E0238" fill-rule="evenodd"/><g id="-emoji-stake" transform="translate(70.981172, 74.355954)"><path d="M0.559440559,115.356643 C14.779066,90.5866879 22.5739378,77.1974105 23.9440559,75.1888112 C25.3141741,73.1802119 44.002118,51.6099551 80.0078877,10.4780409 L82.811048,3.47142172 L91.1058445,3.35664336 L102.477825,12.1214404 L108.643357,18.968938 L107.273239,22.2557369 L96.1752816,19.5167379 C59.1552155,63.1687138 39.777441,85.6794515 38.041958,87.048951 C36.3064751,88.4184506 23.8123026,97.854348 0.559440559,115.356643 Z" id="Shadow" fill="#1E0238" fill-rule="evenodd"/><mask id="mask-27" fill="#fff"><use xlink:href="#path-26"/></mask><use id="BG" fill="#EDE9F1" fill-rule="nonzero" xlink:href="#path-26"/><path d="M23.3846154,71.8321678 C24.7542337,69.8246016 43.4594995,48.230196 79.5004128,7.04895105 L81.006993,8.28086667 C48.2803044,50.9952234 31.0495352,73.0367993 29.3146853,74.4055944 L23.3846154,71.8321678 Z" id="Light-Long" fill-rule="nonzero" mask="url(#mask-27)"/><polygon id="Base-Long" fill-rule="nonzero" mask="url(#mask-27)" points="29.3146853 74.4055944 81.0361702 8.27972028 89.958042 13.4812328 35.9160839 73.8461538"/><path d="M35.9160839,73.8461538 C36.6722448,72.7371947 54.6706125,52.6346306 89.9111872,13.5384615 L95.4405594,16.4475524 C58.5369413,59.9076869 39.217594,82.3226053 37.4825175,83.6923077 L35.9160839,73.8461538 Z" id="Shadow-Long" fill-rule="nonzero" mask="url(#mask-27)"/><path d="M38.7132867,78.8811189 L93.882773,14.993007 L95.4405594,16.4475524 C58.5377464,59.9066485 39.2183991,82.3215669 37.4825175,83.6923077 L38.7132867,78.8811189 Z" id="Shadow-Long" fill-rule="nonzero" mask="url(#mask-27)"/><polygon id="Lighter" fill-rule="nonzero" mask="url(#mask-27)" points="0 112 23.3846154 71.8321678 13.0909091 98.2377622"/><polygon id="Light" fill-rule="nonzero" mask="url(#mask-27)" points="13.0909091 98.2377622 23.3846154 71.8321678 29.3146853 74.4055944 21.2587413 89.958042"/><polygon id="Base" fill-rule="nonzero" mask="url(#mask-27)" points="21.240456 89.9748954 29.3146853 74.4055944 35.9160839 73.8461538 37.4825175 83.6923077"/><path d="M0,112 L13.0909091,98.2377622 L21.2587413,89.958042 L30.8811189,81.2307692 L38.7132867,78.8811189 L37.4825175,83.6923077 C35.7509365,85.0639904 23.256764,94.4998878 0,112 Z" id="Shadow" fill-rule="nonzero" mask="url(#mask-27)"/><polygon id="Light" fill-rule="nonzero" mask="url(#mask-27)" points="79.4405594 7.12516469 82.2444919 0.114839081 90.5415733 0 101.916686 8.76943347 108.083916 15.6205534 106.713421 18.9090909 95.4405594 16.4475524 89.8563255 13.5652174 80.9481045 8.35836627"/><polygon id="Base" fill-rule="nonzero" mask="url(#mask-27)" points="79.4405594 7.12516469 101.916686 8.76943347 108.083916 15.6205534 106.713421 18.9090909 95.4405594 16.4475524 89.8563255 13.5652174 80.9481045 8.35836627"/><polygon id="Shadow" fill-rule="nonzero" mask="url(#mask-27)" points="79.4405594 7.12516469 82.2444919 0.114839081 95.4405594 16.4475524 89.8563255 13.5652174 80.9481045 8.35836627"/></g></g></g></svg>