<svg width="500" height="500" viewBox="0 0 500 500" version="1.1" xmlns="http://www.w3.org/2000/svg" xmlns:xlink="http://www.w3.org/1999/xlink"><title>Vamp Coffin Icon</title><desc>Created with Sketch.</desc><defs><linearGradient x1="50%" y1="0%" x2="50%" y2="100%" id="linearGradient-1"><stop stop-color="#591794" offset="0%"/><stop stop-color="#8D4CB3" offset="100%"/></linearGradient><circle id="path-2" cx="250" cy="250" r="250"/><filter x="-4.5%" y="-4.5%" width="109%" height="109%" filterUnits="objectBoundingBox" id="filter-3"><feOffset dx="0" dy="0" in="SourceAlpha" result="shadowOffsetOuter1"/><feGaussianBlur stdDeviation="7.5" in="shadowOffsetOuter1" result="shadowBlurOuter1"/><feColorMatrix values="0 0 0 0 0.68627451 0 0 0 0 0.537254902 0 0 0 0 0.823529412 0 0 0 0.7 0" type="matrix" in="shadowBlurOuter1"/></filter><polygon id="path-4" points="0.274058577 109.073624 63.58159 5.36821032e-13 190.470711 4.54747351e-13 253.778243 109.073624 253.778243 177.68886 192.692808 407.864277 67.5398847 407.864277 0 177.68886"/><linearGradient x1="73.558%" y1="0%" x2="26.442%" y2="100%" id="linearGradient-6"><stop stop-color="#591794" offset="0%"/><stop stop-color="#3A086B" offset="100%"/></linearGradient><polygon id="path-7" points="63.58159 4.54747351e-13 83.5878661 31.1638924 32.6129707 121.37516 0.274058577 109.073624"/><filter x="-63%" y="-43.3%" width="226%" height="186.5%" filterUnits="objectBoundingBox" id="filter-8"><feOffset dx="0" dy="0" in="SourceAlpha" result="shadowOffsetOuter1"/><feGaussianBlur stdDeviation="17.5" in="shadowOffsetOuter1" result="shadowBlurOuter1"/><feComposite in="shadowBlurOuter1" in2="SourceAlpha" operator="out" result="shadowBlurOuter1"/><feColorMatrix values="0 0 0 0 0.117647059 0 0 0 0 0.00784313725 0 0 0 0 0.219607843 0 0 0 0.3 0" type="matrix" in="shadowBlurOuter1"/></filter><linearGradient x1="73.869%" y1="0%" x2="26.131%" y2="100%" id="linearGradient-9"><stop stop-color="#591794" offset="0%"/><stop stop-color="#3A086B" offset="100%"/></linearGradient><polygon id="path-10" points="169.916318 31.1638924 190.470711 4.54747351e-13 253.778243 109.073624 220.891213 121.37516"/><filter x="-62.6%" y="-43.3%" width="225.2%" height="186.5%" filterUnits="objectBoundingBox" id="filter-11"><feOffset dx="0" dy="0" in="SourceAlpha" result="shadowOffsetOuter1"/><feGaussianBlur stdDeviation="17.5" in="shadowOffsetOuter1" result="shadowBlurOuter1"/><feComposite in="shadowBlurOuter1" in2="SourceAlpha" operator="out" result="shadowBlurOuter1"/><feColorMatrix values="0 0 0 0 0.117647059 0 0 0 0 0.00784313725 0 0 0 0 0.219607843 0 0 0 0.3 0" type="matrix" in="shadowBlurOuter1"/></filter><linearGradient x1="57.252%" y1="0%" x2="42.748%" y2="100%" id="linearGradient-12"><stop stop-color="#591794" offset="0%"/><stop stop-color="#3A086B" offset="100%"/></linearGradient><polygon id="path-13" points="32.6129707 121.37516 96.4686192 322.573624 74.2698745 361.665173 0.274058577 109.073624"/><filter x="-54.6%" y="-20.8%" width="209.2%" height="141.6%" filterUnits="objectBoundingBox" id="filter-14"><feOffset dx="0" dy="0" in="SourceAlpha" result="shadowOffsetOuter1"/><feGaussianBlur stdDeviation="17.5" in="shadowOffsetOuter1" result="shadowBlurOuter1"/><feComposite in="shadowBlurOuter1" in2="SourceAlpha" operator="out" result="shadowBlurOuter1"/><feColorMatrix values="0 0 0 0 0.117647059 0 0 0 0 0.00784313725 0 0 0 0 0.219607843 0 0 0 0.3 0" type="matrix" in="shadowBlurOuter1"/></filter><linearGradient x1="56.764%" y1="0%" x2="43.236%" y2="100%" id="linearGradient-15"><stop stop-color="#591794" offset="0%"/><stop stop-color="#3A086B" offset="100%"/></linearGradient><polygon id="path-16" points="160.872385 322.573624 220.891213 121.37516 253.778243 109.073624 185.263598 361.665173"/><filter x="-56.5%" y="-20.8%" width="213%" height="141.6%" filterUnits="objectBoundingBox" id="filter-17"><feOffset dx="0" dy="0" in="SourceAlpha" result="shadowOffsetOuter1"/><feGaussianBlur stdDeviation="17.5" in="shadowOffsetOuter1" result="shadowBlurOuter1"/><feComposite in="shadowBlurOuter1" in2="SourceAlpha" operator="out" result="shadowBlurOuter1"/><feColorMatrix values="0 0 0 0 0.117647059 0 0 0 0 0.00784313725 0 0 0 0 0.219607843 0 0 0 0.3 0" type="matrix" in="shadowBlurOuter1"/></filter><linearGradient x1="100%" y1="46.984%" x2="0%" y2="53.016%" id="linearGradient-18"><stop stop-color="#591794" offset="0%"/><stop stop-color="#3A086B" offset="100%"/></linearGradient><polygon id="path-19" points="63.58159 4.54747351e-13 190.470711 4.54747351e-13 169.916318 31.1638924 83.5878661 31.1638924"/><filter x="-41.4%" y="-168.5%" width="182.7%" height="436.9%" filterUnits="objectBoundingBox" id="filter-20"><feOffset dx="0" dy="0" in="SourceAlpha" result="shadowOffsetOuter1"/><feGaussianBlur stdDeviation="17.5" in="shadowOffsetOuter1" result="shadowBlurOuter1"/><feComposite in="shadowBlurOuter1" in2="SourceAlpha" operator="out" result="shadowBlurOuter1"/><feColorMatrix values="0 0 0 0 0.117647059 0 0 0 0 0.00784313725 0 0 0 0 0.219607843 0 0 0 0.3 0" type="matrix" in="shadowBlurOuter1"/></filter><linearGradient x1="100%" y1="43.798%" x2="0%" y2="56.202%" id="linearGradient-21"><stop stop-color="#591794" offset="0%"/><stop stop-color="#3A086B" offset="100%"/></linearGradient><polygon id="path-22" points="160.872385 322.573624 185.263598 361.665173 74.2698745 361.665173 96.4686192 322.573624"/><filter x="-47.3%" y="-134.3%" width="194.6%" height="368.6%" filterUnits="objectBoundingBox" id="filter-23"><feOffset dx="0" dy="0" in="SourceAlpha" result="shadowOffsetOuter1"/><feGaussianBlur stdDeviation="17.5" in="shadowOffsetOuter1" result="shadowBlurOuter1"/><feComposite in="shadowBlurOuter1" in2="SourceAlpha" operator="out" result="shadowBlurOuter1"/><feColorMatrix values="0 0 0 0 0.117647059 0 0 0 0 0.00784313725 0 0 0 0 0.219607843 0 0 0 0.3 0" type="matrix" in="shadowBlurOuter1"/></filter><linearGradient x1="53.089%" y1="0%" x2="46.911%" y2="100%" id="linearGradient-24"><stop stop-color="#591794" offset="0%"/><stop stop-color="#3A086B" offset="100%"/></linearGradient><polygon id="path-25" points="0.274058577 109.073624 74.2698745 361.665173 67.5398847 407.864277 0 177.68886"/><filter x="-70.7%" y="-17.6%" width="241.4%" height="135.1%" filterUnits="objectBoundingBox" id="filter-26"><feOffset dx="0" dy="0" in="SourceAlpha" result="shadowOffsetOuter1"/><feGaussianBlur stdDeviation="17.5" in="shadowOffsetOuter1" result="shadowBlurOuter1"/><feComposite in="shadowBlurOuter1" in2="SourceAlpha" operator="out" result="shadowBlurOuter1"/><feColorMatrix values="0 0 0 0 0.117647059 0 0 0 0 0.00784313725 0 0 0 0 0.219607843 0 0 0 0.3 0" type="matrix" in="shadowBlurOuter1"/></filter><linearGradient x1="100%" y1="43.187%" x2="0%" y2="56.813%" id="linearGradient-27"><stop stop-color="#591794" offset="0%"/><stop stop-color="#3A086B" offset="100%"/></linearGradient><polygon id="path-28" points="185.263598 361.665173 192.692808 407.864277 67.5398847 407.864277 74.2698745 361.665173"/><filter x="-41.9%" y="-113.6%" width="183.9%" height="327.3%" filterUnits="objectBoundingBox" id="filter-29"><feOffset dx="0" dy="0" in="SourceAlpha" result="shadowOffsetOuter1"/><feGaussianBlur stdDeviation="17.5" in="shadowOffsetOuter1" result="shadowBlurOuter1"/><feComposite in="shadowBlurOuter1" in2="SourceAlpha" operator="out" result="shadowBlurOuter1"/><feColorMatrix values="0 0 0 0 0.117647059 0 0 0 0 0.00784313725 0 0 0 0 0.219607843 0 0 0 0.3 0" type="matrix" in="shadowBlurOuter1"/></filter><linearGradient x1="52.629%" y1="0%" x2="47.371%" y2="100%" id="linearGradient-30"><stop stop-color="#591794" offset="0%"/><stop stop-color="#3A086B" offset="100%"/></linearGradient><polygon id="path-31" points="185.263598 361.665173 253.778243 109.073624 253.778243 177.68886 192.692808 407.864277"/><filter x="-76.6%" y="-17.6%" width="253.3%" height="135.1%" filterUnits="objectBoundingBox" id="filter-32"><feOffset dx="0" dy="0" in="SourceAlpha" result="shadowOffsetOuter1"/><feGaussianBlur stdDeviation="17.5" in="shadowOffsetOuter1" result="shadowBlurOuter1"/><feComposite in="shadowBlurOuter1" in2="SourceAlpha" operator="out" result="shadowBlurOuter1"/><feColorMatrix values="0 0 0 0 0.117647059 0 0 0 0 0.00784313725 0 0 0 0 0.219607843 0 0 0 0.3 0" type="matrix" in="shadowBlurOuter1"/></filter><linearGradient x1="70.872%" y1="0%" x2="29.128%" y2="100%" id="linearGradient-33"><stop stop-color="#591794" offset="0%"/><stop stop-color="#3A086B" offset="100%"/></linearGradient><polygon id="path-34" points="83.5878661 31.1638924 169.916318 31.1638924 220.891213 121.37516 160.872385 322.573624 96.4686192 322.573624 32.6129707 121.37516"/><filter x="-27.9%" y="-18%" width="155.8%" height="136%" filterUnits="objectBoundingBox" id="filter-35"><feOffset dx="0" dy="0" in="SourceAlpha" result="shadowOffsetOuter1"/><feGaussianBlur stdDeviation="17.5" in="shadowOffsetOuter1" result="shadowBlurOuter1"/><feComposite in="shadowBlurOuter1" in2="SourceAlpha" operator="out" result="shadowBlurOuter1"/><feColorMatrix values="0 0 0 0 0.117647059 0 0 0 0 0.00784313725 0 0 0 0 0.219607843 0 0 0 0.3 0" type="matrix" in="shadowBlurOuter1"/></filter></defs><g id="Vamp-Coffin-Icon" stroke="none" stroke-width="1" fill="none" fill-rule="evenodd"><g id="Oval"><use fill="#000" fill-opacity="1" filter="url(#filter-3)" xlink:href="#path-2"/><use fill="url(#linearGradient-1)" fill-rule="evenodd" xlink:href="#path-2"/></g><g id="coffin" transform="translate(119.000000, 38.000000)"><polygon id="BG-Shadow" fill="#AF89D2" fill-rule="nonzero" points="8.4958159 125.475672 71.8033473 16.4020487 198.692469 16.4020487 262 125.475672 262 194.090909 200.914565 424.266325 75.761642 424.266325 8.22175732 194.090909"/><g id="Shaded-Cells" stroke-width="1" fill-rule="evenodd"><mask id="mask-5" fill="#fff"><use xlink:href="#path-4"/></mask><use id="Solid-Background" fill="#1E0238" xlink:href="#path-4"/><g id="Shadow" mask="url(#mask-5)"><use fill="#000" fill-opacity="1" filter="url(#filter-8)" xlink:href="#path-7"/><path stroke-opacity=".2" stroke="#1E0238" stroke-width="2" d="M63.6245783,1.91802977 L1.72985906,108.557495 L32.1651791,120.134916 L82.4206646,31.1968024 L63.6245783,1.91802977 Z" stroke-linejoin="square" fill="url(#linearGradient-6)" fill-rule="evenodd"/></g><g id="Shadow" mask="url(#mask-5)"><use fill="#000" fill-opacity="1" filter="url(#filter-11)" xlink:href="#path-10"/><path stroke-opacity=".2" stroke="#1E0238" stroke-width="2" d="M171.087679,31.2041633 L221.341373,120.139107 L252.319108,108.55175 L190.416423,1.89856024 L171.087679,31.2041633 Z" stroke-linejoin="square" fill="url(#linearGradient-9)" fill-rule="evenodd"/></g><g id="Shadow" mask="url(#mask-5)"><use fill="#000" fill-opacity="1" filter="url(#filter-14)" xlink:href="#path-13"/><path stroke-opacity=".2" stroke="#1E0238" stroke-width="2" d="M31.8059476,122.13808 L1.79949722,110.723798 L74.5659271,359.118725 L95.3833133,322.459721 L31.8059476,122.13808 Z" stroke-linejoin="square" fill="url(#linearGradient-12)" fill-rule="evenodd"/></g><g id="Shadow" mask="url(#mask-5)"><use fill="#000" fill-opacity="1" filter="url(#filter-17)" xlink:href="#path-16"/><path stroke-opacity=".2" stroke="#1E0238" stroke-width="2" d="M161.959644,322.427085 L184.898561,359.191053 L252.302807,110.693185 L221.707331,122.137557 L161.959644,322.427085 Z" stroke-linejoin="square" fill="url(#linearGradient-15)" fill-rule="evenodd"/></g><g id="Shadow" mask="url(#mask-5)"><use fill="#000" fill-opacity="1" filter="url(#filter-20)" xlink:href="#path-19"/><path stroke-opacity=".2" stroke="#1E0238" stroke-width="2" d="M65.4118884,1 L84.1342251,30.1638924 L169.377954,30.1638924 L188.613232,1 L65.4118884,1 Z" stroke-linejoin="square" fill="url(#linearGradient-18)" fill-rule="evenodd"/></g><g id="Shadow" mask="url(#mask-5)"><use fill="#000" fill-opacity="1" filter="url(#filter-23)" xlink:href="#path-22"/><path stroke-opacity=".2" stroke="#1E0238" stroke-width="2" d="M160.317644,323.573624 L97.0507412,323.573624 L75.9877276,360.665173 L183.460955,360.665173 L160.317644,323.573624 Z" stroke-linejoin="square" fill="url(#linearGradient-21)" fill-rule="evenodd"/></g><g id="Shadow" mask="url(#mask-5)"><use fill="#000" fill-opacity="1" filter="url(#filter-26)" xlink:href="#path-25"/><path stroke-opacity=".2" stroke="#1E0238" stroke-width="2" d="M1.24659925,115.950532 L1.00057406,177.547132 L67.2103263,403.189467 L73.2488677,361.736923 L1.24659925,115.950532 Z" stroke-linejoin="square" fill="url(#linearGradient-24)" fill-rule="evenodd"/></g><g id="Shadow" mask="url(#mask-5)"><use fill="#000" fill-opacity="1" filter="url(#filter-29)" xlink:href="#path-28"/><path stroke-opacity=".2" stroke="#1E0238" stroke-width="2" d="M184.41156,362.665173 L75.1347556,362.665173 L68.696113,406.864277 L191.519152,406.864277 L184.41156,362.665173 Z" stroke-linejoin="square" fill="url(#linearGradient-27)" fill-rule="evenodd"/></g><g id="Shadow" mask="url(#mask-5)"><use fill="#000" fill-opacity="1" filter="url(#filter-32)" xlink:href="#path-31"/><path stroke-opacity=".2" stroke="#1E0238" stroke-width="2" d="M186.285113,361.719072 L192.933122,403.060224 L252.778243,177.558425 L252.778243,116.5802 L186.285113,361.719072 Z" stroke-linejoin="square" fill="url(#linearGradient-30)" fill-rule="evenodd"/></g><g id="Shadow" mask="url(#mask-5)"><use fill="#000" fill-opacity="1" filter="url(#filter-35)" xlink:href="#path-34"/><path stroke-opacity=".2" stroke="#1E0238" stroke-width="2" d="M84.1714102,32.1638924 L33.6978944,121.487859 L97.2003986,321.573624 L160.127146,321.573624 L219.811368,121.496846 L169.332774,32.1638924 L84.1714102,32.1638924 Z" stroke-linejoin="square" fill="url(#linearGradient-33)" fill-rule="evenodd"/></g></g><g id="BFTM-Icon" fill="#FFF" fill-rule="evenodd"><path d="M57.792,13.9353317 L57.792,32.1091622 C57.9354698,32.1636825 58.0731955,32.2256052 58.2036171,32.2949303 L69.9920517,38.5752694 L71.5680368,37.1369917 L71.3715497,37.0235434 L70.624,36.5847709 L71.6957881,34.8647823 L72.533404,35.3562076 L72.6775099,35.4439621 C72.8429184,35.5394661 72.9874917,35.63091 73.1225675,35.7182939 L85.4754803,24.4447618 C73.0570508,25.707348 63.7582277,22.199357 57.792,13.9353317 Z M57.792,7.27512976 C63.2832079,19.0739597 73.7968214,23.4427365 89.8213577,20.4148199 C89.6781225,20.0207997 89.6,19.5955231 89.6,19.152 C89.6,17.1107556 91.2547556,15.456 93.296,15.456 C95.3372444,15.456 96.992,17.1107556 96.992,19.152 C96.992,21.1932444 95.3372444,22.848 93.296,22.848 C92.9671709,22.848 92.6483715,22.8050578 92.3449038,22.7244754 L92.1793415,22.8755711 C87.3238134,37.232631 91.5823619,47.5214447 105.191516,54.3042183 C105.824661,53.1773423 107.03142,52.416 108.416,52.416 C110.457244,52.416 112.112,54.0707556 112.112,56.112 C112.112,58.1532444 110.457244,59.808 108.416,59.808 C106.979706,59.808 105.734764,58.9887231 105.123005,57.792 L104.996601,57.792 C91.905999,64.3601085 87.5773342,74.3969833 91.8163157,88.4163262 L92.8918119,89.397847 C93.0245575,89.383409 93.1594135,89.376 93.296,89.376 C95.3372444,89.376 96.992,91.0307556 96.992,93.072 C96.992,95.1132444 95.3372444,96.768 93.296,96.768 C91.2547556,96.768 89.6,95.1132444 89.6,93.072 C89.6,92.6733601 89.6631111,92.2894605 89.7798867,91.9297477 C77.5326826,87.1169999 67.1037723,91.4143803 58.0825041,105.176513 C59.1193298,105.831163 59.808,106.987158 59.808,108.304 C59.808,110.345244 58.1532444,112 56.112,112 C54.0707556,112 52.416,110.345244 52.416,108.304 C52.416,106.823326 53.2866884,105.546012 54.544,104.956124 L54.544,104.85626 C44.4547591,91.3516502 33.717125,87.1598902 21.9948914,91.925973 C22.1124468,92.2867758 22.176,92.6719661 22.176,93.072 C22.176,95.1132444 20.5212444,96.768 18.48,96.768 C16.4387556,96.768 14.784,95.1132444 14.784,93.072 C14.784,91.0307556 16.4387556,89.376 18.48,89.376 C18.7719347,89.376 19.055964,89.4098466 19.328378,89.4738298 L19.6625297,89.1688758 C23.0543154,75.4088324 18.8564999,65.1186971 6.9290134,57.9045114 C6.29822126,59.0397744 5.08682499,59.808 3.696,59.808 C1.65475556,59.808 0,58.1532444 0,56.112 C0,54.0707556 1.65475556,52.416 3.696,52.416 C5.13229432,52.416 6.37723626,53.2352769 6.98899515,54.432 L7.08964037,54.432 C19.5080505,46.5535264 23.5863234,36.110524 19.5272376,22.69754 C19.1952154,22.7954545 18.843744,22.848 18.48,22.848 C16.4387556,22.848 14.784,21.1932444 14.784,19.152 C14.784,17.1107556 16.4387556,15.456 18.48,15.456 C20.5212444,15.456 22.176,17.1107556 22.176,19.152 C22.176,19.4937586 22.1296145,19.8246833 22.0427956,20.1388217 L22.4356066,20.4973094 C38.9236906,23.390761 49.392167,18.8765063 54.3636216,6.95313191 C53.2041787,6.32945314 52.416,5.10477106 52.416,3.696 C52.416,1.65475556 54.0707556,0 56.112,0 C58.1532444,0 59.808,1.65475556 59.808,3.696 C59.808,5.13229432 58.9887231,6.37723626 57.792,6.98899515 L57.792,7.27512976 Z M54.432,13.8622823 C48.7279208,22.1122728 39.4409595,25.6500561 26.7941717,24.475029 L42.1921621,38.5275639 L53.9073001,32.2862738 L53.8987587,32.2949303 C54.0656369,32.2062268 54.2444732,32.1296425 54.432,32.0651775 L54.432,13.8622823 Z M23.8641971,26.3499678 C25.886515,37.6115724 22.1959745,47.0388549 12.8925081,54.432 L40.224,54.432 L40.224,41.2802733 L23.8641971,26.3499678 Z M12.7059089,57.792 C21.6433764,64.7280486 25.3673942,73.9897131 23.8094539,85.3843042 L36.0948032,74.172432 C36.0750324,73.8801533 36.0649964,73.5709075 36.064,73.2427577 L36.064,73.1550032 L37.2096455,73.1550032 L40.224,70.4040388 L40.224,57.792 L12.7059089,57.792 Z M27.0199832,87.0032028 C36.8518839,85.3702295 46.0756652,89.5792104 54.544,99.4745769 L54.544,82.5875681 C54.3155158,82.5161093 54.0985658,82.4272764 53.8987587,82.3210697 L41.419794,75.6728477 C40.9615158,75.4281339 40.6396975,75.1056266 40.4461387,74.7502066 L38.8068863,76.2462233 C39.055965,76.5933074 39.4087941,76.89758 39.9458543,77.2531391 L39.9818808,77.2794654 C40.1349934,77.3759954 40.3061192,77.4813008 40.5132715,77.6129326 L40.7564503,77.7533398 L41.504,78.1921124 L40.4322119,79.9121009 L39.594596,79.4206757 L39.4504901,79.3329211 C39.2073113,79.1837385 39.0091656,79.0608821 38.8200265,78.9380258 C38.1925467,78.5276889 37.6883622,78.1061168 37.2916061,77.6291004 L27.0199832,87.0032028 Z M57.904,99.6286003 C65.8426882,89.3407932 75.0895896,85.1282728 85.4522513,87.1572414 L71.7317172,74.6355889 C71.5401172,75.036053 71.1896647,75.402073 70.6825818,75.6728477 L58.2036171,82.3210697 C58.1075034,82.3721586 58.0074229,82.4192273 57.904,82.4622758 L57.904,99.6286003 Z M87.4011218,84.386926 C85.4447414,73.1564441 89.1378302,64.2150904 98.3937253,57.792 L71.904,57.792 L71.904,70.2439216 L87.4011218,84.386926 Z M98.7290407,54.432 C88.9886536,47.8381642 85.2291585,38.6405581 87.5575561,27.0935111 L75.4641247,38.1302349 C75.8795065,39.0080759 76.0596069,40.0873767 76.064,41.5341256 L76.064,41.6218801 L73.9924768,41.6218801 C73.9924768,40.8002116 73.9311936,40.157674 73.8063464,39.6431588 L71.904,41.3792807 L71.904,54.432 L98.7290407,54.432 Z M70.304,58.9972744 L58.46149,65.2647778 C57.229869,65.9158342 55.3522928,65.9158342 54.1206718,65.2647778 L42.304,59.0059552 L42.304,73.7371923 L54.1206718,79.9612919 C54.7838524,80.3172027 55.4814839,80.6644328 56.1532771,80.7078366 L56.2910809,80.7165174 C56.9973251,80.7165174 57.6777312,80.3606065 58.3753627,80.0220571 L70.304,73.6851078 L70.304,58.9972744 Z M55.264,50.148694 C55.1687059,50.1835794 55.0820749,50.2184648 55.004107,50.2620716 L42.3473155,56.9600694 C42.3299893,56.9687907 42.3213262,56.9775121 42.3126631,56.9775121 L42.304,56.9862334 L42.3213262,56.9949548 L42.3473155,57.0123975 L55.004107,63.7103953 C55.0820749,63.7540021 55.1687059,63.7888875 55.264,63.8237729 L55.264,50.1574154 L55.264,50.148694 Z M56.864,50.1574154 L56.864,63.8237729 C56.9592941,63.7888875 57.0459251,63.7540021 57.123893,63.7103953 L69.7806845,57.0123975 C69.7980107,57.0036761 69.8066738,56.9949548 69.8153369,56.9949548 L69.824,56.9862334 L69.8066738,56.9775121 L69.7806845,56.9600694 L57.123893,50.2620716 C57.0459251,50.2184648 56.9592941,50.1835794 56.864,50.148694 L56.864,50.1574154 Z M69.824,42.9089464 L58.624,48.8616278 L69.824,54.8143091 L69.824,42.9089464 Z M42.304,42.9089464 L42.304,54.8143091 L53.504,48.8616278 L42.304,42.9089464 Z M57.5457758,33.9976998 C56.8926619,33.6522326 55.7153381,33.6522326 55.0622242,33.9976998 L42.506968,40.6306704 C42.4897808,40.6393071 42.4811872,40.6479438 42.4725936,40.6479438 L42.464,40.6565804 L42.4811872,40.6652171 L42.506968,40.6824905 L55.0622242,47.3154611 C55.7153381,47.6609283 56.8926619,47.6609283 57.5457758,47.3154611 L70.101032,40.6824905 C70.1182192,40.6738538 70.1268128,40.6652171 70.1354064,40.6652171 L70.144,40.6565804 L70.1268128,40.6479438 L70.101032,40.6306704 L57.5457758,33.9976998 Z" transform="translate(70.981172, 74.355954)"/></g><path d="M72.0774059,189.990397 C86.2736578,165.323517 94.0557167,151.989957 95.4235827,149.989716 C96.7857131,147.997863 115.292514,126.688778 150.943986,86.0624623 C151.242676,85.7220777 151.481405,85.3334484 151.649984,84.9131405 L153.201609,81.0445674 C153.802488,79.5464313 155.244928,78.5562588 156.858921,78.5339816 L161.084366,78.4756599 C161.984996,78.463229 162.863461,78.7551322 163.577541,79.3041116 L173.540356,86.9634501 C173.731899,87.1107071 173.909707,87.2750155 174.071598,87.4543603 L178.79515,92.6871523 C179.520714,93.4909391 179.717255,94.6412608 179.299726,95.6403535 C178.906076,96.582304 177.884791,97.0969565 176.893491,96.8529185 L169.937476,95.1404885 C168.465901,94.7782278 166.915967,95.278719 165.934175,96.4332099 C130.017689,138.667445 111.205735,160.456543 109.498311,161.800502 C107.765681,163.164303 95.2920459,172.560934 72.0774059,189.990397 Z" id="Background-Mask" fill-rule="nonzero"/></g></g></svg>