<svg width="500" height="500" viewBox="0 0 500 500" version="1.1" xmlns="http://www.w3.org/2000/svg" xmlns:xlink="http://www.w3.org/1999/xlink"><title>VSHARE Coffin Icon</title><desc>Created with Sketch.</desc><defs><linearGradient x1="50%" y1="0%" x2="50%" y2="100%" id="linearGradient-1"><stop stop-color="#CC0251" offset="0%"/><stop stop-color="#630027" offset="100%"/></linearGradient><circle id="path-2" cx="250" cy="250" r="250"/><filter x="-4.5%" y="-4.5%" width="109%" height="109%" filterUnits="objectBoundingBox" id="filter-3"><feOffset dx="0" dy="0" in="SourceAlpha" result="shadowOffsetOuter1"/><feGaussianBlur stdDeviation="7.5" in="shadowOffsetOuter1" result="shadowBlurOuter1"/><feColorMatrix values="0 0 0 0 0.389775815 0 0 0 0 0 0 0 0 0 0.152437076 0 0 0 0.7 0" type="matrix" in="shadowBlurOuter1"/></filter><polygon id="path-4" points="0.274058577 109.073624 63.58159 5.36821032e-13 190.470711 4.54747351e-13 253.778243 109.073624 253.778243 177.68886 192.692808 407.864277 67.5398847 407.864277 0 177.68886"/><polygon id="path-6" points="63.58159 4.54747351e-13 83.5878661 31.1638924 32.6129707 121.37516 0.274058577 109.073624"/><filter x="-63%" y="-43.3%" width="226%" height="186.5%" filterUnits="objectBoundingBox" id="filter-7"><feOffset dx="0" dy="0" in="SourceAlpha" result="shadowOffsetOuter1"/><feGaussianBlur stdDeviation="17.5" in="shadowOffsetOuter1" result="shadowBlurOuter1"/><feComposite in="shadowBlurOuter1" in2="SourceAlpha" operator="out" result="shadowBlurOuter1"/><feColorMatrix values="0 0 0 0 0.389775815 0 0 0 0 0 0 0 0 0 0.152437076 0 0 0 0.3 0" type="matrix" in="shadowBlurOuter1"/></filter><polygon id="path-8" points="169.916318 31.1638924 190.470711 4.54747351e-13 253.778243 109.073624 220.891213 121.37516"/><filter x="-62.6%" y="-43.3%" width="225.2%" height="186.5%" filterUnits="objectBoundingBox" id="filter-9"><feOffset dx="0" dy="0" in="SourceAlpha" result="shadowOffsetOuter1"/><feGaussianBlur stdDeviation="17.5" in="shadowOffsetOuter1" result="shadowBlurOuter1"/><feComposite in="shadowBlurOuter1" in2="SourceAlpha" operator="out" result="shadowBlurOuter1"/><feColorMatrix values="0 0 0 0 0.389775815 0 0 0 0 0 0 0 0 0 0.152437076 0 0 0 0.3 0" type="matrix" in="shadowBlurOuter1"/></filter><polygon id="path-10" points="32.6129707 121.37516 96.4686192 322.573624 74.2698745 361.665173 0.274058577 109.073624"/><filter x="-54.6%" y="-20.8%" width="209.2%" height="141.6%" filterUnits="objectBoundingBox" id="filter-11"><feOffset dx="0" dy="0" in="SourceAlpha" result="shadowOffsetOuter1"/><feGaussianBlur stdDeviation="17.5" in="shadowOffsetOuter1" result="shadowBlurOuter1"/><feComposite in="shadowBlurOuter1" in2="SourceAlpha" operator="out" result="shadowBlurOuter1"/><feColorMatrix values="0 0 0 0 0.389775815 0 0 0 0 0 0 0 0 0 0.152437076 0 0 0 0.3 0" type="matrix" in="shadowBlurOuter1"/></filter><polygon id="path-12" points="160.872385 322.573624 220.891213 121.37516 253.778243 109.073624 185.263598 361.665173"/><filter x="-56.5%" y="-20.8%" width="213%" height="141.6%" filterUnits="objectBoundingBox" id="filter-13"><feOffset dx="0" dy="0" in="SourceAlpha" result="shadowOffsetOuter1"/><feGaussianBlur stdDeviation="17.5" in="shadowOffsetOuter1" result="shadowBlurOuter1"/><feComposite in="shadowBlurOuter1" in2="SourceAlpha" operator="out" result="shadowBlurOuter1"/><feColorMatrix values="0 0 0 0 0.389775815 0 0 0 0 0 0 0 0 0 0.152437076 0 0 0 0.3 0" type="matrix" in="shadowBlurOuter1"/></filter><polygon id="path-14" points="63.58159 4.54747351e-13 190.470711 4.54747351e-13 169.916318 31.1638924 83.5878661 31.1638924"/><filter x="-41.4%" y="-168.5%" width="182.7%" height="436.9%" filterUnits="objectBoundingBox" id="filter-15"><feOffset dx="0" dy="0" in="SourceAlpha" result="shadowOffsetOuter1"/><feGaussianBlur stdDeviation="17.5" in="shadowOffsetOuter1" result="shadowBlurOuter1"/><feComposite in="shadowBlurOuter1" in2="SourceAlpha" operator="out" result="shadowBlurOuter1"/><feColorMatrix values="0 0 0 0 0.389775815 0 0 0 0 0 0 0 0 0 0.152437076 0 0 0 0.3 0" type="matrix" in="shadowBlurOuter1"/></filter><polygon id="path-16" points="160.872385 322.573624 185.263598 361.665173 74.2698745 361.665173 96.4686192 322.573624"/><filter x="-47.3%" y="-134.3%" width="194.6%" height="368.6%" filterUnits="objectBoundingBox" id="filter-17"><feOffset dx="0" dy="0" in="SourceAlpha" result="shadowOffsetOuter1"/><feGaussianBlur stdDeviation="17.5" in="shadowOffsetOuter1" result="shadowBlurOuter1"/><feComposite in="shadowBlurOuter1" in2="SourceAlpha" operator="out" result="shadowBlurOuter1"/><feColorMatrix values="0 0 0 0 0.389775815 0 0 0 0 0 0 0 0 0 0.152437076 0 0 0 0.3 0" type="matrix" in="shadowBlurOuter1"/></filter><polygon id="path-18" points="0.274058577 109.073624 74.2698745 361.665173 67.5398847 407.864277 0 177.68886"/><filter x="-70.7%" y="-17.6%" width="241.4%" height="135.1%" filterUnits="objectBoundingBox" id="filter-19"><feOffset dx="0" dy="0" in="SourceAlpha" result="shadowOffsetOuter1"/><feGaussianBlur stdDeviation="17.5" in="shadowOffsetOuter1" result="shadowBlurOuter1"/><feComposite in="shadowBlurOuter1" in2="SourceAlpha" operator="out" result="shadowBlurOuter1"/><feColorMatrix values="0 0 0 0 0.389775815 0 0 0 0 0 0 0 0 0 0.152437076 0 0 0 0.3 0" type="matrix" in="shadowBlurOuter1"/></filter><polygon id="path-20" points="185.263598 361.665173 192.692808 407.864277 67.5398847 407.864277 74.2698745 361.665173"/><filter x="-41.9%" y="-113.6%" width="183.9%" height="327.3%" filterUnits="objectBoundingBox" id="filter-21"><feOffset dx="0" dy="0" in="SourceAlpha" result="shadowOffsetOuter1"/><feGaussianBlur stdDeviation="17.5" in="shadowOffsetOuter1" result="shadowBlurOuter1"/><feComposite in="shadowBlurOuter1" in2="SourceAlpha" operator="out" result="shadowBlurOuter1"/><feColorMatrix values="0 0 0 0 0.389775815 0 0 0 0 0 0 0 0 0 0.152437076 0 0 0 0.3 0" type="matrix" in="shadowBlurOuter1"/></filter><polygon id="path-22" points="185.263598 361.665173 253.778243 109.073624 253.778243 177.68886 192.692808 407.864277"/><filter x="-76.6%" y="-17.6%" width="253.3%" height="135.1%" filterUnits="objectBoundingBox" id="filter-23"><feOffset dx="0" dy="0" in="SourceAlpha" result="shadowOffsetOuter1"/><feGaussianBlur stdDeviation="17.5" in="shadowOffsetOuter1" result="shadowBlurOuter1"/><feComposite in="shadowBlurOuter1" in2="SourceAlpha" operator="out" result="shadowBlurOuter1"/><feColorMatrix values="0 0 0 0 0.389775815 0 0 0 0 0 0 0 0 0 0.152437076 0 0 0 0.3 0" type="matrix" in="shadowBlurOuter1"/></filter><polygon id="path-24" points="83.5878661 31.1638924 169.916318 31.1638924 220.891213 121.37516 160.872385 322.573624 96.4686192 322.573624 32.6129707 121.37516"/><filter x="-27.9%" y="-18%" width="155.8%" height="136%" filterUnits="objectBoundingBox" id="filter-25"><feOffset dx="0" dy="0" in="SourceAlpha" result="shadowOffsetOuter1"/><feGaussianBlur stdDeviation="17.5" in="shadowOffsetOuter1" result="shadowBlurOuter1"/><feComposite in="shadowBlurOuter1" in2="SourceAlpha" operator="out" result="shadowBlurOuter1"/><feColorMatrix values="0 0 0 0 0.389775815 0 0 0 0 0 0 0 0 0 0.152437076 0 0 0 0.3 0" type="matrix" in="shadowBlurOuter1"/></filter></defs><g id="VSHARE-Coffin-Icon" stroke="none" stroke-width="1" fill="none" fill-rule="evenodd"><g id="Oval"><use fill="#000" fill-opacity="1" filter="url(#filter-3)" xlink:href="#path-2"/><use fill="url(#linearGradient-1)" fill-rule="evenodd" xlink:href="#path-2"/></g><g id="coffin" transform="translate(119.000000, 38.000000)"><polygon id="BG-Shadow" fill="#EB7AA6" fill-rule="nonzero" points="8.4958159 125.475672 71.8033473 16.4020487 198.692469 16.4020487 262 125.475672 262 194.090909 200.914565 424.266325 75.761642 424.266325 8.22175732 194.090909"/><g id="Shaded-Cells" stroke-width="1" fill-rule="evenodd"><mask id="mask-5" fill="#fff"><use xlink:href="#path-4"/></mask><use id="Solid-Background" fill="#630027" xlink:href="#path-4"/><g id="Shadow" mask="url(#mask-5)"><use fill="#000" fill-opacity="1" filter="url(#filter-7)" xlink:href="#path-6"/><path stroke-opacity=".2" stroke="#630027" stroke-width="2" d="M63.6245783,1.91802977 L1.72985906,108.557495 L32.1651791,120.134916 L82.4206646,31.1968024 L63.6245783,1.91802977 Z" stroke-linejoin="square" fill="#CC0251" fill-rule="evenodd"/></g><g id="Shadow" mask="url(#mask-5)"><use fill="#000" fill-opacity="1" filter="url(#filter-9)" xlink:href="#path-8"/><path stroke-opacity=".2" stroke="#630027" stroke-width="2" d="M171.087679,31.2041633 L221.341373,120.139107 L252.319108,108.55175 L190.416423,1.89856024 L171.087679,31.2041633 Z" stroke-linejoin="square" fill="#CC0251" fill-rule="evenodd"/></g><g id="Shadow" mask="url(#mask-5)"><use fill="#000" fill-opacity="1" filter="url(#filter-11)" xlink:href="#path-10"/><path stroke-opacity=".2" stroke="#630027" stroke-width="2" d="M31.8059476,122.13808 L1.79949722,110.723798 L74.5659271,359.118725 L95.3833133,322.459721 L31.8059476,122.13808 Z" stroke-linejoin="square" fill="#CC0251" fill-rule="evenodd"/></g><g id="Shadow" mask="url(#mask-5)"><use fill="#000" fill-opacity="1" filter="url(#filter-13)" xlink:href="#path-12"/><path stroke-opacity=".2" stroke="#630027" stroke-width="2" d="M161.959644,322.427085 L184.898561,359.191053 L252.302807,110.693185 L221.707331,122.137557 L161.959644,322.427085 Z" stroke-linejoin="square" fill="#CC0251" fill-rule="evenodd"/></g><g id="Shadow" mask="url(#mask-5)"><use fill="#000" fill-opacity="1" filter="url(#filter-15)" xlink:href="#path-14"/><path stroke-opacity=".2" stroke="#630027" stroke-width="2" d="M65.4118884,1 L84.1342251,30.1638924 L169.377954,30.1638924 L188.613232,1 L65.4118884,1 Z" stroke-linejoin="square" fill="#CC0251" fill-rule="evenodd"/></g><g id="Shadow" mask="url(#mask-5)"><use fill="#000" fill-opacity="1" filter="url(#filter-17)" xlink:href="#path-16"/><path stroke-opacity=".2" stroke="#630027" stroke-width="2" d="M160.317644,323.573624 L97.0507412,323.573624 L75.9877276,360.665173 L183.460955,360.665173 L160.317644,323.573624 Z" stroke-linejoin="square" fill="#CC0251" fill-rule="evenodd"/></g><g id="Shadow" mask="url(#mask-5)"><use fill="#000" fill-opacity="1" filter="url(#filter-19)" xlink:href="#path-18"/><path stroke-opacity=".2" stroke="#630027" stroke-width="2" d="M1.24659925,115.950532 L1.00057406,177.547132 L67.2103263,403.189467 L73.2488677,361.736923 L1.24659925,115.950532 Z" stroke-linejoin="square" fill="#CC0251" fill-rule="evenodd"/></g><g id="Shadow" mask="url(#mask-5)"><use fill="#000" fill-opacity="1" filter="url(#filter-21)" xlink:href="#path-20"/><path stroke-opacity=".2" stroke="#630027" stroke-width="2" d="M184.41156,362.665173 L75.1347556,362.665173 L68.696113,406.864277 L191.519152,406.864277 L184.41156,362.665173 Z" stroke-linejoin="square" fill="#CC0251" fill-rule="evenodd"/></g><g id="Shadow" mask="url(#mask-5)"><use fill="#000" fill-opacity="1" filter="url(#filter-23)" xlink:href="#path-22"/><path stroke-opacity=".2" stroke="#630027" stroke-width="2" d="M186.285113,361.719072 L192.933122,403.060224 L252.778243,177.558425 L252.778243,116.5802 L186.285113,361.719072 Z" stroke-linejoin="square" fill="#CC0251" fill-rule="evenodd"/></g><g id="Shadow" mask="url(#mask-5)"><use fill="#000" fill-opacity="1" filter="url(#filter-25)" xlink:href="#path-24"/><path stroke-opacity=".2" stroke="#630027" stroke-width="2" d="M84.1714102,32.1638924 L33.6978944,121.487859 L97.2003986,321.573624 L160.127146,321.573624 L219.811368,121.496846 L169.332774,32.1638924 L84.1714102,32.1638924 Z" stroke-linejoin="square" fill="#CC0251" fill-rule="evenodd"/></g></g><g id="yield-optimizer-bat" transform="translate(63.307531, 85.290653)" fill-rule="evenodd" stroke-width="1"><g id="bat-logo"><path d="M92.7290703,0 C93.1242226,1.15785435 93.5381917,2.30941601 93.9019827,3.47985573 C101.993196,4.55590515 110.165949,3.03936766 118,1.05717136 C112.329878,6.41224772 112.091532,14.8129844 111.420401,22.0684522 C106.628395,22.8927941 101.654494,24.7113806 98.7253495,28.8267976 C94.3661298,34.7545085 94.5668421,42.6140741 95.7397544,49.5423222 C92.0014883,49.2528586 87.8304364,48.8060778 84.5876787,51.1280792 C80.4479881,54.0604712 79.3001648,59.5351086 79.3315261,64.3238431 C80.7490565,65.2362827 82.3359379,66.0606247 83.3206825,67.4827719 C83.9541806,68.4518456 82.9757083,69.3328217 82.4488386,70.0564807 C81.3888269,69.7418464 80.3350874,69.427212 79.2750757,69.1188704 C79.5510551,73.4293608 80.6549726,77.6643389 80.5985223,82 C77.7948227,78.4572174 75.9131452,74.2662881 72.8961888,70.8682373 C71.8612661,71.6485304 70.8451603,72.4539943 69.7914208,73.2091167 C69.1014724,72.680531 67.92856,72.1708234 68.2233562,71.0884813 C68.5620582,69.8677001 69.3147292,68.8168214 69.916866,67.7218939 C66.5047573,64.3615993 61.6751183,61.6997928 56.7702121,62.8324764 C52.2541859,63.7763794 48.9863392,67.3254547 46.2767235,70.8304812 C44.225695,66.7842836 41.2463722,62.7569642 36.680168,61.4732561 C31.0351353,59.8308649 25.3085632,62.1654516 20.4224738,64.8964776 C17.5999575,61.5676464 13.9934088,58.7925716 9.71572849,57.6976441 C6.5670547,56.7411557 3.24902993,56.8418387 0,56.9676924 C8.35464838,52.1349091 15.2415883,45.0367585 20.4412906,36.9443634 C19.8140647,35.868314 19.1868389,34.7922646 18.559613,33.7225079 C19.2119279,33.1750441 19.7638867,31.9794337 20.8050816,32.3821656 C22.3731462,33.3827028 23.5774199,34.8426061 24.9949503,36.0319239 C32.9105406,42.897245 43.0465104,47.396516 53.5588157,47.8244187 C54.8885345,47.8307114 56.7513953,48.0006139 57.2594483,46.4148569 C58.4699942,42.3057325 56.9270186,38.058169 56.3625153,33.9679226 C57.6608728,35.1949965 58.90278,36.49129 60.3014936,37.6176809 C62.565779,36.1640703 65.162494,35.4215333 67.7717536,34.8740695 C68.0853665,33.2128002 68.1355446,31.5137748 68.2045394,29.8336275 C69.9356828,32.6212877 71.227768,35.9060701 73.9624728,37.8882664 C75.3110083,38.6748523 76.5529155,37.315632 77.3871259,36.390607 C83.7095625,29.0092855 88.9029926,20.1995242 90.2452559,10.4206891 C90.7721257,7.01634564 90.1637166,3.60570946 90.1448998,0.195073287 C90.997927,0.0818049267 91.8634986,0.01887806 92.7290703,0 Z" id="Path" fill="#630027"/><path d="M60.7683712,44.8090169 C60.1188737,43.7121568 61.3485049,42.8548408 62.073672,42.237069 C63.309609,43.4410936 64.4761822,44.7207638 65.4283582,46.1580288 C63.8456021,46.151725 61.5565963,46.643421 60.7683712,44.8090169 Z" id="Path" fill-rule="nonzero"/><path d="M67.6611676,42.1431249 C67.0323339,41.0226676 68.2177161,40.1497803 68.9165915,39.520522 C70.1116633,40.7513139 71.239915,42.05919 72.1614989,43.5275426 C70.6337595,43.5184924 68.4251949,44.0165004 67.6611676,42.1431249 Z" id="Path" fill-rule="nonzero" transform="translate(69.822327, 41.550781) scale(-1, 1) rotate(44.000000) translate(-69.822327, -41.550781)"/></g></g><g id="yield-optimizer-bat" transform="translate(60.292887, 82.283611)" fill-rule="evenodd" stroke-width="1"><g id="bat-logo"><path d="M92.7290703,0 C93.1242226,1.15785435 93.5381917,2.30941601 93.9019827,3.47985573 C101.993196,4.55590515 110.165949,3.03936766 118,1.05717136 C112.329878,6.41224772 112.091532,14.8129844 111.420401,22.0684522 C106.628395,22.8927941 101.654494,24.7113806 98.7253495,28.8267976 C94.3661298,34.7545085 94.5668421,42.6140741 95.7397544,49.5423222 C92.0014883,49.2528586 87.8304364,48.8060778 84.5876787,51.1280792 C80.4479881,54.0604712 79.3001648,59.5351086 79.3315261,64.3238431 C80.7490565,65.2362827 82.3359379,66.0606247 83.3206825,67.4827719 C83.9541806,68.4518456 82.9757083,69.3328217 82.4488386,70.0564807 C81.3888269,69.7418464 80.3350874,69.427212 79.2750757,69.1188704 C79.5510551,73.4293608 80.6549726,77.6643389 80.5985223,82 C77.7948227,78.4572174 75.9131452,74.2662881 72.8961888,70.8682373 C71.8612661,71.6485304 70.8451603,72.4539943 69.7914208,73.2091167 C69.1014724,72.680531 67.92856,72.1708234 68.2233562,71.0884813 C68.5620582,69.8677001 69.3147292,68.8168214 69.916866,67.7218939 C66.5047573,64.3615993 61.6751183,61.6997928 56.7702121,62.8324764 C52.2541859,63.7763794 48.9863392,67.3254547 46.2767235,70.8304812 C44.225695,66.7842836 41.2463722,62.7569642 36.680168,61.4732561 C31.0351353,59.8308649 25.3085632,62.1654516 20.4224738,64.8964776 C17.5999575,61.5676464 13.9934088,58.7925716 9.71572849,57.6976441 C6.5670547,56.7411557 3.24902993,56.8418387 0,56.9676924 C8.35464838,52.1349091 15.2415883,45.0367585 20.4412906,36.9443634 C19.8140647,35.868314 19.1868389,34.7922646 18.559613,33.7225079 C19.2119279,33.1750441 19.7638867,31.9794337 20.8050816,32.3821656 C22.3731462,33.3827028 23.5774199,34.8426061 24.9949503,36.0319239 C32.9105406,42.897245 43.0465104,47.396516 53.5588157,47.8244187 C54.8885345,47.8307114 56.7513953,48.0006139 57.2594483,46.4148569 C58.4699942,42.3057325 56.9270186,38.058169 56.3625153,33.9679226 C57.6608728,35.1949965 58.90278,36.49129 60.3014936,37.6176809 C62.565779,36.1640703 65.162494,35.4215333 67.7717536,34.8740695 C68.0853665,33.2128002 68.1355446,31.5137748 68.2045394,29.8336275 C69.9356828,32.6212877 71.227768,35.9060701 73.9624728,37.8882664 C75.3110083,38.6748523 76.5529155,37.315632 77.3871259,36.390607 C83.7095625,29.0092855 88.9029926,20.1995242 90.2452559,10.4206891 C90.7721257,7.01634564 90.1637166,3.60570946 90.1448998,0.195073287 C90.997927,0.0818049267 91.8634986,0.01887806 92.7290703,0 Z" id="Path" fill="#EDE9F1" fill-rule="nonzero"/><path d="M60.7683712,44.8090169 C60.1188737,43.7121568 61.3485049,42.8548408 62.073672,42.237069 C63.309609,43.4410936 64.4761822,44.7207638 65.4283582,46.1580288 C63.8456021,46.151725 61.5565963,46.643421 60.7683712,44.8090169 Z" id="Path" fill="#630027"/><path d="M67.6611676,42.1431249 C67.0323339,41.0226676 68.2177161,40.1497803 68.9165915,39.520522 C70.1116633,40.7513139 71.239915,42.05919 72.1614989,43.5275426 C70.6337595,43.5184924 68.4251949,44.0165004 67.6611676,42.1431249 Z" id="Path" fill="#630027" transform="translate(69.822327, 41.550781) scale(-1, 1) rotate(44.000000) translate(-69.822327, -41.550781)"/></g></g><path d="M72.0774059,189.990397 C86.2736578,165.323517 94.0557167,151.989957 95.4235827,149.989716 C96.7857131,147.997863 115.292514,126.688778 150.943986,86.0624623 C151.242676,85.7220777 151.481405,85.3334484 151.649984,84.9131405 L153.201609,81.0445674 C153.802488,79.5464313 155.244928,78.5562588 156.858921,78.5339816 L161.084366,78.4756599 C161.984996,78.463229 162.863461,78.7551322 163.577541,79.3041116 L173.540356,86.9634501 C173.731899,87.1107071 173.909707,87.2750155 174.071598,87.4543603 L178.79515,92.6871523 C179.520714,93.4909391 179.717255,94.6412608 179.299726,95.6403535 C178.906076,96.582304 177.884791,97.0969565 176.893491,96.8529185 L169.937476,95.1404885 C168.465901,94.7782278 166.915967,95.278719 165.934175,96.4332099 C130.017689,138.667445 111.205735,160.456543 109.498311,161.800502 C107.765681,163.164303 95.2920459,172.560934 72.0774059,189.990397 Z" id="Background-Mask" fill-rule="nonzero"/></g></g></svg>