<svg width="612" height="1000" viewBox="0 0 612 1000" version="1.1" xmlns="http://www.w3.org/2000/svg" xmlns:xlink="http://www.w3.org/1999/xlink"><title>Artboard</title><desc>Created with Sketch.</desc><defs><polygon id="path-1" points="0.640167364 255.441741 148.518828 6.46957377e-13 444.916318 4.54747351e-13 592.794979 255.441741 592.794979 416.133163 450.106864 955.185659 157.764921 955.185659 0 416.133163"/><polygon id="path-3" points="148.518828 4.54747351e-13 195.251046 72.9833547 76.1799163 284.25096 0.640167364 255.441741"/><filter x="-27%" y="-18.5%" width="154%" height="136.9%" filterUnits="objectBoundingBox" id="filter-4"><feOffset dx="0" dy="0" in="SourceAlpha" result="shadowOffsetOuter1"/><feGaussianBlur stdDeviation="17.5" in="shadowOffsetOuter1" result="shadowBlurOuter1"/><feComposite in="shadowBlurOuter1" in2="SourceAlpha" operator="out" result="shadowBlurOuter1"/><feColorMatrix values="0 0 0 0 0.389775815 0 0 0 0 0 0 0 0 0 0.152437076 0 0 0 0.3 0" type="matrix" in="shadowBlurOuter1"/></filter><polygon id="path-5" points="396.903766 72.9833547 444.916318 4.54747351e-13 592.794979 255.441741 515.974895 284.25096"/><filter x="-26.8%" y="-18.5%" width="153.6%" height="136.9%" filterUnits="objectBoundingBox" id="filter-6"><feOffset dx="0" dy="0" in="SourceAlpha" result="shadowOffsetOuter1"/><feGaussianBlur stdDeviation="17.5" in="shadowOffsetOuter1" result="shadowBlurOuter1"/><feComposite in="shadowBlurOuter1" in2="SourceAlpha" operator="out" result="shadowBlurOuter1"/><feColorMatrix values="0 0 0 0 0.389775815 0 0 0 0 0 0 0 0 0 0.152437076 0 0 0 0.3 0" type="matrix" in="shadowBlurOuter1"/></filter><polygon id="path-7" points="76.1799163 284.25096 225.338912 755.441741 173.485356 846.991037 0.640167364 255.441741"/><filter x="-23.4%" y="-8.9%" width="146.7%" height="117.7%" filterUnits="objectBoundingBox" id="filter-8"><feOffset dx="0" dy="0" in="SourceAlpha" result="shadowOffsetOuter1"/><feGaussianBlur stdDeviation="17.5" in="shadowOffsetOuter1" result="shadowBlurOuter1"/><feComposite in="shadowBlurOuter1" in2="SourceAlpha" operator="out" result="shadowBlurOuter1"/><feColorMatrix values="0 0 0 0 0.389775815 0 0 0 0 0 0 0 0 0 0.152437076 0 0 0 0.3 0" type="matrix" in="shadowBlurOuter1"/></filter><polygon id="path-9" points="375.778243 755.441741 515.974895 284.25096 592.794979 255.441741 432.753138 846.991037"/><filter x="-24.2%" y="-8.9%" width="148.4%" height="117.7%" filterUnits="objectBoundingBox" id="filter-10"><feOffset dx="0" dy="0" in="SourceAlpha" result="shadowOffsetOuter1"/><feGaussianBlur stdDeviation="17.5" in="shadowOffsetOuter1" result="shadowBlurOuter1"/><feComposite in="shadowBlurOuter1" in2="SourceAlpha" operator="out" result="shadowBlurOuter1"/><feColorMatrix values="0 0 0 0 0.389775815 0 0 0 0 0 0 0 0 0 0.152437076 0 0 0 0.3 0" type="matrix" in="shadowBlurOuter1"/></filter><polygon id="path-11" points="148.518828 4.54747351e-13 444.916318 4.54747351e-13 396.903766 72.9833547 195.251046 72.9833547"/><filter x="-17.7%" y="-71.9%" width="135.4%" height="243.9%" filterUnits="objectBoundingBox" id="filter-12"><feOffset dx="0" dy="0" in="SourceAlpha" result="shadowOffsetOuter1"/><feGaussianBlur stdDeviation="17.5" in="shadowOffsetOuter1" result="shadowBlurOuter1"/><feComposite in="shadowBlurOuter1" in2="SourceAlpha" operator="out" result="shadowBlurOuter1"/><feColorMatrix values="0 0 0 0 0.389775815 0 0 0 0 0 0 0 0 0 0.152437076 0 0 0 0.3 0" type="matrix" in="shadowBlurOuter1"/></filter><polygon id="path-13" points="375.778243 755.441741 432.753138 846.991037 173.485356 846.991037 225.338912 755.441741"/><filter x="-20.2%" y="-57.3%" width="140.5%" height="214.7%" filterUnits="objectBoundingBox" id="filter-14"><feOffset dx="0" dy="0" in="SourceAlpha" result="shadowOffsetOuter1"/><feGaussianBlur stdDeviation="17.5" in="shadowOffsetOuter1" result="shadowBlurOuter1"/><feComposite in="shadowBlurOuter1" in2="SourceAlpha" operator="out" result="shadowBlurOuter1"/><feColorMatrix values="0 0 0 0 0.389775815 0 0 0 0 0 0 0 0 0 0.152437076 0 0 0 0.3 0" type="matrix" in="shadowBlurOuter1"/></filter><polygon id="path-15" points="0.640167364 255.441741 173.485356 846.991037 157.764921 955.185659 0 416.133163"/><filter x="-30.3%" y="-7.5%" width="160.5%" height="115%" filterUnits="objectBoundingBox" id="filter-16"><feOffset dx="0" dy="0" in="SourceAlpha" result="shadowOffsetOuter1"/><feGaussianBlur stdDeviation="17.5" in="shadowOffsetOuter1" result="shadowBlurOuter1"/><feComposite in="shadowBlurOuter1" in2="SourceAlpha" operator="out" result="shadowBlurOuter1"/><feColorMatrix values="0 0 0 0 0.389775815 0 0 0 0 0 0 0 0 0 0.152437076 0 0 0 0.3 0" type="matrix" in="shadowBlurOuter1"/></filter><polygon id="path-17" points="432.753138 846.991037 450.106864 955.185659 157.764921 955.185659 173.485356 846.991037"/><filter x="-18%" y="-48.5%" width="135.9%" height="197%" filterUnits="objectBoundingBox" id="filter-18"><feOffset dx="0" dy="0" in="SourceAlpha" result="shadowOffsetOuter1"/><feGaussianBlur stdDeviation="17.5" in="shadowOffsetOuter1" result="shadowBlurOuter1"/><feComposite in="shadowBlurOuter1" in2="SourceAlpha" operator="out" result="shadowBlurOuter1"/><feColorMatrix values="0 0 0 0 0.389775815 0 0 0 0 0 0 0 0 0 0.152437076 0 0 0 0.3 0" type="matrix" in="shadowBlurOuter1"/></filter><polygon id="path-19" points="432.753138 846.991037 592.794979 255.441741 592.794979 416.133163 450.106864 955.185659"/><filter x="-32.8%" y="-7.5%" width="165.6%" height="115%" filterUnits="objectBoundingBox" id="filter-20"><feOffset dx="0" dy="0" in="SourceAlpha" result="shadowOffsetOuter1"/><feGaussianBlur stdDeviation="17.5" in="shadowOffsetOuter1" result="shadowBlurOuter1"/><feComposite in="shadowBlurOuter1" in2="SourceAlpha" operator="out" result="shadowBlurOuter1"/><feColorMatrix values="0 0 0 0 0.389775815 0 0 0 0 0 0 0 0 0 0.152437076 0 0 0 0.3 0" type="matrix" in="shadowBlurOuter1"/></filter><polygon id="path-21" points="195.251046 72.9833547 396.903766 72.9833547 515.974895 284.25096 375.778243 755.441741 225.338912 755.441741 76.1799163 284.25096"/><filter x="-11.9%" y="-7.7%" width="123.9%" height="115.4%" filterUnits="objectBoundingBox" id="filter-22"><feOffset dx="0" dy="0" in="SourceAlpha" result="shadowOffsetOuter1"/><feGaussianBlur stdDeviation="17.5" in="shadowOffsetOuter1" result="shadowBlurOuter1"/><feComposite in="shadowBlurOuter1" in2="SourceAlpha" operator="out" result="shadowBlurOuter1"/><feColorMatrix values="0 0 0 0 0.389775815 0 0 0 0 0 0 0 0 0 0.152437076 0 0 0 0.3 0" type="matrix" in="shadowBlurOuter1"/></filter></defs><g id="Artboard" stroke="none" stroke-width="1" fill="none" fill-rule="evenodd"><g id="coffin"><polygon id="BG-Shadow" fill="#EB7AA6" fill-rule="nonzero" points="19.8451883 293.854033 167.723849 38.4122919 464.121339 38.4122919 612 293.854033 612 454.545455 469.311885 993.597951 176.969942 993.597951 19.2050209 454.545455"/><g id="Shaded-Cells" stroke-width="1" fill-rule="evenodd"><mask id="mask-2" fill="#fff"><use xlink:href="#path-1"/></mask><use id="Solid-Background" fill="#94003A" fill-rule="nonzero" xlink:href="#path-1"/><g id="Shadow" mask="url(#mask-2)"><use fill="#000" fill-opacity="1" filter="url(#filter-4)" xlink:href="#path-3"/><path stroke-opacity=".2" stroke="#630027" stroke-width="2" d="M148.561847,1.92164214 L2.09420629,254.926024 L75.7315931,283.009723 L194.084644,73.0162024 L148.561847,1.92164214 Z" stroke-linejoin="square" fill="#CC0251" fill-rule="evenodd"/></g><g id="Shadow" mask="url(#mask-2)"><use fill="#000" fill-opacity="1" filter="url(#filter-6)" xlink:href="#path-5"/><path stroke-opacity=".2" stroke="#630027" stroke-width="2" d="M398.074309,73.0235499 L516.425591,283.013932 L591.337614,254.920277 L444.861991,1.90210733 L398.074309,73.0235499 Z" stroke-linejoin="square" fill="#CC0251" fill-rule="evenodd"/></g><g id="Shadow" mask="url(#mask-2)"><use fill="#000" fill-opacity="1" filter="url(#filter-8)" xlink:href="#path-7"/><path stroke-opacity=".2" stroke="#630027" stroke-width="2" d="M75.3723043,285.013211 L2.16457222,257.093373 L173.781514,844.439091 L224.254024,755.328082 L75.3723043,285.013211 Z" stroke-linejoin="square" fill="#CC0251" fill-rule="evenodd"/></g><g id="Shadow" mask="url(#mask-2)"><use fill="#000" fill-opacity="1" filter="url(#filter-10)" xlink:href="#path-9"/><path stroke-opacity=".2" stroke="#630027" stroke-width="2" d="M376.865077,755.29551 L432.38797,844.511676 L591.320477,257.06272 L516.791577,285.012695 L376.865077,755.29551 Z" stroke-linejoin="square" fill="#CC0251" fill-rule="evenodd"/></g><g id="Shadow" mask="url(#mask-2)"><use fill="#000" fill-opacity="1" filter="url(#filter-12)" xlink:href="#path-11"/><path stroke-opacity=".2" stroke="#630027" stroke-width="2" d="M150.346577,1 L195.798167,71.9833547 L396.364636,71.9833547 L443.061476,1 L150.346577,1 Z" stroke-linejoin="square" fill="#CC0251" fill-rule="evenodd"/></g><g id="Shadow" mask="url(#mask-2)"><use fill="#000" fill-opacity="1" filter="url(#filter-14)" xlink:href="#path-13"/><path stroke-opacity=".2" stroke="#630027" stroke-width="2" d="M375.222743,756.441741 L225.921776,756.441741 L175.201021,845.991037 L430.952956,845.991037 L375.222743,756.441741 Z" stroke-linejoin="square" fill="#CC0251" fill-rule="evenodd"/></g><g id="Shadow" mask="url(#mask-2)"><use fill="#000" fill-opacity="1" filter="url(#filter-16)" xlink:href="#path-15"/><path stroke-opacity=".2" stroke="#630027" stroke-width="2" d="M1.61271085,262.335722 L1.00057116,415.991785 L157.435329,950.499366 L172.464455,847.062611 L1.61271085,262.335722 Z" stroke-linejoin="square" fill="#CC0251" fill-rule="evenodd"/></g><g id="Shadow" mask="url(#mask-2)"><use fill="#000" fill-opacity="1" filter="url(#filter-18)" xlink:href="#path-17"/><path stroke-opacity=".2" stroke="#630027" stroke-width="2" d="M431.90075,847.991037 L174.350558,847.991037 L158.92072,954.185659 L448.933689,954.185659 L431.90075,847.991037 Z" stroke-linejoin="square" fill="#CC0251" fill-rule="evenodd"/></g><g id="Shadow" mask="url(#mask-2)"><use fill="#000" fill-opacity="1" filter="url(#filter-20)" xlink:href="#path-19"/><path stroke-opacity=".2" stroke="#630027" stroke-width="2" d="M433.774543,847.044804 L450.347204,950.369747 L591.794979,416.003052 L591.794979,262.967059 L433.774543,847.044804 Z" stroke-linejoin="square" fill="#CC0251" fill-rule="evenodd"/></g><g id="Shadow" mask="url(#mask-2)"><use fill="#000" fill-opacity="1" filter="url(#filter-22)" xlink:href="#path-21"/><path stroke-opacity=".2" stroke="#630027" stroke-width="2" d="M195.835331,73.9833547 L77.2644238,284.363418 L226.071263,754.441741 L375.032454,754.441741 L514.895442,284.372384 L396.31948,73.9833547 L195.835331,73.9833547 Z" stroke-linejoin="square" fill="#CC0251" fill-rule="evenodd"/></g></g><g id="yield-optimizer-bat" transform="translate(147.878661, 199.743918)" fill-rule="evenodd" stroke-width="1"><g id="bat-logo"><path d="M216.891724,0 C217.815978,2.69695342 218.784245,5.37924948 219.635146,8.10551761 C238.560357,10.6119254 257.676288,7.07950272 276,2.46243573 C262.737681,14.9358453 262.180195,34.5034149 260.610429,51.4033459 C249.402009,53.3234594 237.768139,57.5594352 230.916919,67.1453457 C220.720778,80.9525746 221.190241,99.2596117 223.933663,115.39736 C215.189922,114.723122 205.433902,113.68245 197.849147,119.091014 C188.166481,125.921341 185.481741,138.673241 185.555095,149.827488 C188.870675,151.952805 192.582363,153.872918 194.885664,157.185481 C196.367406,159.442714 194.078775,161.494743 192.846436,163.180339 C190.367087,162.447471 187.902408,161.714604 185.423059,160.996393 C186.06857,171.036682 188.650614,180.901082 188.518578,191 C181.960772,182.747909 177.55956,172.98611 170.50295,165.071138 C168.082284,166.88865 165.705629,168.764792 163.24095,170.523674 C161.627173,169.292456 158.883751,168.105211 159.573274,165.584145 C160.365492,162.740619 162.125977,160.29284 163.534365,157.74246 C155.5535,149.915432 144.257056,143.715371 132.784564,146.353695 C122.221655,148.552298 114.578217,156.819047 108.240472,164.983194 C103.443151,155.558514 96.4745655,146.177807 85.7942912,143.187706 C72.5906554,139.362136 59.1963004,144.800015 47.7678201,151.161308 C41.1660022,143.407567 32.730346,136.943673 22.7249243,134.393293 C15.3602296,132.165375 7.59942593,132.399893 0,132.69304 C19.541381,121.436191 35.6498166,104.902694 47.8118322,86.0533344 C46.3447616,83.5469266 44.877691,81.0405188 43.4106203,78.5487683 C44.9363738,77.2735784 46.2273959,74.4886808 48.6627332,75.4267516 C52.3304098,77.7572711 55.1471855,81.1577776 58.4627651,83.9280178 C76.9771966,99.9191927 100.685058,110.399202 125.273162,111.395902 C128.383352,111.410559 132.740552,111.806308 133.928879,108.112654 C136.760325,98.5414013 133.151332,88.6476863 131.830968,79.1204052 C134.867804,81.9785895 137.772604,84.9980048 141.044172,87.6216714 C146.340297,84.2358223 152.413969,82.5062543 158.516983,81.2310644 C159.250518,77.3615225 159.367884,73.4040365 159.529262,69.4905226 C163.578377,75.9837311 166.600542,83.6348707 172.99697,88.2519377 C176.151172,90.0841071 179.055972,86.9181183 181.007176,84.7634871 C195.795248,67.570409 207.942593,47.0501113 211.082124,24.2725808 C212.314463,16.3429514 210.891405,8.39866472 210.847393,0.454378022 C212.842609,0.190545622 214.867166,0.0439720666 216.891724,0 Z" id="Path" fill="#630027"/><path d="M142.13619,104.372222 C140.617027,101.817341 143.493113,99.8204218 145.189267,98.3814655 C148.080103,101.185962 150.808697,104.166657 153.035821,107.514433 C149.333781,107.49975 143.979835,108.645042 142.13619,104.372222 Z" id="Path" fill-rule="nonzero"/><path d="M158.27416,98.1724462 C156.811715,95.5604007 159.582984,93.5173657 161.217421,92.0453117 C164.001096,94.9121247 166.62842,97.9591732 168.772541,101.38177 C165.20639,101.368064 160.048531,102.541114 158.27416,98.1724462 Z" id="Path" fill-rule="nonzero" transform="translate(163.317126, 96.780187) scale(-1, 1) rotate(44.000000) translate(-163.317126, -96.780187)"/></g></g><g id="yield-optimizer-bat" transform="translate(140.836820, 192.701665)" fill-rule="evenodd" stroke-width="1"><g id="bat-logo"><path d="M217.677563,0 C218.605167,2.69695342 219.576941,5.37924948 220.430925,8.10551761 C239.424706,10.6119254 258.609897,7.07950272 277,2.46243573 C263.68963,14.9358453 263.130123,34.5034149 261.55467,51.4033459 C250.30564,53.3234594 238.629618,57.5594352 231.753575,67.1453457 C221.520491,80.9525746 221.991655,99.2596117 224.745017,115.39736 C215.969595,114.723122 206.178228,113.68245 198.565992,119.091014 C188.848243,125.921341 186.153777,138.673241 186.227396,149.827488 C189.554989,151.952805 193.280125,153.872918 195.591772,157.185481 C197.078882,159.442714 194.781959,161.494743 193.545155,163.180339 C191.056822,162.447471 188.583214,161.714604 186.094881,160.996393 C186.742731,171.036682 189.334131,180.901082 189.201616,191 C182.62005,182.747909 178.202892,172.98611 171.120714,165.071138 C168.691277,166.88865 166.306012,168.764792 163.832403,170.523674 C162.212778,169.292456 159.459416,168.105211 160.151438,165.584145 C160.946526,162.740619 162.71339,160.29284 164.12688,157.74246 C156.1171,149.915432 144.779727,143.715371 133.265667,146.353695 C122.664487,148.552298 114.993356,156.819047 108.632648,164.983194 C103.817945,155.558514 96.824111,146.177807 86.1051401,143.187706 C72.853665,139.362136 59.4107798,144.800015 47.9408919,151.161308 C41.3151544,143.407567 32.8489342,136.943673 22.8072609,134.393293 C15.4158826,132.165375 7.62696008,132.399893 0,132.69304 C19.6121831,121.436191 35.7789826,104.902694 47.9850635,86.0533344 C46.5126774,83.5469266 45.0402913,81.0405188 43.5679052,78.5487683 C45.0991867,77.2735784 46.3948865,74.4886808 48.8390475,75.4267516 C52.5200128,77.7572711 55.3469941,81.1577776 58.6745867,83.9280178 C77.2560995,99.9191927 101.049859,110.399202 125.72705,111.395902 C128.848509,111.410559 133.221496,111.806308 134.414129,108.112654 C137.255834,98.5414013 133.633764,88.6476863 132.308616,79.1204052 C135.356456,81.9785895 138.27178,84.9980048 141.555201,87.6216714 C146.870515,84.2358223 152.966194,82.5062543 159.09132,81.2310644 C159.827513,77.3615225 159.945304,73.4040365 160.107266,69.4905226 C164.171052,75.9837311 167.204167,83.6348707 173.623771,88.2519377 C176.789401,90.0841071 179.704725,86.9181183 181.662999,84.7634871 C196.504651,67.570409 208.696008,47.0501113 211.846914,24.2725808 C213.083719,16.3429514 211.655504,8.39866472 211.611333,0.454378022 C213.613778,0.190545622 215.645671,0.0439720666 217.677563,0 Z" id="Path" fill="#F2F2F2"/><path d="M142.651176,104.372222 C141.126509,101.817341 144.013016,99.8204218 145.715315,98.3814655 C148.616625,101.185962 151.355106,104.166657 153.590299,107.514433 C149.874846,107.49975 144.501502,108.645042 142.651176,104.372222 Z" id="Path" fill="#630027"/><path d="M158.861408,98.1809825 C157.400951,95.567018 160.181114,93.5153936 161.82128,92.0378068 C164.604984,94.9045923 167.231717,97.9522113 169.373661,101.37691 C165.800849,101.369636 160.631196,102.554075 158.861408,98.1809825 Z" id="Path" fill="#630027" transform="translate(163.912262, 96.777830) scale(-1, 1) rotate(44.000000) translate(-163.912262, -96.777830)"/></g></g><path d="M168.364017,444.942382 C201.524727,387.174514 219.702666,355.948378 222.897834,351.263973 C226.087288,346.587946 269.51824,296.453758 353.19069,200.861407 C353.488628,200.521032 353.726668,200.132583 353.894686,199.712593 L359.186996,186.48346 C359.787002,184.983632 361.230254,183.991917 362.845492,183.969565 L378.128208,183.75808 C379.030599,183.745592 379.910695,184.03863 380.625484,184.589576 L405.753902,203.958092 C405.945299,204.105618 406.122934,204.270184 406.284627,204.449773 L418.72701,218.26921 C419.760847,219.417467 420.040915,221.05847 419.446449,222.484627 L418.544591,224.648236 C417.785172,226.470125 415.810317,227.4657 413.893996,226.99272 L393.749997,222.020848 C392.275923,221.657017 390.722941,222.159127 389.740884,223.317069 C304.452172,323.880865 259.796772,375.749806 255.774681,378.923893 C251.727469,382.117805 222.59058,404.123968 168.364017,444.942382 Z" id="Background-Mask" fill-rule="nonzero"/></g></g></svg>