<svg height="1289" viewBox="0 0 2500 1289" width="2500" xmlns="http://www.w3.org/2000/svg" xmlns:xlink="http://www.w3.org/1999/xlink"><defs><linearGradient id="a" x1="0%" x2="50%" y1="29.52%" y2="70.48%"><stop offset="0" stop-color="#591794"/><stop offset="1" stop-color="#1e0238"/></linearGradient><path id="b" d="m0 0h2500v1600h-2500z"/><radialGradient id="c" cx="75.103%" cy="63.108%" gradientTransform="matrix(-.45240607 -.50891104 .19309442 -.62147439 .968936 1.405492)" r="85.391%"><stop offset="0" stop-color="#a9a9a9"/><stop offset="1"/></radialGradient><mask id="d" fill="#fff"><use fill="#fff" fill-rule="evenodd" xlink:href="#b"/></mask></defs><g fill="none" fill-rule="evenodd"><use fill="url(#a)" xlink:href="#b"/><path d="m542.113542 38.4916667 11.484903-18.1084c.672907-.9055136 9.851131-10.62978337 27.534671-29.17280927l1.376718-3.15871323 4.07383-.0517442 5.585129 3.95133223 3.028082 3.0869783-.672907 1.48174958-5.536634-1.10519997c-18.124302 19.59272196-27.612627 29.69778086-28.464976 30.31517646-.852349.6173957-6.988621 4.8712724-18.408816 12.7616301zm-338.40625 404.5416663 11.484903-18.1084c.672907-.905513 9.851131-10.629783 27.534671-29.172809l1.376718-3.158713 4.07383-.051744 5.585129 3.951332 3.028082 3.086978-.672907 1.48175-5.536634-1.1052c-18.124302 19.592722-27.612627 29.697781-28.464976 30.315176-.852349.617396-6.988621 4.871273-18.408816 12.76163zm0 201.966667 11.484903-18.1084c.672907-.905514 9.851131-10.629783 27.534671-29.172809l1.376718-3.158713 4.07383-.051745 5.585129 3.951333 3.028082 3.086978-.672907 1.481749-5.536634-1.1052c-18.124302 19.592722-27.612627 29.697781-28.464976 30.315177s-6.988621 4.871272-18.408816 12.76163zm0-404.541667 11.484903-18.1084c.672907-.905513 9.851131-10.629783 27.534671-29.172809l1.376718-3.158713 4.07383-.051744 5.585129 3.951332 3.028082 3.086978-.672907 1.48175-5.536634-1.1052c-18.124302 19.592722-27.612627 29.697781-28.464976 30.315176-.852349.617396-6.988621 4.871273-18.408816 12.76163zm284.659375 360.133334 11.628464-18.1084c.681319-.905514 9.97427-10.629784 27.878855-29.17281l1.393927-3.158713 4.124752-.051744 5.654944 3.951332 3.065933 3.086979-.681319 1.481749-5.605842-1.1052c-18.350855 19.592722-27.957784 29.697781-28.820788 30.315177-.863003.617395-7.075979 4.871272-18.638926 12.76163zm-168.539584-476.933334 11.484904-18.1084c.672907-.905513 9.851131-10.629783 27.534671-29.1728089l1.376718-3.1587132 4.073829-.0517442 5.58513 3.9513322 3.028082 3.0869783-.672907 1.4817496-5.536634-1.1052c-18.124302 19.5927222-27.612627 29.6977812-28.464976 30.3151762-.852349.617396-6.988621 4.871273-18.408817 12.76163zm-319.827083 66.308334 11.4849034-18.1084c.6729071-.905514 9.8511308-10.629784 27.534671-29.17281l1.3767182-3.158713 4.0738295-.051744 5.5851292 3.951332 3.028082 3.086979-.6729071 1.481749-5.5366339-1.1052c-18.1243016 19.592722-27.6126268 29.697781-28.4649759 30.315177-.852349.617395-6.9886211 4.871272-18.4088164 12.76163zm542.113542 50.491666 11.484903-18.1084c.672907-.905513 9.851131-10.629783 27.534671-29.172809l1.376718-3.158713 4.07383-.051744 5.585129 3.951332 3.028082 3.086978-.672907 1.48175-5.536634-1.1052c-18.124302 19.592722-27.612627 29.697781-28.464976 30.315176-.852349.617396-6.988621 4.871273-18.408816 12.76163zm-507.6093753 309.641667 11.6284646-18.1084c.6813185-.905514 9.97427-10.629783 27.8788544-29.172809l1.3939272-3.158713 4.1247524-.051745 5.6549433 3.951333 3.0659331 3.086978-.6813185 1.481749-5.6058419-1.1052c-18.3508553 19.592722-27.9577846 29.697781-28.820788 30.315177s-7.0759789 4.871272-18.6389266 12.76163zm507.6093753-164.858333 11.484903-18.326574c.672907-.916423 9.851131-10.757853 27.534671-29.524289l1.376718-3.19677 4.07383-.052367 5.585129 3.998938 3.028082 3.124171-.672907 1.499602-5.536634-1.118516c-18.124302 19.828779-27.612627 30.055586-28.464976 30.68042s-6.988621 4.929962-18.408816 12.915385zm-453.8625003-296.2583337 11.4849033-18.1083999c.672907-.9055136 9.851131-10.6297834 27.534671-29.1728093l1.376718-3.1587132 4.07383-.0517442 5.585129 3.9513322 3.028082 3.0869783-.672907 1.4817496-5.536634-1.1052c-18.124302 19.592722-27.612627 29.6977808-28.464976 30.3151765s-6.9886211 4.8712723-18.4088163 12.76163zm-53.746875 303.5583337 11.6284646-18.1084c.6813185-.905514 9.97427-10.629784 27.8788544-29.17281l1.3939272-3.158713 4.1247524-.051744 5.6549433 3.951332 3.0659331 3.086979-.6813185 1.481749-5.6058419-1.1052c-18.3508553 19.592722-27.9577846 29.697781-28.820788 30.315177-.8630034.617395-7.0759789 4.871272-18.6389266 12.76163zm338.4062503-101.591667 11.628464-18.1084c.681319-.905514 9.97427-10.629783 27.878855-29.172809l1.393927-3.158713 4.124752-.051745 5.654944 3.951333 3.065933 3.086978-.681319 1.481749-5.605842-1.1052c-18.350855 19.592722-27.957784 29.697781-28.820788 30.315177-.863003.617396-7.075979 4.871272-18.638926 12.76163zm9.289583 253.066667 11.484903-18.1084c.672908-.905514 9.851131-10.629784 27.534671-29.17281l1.376719-3.158713 4.073829-.051744 5.585129 3.951332 3.028082 3.086979-.672907 1.481749-5.536634-1.1052c-18.124301 19.592722-27.612627 29.697781-28.464976 30.315177-.852349.617395-6.988621 4.871272-18.408816 12.76163zm299.920833-420.358334 11.484904-18.1084c.672907-.905513 9.851131-10.629783 27.534671-29.1728089l1.376718-3.1587132 4.073829-.0517442 5.58513 3.9513322 3.028082 3.0869783-.672907 1.4817496-5.536634-1.1052c-18.124302 19.5927222-27.612627 29.6977812-28.464976 30.3151762-.852349.617396-6.988621 4.871273-18.408817 12.76163zm152.614584 413.666667 11.484903-18.1084c.672907-.905514 9.851131-10.629783 27.534671-29.172809l1.376718-3.158713 4.07383-.051745 5.585129 3.951333 3.028082 3.086978-.672907 1.481749-5.536634-1.1052c-18.124302 19.592722-27.612627 29.697781-28.464976 30.315177s-6.988621 4.871272-18.408816 12.76163zm172.520833-296.866667 11.4849-18.1084c.67291-.905513 9.85113-10.629783 27.53467-29.172809l1.37672-3.158713 4.07383-.051744 5.58513 3.951332 3.02808 3.086978-.6729 1.48175-5.53664-1.1052c-18.1243 19.592722-27.61262 29.697781-28.46497 30.315176-.85235.617396-6.98862 4.871273-18.40882 12.76163zm116.11979-100.983333 11.48491-18.1084c.6729-.905514 9.85113-10.629783 27.53467-29.1728092l1.37671-3.1587133 4.07383-.0517442 5.58513 3.9513323 3.02809 3.0869783-.67291 1.4817495-5.53664-1.1051999c-18.1243 19.5927215-27.61262 29.6977805-28.46497 30.3151765s-6.98862 4.871272-18.40882 12.76163zm-319.827082 100.983333 11.484904-18.1084c.672907-.905513 9.851131-10.629783 27.534671-29.172809l1.376718-3.158713 4.073829-.051744 5.58513 3.951332 3.028082 3.086978-.672907 1.48175-5.536634-1.1052c-18.124302 19.592722-27.612627 29.697781-28.464976 30.315176-.852349.617396-6.988621 4.871273-18.408817 12.76163zm-31.186458 195.883334 11.484903-18.326574c.672908-.916423 9.851131-10.757853 27.534671-29.524289l1.376719-3.19677 4.073829-.052367 5.585129 3.998938 3.028082 3.124171-.672907 1.499602-5.536634-1.118516c-18.124301 19.828779-27.612627 30.055586-28.464976 30.68042s-6.988621 4.929962-18.408816 12.915385zm-53.746875 208.05 11.628465-18.1084c.681318-.905514 9.97427-10.629784 27.878854-29.17281l1.393927-3.158713 4.124753-.051744 5.654943 3.951332 3.065933 3.086979-.681318 1.481749-5.605842-1.1052c-18.350856 19.592722-27.957785 29.697781-28.820788 30.315177-.863004.617395-7.075979 4.871272-18.638927 12.76163zm288.640625-605.9000003 11.4849-18.1084c.67291-.9055136 9.85113-10.62978337 27.53467-29.17280927l1.37672-3.15871323 4.07383-.0517442 5.58513 3.95133223 3.02808 3.0869783-.6729 1.48174958-5.53664-1.10519997c-18.1243 19.59272196-27.61262 29.69778086-28.46497 30.31517646-.85235.6173957-6.98862 4.8712724-18.40882 12.7616301zm59.05521 505.5250003 11.4849-18.1084c.67291-.905514 9.85113-10.629784 27.53467-29.17281l1.37672-3.158713 4.07383-.051744 5.58513 3.951332 3.02808 3.086979-.67291 1.481749-5.53663-1.1052c-18.1243 19.592722-27.61263 29.697781-28.46498 30.315177-.85234.617395-6.98862 4.871272-18.40881 12.76163zm53.08333-201.966667 11.48491-18.1084c.6729-.905514 9.85113-10.629783 27.53467-29.172809l1.37671-3.158713 4.07383-.051745 5.58513 3.951333 3.02809 3.086978-.67291 1.481749-5.53664-1.1052c-18.1243 19.592722-27.61262 29.697781-28.46497 30.315177s-6.98862 4.871272-18.40882 12.76163zm53.08334 258.541667 11.62846-18.1084c.68132-.905514 9.97427-10.629784 27.87885-29.17281l1.39393-3.158713 4.12475-.051744 5.65495 3.951332 3.06593 3.086979-.68132 1.481749-5.60584-1.1052c-18.35086 19.592722-27.95778 29.697781-28.82079 30.315177-.863.617395-7.07598 4.871272-18.63892 12.76163zm-315.845838-527.4250003 11.484903-18.3265735c.672907-.9164234 9.851131-10.757853 27.534671-29.5242889l1.376718-3.19677 4.07383-.0523676 5.585129 3.9989386 3.028082 3.1241708-.672907 1.499602-5.536634-1.1185156c-18.124302 19.8287789-27.612627 30.0555854-28.464976 30.6804196-.852349.6248341-6.988621 4.9299623-18.408816 12.9153846zm959.481248-34.675 11.48491-18.1084c.6729-.9055136 9.85113-10.62978337 27.53467-29.17280927l1.37671-3.15871323 4.07383-.0517442 5.58513 3.95133223 3.02808 3.0869783-.6729 1.48174958-5.53664-1.10519997c-18.1243 19.59272196-27.61262 29.69778086-28.46497 30.31517646-.85235.6173957-6.98862 4.8712724-18.40882 12.7616301zm-338.40625 404.5416663 11.48491-18.1084c.6729-.905513 9.85113-10.629783 27.53467-29.172809l1.37671-3.158713 4.07383-.051744 5.58513 3.951332 3.02808 3.086978-.6729 1.48175-5.53664-1.1052c-18.1243 19.592722-27.61262 29.697781-28.46497 30.315176-.85235.617396-6.98862 4.871273-18.40882 12.76163zm0 201.966667 11.48491-18.1084c.6729-.905514 9.85113-10.629783 27.53467-29.172809l1.37671-3.158713 4.07383-.051745 5.58513 3.951333 3.02808 3.086978-.6729 1.481749-5.53664-1.1052c-18.1243 19.592722-27.61262 29.697781-28.46497 30.315177s-6.98862 4.871272-18.40882 12.76163zm0-404.541667 11.48491-18.1084c.6729-.905513 9.85113-10.629783 27.53467-29.172809l1.37671-3.158713 4.07383-.051744 5.58513 3.951332 3.02808 3.086978-.6729 1.48175-5.53664-1.1052c-18.1243 19.592722-27.61262 29.697781-28.46497 30.315176-.85235.617396-6.98862 4.871273-18.40882 12.76163zm284.65938 360.133334 11.62846-18.1084c.68132-.905514 9.97427-10.629784 27.87886-29.17281l1.39392-3.158713 4.12476-.051744 5.65494 3.951332 3.06593 3.086979-.68132 1.481749-5.60584-1.1052c-18.35085 19.592722-27.95778 29.697781-28.82079 30.315177-.863.617395-7.07598 4.871272-18.63892 12.76163zm-168.53959-476.933334 11.48491-18.1084c.6729-.905513 9.85113-10.629783 27.53467-29.1728089l1.37672-3.1587132 4.07383-.0517442 5.58512 3.9513322 3.02809 3.0869783-.67291 1.4817496-5.53663-1.1052c-18.12431 19.5927222-27.61263 29.6977812-28.46498 30.3151762-.85235.617396-6.98862 4.871273-18.40882 12.76163zm-319.82708 66.308334 11.4849-18.1084c.67291-.905514 9.85113-10.629784 27.53467-29.17281l1.37672-3.158713 4.07383-.051744 5.58513 3.951332 3.02808 3.086979-.6729 1.481749-5.53664-1.1052c-18.1243 19.592722-27.61262 29.697781-28.46497 30.315177-.85235.617395-6.98862 4.871272-18.40882 12.76163zm542.11354 50.491666 11.48491-18.1084c.6729-.905513 9.85113-10.629783 27.53467-29.172809l1.37671-3.158713 4.07383-.051744 5.58513 3.951332 3.02808 3.086978-.6729 1.48175-5.53664-1.1052c-18.1243 19.592722-27.61262 29.697781-28.46497 30.315176-.85235.617396-6.98862 4.871273-18.40882 12.76163zm-507.60937 309.641667 11.62846-18.1084c.68132-.905514 9.97427-10.629783 27.87886-29.172809l1.39392-3.158713 4.12476-.051745 5.65494 3.951333 3.06593 3.086978-.68132 1.481749-5.60584-1.1052c-18.35085 19.592722-27.95778 29.697781-28.82079 30.315177-.863.617396-7.07598 4.871272-18.63892 12.76163zm507.60937-164.858333 11.48491-18.326574c.6729-.916423 9.85113-10.757853 27.53467-29.524289l1.37671-3.19677 4.07383-.052367 5.58513 3.998938 3.02808 3.124171-.6729 1.499602-5.53664-1.118516c-18.1243 19.828779-27.61262 30.055586-28.46497 30.68042s-6.98862 4.929962-18.40882 12.915385zm-453.8625-296.2583337 11.48491-18.1083999c.6729-.9055136 9.85113-10.6297834 27.53467-29.1728093l1.37671-3.1587132 4.07383-.0517442 5.58513 3.9513322 3.02808 3.0869783-.6729 1.4817496-5.53664-1.1052c-18.1243 19.592722-27.61262 29.6977808-28.46497 30.3151765s-6.98862 4.8712723-18.40882 12.76163zm-53.74687 303.5583337 11.62846-18.1084c.68132-.905514 9.97427-10.629784 27.87886-29.17281l1.39392-3.158713 4.12476-.051744 5.65494 3.951332 3.06593 3.086979-.68132 1.481749-5.60584-1.1052c-18.35085 19.592722-27.95778 29.697781-28.82079 30.315177-.863.617395-7.07598 4.871272-18.63892 12.76163zm338.40625-101.591667 11.62846-18.1084c.68132-.905514 9.97427-10.629783 27.87886-29.172809l1.39392-3.158713 4.12476-.051745 5.65494 3.951333 3.06593 3.086978-.68132 1.481749-5.60584-1.1052c-18.35085 19.592722-27.95778 29.697781-28.82079 30.315177-.863.617396-7.07598 4.871272-18.63892 12.76163zm9.28958 253.066667 11.4849-18.1084c.67291-.905514 9.85113-10.629784 27.53467-29.17281l1.37672-3.158713 4.07383-.051744 5.58513 3.951332 3.02808 3.086979-.6729 1.481749-5.53664-1.1052c-18.1243 19.592722-27.61262 29.697781-28.46497 30.315177-.85235.617395-6.98862 4.871272-18.40882 12.76163zm299.92083-420.358334 11.48491-18.1084c.6729-.905513 9.85113-10.629783 27.53467-29.1728089l1.37672-3.1587132 4.07383-.0517442 5.58512 3.9513322 3.02809 3.0869783-.67291 1.4817496-5.53663-1.1052c-18.12431 19.5927222-27.61263 29.6977812-28.46498 30.3151762-.85235.617396-6.98862 4.871273-18.40882 12.76163zm152.61459 413.666667 11.4849-18.1084c.67291-.905514 9.85113-10.629783 27.53467-29.172809l1.37672-3.158713 4.07383-.051745 5.58513 3.951333 3.02808 3.086978-.67291 1.481749-5.53663-1.1052c-18.1243 19.592722-27.61263 29.697781-28.46498 30.315177s-6.98862 4.871272-18.40881 12.76163zm172.52083-296.866667 11.4849-18.1084c.67291-.905513 9.85113-10.629783 27.53467-29.172809l1.37672-3.158713 4.07383-.051744 5.58513 3.951332 3.02808 3.086978-.6729 1.48175-5.53664-1.1052c-18.1243 19.592722-27.61262 29.697781-28.46497 30.315176-.85235.617396-6.98862 4.871273-18.40882 12.76163zm116.11979-100.983333 11.48491-18.1084c.6729-.905514 9.85113-10.629783 27.53467-29.1728092l1.37671-3.1587133 4.07383-.0517442 5.58513 3.9513323 3.02808 3.0869783-.6729 1.4817495-5.53664-1.1051999c-18.1243 19.5927215-27.61262 29.6977805-28.46497 30.3151765s-6.98862 4.871272-18.40882 12.76163zm-319.82708 100.983333 11.4849-18.1084c.67291-.905513 9.85113-10.629783 27.53467-29.172809l1.37672-3.158713 4.07383-.051744 5.58513 3.951332 3.02808 3.086978-.67291 1.48175-5.53663-1.1052c-18.1243 19.592722-27.61263 29.697781-28.46498 30.315176-.85234.617396-6.98862 4.871273-18.40881 12.76163zm-31.18646 195.883334 11.4849-18.326574c.67291-.916423 9.85113-10.757853 27.53467-29.524289l1.37672-3.19677 4.07383-.052367 5.58513 3.998938 3.02808 3.124171-.6729 1.499602-5.53664-1.118516c-18.1243 19.828779-27.61262 30.055586-28.46497 30.68042s-6.98862 4.929962-18.40882 12.915385zm-53.74688 208.05 11.62847-18.1084c.68132-.905514 9.97427-10.629784 27.87885-29.17281l1.39393-3.158713 4.12475-.051744 5.65495 3.951332 3.06593 3.086979-.68132 1.481749-5.60584-1.1052c-18.35086 19.592722-27.95778 29.697781-28.82079 30.315177-.863.617395-7.07598 4.871272-18.63893 12.76163zm288.64063-605.9000003 11.4849-18.1084c.67291-.9055136 9.85113-10.62978337 27.53467-29.17280927l1.37672-3.15871323 4.07383-.0517442 5.58513 3.95133223 3.02808 3.0869783-.6729 1.48174958-5.53664-1.10519997c-18.1243 19.59272196-27.61262 29.69778086-28.46497 30.31517646-.85235.6173957-6.98862 4.8712724-18.40882 12.7616301zm59.05521 505.5250003 11.4849-18.1084c.67291-.905514 9.85113-10.629784 27.53467-29.17281l1.37672-3.158713 4.07383-.051744 5.58513 3.951332 3.02808 3.086979-.67291 1.481749-5.53663-1.1052c-18.1243 19.592722-27.61263 29.697781-28.46498 30.315177-.85234.617395-6.98862 4.871272-18.40881 12.76163zm53.08333-201.966667 11.48491-18.1084c.6729-.905514 9.85113-10.629783 27.53467-29.172809l1.37671-3.158713 4.07383-.051745 5.58513 3.951333 3.02808 3.086978-.6729 1.481749-5.53664-1.1052c-18.1243 19.592722-27.61262 29.697781-28.46497 30.315177s-6.98862 4.871272-18.40882 12.76163zm53.08333 258.541667 11.62847-18.1084c.68132-.905514 9.97427-10.629784 27.87885-29.17281l1.39393-3.158713 4.12475-.051744 5.65495 3.951332 3.06593 3.086979-.68132 1.481749-5.60584-1.1052c-18.35086 19.592722-27.95778 29.697781-28.82079 30.315177-.863.617395-7.07598 4.871272-18.63893 12.76163zm-315.84583-527.4250003 11.48491-18.3265735c.6729-.9164234 9.85113-10.757853 27.53467-29.5242889l1.37671-3.19677 4.07383-.0523676 5.58513 3.9989386 3.02808 3.1241708-.6729 1.499602-5.53664-1.1185156c-18.1243 19.8287789-27.61262 30.0555854-28.46497 30.6804196-.85235.6248341-6.98862 4.9299623-18.40882 12.9153846zm-1588.518748 622.3250003 11.484903-18.1084c.672907-.905514 9.851131-10.629784 27.534671-29.17281l1.376718-3.158713 4.07383-.051744 5.585129 3.951332 3.028082 3.086979-.672907 1.481749-5.536634-1.1052c-18.124302 19.592722-27.612627 29.697781-28.464976 30.315177-.852349.617395-6.988621 4.871272-18.408816 12.76163zm-338.40625 404.541663 11.484903-18.1084c.672907-.90551 9.851131-10.62978 27.534671-29.17281l1.376718-3.15871 4.07383-.05174 5.585129 3.95133 3.028082 3.08698-.672907 1.48175-5.536634-1.1052c-18.124302 19.59272-27.612627 29.69778-28.464976 30.31517-.852349.6174-6.988621 4.87128-18.408816 12.76163zm0 201.96667 11.484903-18.1084c.672907-.90551 9.851131-10.62978 27.534671-29.17281l1.376718-3.15871 4.07383-.05175 5.585129 3.95134 3.028082 3.08697-.672907 1.48175-5.536634-1.1052c-18.124302 19.59273-27.612627 29.69778-28.464976 30.31518s-6.988621 4.87127-18.408816 12.76163zm0-404.541667 11.484903-18.1084c.672907-.905513 9.851131-10.629783 27.534671-29.172809l1.376718-3.158713 4.07383-.051744 5.585129 3.951332 3.028082 3.086978-.672907 1.48175-5.536634-1.1052c-18.124302 19.592722-27.612627 29.697781-28.464976 30.315176-.852349.617396-6.988621 4.871273-18.408816 12.76163zm284.659375 360.133337 11.628464-18.1084c.681319-.90552 9.97427-10.62979 27.878855-29.17281l1.393927-3.15872 4.124752-.05174 5.654944 3.95133 3.065933 3.08698-.681319 1.48175-5.605842-1.1052c-18.350855 19.59272-27.957784 29.69778-28.820788 30.31518-.863003.61739-7.075979 4.87127-18.638926 12.76163zm-168.539584-476.933337 11.484904-18.1084c.672907-.905513 9.851131-10.629783 27.534671-29.172809l1.376718-3.158713 4.073829-.051744 5.58513 3.951332 3.028082 3.086978-.672907 1.48175-5.536634-1.1052c-18.124302 19.592722-27.612627 29.697781-28.464976 30.315176-.852349.617396-6.988621 4.871273-18.408817 12.76163zm-319.827083 66.308334 11.4849034-18.1084c.6729071-.905514 9.8511308-10.629784 27.534671-29.17281l1.3767182-3.158713 4.0738295-.051744 5.5851292 3.951332 3.028082 3.086979-.6729071 1.481749-5.5366339-1.1052c-18.1243016 19.592722-27.6126268 29.697781-28.4649759 30.315177-.852349.617395-6.9886211 4.871272-18.4088164 12.76163zm542.113542 50.491666 11.484903-18.1084c.672907-.905513 9.851131-10.629783 27.534671-29.172809l1.376718-3.158713 4.07383-.051744 5.585129 3.951332 3.028082 3.086978-.672907 1.48175-5.536634-1.1052c-18.124302 19.592722-27.612627 29.697781-28.464976 30.315176-.852349.617396-6.988621 4.871273-18.408816 12.76163zm-507.6093753 309.641667 11.6284646-18.1084c.6813185-.90551 9.97427-10.62978 27.8788544-29.17281l1.3939272-3.15871 4.1247524-.05175 5.6549433 3.95134 3.0659331 3.08697-.6813185 1.48175-5.6058419-1.1052c-18.3508553 19.59273-27.9577846 29.69778-28.820788 30.31518s-7.0759789 4.87127-18.6389266 12.76163zm507.6093753-164.85833 11.484903-18.32658c.672907-.91642 9.851131-10.75785 27.534671-29.524286l1.376718-3.19677 4.07383-.052367 5.585129 3.998938 3.028082 3.124171-.672907 1.499602-5.536634-1.118516c-18.124302 19.828778-27.612627 30.055588-28.464976 30.680418-.852349.62484-6.988621 4.92996-18.408816 12.91539zm-453.8625003-296.258337 11.4849033-18.1084c.672907-.905513 9.851131-10.629783 27.534671-29.172809l1.376718-3.158713 4.07383-.051744 5.585129 3.951332 3.028082 3.086978-.672907 1.48175-5.536634-1.1052c-18.124302 19.592722-27.612627 29.697781-28.464976 30.315176-.852349.617396-6.9886211 4.871273-18.4088163 12.76163zm-53.746875 303.558337 11.6284646-18.1084c.6813185-.90552 9.97427-10.62979 27.8788544-29.17281l1.3939272-3.158716 4.1247524-.051744 5.6549433 3.95133 3.0659331 3.08698-.6813185 1.48175-5.6058419-1.1052c-18.3508553 19.59272-27.9577846 29.69778-28.820788 30.31518-.8630034.61739-7.0759789 4.87127-18.6389266 12.76163zm338.4062503-101.59167 11.628464-18.1084c.681319-.905514 9.97427-10.629783 27.878855-29.172809l1.393927-3.158713 4.124752-.051745 5.654944 3.951333 3.065933 3.086978-.681319 1.481749-5.605842-1.1052c-18.350855 19.592722-27.957784 29.697781-28.820788 30.315177-.863003.617396-7.075979 4.871272-18.638926 12.76163zm9.289583 253.06667 11.484903-18.1084c.672908-.90552 9.851131-10.62979 27.534671-29.17281l1.376719-3.15872 4.073829-.05174 5.585129 3.95133 3.028082 3.08698-.672907 1.48175-5.536634-1.1052c-18.124301 19.59272-27.612627 29.69778-28.464976 30.31518-.852349.61739-6.988621 4.87127-18.408816 12.76163zm299.920833-420.358337 11.484904-18.1084c.672907-.905513 9.851131-10.629783 27.534671-29.172809l1.376718-3.158713 4.073829-.051744 5.58513 3.951332 3.028082 3.086978-.672907 1.48175-5.536634-1.1052c-18.124302 19.592722-27.612627 29.697781-28.464976 30.315176-.852349.617396-6.988621 4.871273-18.408817 12.76163zm152.614584 413.666667 11.484903-18.1084c.672907-.90551 9.851131-10.62978 27.534671-29.17281l1.376718-3.15871 4.07383-.05175 5.585129 3.95134 3.028082 3.08697-.672907 1.48175-5.536634-1.1052c-18.124302 19.59273-27.612627 29.69778-28.464976 30.31518s-6.988621 4.87127-18.408816 12.76163zm172.520833-296.866667 11.4849-18.1084c.67291-.905513 9.85113-10.629783 27.53467-29.172809l1.37672-3.158713 4.07383-.051744 5.58513 3.951332 3.02808 3.086978-.6729 1.48175-5.53664-1.1052c-18.1243 19.592722-27.61262 29.697781-28.46497 30.315176-.85235.617396-6.98862 4.871273-18.40882 12.76163zm116.11979-100.983333 11.48491-18.1084c.6729-.905514 9.85113-10.629783 27.53467-29.172809l1.37671-3.158713 4.07383-.051745 5.58513 3.951333 3.02809 3.086978-.67291 1.481749-5.53664-1.1052c-18.1243 19.592722-27.61262 29.697781-28.46497 30.315177s-6.98862 4.871272-18.40882 12.76163zm-319.827082 100.983333 11.484904-18.1084c.672907-.905513 9.851131-10.629783 27.534671-29.172809l1.376718-3.158713 4.073829-.051744 5.58513 3.951332 3.028082 3.086978-.672907 1.48175-5.536634-1.1052c-18.124302 19.592722-27.612627 29.697781-28.464976 30.315176-.852349.617396-6.988621 4.871273-18.408817 12.76163zm-31.186458 195.883337 11.484903-18.32658c.672908-.91642 9.851131-10.75785 27.534671-29.52429l1.376719-3.19677 4.073829-.05236 5.585129 3.99894 3.028082 3.12417-.672907 1.4996-5.536634-1.11852c-18.124301 19.82878-27.612627 30.05559-28.464976 30.68042-.852349.62484-6.988621 4.92996-18.408816 12.91539zm-53.746875 208.05 11.628465-18.1084c.681318-.90552 9.97427-10.62979 27.878854-29.17281l1.393927-3.15872 4.124753-.05174 5.654943 3.95133 3.065933 3.08698-.681318 1.48175-5.605842-1.1052c-18.350856 19.59272-27.957785 29.69778-28.820788 30.31518-.863004.61739-7.075979 4.87127-18.638927 12.76163zm288.640625-605.900003 11.4849-18.1084c.67291-.905514 9.85113-10.629784 27.53467-29.17281l1.37672-3.158713 4.07383-.051744 5.58513 3.951332 3.02808 3.086979-.6729 1.481749-5.53664-1.1052c-18.1243 19.592722-27.61262 29.697781-28.46497 30.315177-.85235.617395-6.98862 4.871272-18.40882 12.76163zm59.05521 505.525003 11.4849-18.1084c.67291-.90552 9.85113-10.62979 27.53467-29.17281l1.37672-3.15872 4.07383-.05174 5.58513 3.95133 3.02808 3.08698-.67291 1.48175-5.53663-1.1052c-18.1243 19.59272-27.61263 29.69778-28.46498 30.31518-.85234.61739-6.98862 4.87127-18.40881 12.76163zm53.08333-201.96667 11.48491-18.1084c.6729-.905514 9.85113-10.629783 27.53467-29.172809l1.37671-3.158713 4.07383-.051745 5.58513 3.951333 3.02809 3.086978-.67291 1.481749-5.53664-1.1052c-18.1243 19.592722-27.61262 29.697781-28.46497 30.315177s-6.98862 4.871272-18.40882 12.76163zm53.08334 258.54167 11.62846-18.1084c.68132-.90552 9.97427-10.62979 27.87885-29.17281l1.39393-3.15872 4.12475-.05174 5.65495 3.95133 3.06593 3.08698-.68132 1.48175-5.60584-1.1052c-18.35086 19.59272-27.95778 29.69778-28.82079 30.31518-.863.61739-7.07598 4.87127-18.63892 12.76163zm-315.845838-527.425003 11.484903-18.326574c.672907-.916423 9.851131-10.757853 27.534671-29.524289l1.376718-3.19677 4.07383-.052367 5.585129 3.998938 3.028082 3.124171-.672907 1.499602-5.536634-1.118516c-18.124302 19.828779-27.612627 30.055586-28.464976 30.68042s-6.988621 4.929962-18.408816 12.915385zm959.481248-34.675 11.48491-18.1084c.6729-.905514 9.85113-10.629784 27.53467-29.17281l1.37671-3.158713 4.07383-.051744 5.58513 3.951332 3.02808 3.086979-.6729 1.481749-5.53664-1.1052c-18.1243 19.592722-27.61262 29.697781-28.46497 30.315177-.85235.617395-6.98862 4.871272-18.40882 12.76163zm-338.40625 404.541663 11.48491-18.1084c.6729-.90551 9.85113-10.62978 27.53467-29.17281l1.37671-3.15871 4.07383-.05174 5.58513 3.95133 3.02808 3.08698-.6729 1.48175-5.53664-1.1052c-18.1243 19.59272-27.61262 29.69778-28.46497 30.31517-.85235.6174-6.98862 4.87128-18.40882 12.76163zm0 201.96667 11.48491-18.1084c.6729-.90551 9.85113-10.62978 27.53467-29.17281l1.37671-3.15871 4.07383-.05175 5.58513 3.95134 3.02808 3.08697-.6729 1.48175-5.53664-1.1052c-18.1243 19.59273-27.61262 29.69778-28.46497 30.31518s-6.98862 4.87127-18.40882 12.76163zm0-404.541667 11.48491-18.1084c.6729-.905513 9.85113-10.629783 27.53467-29.172809l1.37671-3.158713 4.07383-.051744 5.58513 3.951332 3.02808 3.086978-.6729 1.48175-5.53664-1.1052c-18.1243 19.592722-27.61262 29.697781-28.46497 30.315176-.85235.617396-6.98862 4.871273-18.40882 12.76163zm284.65938 360.133337 11.62846-18.1084c.68132-.90552 9.97427-10.62979 27.87886-29.17281l1.39392-3.15872 4.12476-.05174 5.65494 3.95133 3.06593 3.08698-.68132 1.48175-5.60584-1.1052c-18.35085 19.59272-27.95778 29.69778-28.82079 30.31518-.863.61739-7.07598 4.87127-18.63892 12.76163zm-168.53959-476.933337 11.48491-18.1084c.6729-.905513 9.85113-10.629783 27.53467-29.172809l1.37672-3.158713 4.07383-.051744 5.58512 3.951332 3.02809 3.086978-.67291 1.48175-5.53663-1.1052c-18.12431 19.592722-27.61263 29.697781-28.46498 30.315176-.85235.617396-6.98862 4.871273-18.40882 12.76163zm-319.82708 66.308334 11.4849-18.1084c.67291-.905514 9.85113-10.629784 27.53467-29.17281l1.37672-3.158713 4.07383-.051744 5.58513 3.951332 3.02808 3.086979-.6729 1.481749-5.53664-1.1052c-18.1243 19.592722-27.61262 29.697781-28.46497 30.315177-.85235.617395-6.98862 4.871272-18.40882 12.76163zm542.11354 50.491666 11.48491-18.1084c.6729-.905513 9.85113-10.629783 27.53467-29.172809l1.37671-3.158713 4.07383-.051744 5.58513 3.951332 3.02808 3.086978-.6729 1.48175-5.53664-1.1052c-18.1243 19.592722-27.61262 29.697781-28.46497 30.315176-.85235.617396-6.98862 4.871273-18.40882 12.76163zm-507.60937 309.641667 11.62846-18.1084c.68132-.90551 9.97427-10.62978 27.87886-29.17281l1.39392-3.15871 4.12476-.05175 5.65494 3.95134 3.06593 3.08697-.68132 1.48175-5.60584-1.1052c-18.35085 19.59273-27.95778 29.69778-28.82079 30.31518-.863.6174-7.07598 4.87127-18.63892 12.76163zm507.60937-164.85833 11.48491-18.32658c.6729-.91642 9.85113-10.75785 27.53467-29.524286l1.37671-3.19677 4.07383-.052367 5.58513 3.998938 3.02808 3.124171-.6729 1.499602-5.53664-1.118516c-18.1243 19.828778-27.61262 30.055588-28.46497 30.680418-.85235.62484-6.98862 4.92996-18.40882 12.91539zm-453.8625-296.258337 11.48491-18.1084c.6729-.905513 9.85113-10.629783 27.53467-29.172809l1.37671-3.158713 4.07383-.051744 5.58513 3.951332 3.02808 3.086978-.6729 1.48175-5.53664-1.1052c-18.1243 19.592722-27.61262 29.697781-28.46497 30.315176-.85235.617396-6.98862 4.871273-18.40882 12.76163zm-53.74687 303.558337 11.62846-18.1084c.68132-.90552 9.97427-10.62979 27.87886-29.17281l1.39392-3.158716 4.12476-.051744 5.65494 3.95133 3.06593 3.08698-.68132 1.48175-5.60584-1.1052c-18.35085 19.59272-27.95778 29.69778-28.82079 30.31518-.863.61739-7.07598 4.87127-18.63892 12.76163zm338.40625-101.59167 11.62846-18.1084c.68132-.905514 9.97427-10.629783 27.87886-29.172809l1.39392-3.158713 4.12476-.051745 5.65494 3.951333 3.06593 3.086978-.68132 1.481749-5.60584-1.1052c-18.35085 19.592722-27.95778 29.697781-28.82079 30.315177-.863.617396-7.07598 4.871272-18.63892 12.76163zm9.28958 253.06667 11.4849-18.1084c.67291-.90552 9.85113-10.62979 27.53467-29.17281l1.37672-3.15872 4.07383-.05174 5.58513 3.95133 3.02808 3.08698-.6729 1.48175-5.53664-1.1052c-18.1243 19.59272-27.61262 29.69778-28.46497 30.31518-.85235.61739-6.98862 4.87127-18.40882 12.76163zm299.92083-420.358337 11.48491-18.1084c.6729-.905513 9.85113-10.629783 27.53467-29.172809l1.37672-3.158713 4.07383-.051744 5.58512 3.951332 3.02809 3.086978-.67291 1.48175-5.53663-1.1052c-18.12431 19.592722-27.61263 29.697781-28.46498 30.315176-.85235.617396-6.98862 4.871273-18.40882 12.76163zm152.61459 413.666667 11.4849-18.1084c.67291-.90551 9.85113-10.62978 27.53467-29.17281l1.37672-3.15871 4.07383-.05175 5.58513 3.95134 3.02808 3.08697-.67291 1.48175-5.53663-1.1052c-18.1243 19.59273-27.61263 29.69778-28.46498 30.31518s-6.98862 4.87127-18.40881 12.76163zm172.52083-296.866667 11.4849-18.1084c.67291-.905513 9.85113-10.629783 27.53467-29.172809l1.37672-3.158713 4.07383-.051744 5.58513 3.951332 3.02808 3.086978-.6729 1.48175-5.53664-1.1052c-18.1243 19.592722-27.61262 29.697781-28.46497 30.315176-.85235.617396-6.98862 4.871273-18.40882 12.76163zm116.11979-100.983333 11.48491-18.1084c.6729-.905514 9.85113-10.629783 27.53467-29.172809l1.37671-3.158713 4.07383-.051745 5.58513 3.951333 3.02808 3.086978-.6729 1.481749-5.53664-1.1052c-18.1243 19.592722-27.61262 29.697781-28.46497 30.315177s-6.98862 4.871272-18.40882 12.76163zm-319.82708 100.983333 11.4849-18.1084c.67291-.905513 9.85113-10.629783 27.53467-29.172809l1.37672-3.158713 4.07383-.051744 5.58513 3.951332 3.02808 3.086978-.67291 1.48175-5.53663-1.1052c-18.1243 19.592722-27.61263 29.697781-28.46498 30.315176-.85234.617396-6.98862 4.871273-18.40881 12.76163zm-31.18646 195.883337 11.4849-18.32658c.67291-.91642 9.85113-10.75785 27.53467-29.52429l1.37672-3.19677 4.07383-.05236 5.58513 3.99894 3.02808 3.12417-.6729 1.4996-5.53664-1.11852c-18.1243 19.82878-27.61262 30.05559-28.46497 30.68042-.85235.62484-6.98862 4.92996-18.40882 12.91539zm-53.74688 208.05 11.62847-18.1084c.68132-.90552 9.97427-10.62979 27.87885-29.17281l1.39393-3.15872 4.12475-.05174 5.65495 3.95133 3.06593 3.08698-.68132 1.48175-5.60584-1.1052c-18.35086 19.59272-27.95778 29.69778-28.82079 30.31518-.863.61739-7.07598 4.87127-18.63893 12.76163zm288.64063-605.900003 11.4849-18.1084c.67291-.905514 9.85113-10.629784 27.53467-29.17281l1.37672-3.158713 4.07383-.051744 5.58513 3.951332 3.02808 3.086979-.6729 1.481749-5.53664-1.1052c-18.1243 19.592722-27.61262 29.697781-28.46497 30.315177-.85235.617395-6.98862 4.871272-18.40882 12.76163zm59.05521 505.525003 11.4849-18.1084c.67291-.90552 9.85113-10.62979 27.53467-29.17281l1.37672-3.15872 4.07383-.05174 5.58513 3.95133 3.02808 3.08698-.67291 1.48175-5.53663-1.1052c-18.1243 19.59272-27.61263 29.69778-28.46498 30.31518-.85234.61739-6.98862 4.87127-18.40881 12.76163zm53.08333-201.96667 11.48491-18.1084c.6729-.905514 9.85113-10.629783 27.53467-29.172809l1.37671-3.158713 4.07383-.051745 5.58513 3.951333 3.02808 3.086978-.6729 1.481749-5.53664-1.1052c-18.1243 19.592722-27.61262 29.697781-28.46497 30.315177s-6.98862 4.871272-18.40882 12.76163zm53.08333 258.54167 11.62847-18.1084c.68132-.90552 9.97427-10.62979 27.87885-29.17281l1.39393-3.15872 4.12475-.05174 5.65495 3.95133 3.06593 3.08698-.68132 1.48175-5.60584-1.1052c-18.35086 19.59272-27.95778 29.69778-28.82079 30.31518-.863.61739-7.07598 4.87127-18.63893 12.76163zm-315.84583-527.425003 11.48491-18.326574c.6729-.916423 9.85113-10.757853 27.53467-29.524289l1.37671-3.19677 4.07383-.052367 5.58513 3.998938 3.02808 3.124171-.6729 1.499602-5.53664-1.118516c-18.1243 19.828779-27.61262 30.055586-28.46497 30.68042s-6.98862 4.929962-18.40882 12.915385z" fill="url(#c)" fill-rule="nonzero" mask="url(#d)" opacity=".15"/></g></svg>